<svg width="78" height="64" viewBox="0 0 78 64" fill="none" xmlns="http://www.w3.org/2000/svg">
<path d="M0.0876573 34.7647L0.686172 29.283C0.566469 30.2363 0.60637 31.2294 0.726073 32.2224C2.36201 43.2653 14.8909 47.1581 15.5293 47.3567L14.9308 52.8384C14.2525 52.6398 1.7635 48.747 0.127558 37.7041C0.00785468 36.7111 -0.0320457 35.718 0.0876573 34.7647Z" fill="#C4C4C4"/>
<path d="M15.5668 47.3965L14.9683 52.8782C14.9284 52.8782 14.8885 52.8385 14.8486 52.8385L15.4471 47.3568C15.487 47.3568 15.5269 47.3965 15.5668 47.3965Z" fill="#C4C4C4"/>
<path d="M15.4073 47.3588L14.8088 52.8405C13.3325 52.3639 1.68137 48.3519 0.125227 37.746C-0.0343775 36.7529 -0.0343769 35.7599 0.0853261 34.8065L0.683841 29.3248C0.564138 30.2782 0.604039 31.2712 0.723742 32.2643C2.31978 42.8702 13.931 46.8822 15.4073 47.3588Z" fill="#C4C4C4"/>
<path d="M77.8524 33.2552L77.2539 38.737C76.1367 48.9854 61.2137 57.2079 41.7819 57.7243C36.5948 57.8435 27.4175 56.6121 26.9387 56.5326L27.5372 51.0509C28.016 51.1304 37.1933 52.3618 42.3804 52.2426C61.8122 51.7262 76.7352 43.5037 77.8524 33.2552Z" fill="#C4C4C4"/>
<path d="M77.8525 33.2554L77.254 38.7371C77.1742 39.5316 77.0146 40.2863 76.7751 41.041L77.3737 35.5593C77.6131 34.8046 77.7727 34.0102 77.8525 33.2554Z" fill="#C4C4C4"/>
<path d="M77.3338 35.5594L76.7353 41.0411C76.2564 42.5505 75.4584 44.0203 74.3811 45.4106L74.9796 39.9289C76.0569 38.5386 76.855 37.0688 77.3338 35.5594Z" fill="#C4C4C4"/>
<path d="M74.9796 39.9288L74.3811 45.4105C70.6304 50.2566 63.5679 54.1097 54.5503 56.1753L55.1488 50.6936C64.1664 48.628 71.2688 44.7352 74.9796 39.9288Z" fill="#C4C4C4"/>
<path d="M55.1489 50.6539L54.5503 56.1356C50.6001 57.0095 46.2908 57.5656 41.7421 57.6848C41.7022 57.6848 41.6224 57.6848 41.5825 57.6848L42.181 52.2031C42.2209 52.2031 42.3007 52.2031 42.3406 52.2031C46.9293 52.0839 51.2386 51.5675 55.1489 50.6539Z" fill="#C4C4C4"/>
<path d="M42.2208 52.2028L41.6223 57.6845C36.4352 57.8037 27.4175 56.5723 26.9387 56.4929L27.5372 51.0112C27.9761 51.0906 36.9938 52.322 42.2208 52.2028Z" fill="#C4C4C4"/>
<path d="M17.1631 58.5182L16.5645 63.9999L14.9685 52.8776L15.567 47.3959L17.1631 58.5182Z" fill="#D3D3D3"/>
<path d="M27.4973 51.011L26.8988 56.4927L16.5645 64.0002L17.163 58.5185L27.4973 51.011Z" fill="#E8E8E8"/>
<path d="M36.1557 10.3351C57.423 9.77894 76.0567 18.7562 77.7725 30.3155C79.4882 41.8747 63.6076 51.6862 42.3404 52.2423C37.1533 52.3615 27.976 51.1301 27.4972 51.0506L17.1629 58.5582L15.5269 47.4359C14.8486 47.2372 2.3596 43.3444 0.723656 32.3016C-0.952186 20.6629 14.8885 10.8514 36.1557 10.3351Z" fill="#FCFBFB"/>
<path d="M63.1688 22.6489C63.1688 22.6489 57.7423 47.396 26.3003 40.2856C26.3003 40.2856 21.1531 45.7673 20.8339 44.4962C20.6743 43.8209 25.5821 40.1268 25.5821 40.1268C25.5821 40.1268 27.7767 2.39039 63.1688 22.6489Z" fill="#B2C0A0"/>
<path d="M17.8012 36.5123C17.8012 36.5123 8.46435 -11.5916 59.4578 2.62902C59.4578 2.5893 60.5751 35.9165 17.8012 36.5123Z" fill="#749858"/>
<path d="M59.4179 2.62927C59.4179 2.62927 60.4953 35.4401 18.7189 36.5126C18.7189 36.5126 14.0106 45.0529 13.2126 43.5434C12.8136 42.7887 17.7613 36.5523 17.7613 36.5523C17.7613 36.5523 27.2577 9.50126 59.4179 2.62927Z" fill="#6E9153"/>
<path d="M44.1759 44.5763C43.9365 44.1791 44.0961 43.6627 44.535 43.4243C48.5251 41.5574 66.0018 35.0032 69.1539 34.9237C70.5106 34.884 72.3061 37.8632 71.3086 38.896C70.3909 39.8493 49.3231 44.6557 45.4527 45.5694C45.0936 45.6488 44.6946 45.4899 44.535 45.1721L44.1759 44.5763Z" fill="#B2C0A0"/>
<path d="M38.5099 45.0132C39.5872 44.1791 41.3827 44.0996 42.5 44.8543C43.6172 45.6091 43.6571 46.8802 42.5399 47.7144C41.4625 48.5485 39.667 48.628 38.5498 47.8732C37.4325 47.1185 37.4325 45.8474 38.5099 45.0132Z" fill="#B2C0A0"/>
</svg>
