<svg width="183" height="31" viewBox="0 0 183 31" fill="none" xmlns="http://www.w3.org/2000/svg">
<path d="M145.722 16.5184L146.002 13.9629C145.946 14.4073 145.965 14.8703 146.021 15.3333C146.786 20.4814 152.643 22.2962 152.941 22.3888L152.662 24.9444C152.344 24.8518 146.506 23.037 145.741 17.8888C145.685 17.4259 145.666 16.9629 145.722 16.5184Z" fill="#C4C4C4"/>
<path d="M152.96 22.4074L152.68 24.963C152.662 24.963 152.643 24.9445 152.625 24.9445L152.904 22.3889C152.923 22.3889 152.942 22.4074 152.96 22.4074Z" fill="#C4C4C4"/>
<path d="M152.886 22.3889L152.606 24.9444C151.916 24.7222 146.469 22.8518 145.741 17.9074C145.667 17.4444 145.667 16.9814 145.723 16.537L146.002 13.9814C145.946 14.4259 145.965 14.8889 146.021 15.3518C146.767 20.2963 152.195 22.1666 152.886 22.3889Z" fill="#C4C4C4"/>
<path d="M182.079 15.8148L181.799 18.3704C181.277 23.1482 174.3 26.9815 165.216 27.2222C162.791 27.2778 158.5 26.7037 158.276 26.6667L158.556 24.1111C158.78 24.1482 163.07 24.7222 165.495 24.6667C174.58 24.4259 181.557 20.5926 182.079 15.8148Z" fill="#C4C4C4"/>
<path d="M182.079 15.8148L181.799 18.3704C181.762 18.7408 181.687 19.0926 181.575 19.4445L181.855 16.8889C181.967 16.537 182.042 16.1667 182.079 15.8148Z" fill="#C4C4C4"/>
<path d="M181.836 16.8889L181.557 19.4445C181.333 20.1482 180.96 20.8334 180.456 21.4815L180.736 18.926C181.24 18.2778 181.613 17.5926 181.836 16.8889Z" fill="#C4C4C4"/>
<path d="M180.735 18.9259L180.456 21.4815C178.702 23.7407 175.4 25.537 171.185 26.5L171.464 23.9444C175.68 22.9815 179.001 21.1666 180.735 18.9259Z" fill="#C4C4C4"/>
<path d="M171.465 23.9259L171.185 26.4815C169.338 26.8889 167.324 27.1481 165.197 27.2037C165.179 27.2037 165.141 27.2037 165.123 27.2037L165.402 24.6481C165.421 24.6481 165.458 24.6481 165.477 24.6481C167.622 24.5926 169.637 24.3518 171.465 23.9259Z" fill="#C4C4C4"/>
<path d="M165.421 24.6482L165.141 27.2038C162.716 27.2593 158.5 26.6852 158.276 26.6482L158.556 24.0927C158.761 24.1297 162.977 24.7038 165.421 24.6482Z" fill="#C4C4C4"/>
<path d="M153.706 27.5925L153.426 30.1481L152.68 24.9629L152.96 22.4073L153.706 27.5925Z" fill="#D3D3D3"/>
<path d="M158.538 24.0925L158.258 26.6481L153.427 30.1481L153.707 27.5925L158.538 24.0925Z" fill="#E8E8E8"/>
<path d="M162.586 5.12959C172.529 4.87033 181.24 9.05551 182.042 14.4444C182.844 19.8333 175.42 24.4074 165.477 24.6666C163.052 24.7222 158.762 24.1481 158.538 24.1111L153.707 27.6111L152.942 22.4259C152.625 22.3333 146.786 20.5185 146.021 15.3703C145.238 9.9444 152.643 5.37033 162.586 5.12959Z" fill="#F8F8F8"/>
<path d="M175.215 10.8704C175.215 10.8704 172.678 22.4075 157.978 19.0927C157.978 19.0927 155.572 21.6482 155.423 21.0556C155.348 20.7408 157.643 19.0186 157.643 19.0186C157.643 19.0186 158.668 1.42599 175.215 10.8704Z" fill="#B2C0A0"/>
<path d="M154.005 17.3333C154.005 17.3333 149.64 -5.09258 173.48 1.53705C173.48 1.51853 174.002 17.0556 154.005 17.3333Z" fill="#749858"/>
<path d="M173.461 1.53711C173.461 1.53711 173.965 16.8334 154.434 17.3334C154.434 17.3334 152.233 21.3149 151.86 20.6112C151.673 20.2593 153.986 17.3519 153.986 17.3519C153.986 17.3519 158.426 4.74081 173.461 1.53711Z" fill="#6E9153"/>
<path d="M166.335 21.0926C166.223 20.9074 166.298 20.6667 166.503 20.5556C168.368 19.6852 176.539 16.6296 178.013 16.5926C178.647 16.5741 179.486 17.963 179.02 18.4444C178.591 18.8889 168.742 21.1296 166.932 21.5556C166.764 21.5926 166.578 21.5185 166.503 21.3704L166.335 21.0926Z" fill="#B2C0A0"/>
<path d="M163.686 21.2964C164.19 20.9075 165.029 20.8704 165.551 21.2223C166.074 21.5741 166.092 22.1667 165.57 22.5556C165.066 22.9445 164.227 22.9815 163.705 22.6297C163.182 22.2778 163.182 21.6852 163.686 21.2964Z" fill="#B2C0A0"/>
<path d="M9.912 20.256L10.944 24H15.624L10.8 7.824H5.016L0.336 24H4.824L5.736 20.256H9.912ZM6.312 17.064L7.008 14.16C7.224 13.248 7.464 11.904 7.704 10.968H7.752C8.016 11.904 8.328 13.248 8.568 14.16L9.312 17.064H6.312ZM17.3278 24H21.6718V6.96H17.3278V24ZM35.1596 19.608C35.2316 19.32 35.3276 18.672 35.3276 17.976C35.3276 14.736 33.6956 11.928 29.8796 11.928C25.5356 11.928 23.7596 15.48 23.7596 18.216C23.7596 21.96 26.1116 24.264 30.2636 24.264C31.7276 24.264 33.2636 24.072 34.6796 23.52L34.1276 20.616C33.0716 20.952 32.0156 21.072 30.9116 21.072C29.3756 21.072 28.0316 20.544 27.8876 19.608H35.1596ZM27.8396 16.68C27.9116 15.936 28.3916 14.76 29.6636 14.76C31.0316 14.76 31.3436 16.008 31.3436 16.68H27.8396ZM37.2731 24H41.6171V18.168C41.6171 17.88 41.6411 17.616 41.6651 17.424C41.9051 16.464 42.7691 15.936 44.0411 15.936C44.4971 15.936 44.8331 15.984 45.1451 16.056V12C44.8331 11.928 44.6651 11.928 44.2811 11.928C43.2491 11.928 41.7611 12.528 41.1371 14.328H41.0411L40.8731 12.192H37.1771C37.2491 13.176 37.2731 14.304 37.2731 16.176V24ZM47.9496 9.984V12.192H46.4856V15.36H47.9496V19.512C47.9496 21.312 48.3336 22.464 49.0536 23.184C49.6776 23.808 50.7336 24.264 52.0056 24.264C53.1096 24.264 54.0696 24.12 54.5736 23.928V20.64C54.2136 20.736 54.0456 20.736 53.5416 20.736C52.4856 20.736 52.1736 20.16 52.1736 18.744V15.36H54.6216V12.192H52.1736V8.832L47.9496 9.984ZM67.0971 17.136C67.0971 14.184 65.7051 11.928 61.6491 11.928C59.2011 11.928 57.4971 12.6 56.7531 13.008L57.4971 15.72C58.2891 15.288 59.5851 14.856 60.8331 14.856C62.4171 14.856 62.7771 15.384 62.7771 15.864V15.96C58.7691 15.96 55.9131 17.376 55.9131 20.544C55.9131 22.512 57.4011 24.264 59.8251 24.264C61.0971 24.264 62.2731 23.904 63.0891 22.968H63.1851L63.4011 24H67.2891C67.1691 23.4 67.0971 22.296 67.0971 21.12V17.136ZM62.9211 19.56C62.9211 19.776 62.9211 19.992 62.8731 20.16C62.6571 20.832 62.0091 21.264 61.3851 21.264C60.6411 21.264 60.1611 20.88 60.1611 20.136C60.1611 19.08 61.1451 18.6 62.9211 18.6V19.56ZM82.8413 24L88.1213 7.824H83.5133L81.7613 14.256C81.2813 16.008 80.8253 17.88 80.4413 19.848H80.3933C79.9853 17.76 79.5533 16.008 79.0493 14.184L77.3213 7.824H72.5693L77.7053 24H82.8413ZM99.4253 19.608C99.4973 19.32 99.5933 18.672 99.5933 17.976C99.5933 14.736 97.9613 11.928 94.1453 11.928C89.8013 11.928 88.0253 15.48 88.0253 18.216C88.0253 21.96 90.3773 24.264 94.5293 24.264C95.9933 24.264 97.5293 24.072 98.9453 23.52L98.3933 20.616C97.3373 20.952 96.2813 21.072 95.1773 21.072C93.6413 21.072 92.2973 20.544 92.1533 19.608H99.4253ZM92.1053 16.68C92.1773 15.936 92.6573 14.76 93.9293 14.76C95.2973 14.76 95.6093 16.008 95.6093 16.68H92.1053ZM101.539 24H105.883V18.168C105.883 17.88 105.907 17.616 105.931 17.424C106.171 16.464 107.035 15.936 108.307 15.936C108.763 15.936 109.099 15.984 109.411 16.056V12C109.099 11.928 108.931 11.928 108.547 11.928C107.515 11.928 106.027 12.528 105.403 14.328H105.307L105.139 12.192H101.443C101.515 13.176 101.539 14.304 101.539 16.176V24ZM118.687 6.96V13.08H118.639C118.111 12.312 117.031 11.928 115.735 11.928C112.951 11.928 110.431 14.208 110.455 18.192C110.455 21.888 112.735 24.264 115.471 24.264C116.839 24.264 118.279 23.736 119.047 22.416H119.095L119.263 24H123.103C123.055 23.208 123.007 21.744 123.007 20.28V6.96H118.687ZM118.687 18.624C118.687 18.912 118.687 19.176 118.615 19.416C118.471 20.208 117.799 20.832 116.935 20.832C115.735 20.832 114.847 19.896 114.847 18.072C114.847 16.536 115.495 15.24 116.959 15.24C117.847 15.24 118.495 15.912 118.663 16.752C118.687 16.92 118.687 17.136 118.687 17.304V18.624ZM136.503 19.608C136.575 19.32 136.671 18.672 136.671 17.976C136.671 14.736 135.039 11.928 131.223 11.928C126.879 11.928 125.103 15.48 125.103 18.216C125.103 21.96 127.455 24.264 131.607 24.264C133.071 24.264 134.607 24.072 136.023 23.52L135.471 20.616C134.415 20.952 133.359 21.072 132.255 21.072C130.719 21.072 129.375 20.544 129.231 19.608H136.503ZM129.183 16.68C129.255 15.936 129.735 14.76 131.007 14.76C132.375 14.76 132.687 16.008 132.687 16.68H129.183Z" fill="#999999"/>
</svg>
