<svg width="51" height="42" viewBox="0 0 51 42" fill="none" xmlns="http://www.w3.org/2000/svg">
<path d="M0.599601 22.963L0.983654 19.4491C0.906843 20.0602 0.932446 20.6968 1.00926 21.3334C2.059 28.4121 10.0985 30.9074 10.5082 31.0347L10.1241 34.5486C9.68885 34.4213 1.67495 31.9259 0.625204 24.8472C0.548393 24.2107 0.52279 23.5741 0.599601 22.963Z" fill="#C4C4C4"/>
<path d="M10.5341 31.0603L10.1501 34.5741C10.1244 34.5741 10.0988 34.5487 10.0732 34.5487L10.4573 31.0348C10.4829 31.0348 10.5085 31.0603 10.5341 31.0603Z" fill="#C4C4C4"/>
<path d="M10.4314 31.0352L10.0474 34.5491C9.10004 34.2436 1.62381 31.6718 0.625277 24.8732C0.522863 24.2366 0.522863 23.6 0.599674 22.9889L0.983726 19.475C0.906916 20.0861 0.932519 20.7227 1.00933 21.3593C2.03347 28.1579 9.48409 30.7297 10.4314 31.0352Z" fill="#C4C4C4"/>
<path d="M50.5006 21.9955L50.1166 25.5094C49.3997 32.0788 39.824 37.3497 27.3551 37.6807C24.0266 37.7571 18.1378 36.9677 17.8306 36.9168L18.2146 33.4029C18.5219 33.4538 24.4107 34.2432 27.7391 34.1668C40.208 33.8358 49.7838 28.5649 50.5006 21.9955Z" fill="#C4C4C4"/>
<path d="M50.5004 21.9955L50.1163 25.5094C50.0651 26.0186 49.9627 26.5024 49.8091 26.9862L50.1931 23.4723C50.3468 22.9885 50.4492 22.4793 50.5004 21.9955Z" fill="#C4C4C4"/>
<path d="M50.1676 23.4724L49.7836 26.9862C49.4763 27.9538 48.9642 28.896 48.2729 29.7872L48.657 26.2733C49.3483 25.3821 49.8604 24.4399 50.1676 23.4724Z" fill="#C4C4C4"/>
<path d="M48.6568 26.2733L48.2728 29.7871C45.8661 32.8936 41.3342 35.3635 35.5479 36.6876L35.9319 33.1737C41.7183 31.8496 46.2757 29.3543 48.6568 26.2733Z" fill="#C4C4C4"/>
<path d="M35.9322 33.1483L35.5482 36.6621C33.0134 37.2223 30.2483 37.5788 27.3295 37.6552C27.3039 37.6552 27.2527 37.6552 27.2271 37.6552L27.6111 34.1413C27.6367 34.1413 27.6879 34.1413 27.7135 34.1413C30.6579 34.0649 33.4231 33.7339 35.9322 33.1483Z" fill="#C4C4C4"/>
<path d="M27.6367 34.1414L27.2527 37.6553C23.9242 37.7317 18.1378 36.9423 17.8306 36.8914L18.2146 33.3775C18.4963 33.4284 24.2827 34.2178 27.6367 34.1414Z" fill="#C4C4C4"/>
<path d="M11.5576 38.1899L11.1736 41.7038L10.1494 34.5742L10.5335 31.0603L11.5576 38.1899Z" fill="#D3D3D3"/>
<path d="M18.1892 33.3774L17.8051 36.8913L11.1738 41.7038L11.5579 38.1899L18.1892 33.3774Z" fill="#E8E8E8"/>
<path d="M23.7456 7.30331C37.3923 6.94682 49.3491 12.7015 50.45 20.1112C51.551 27.5209 41.3608 33.8103 27.7141 34.1667C24.3857 34.2431 18.4969 33.4538 18.1896 33.4028L11.5583 38.2153L10.5086 31.0857C10.0733 30.9584 2.05942 28.463 1.00967 21.3843C-0.0656753 13.9237 10.0989 7.63432 23.7456 7.30331Z" fill="#F8F8F8"/>
<path d="M41.0789 15.1969C41.0789 15.1969 37.5968 31.0603 17.4213 26.5024C17.4213 26.5024 14.1184 30.0163 13.9136 29.2015C13.8112 28.7686 16.9604 26.4006 16.9604 26.4006C16.9604 26.4006 18.3686 2.21074 41.0789 15.1969Z" fill="#B2C0A0"/>
<path d="M11.9676 24.0834C11.9676 24.0834 5.97633 -6.75226 38.6976 2.36348C38.6976 2.33802 39.4145 23.7015 11.9676 24.0834Z" fill="#749858"/>
<path d="M38.6719 2.36346C38.6719 2.36346 39.3632 23.3959 12.5563 24.0834C12.5563 24.0834 9.53506 29.5579 9.02299 28.5903C8.76696 28.1065 11.9418 24.1088 11.9418 24.1088C11.9418 24.1088 18.0354 6.76856 38.6719 2.36346Z" fill="#6E9153"/>
<path d="M28.8917 29.2523C28.738 28.9977 28.8405 28.6667 29.1221 28.5139C31.6825 27.3171 42.8968 23.1158 44.9195 23.0648C45.79 23.0394 46.9422 24.9491 46.3021 25.6111C45.7132 26.2222 32.1945 29.3033 29.711 29.8889C29.4806 29.9398 29.2245 29.838 29.1221 29.6343L28.8917 29.2523Z" fill="#B2C0A0"/>
<path d="M25.2555 29.5325C25.9468 28.9978 27.099 28.9468 27.8159 29.4306C28.5328 29.9144 28.5584 30.7292 27.8415 31.264C27.1502 31.7987 25.9981 31.8496 25.2812 31.3658C24.5643 30.882 24.5643 30.0672 25.2555 29.5325Z" fill="#B2C0A0"/>
</svg>
