<svg width="150" height="150" viewBox="0 0 150 150" fill="none" xmlns="http://www.w3.org/2000/svg">
<circle cx="75" cy="75" r="75" fill="#EEF2E9"/>
<path d="M77.1072 35H52.9127C51.0793 35 49.3211 35.9131 48.0247 37.5384C46.7283 39.1637 46 41.3681 46 43.6667V104.333C46 106.632 46.7283 108.836 48.0247 110.462C49.3211 112.087 51.0793 113 52.9127 113H101.302C103.135 113 104.893 112.087 106.19 110.462C107.486 108.836 108.214 106.632 108.214 104.333V74" stroke="#96AC78" stroke-width="5" stroke-linecap="round" stroke-linejoin="round"/>
<path d="M97.1995 45.5076C98.5764 44.1307 100.444 43.3571 102.391 43.3571C104.338 43.3571 106.206 44.1307 107.583 45.5076C108.96 46.8846 109.733 48.7521 109.733 50.6994C109.733 52.6466 108.96 54.5141 107.583 55.8911L74.702 88.772L60.8574 92.2331L64.3186 78.3885L97.1995 45.5076Z" stroke="#96AC78" stroke-width="5" stroke-linecap="round" stroke-linejoin="round"/>
</svg>
