<svg width="150" height="150" viewBox="0 0 150 150" fill="none" xmlns="http://www.w3.org/2000/svg">
<circle cx="75" cy="75" r="75" fill="#EEF2E9"/>
<path d="M106 68.5C106 92.2222 75.5 112.556 75.5 112.556C75.5 112.556 45 92.2222 45 68.5C45 60.4109 48.2134 52.6531 53.9332 46.9332C59.6531 41.2134 67.4109 38 75.5 38C83.5891 38 91.3469 41.2134 97.0668 46.9332C102.787 52.6531 106 60.4109 106 68.5Z" stroke="#96AC78" stroke-width="5" stroke-linecap="round" stroke-linejoin="round"/>
<path d="M75.5002 78.6667C81.1151 78.6667 85.6668 74.1149 85.6668 68.5C85.6668 62.8851 81.1151 58.3333 75.5002 58.3333C69.8853 58.3333 65.3335 62.8851 65.3335 68.5C65.3335 74.1149 69.8853 78.6667 75.5002 78.6667Z" stroke="#96AC78" stroke-width="5" stroke-linecap="round" stroke-linejoin="round"/>
</svg>
