<svg width="790" height="466" viewBox="0 0 790 466" fill="none" xmlns="http://www.w3.org/2000/svg">
<path d="M719.349 314.404L551.479 410.453C531.234 421.996 498.665 421.925 478.671 410.238L61.5553 167.426C41.5609 155.739 41.6859 136.937 61.9309 125.394L229.801 29.345C250.046 17.8017 282.615 17.8731 302.609 29.56L719.725 272.372C739.593 283.987 739.343 302.861 719.349 314.404Z" fill="#262626"/>
<g filter="url(#filter0_d)">
<path d="M719.35 341.627L551.48 437.676C531.235 449.219 498.666 449.148 478.672 437.461L61.5559 194.648C41.5615 182.961 38.1161 139.03 58.3611 127.487L229.802 56.5675C250.047 45.0242 282.615 45.0956 302.61 56.7825L723.818 274.163C743.687 285.778 739.343 330.084 719.35 341.627Z" fill="#262626"/>
</g>
<path d="M243.884 37.9109L211.316 56.5689C206.915 59.1098 207.041 63.2477 211.568 65.8609L217.478 69.2726C222.005 71.8858 222.131 76.0237 217.73 78.5647L154.354 114.864C149.953 117.405 142.785 117.188 138.258 114.574L132.348 111.163C127.821 108.55 120.528 108.405 116.252 110.873L104.809 117.48L76.391 133.742C62.1818 141.8 62.1823 155.012 76.1407 163.215L483.196 400.22C497.28 408.35 520.041 408.422 534.25 400.364L701.743 304.533C715.952 296.474 715.951 283.262 701.993 275.059L294.938 38.0541C280.979 29.8515 257.967 29.7798 243.884 37.9109Z" fill="white"/>
<rect width="212.284" height="28.5768" rx="10" transform="matrix(0.866044 -0.499967 0.866044 0.499967 337.976 293.097)" fill="#EEF2E9"/>
<path d="M341.704 278.469C342.775 279.216 343.262 280.001 343.165 280.824C343.064 281.645 342.381 282.419 341.118 283.149C340.235 283.659 339.248 283.988 338.157 284.138C337.066 284.281 335.952 284.236 334.815 284.001C333.679 283.767 332.593 283.36 331.557 282.78L330.522 282.182C329.477 281.579 328.741 280.94 328.315 280.266C327.889 279.592 327.805 278.932 328.064 278.284C328.327 277.634 328.914 277.047 329.822 276.522C331.045 275.816 332.362 275.44 333.772 275.393C335.183 275.346 336.556 275.638 337.89 276.267L335.972 277.375C335.084 276.968 334.277 276.771 333.552 276.786C332.826 276.795 332.103 277.007 331.382 277.423C330.545 277.907 330.208 278.456 330.37 279.071C330.532 279.68 331.2 280.329 332.372 281.018L333.354 281.585C334.551 282.276 335.678 282.68 336.733 282.797C337.794 282.912 338.738 282.73 339.565 282.252C340.321 281.816 340.719 281.39 340.76 280.974C340.801 280.558 340.476 280.092 339.786 279.576L341.704 278.469ZM342.32 277.436C341.514 276.971 340.948 276.459 340.623 275.903C340.293 275.343 340.245 274.797 340.478 274.264C340.707 273.728 341.196 273.243 341.947 272.809C343.059 272.168 344.317 271.854 345.723 271.869C347.134 271.881 348.458 272.212 349.696 272.862L350.138 273.108C350.95 273.577 351.518 274.086 351.843 274.637C352.172 275.185 352.221 275.728 351.987 276.267C351.759 276.804 351.264 277.291 350.503 277.731C349.341 278.402 348.024 278.717 346.552 278.676C345.081 278.629 343.701 278.233 342.412 277.489L342.32 277.436ZM344.33 276.461C345.177 276.95 346.017 277.233 346.849 277.309C347.676 277.382 348.402 277.239 349.026 276.878C349.65 276.518 349.891 276.098 349.749 275.617C349.612 275.134 349.074 274.621 348.136 274.079C347.303 273.599 346.464 273.322 345.616 273.249C344.774 273.172 344.046 273.312 343.432 273.666C342.828 274.015 342.589 274.431 342.716 274.914C342.838 275.394 343.376 275.91 344.33 276.461ZM353.502 268.266C353.218 268.383 352.946 268.516 352.688 268.665C351.84 269.155 351.594 269.672 351.949 270.217L357.582 273.468L355.732 274.536L347.496 269.782L349.262 268.762L350.229 269.267C349.96 268.597 350.221 268.033 351.013 267.576C351.277 267.423 351.531 267.318 351.774 267.259L353.502 268.266ZM358.982 265.102C358.698 265.219 358.427 265.352 358.168 265.502C357.321 265.991 357.074 266.508 357.43 267.053L363.062 270.304L361.213 271.372L352.977 266.618L354.743 265.598L355.709 266.104C355.44 265.433 355.702 264.869 356.493 264.412C356.757 264.259 357.011 264.154 357.255 264.095L358.982 265.102ZM370.324 266.288C369.152 266.965 367.832 267.302 366.366 267.299C364.899 267.29 363.552 266.931 362.324 266.222L362.096 266.09C361.274 265.616 360.698 265.102 360.368 264.548C360.038 263.988 359.98 263.439 360.193 262.9C360.406 262.361 360.865 261.888 361.57 261.481C362.692 260.833 363.915 260.54 365.239 260.602C366.569 260.661 367.888 261.068 369.197 261.824L369.943 262.254L364.562 265.361C365.298 265.721 366.061 265.901 366.853 265.901C367.65 265.899 368.35 265.723 368.954 265.374C369.801 264.885 370.149 264.289 369.997 263.586L371.945 263.559C372.108 264.034 372.049 264.51 371.77 264.987C371.491 265.459 371.009 265.893 370.324 266.288ZM363.047 262.342C362.54 262.635 362.306 262.975 362.347 263.362C362.392 263.745 362.689 264.145 363.237 264.561L366.762 262.527L366.625 262.448C365.965 262.114 365.333 261.939 364.729 261.925C364.12 261.907 363.56 262.046 363.047 262.342ZM370.377 261.239C369.57 260.773 369.005 260.262 368.68 259.706C368.35 259.146 368.302 258.6 368.535 258.067C368.763 257.53 369.253 257.046 370.004 256.612C371.115 255.97 372.374 255.657 373.78 255.672C375.19 255.683 376.515 256.014 377.753 256.665L378.194 256.911C379.006 257.38 379.575 257.889 379.899 258.44C380.229 258.988 380.277 259.531 380.044 260.07C379.816 260.606 379.321 261.094 378.56 261.534C377.398 262.204 376.081 262.519 374.609 262.478C373.138 262.431 371.757 262.036 370.468 261.292L370.377 261.239ZM372.387 260.264C373.234 260.753 374.074 261.036 374.906 261.112C375.733 261.185 376.459 261.041 377.083 260.681C377.707 260.321 377.948 259.9 377.806 259.42C377.669 258.937 377.131 258.424 376.193 257.882C375.36 257.402 374.52 257.125 373.673 257.051C372.831 256.975 372.102 257.114 371.488 257.469C370.885 257.818 370.646 258.234 370.773 258.717C370.895 259.197 371.433 259.713 372.387 260.264Z" fill="#4C4C4C"/>
<path d="M372.448 291.087C372.005 290.831 371.499 290.719 370.931 290.751C370.359 290.781 369.544 290.968 368.485 291.313C367.422 291.655 366.562 291.857 365.906 291.919C364.975 292.008 364.195 291.87 363.565 291.506C362.952 291.153 362.707 290.721 362.828 290.211C362.949 289.697 363.401 289.214 364.186 288.761C364.717 288.454 365.294 288.24 365.917 288.117C366.544 287.992 367.156 287.969 367.753 288.047C368.351 288.125 368.875 288.295 369.326 288.555L368.644 288.948C368.098 288.633 367.473 288.488 366.769 288.514C366.062 288.537 365.393 288.73 364.763 289.094C364.151 289.448 363.801 289.808 363.713 290.177C363.621 290.543 363.795 290.853 364.235 291.106C364.642 291.341 365.137 291.439 365.719 291.398C366.302 291.358 367.052 291.188 367.968 290.887C368.88 290.585 369.628 290.388 370.211 290.297C370.79 290.204 371.319 290.188 371.8 290.25C372.28 290.311 372.719 290.457 373.119 290.687C373.749 291.051 374.002 291.489 373.878 292.001C373.757 292.511 373.284 293.004 372.459 293.48C371.895 293.806 371.275 294.047 370.601 294.204C369.93 294.358 369.291 294.402 368.683 294.334C368.078 294.264 367.541 294.094 367.072 293.823L367.748 293.433C368.312 293.758 368.968 293.894 369.716 293.839C370.464 293.784 371.188 293.554 371.888 293.15C372.511 292.791 372.873 292.422 372.976 292.046C373.079 291.669 372.903 291.35 372.448 291.087ZM379.479 288.431C379.659 288.992 379.314 289.523 378.446 290.024C377.812 290.39 377.147 290.563 376.45 290.541C375.75 290.518 375.036 290.3 374.306 289.888L370.436 287.653L371.09 287.276L374.878 289.462C376.011 290.116 377.035 290.179 377.951 289.65C378.904 289.1 379.113 288.524 378.578 287.923L374.273 285.438L374.933 285.057L380.881 288.491L380.243 288.859L379.479 288.431ZM387.088 284.394C387.546 284.13 387.801 283.835 387.852 283.509C387.903 283.179 387.736 282.888 387.352 282.636L387.984 282.271C388.328 282.491 388.546 282.748 388.638 283.042C388.726 283.334 388.68 283.629 388.5 283.928C388.325 284.224 388.039 284.486 387.643 284.715C386.862 285.165 385.972 285.366 384.971 285.318C383.974 285.267 383.018 284.977 382.102 284.448L381.904 284.334C381.317 283.995 380.901 283.637 380.656 283.258C380.41 282.879 380.355 282.509 380.491 282.147C380.63 281.783 380.956 281.453 381.469 281.157C382.122 280.78 382.853 280.583 383.663 280.564C384.476 280.542 385.215 280.706 385.878 281.056L385.246 281.421C384.751 281.169 384.207 281.049 383.613 281.062C383.023 281.072 382.496 281.212 382.03 281.481C381.436 281.824 381.189 282.214 381.288 282.652C381.391 283.088 381.829 283.529 382.602 283.975L382.794 284.086C383.553 284.524 384.308 284.772 385.059 284.829C385.814 284.884 386.49 284.739 387.088 284.394ZM387.714 281.011C387.143 280.681 386.738 280.32 386.499 279.929C386.265 279.535 386.223 279.149 386.373 278.771C386.523 278.388 386.855 278.048 387.368 277.752C388.16 277.295 389.08 277.085 390.128 277.123C391.172 277.159 392.153 277.442 393.069 277.971L393.206 278.05C393.782 278.382 394.188 278.746 394.427 279.142C394.665 279.533 394.707 279.917 394.553 280.294C394.399 280.67 394.064 281.008 393.547 281.306C392.759 281.761 391.841 281.972 390.793 281.938C389.745 281.9 388.763 281.616 387.846 281.087L387.714 281.011ZM388.555 280.735C389.266 281.145 390.034 281.377 390.859 281.43C391.683 281.479 392.394 281.331 392.992 280.986C393.586 280.643 393.838 280.235 393.75 279.761C393.663 279.283 393.245 278.828 392.497 278.396L392.371 278.323C391.916 278.061 391.416 277.869 390.87 277.749C390.324 277.628 389.796 277.596 389.287 277.653C388.774 277.708 388.321 277.849 387.929 278.076C387.342 278.414 387.095 278.823 387.187 279.304C387.275 279.782 387.691 280.236 388.435 280.665L388.555 280.735ZM394.811 274.229C394.647 274.295 394.485 274.373 394.328 274.464C393.917 274.701 393.685 274.969 393.63 275.267C393.575 275.561 393.705 275.869 394.02 276.19L398.104 278.548L397.45 278.926L391.502 275.492L392.145 275.121L393.102 275.66C392.746 275.053 392.953 274.527 393.723 274.083C393.906 273.977 394.075 273.907 394.229 273.874L394.811 274.229ZM398.605 272.039C398.44 272.105 398.278 272.183 398.121 272.274C397.71 272.511 397.478 272.779 397.423 273.077C397.368 273.371 397.498 273.679 397.813 274.001L401.898 276.359L401.243 276.736L395.295 273.302L395.938 272.931L396.895 273.471C396.539 272.863 396.747 272.338 397.516 271.893C397.699 271.788 397.868 271.718 398.022 271.684L398.605 272.039ZM407.34 273.344C406.834 273.636 406.251 273.828 405.592 273.921C404.936 274.012 404.272 273.995 403.602 273.87C402.927 273.744 402.314 273.52 401.76 273.201L401.524 273.064C400.952 272.734 400.547 272.374 400.309 271.982C400.074 271.589 400.025 271.203 400.16 270.824C400.292 270.443 400.589 270.119 401.051 269.853C401.773 269.436 402.592 269.249 403.508 269.291C404.424 269.329 405.31 269.595 406.163 270.088L406.532 270.3L402.288 272.75L402.414 272.823C403.089 273.212 403.844 273.426 404.679 273.464C405.515 273.498 406.226 273.346 406.812 273.007C407.164 272.804 407.41 272.588 407.549 272.36C407.692 272.129 407.732 271.869 407.67 271.579L408.395 271.522C408.612 272.205 408.26 272.813 407.34 273.344ZM401.612 270.176C401.117 270.462 400.881 270.808 400.903 271.214C400.928 271.618 401.21 272.018 401.749 272.414L405.317 270.354L405.245 270.313C404.655 269.993 404.027 269.819 403.36 269.789C402.693 269.76 402.11 269.889 401.612 270.176ZM407.318 269.694C406.746 269.364 406.341 269.003 406.103 268.612C405.868 268.218 405.826 267.832 405.977 267.453C406.127 267.07 406.459 266.731 406.972 266.435C407.763 265.978 408.683 265.768 409.731 265.806C410.776 265.842 411.756 266.125 412.672 266.654L412.81 266.733C413.385 267.065 413.792 267.429 414.03 267.825C414.268 268.216 414.311 268.6 414.157 268.977C414.003 269.353 413.667 269.691 413.151 269.989C412.363 270.444 411.445 270.655 410.396 270.621C409.348 270.583 408.366 270.299 407.45 269.77L407.318 269.694ZM408.159 269.418C408.87 269.828 409.638 270.06 410.462 270.113C411.287 270.162 411.998 270.013 412.595 269.669C413.189 269.326 413.442 268.917 413.354 268.444C413.266 267.965 412.848 267.511 412.101 267.079L411.974 267.006C411.52 266.744 411.019 266.552 410.473 266.431C409.927 266.311 409.4 266.279 408.89 266.336C408.377 266.391 407.924 266.532 407.532 266.758C406.946 267.097 406.699 267.506 406.79 267.987C406.878 268.465 407.294 268.919 408.038 269.348L408.159 269.418ZM422.205 264.762C421.699 265.054 421.116 265.247 420.457 265.34C419.801 265.431 419.137 265.414 418.467 265.289C417.792 265.162 417.178 264.939 416.625 264.619L416.389 264.483C415.817 264.153 415.412 263.792 415.174 263.401C414.939 263.007 414.89 262.621 415.025 262.242C415.157 261.861 415.454 261.538 415.916 261.271C416.638 260.854 417.457 260.667 418.373 260.709C419.289 260.748 420.174 261.013 421.028 261.506L421.397 261.719L417.153 264.169L417.279 264.242C417.953 264.631 418.708 264.845 419.544 264.883C420.38 264.917 421.091 264.764 421.677 264.426C422.029 264.223 422.274 264.007 422.414 263.778C422.557 263.548 422.597 263.287 422.535 262.998L423.26 262.941C423.476 263.624 423.125 264.231 422.205 264.762ZM416.477 261.595C415.982 261.881 415.745 262.226 415.767 262.633C415.793 263.037 416.075 263.437 416.614 263.832L420.182 261.773L420.11 261.731C419.52 261.412 418.892 261.237 418.225 261.208C417.558 261.178 416.975 261.307 416.477 261.595ZM426.344 262.245L425.685 262.626L417.241 257.752L417.9 257.371L426.344 262.245ZM430.55 259.945C430.044 260.237 429.461 260.429 428.802 260.522C428.146 260.613 427.482 260.596 426.812 260.471C426.137 260.344 425.523 260.121 424.97 259.802L424.734 259.665C424.162 259.335 423.757 258.975 423.519 258.583C423.284 258.19 423.235 257.803 423.37 257.425C423.502 257.044 423.799 256.72 424.261 256.454C424.983 256.037 425.802 255.85 426.718 255.892C427.634 255.93 428.519 256.196 429.373 256.688L429.742 256.901L425.498 259.351L425.624 259.424C426.298 259.813 427.053 260.027 427.889 260.065C428.725 260.099 429.436 259.947 430.022 259.608C430.374 259.405 430.619 259.189 430.759 258.961C430.902 258.73 430.942 258.47 430.88 258.18L431.605 258.123C431.821 258.806 431.47 259.414 430.55 259.945ZM424.821 256.777C424.327 257.063 424.09 257.409 424.112 257.815C424.138 258.219 424.42 258.619 424.959 259.015L428.527 256.955L428.455 256.914C427.865 256.594 427.237 256.42 426.57 256.39C425.903 256.361 425.32 256.49 424.821 256.777ZM435.706 256.327C436.164 256.062 436.419 255.767 436.47 255.441C436.522 255.111 436.355 254.82 435.97 254.568L436.602 254.204C436.947 254.424 437.165 254.681 437.257 254.975C437.344 255.267 437.299 255.562 437.119 255.86C436.943 256.156 436.657 256.419 436.261 256.647C435.481 257.098 434.59 257.299 433.59 257.25C432.593 257.199 431.636 256.91 430.72 256.381L430.522 256.266C429.936 255.928 429.52 255.569 429.274 255.191C429.029 254.812 428.974 254.442 429.109 254.08C429.249 253.716 429.575 253.386 430.088 253.09C430.74 252.713 431.471 252.515 432.281 252.496C433.095 252.475 433.833 252.639 434.497 252.988L433.865 253.353C433.37 253.101 432.826 252.982 432.232 252.994C431.642 253.005 431.114 253.145 430.649 253.413C430.055 253.756 429.808 254.146 429.907 254.584C430.009 255.02 430.447 255.461 431.22 255.908L431.413 256.019C432.171 256.457 432.926 256.704 433.678 256.761C434.433 256.816 435.109 256.672 435.706 256.327ZM433.309 249.599L434.832 250.478L436.064 249.767L436.602 250.078L435.371 250.789L439.335 253.077C439.664 253.267 439.969 253.375 440.247 253.401C440.529 253.424 440.81 253.355 441.088 253.194C441.198 253.131 441.358 253.018 441.566 252.855L442.133 253.15C442.023 253.285 441.819 253.439 441.522 253.61C441.072 253.87 440.614 253.985 440.148 253.953C439.679 253.919 439.19 253.755 438.68 253.461L434.711 251.17L433.617 251.801L433.079 251.49L434.172 250.859L432.65 249.979L433.309 249.599ZM440.736 247.717C440.571 247.782 440.41 247.861 440.253 247.951C439.842 248.188 439.609 248.456 439.554 248.754C439.499 249.049 439.63 249.356 439.945 249.678L444.029 252.036L443.375 252.414L437.427 248.98L438.07 248.608L439.027 249.148C438.671 248.541 438.878 248.015 439.648 247.571C439.831 247.465 440 247.395 440.154 247.361L440.736 247.717ZM443.633 248.729C443.062 248.399 442.657 248.038 442.419 247.647C442.184 247.253 442.142 246.867 442.292 246.488C442.442 246.106 442.774 245.766 443.287 245.47C444.079 245.013 444.999 244.803 446.047 244.841C447.091 244.877 448.072 245.16 448.988 245.689L449.125 245.768C449.701 246.1 450.107 246.464 450.346 246.86C450.584 247.251 450.626 247.635 450.472 248.012C450.318 248.388 449.983 248.726 449.466 249.024C448.678 249.479 447.76 249.69 446.712 249.656C445.664 249.618 444.682 249.334 443.765 248.805L443.633 248.729ZM444.475 248.453C445.186 248.863 445.953 249.095 446.778 249.148C447.603 249.197 448.314 249.049 448.911 248.704C449.505 248.361 449.757 247.953 449.67 247.479C449.582 247 449.164 246.546 448.416 246.114L448.29 246.041C447.835 245.779 447.335 245.587 446.789 245.467C446.243 245.346 445.715 245.314 445.206 245.371C444.693 245.426 444.24 245.567 443.848 245.793C443.261 246.132 443.014 246.541 443.106 247.022C443.194 247.5 443.61 247.954 444.354 248.383L444.475 248.453ZM441.555 243.715L442.353 243.255L442.622 244.876L442.045 245.209L441.555 243.715ZM448.048 242.848L449.087 243.423C448.944 243.082 448.944 242.761 449.087 242.458C449.226 242.153 449.497 241.885 449.9 241.652C450.538 241.284 451.192 241.113 451.863 241.141C452.534 241.168 453.23 241.388 453.952 241.801L457.855 244.054L457.201 244.432L453.292 242.176C452.757 241.871 452.248 241.708 451.764 241.687C451.284 241.663 450.8 241.793 450.313 242.074C449.906 242.309 449.673 242.591 449.615 242.921C449.556 243.247 449.668 243.578 449.95 243.915L454.023 246.266L453.369 246.644L447.421 243.21L448.048 242.848ZM460.296 242.645L459.636 243.026L453.688 239.592L454.348 239.211L460.296 242.645ZM451.852 238.665C451.727 238.594 451.663 238.51 451.66 238.415C451.652 238.317 451.718 238.229 451.857 238.148C451.997 238.068 452.151 238.03 452.319 238.034C452.488 238.034 452.634 238.07 452.759 238.142C452.884 238.214 452.946 238.298 452.946 238.396C452.95 238.491 452.882 238.579 452.743 238.659C452.603 238.74 452.451 238.779 452.286 238.777C452.121 238.774 451.977 238.737 451.852 238.665ZM463.842 240.084C464.3 239.82 464.555 239.524 464.606 239.199C464.657 238.869 464.49 238.578 464.106 238.326L464.738 237.961C465.082 238.181 465.3 238.438 465.392 238.732C465.48 239.024 465.434 239.319 465.255 239.618C465.079 239.914 464.793 240.176 464.397 240.405C463.616 240.855 462.726 241.056 461.725 241.008C460.728 240.957 459.772 240.667 458.856 240.138L458.658 240.024C458.071 239.685 457.655 239.327 457.41 238.948C457.164 238.569 457.109 238.199 457.245 237.837C457.384 237.473 457.71 237.143 458.223 236.847C458.876 236.47 459.607 236.273 460.417 236.254C461.23 236.232 461.969 236.396 462.632 236.745L462 237.11C461.505 236.859 460.961 236.739 460.367 236.752C459.777 236.762 459.25 236.902 458.784 237.171C458.19 237.513 457.943 237.904 458.042 238.342C458.145 238.778 458.583 239.219 459.356 239.665L459.548 239.776C460.307 240.214 461.062 240.462 461.813 240.519C462.568 240.574 463.244 240.429 463.842 240.084ZM464.468 236.701C463.897 236.371 463.492 236.01 463.253 235.619C463.019 235.225 462.977 234.839 463.127 234.46C463.277 234.077 463.609 233.738 464.122 233.442C464.914 232.985 465.834 232.775 466.882 232.813C467.926 232.849 468.907 233.132 469.823 233.661L469.96 233.74C470.536 234.072 470.942 234.436 471.181 234.832C471.419 235.223 471.461 235.607 471.307 235.984C471.153 236.36 470.818 236.698 470.301 236.996C469.513 237.451 468.595 237.662 467.547 237.628C466.499 237.59 465.517 237.306 464.6 236.777L464.468 236.701ZM465.309 236.425C466.02 236.835 466.788 237.067 467.613 237.12C468.437 237.169 469.148 237.02 469.746 236.676C470.34 236.333 470.592 235.925 470.504 235.451C470.417 234.972 469.999 234.518 469.251 234.086L469.125 234.013C468.67 233.751 468.17 233.559 467.624 233.439C467.078 233.318 466.55 233.286 466.041 233.343C465.528 233.398 465.075 233.539 464.683 233.765C464.096 234.104 463.849 234.513 463.941 234.994C464.029 235.472 464.445 235.926 465.189 236.355L465.309 236.425Z" fill="#759958"/>
<rect width="212.284" height="28.5768" rx="10" transform="matrix(0.866044 -0.499967 0.866044 0.499967 381.817 318.406)" fill="#EEF2E9"/>
<path d="M387.666 304.186C388.736 304.933 389.224 305.719 389.127 306.542C389.026 307.362 388.343 308.137 387.08 308.866C386.197 309.376 385.21 309.706 384.119 309.855C383.028 309.999 381.914 309.953 380.777 309.719C379.64 309.484 378.554 309.077 377.519 308.497L376.484 307.9C375.439 307.296 374.703 306.657 374.277 305.984C373.85 305.31 373.767 304.649 374.026 304.002C374.289 303.351 374.876 302.764 375.784 302.24C377.007 301.534 378.324 301.157 379.734 301.11C381.145 301.064 382.518 301.355 383.852 301.985L381.934 303.092C381.046 302.685 380.239 302.489 379.514 302.503C378.788 302.512 378.065 302.725 377.344 303.141C376.507 303.624 376.169 304.173 376.332 304.788C376.494 305.398 377.162 306.047 378.334 306.735L379.316 307.302C380.513 307.993 381.64 308.398 382.695 308.515C383.756 308.629 384.7 308.447 385.527 307.97C386.283 307.533 386.681 307.107 386.722 306.691C386.762 306.275 386.438 305.809 385.748 305.294L387.666 304.186ZM388.282 303.154C387.475 302.688 386.91 302.177 386.585 301.62C386.255 301.061 386.207 300.514 386.44 299.981C386.669 299.445 387.158 298.96 387.909 298.527C389.021 297.885 390.279 297.572 391.685 297.586C393.095 297.598 394.42 297.929 395.658 298.579L396.1 298.825C396.911 299.294 397.48 299.804 397.805 300.355C398.134 300.902 398.183 301.446 397.949 301.985C397.721 302.521 397.226 303.009 396.465 303.448C395.303 304.119 393.986 304.434 392.514 304.393C391.043 304.346 389.663 303.951 388.374 303.206L388.282 303.154ZM390.292 302.178C391.139 302.667 391.979 302.95 392.811 303.026C393.638 303.1 394.364 302.956 394.988 302.596C395.612 302.235 395.853 301.815 395.711 301.335C395.574 300.851 395.036 300.339 394.098 299.797C393.265 299.316 392.426 299.039 391.578 298.966C390.736 298.89 390.008 299.029 389.394 299.383C388.79 299.732 388.551 300.148 388.678 300.631C388.8 301.112 389.338 301.627 390.292 302.178ZM395.178 294.506L396.183 295.024C396.056 294.248 396.488 293.574 397.477 293.003C399.192 292.013 401.047 292.076 403.041 293.192L408.484 296.334L406.634 297.402L401.298 294.321C400.776 294.02 400.276 293.863 399.799 293.851C399.322 293.834 398.827 293.973 398.315 294.269C397.569 294.699 397.35 295.215 397.66 295.815L403.521 299.199L401.671 300.267L393.435 295.512L395.178 294.506ZM402.455 287.994L404.457 289.149L405.911 288.31L407.281 289.101L405.827 289.94L410.425 292.594C410.739 292.776 411.029 292.873 411.292 292.884C411.556 292.89 411.848 292.801 412.168 292.616C412.381 292.493 412.571 292.354 412.739 292.199L414.17 293.025C413.865 293.336 413.518 293.604 413.127 293.829C411.706 294.649 410.212 294.607 408.644 293.702L403.978 291.008L402.623 291.79L401.253 290.999L402.608 290.217L400.606 289.061L402.455 287.994ZM413.332 285.977C413.048 286.094 412.777 286.227 412.518 286.377C411.671 286.866 411.424 287.383 411.78 287.928L417.412 291.179L415.563 292.247L407.327 287.493L409.093 286.473L410.059 286.979C409.79 286.308 410.052 285.744 410.843 285.287C411.107 285.134 411.361 285.029 411.605 284.97L413.332 285.977ZM425.74 286.372C425.501 286.328 425.174 286.221 424.758 286.051C424.783 286.746 424.369 287.339 423.517 287.831C422.69 288.309 421.779 288.562 420.784 288.591C419.79 288.621 418.945 288.435 418.25 288.033C417.372 287.526 417.024 286.951 417.207 286.306C417.389 285.656 418.087 284.981 419.3 284.28L420.434 283.626L419.894 283.314C419.467 283.068 419.008 282.94 418.516 282.931C418.019 282.92 417.526 283.054 417.039 283.336C416.618 283.579 416.38 283.84 416.324 284.118C416.263 284.393 416.395 284.625 416.72 284.812L414.87 285.88C414.418 285.619 414.147 285.29 414.056 284.891C413.959 284.49 414.056 284.077 414.345 283.652C414.639 283.224 415.103 282.827 415.738 282.461C416.702 281.905 417.714 281.601 418.775 281.552C419.83 281.499 420.805 281.722 421.698 282.22L425.412 284.364C426.153 284.792 426.848 285.073 427.498 285.208L427.627 285.282L425.74 286.372ZM422.375 286.776C422.741 286.565 422.994 286.316 423.136 286.029C423.283 285.739 423.289 285.461 423.152 285.194L421.599 284.298L420.602 284.874C419.917 285.269 419.521 285.635 419.414 285.972C419.308 286.309 419.473 286.604 419.909 286.856C420.264 287.061 420.665 287.157 421.112 287.146C421.558 287.128 421.979 287.005 422.375 286.776ZM431.631 280.387C431.301 280.197 430.913 280.131 430.466 280.189C430.025 280.245 429.424 280.416 428.662 280.704C427.901 280.991 427.209 281.197 426.584 281.323C425.214 281.599 424.106 281.492 423.258 281.002C422.548 280.592 422.253 280.077 422.375 279.456C422.497 278.835 423.02 278.257 423.943 277.724C424.928 277.156 425.965 276.838 427.056 276.771C428.152 276.7 429.089 276.889 429.865 277.338L428.015 278.405C427.66 278.2 427.234 278.107 426.737 278.124C426.234 278.139 425.765 278.272 425.329 278.524C424.923 278.758 424.684 279.004 424.613 279.262C424.547 279.517 424.671 279.735 424.986 279.917C425.27 280.081 425.61 280.14 426.006 280.093C426.402 280.046 427.044 279.86 427.932 279.535C428.815 279.207 429.573 278.988 430.208 278.88C430.842 278.766 431.413 278.741 431.92 278.805C432.433 278.867 432.91 279.025 433.351 279.28C434.092 279.708 434.386 280.232 434.234 280.853C434.077 281.471 433.501 282.067 432.506 282.641C431.831 283.031 431.108 283.308 430.337 283.472C429.566 283.636 428.82 283.68 428.099 283.604C427.379 283.528 426.772 283.347 426.28 283.063L428.076 282.026C428.538 282.264 429.04 282.363 429.583 282.325C430.121 282.284 430.641 282.119 431.144 281.828C431.631 281.547 431.91 281.281 431.981 281.029C432.047 280.774 431.93 280.56 431.631 280.387ZM441.085 277.689C439.913 278.366 438.593 278.703 437.127 278.7C435.66 278.691 434.313 278.332 433.085 277.623L432.856 277.491C432.034 277.017 431.458 276.503 431.129 275.949C430.799 275.389 430.74 274.84 430.954 274.301C431.167 273.762 431.626 273.289 432.331 272.882C433.453 272.234 434.676 271.941 436 272.003C437.33 272.062 438.649 272.469 439.958 273.225L440.704 273.655L435.323 276.762C436.058 277.122 436.822 277.302 437.614 277.302C438.411 277.299 439.111 277.124 439.715 276.775C440.562 276.286 440.91 275.69 440.757 274.987L442.706 274.96C442.868 275.435 442.81 275.911 442.531 276.388C442.252 276.86 441.77 277.294 441.085 277.689ZM433.808 273.743C433.301 274.036 433.067 274.376 433.108 274.763C433.153 275.146 433.45 275.546 433.998 275.962L437.522 273.928L437.385 273.849C436.726 273.515 436.094 273.34 435.49 273.326C434.881 273.308 434.32 273.447 433.808 273.743ZM439.159 269.116L440.164 269.634C440.037 268.858 440.468 268.184 441.458 267.613C443.173 266.623 445.028 266.686 447.022 267.802L452.464 270.944L450.615 272.012L445.279 268.931C444.756 268.63 444.256 268.473 443.779 268.461C443.302 268.444 442.808 268.583 442.295 268.879C441.549 269.309 441.331 269.825 441.64 270.425L447.501 273.809L445.652 274.877L437.416 270.122L439.159 269.116ZM440.362 264.625C440.92 264.947 441.222 265.309 441.267 265.71C441.318 266.109 441.1 266.449 440.613 266.73C440.415 266.844 440.222 266.932 440.034 266.994C439.847 267.049 439.542 267.111 439.121 267.178C438.705 267.243 438.426 267.298 438.284 267.345C438.147 267.389 438.012 267.449 437.88 267.525C437.687 267.637 437.596 267.774 437.606 267.938C437.616 268.096 437.738 268.243 437.972 268.378L436.777 268.997C436.218 268.675 435.909 268.312 435.848 267.908C435.792 267.5 436.005 267.158 436.487 266.879C436.777 266.712 437.238 266.578 437.873 266.475C438.512 266.37 438.964 266.241 439.227 266.088C439.42 265.977 439.514 265.841 439.509 265.68C439.499 265.516 439.375 265.365 439.136 265.227L440.362 264.625ZM459.277 267.011C459.038 266.967 458.711 266.86 458.295 266.69C458.32 267.385 457.907 267.978 457.054 268.47C456.227 268.947 455.316 269.201 454.322 269.23C453.327 269.259 452.482 269.073 451.787 268.672C450.909 268.165 450.561 267.59 450.744 266.945C450.927 266.295 451.624 265.62 452.837 264.919L453.971 264.265L453.431 263.953C453.005 263.707 452.545 263.579 452.053 263.57C451.556 263.559 451.064 263.693 450.577 263.975C450.155 264.218 449.917 264.479 449.861 264.757C449.8 265.032 449.932 265.264 450.257 265.451L448.407 266.519C447.956 266.258 447.684 265.929 447.593 265.53C447.496 265.129 447.593 264.716 447.882 264.291C448.176 263.863 448.641 263.466 449.275 263.1C450.239 262.544 451.251 262.24 452.312 262.191C453.368 262.138 454.342 262.361 455.235 262.859L458.949 265.003C459.69 265.431 460.386 265.712 461.035 265.847L461.164 265.921L459.277 267.011ZM455.912 267.415C456.278 267.204 456.531 266.955 456.674 266.668C456.821 266.378 456.826 266.1 456.689 265.833L455.136 264.937L454.139 265.513C453.454 265.908 453.058 266.274 452.951 266.611C452.845 266.948 453.01 267.243 453.446 267.494C453.801 267.7 454.202 267.796 454.649 267.784C455.095 267.767 455.517 267.644 455.912 267.415Z" fill="#4C4C4C"/>
<path d="M416.289 316.397C415.845 316.141 415.339 316.028 414.771 316.06C414.2 316.09 413.384 316.277 412.325 316.622C411.262 316.965 410.403 317.167 409.747 317.228C408.816 317.317 408.035 317.179 407.405 316.815C406.793 316.462 406.547 316.031 406.668 315.521C406.789 315.007 407.242 314.523 408.026 314.07C408.557 313.764 409.135 313.549 409.758 313.426C410.384 313.301 410.996 313.278 411.594 313.356C412.191 313.435 412.715 313.604 413.166 313.864L412.484 314.258C411.938 313.942 411.313 313.797 410.61 313.823C409.902 313.846 409.234 314.04 408.603 314.404C407.991 314.757 407.641 315.118 407.553 315.486C407.462 315.852 407.636 316.162 408.076 316.416C408.482 316.65 408.977 316.748 409.56 316.708C410.143 316.667 410.892 316.497 411.808 316.197C412.721 315.894 413.468 315.697 414.051 315.606C414.63 315.513 415.16 315.497 415.64 315.559C416.12 315.62 416.56 315.766 416.959 315.997C417.59 316.361 417.842 316.799 417.718 317.311C417.597 317.82 417.124 318.313 416.3 318.789C415.735 319.115 415.116 319.356 414.441 319.513C413.771 319.668 413.131 319.711 412.523 319.643C411.918 319.573 411.381 319.403 410.912 319.132L411.588 318.742C412.153 319.068 412.809 319.203 413.556 319.148C414.304 319.093 415.028 318.864 415.728 318.459C416.351 318.1 416.714 317.732 416.816 317.355C416.919 316.978 416.743 316.659 416.289 316.397ZM423.32 313.74C423.499 314.301 423.155 314.832 422.286 315.333C421.652 315.699 420.987 315.872 420.291 315.851C419.591 315.827 418.876 315.61 418.147 315.197L414.277 312.963L414.931 312.585L418.718 314.772C419.851 315.425 420.875 315.488 421.791 314.959C422.744 314.409 422.953 313.833 422.418 313.232L418.114 310.748L418.773 310.367L424.722 313.801L424.084 314.169L423.32 313.74ZM430.928 309.703C431.386 309.439 431.641 309.144 431.692 308.818C431.743 308.488 431.577 308.197 431.192 307.945L431.824 307.58C432.169 307.8 432.387 308.057 432.478 308.351C432.566 308.643 432.52 308.939 432.341 309.237C432.165 309.533 431.879 309.795 431.483 310.024C430.703 310.475 429.812 310.676 428.812 310.627C427.815 310.576 426.858 310.286 425.942 309.757L425.744 309.643C425.158 309.305 424.742 308.946 424.496 308.567C424.251 308.189 424.196 307.818 424.331 307.456C424.47 307.093 424.797 306.763 425.31 306.466C425.962 306.09 426.693 305.892 427.503 305.873C428.317 305.852 429.055 306.016 429.719 306.365L429.086 306.73C428.592 306.478 428.047 306.358 427.454 306.371C426.864 306.382 426.336 306.521 425.87 306.79C425.277 307.133 425.029 307.523 425.128 307.961C425.231 308.397 425.669 308.838 426.442 309.284L426.635 309.396C427.393 309.834 428.148 310.081 428.899 310.138C429.654 310.193 430.331 310.048 430.928 309.703ZM431.555 306.32C430.983 305.99 430.578 305.63 430.34 305.238C430.105 304.845 430.063 304.458 430.213 304.08C430.364 303.697 430.695 303.357 431.208 303.061C432 302.604 432.92 302.395 433.968 302.433C435.013 302.469 435.993 302.751 436.909 303.28L437.047 303.359C437.622 303.691 438.029 304.055 438.267 304.451C438.505 304.842 438.547 305.226 438.393 305.603C438.239 305.98 437.904 306.317 437.387 306.615C436.599 307.07 435.681 307.281 434.633 307.247C433.585 307.209 432.603 306.925 431.687 306.396L431.555 306.32ZM432.396 306.044C433.107 306.455 433.875 306.686 434.699 306.739C435.524 306.788 436.235 306.64 436.832 306.295C437.426 305.952 437.679 305.544 437.591 305.07C437.503 304.592 437.085 304.137 436.337 303.705L436.211 303.632C435.757 303.37 435.256 303.178 434.71 303.058C434.164 302.937 433.636 302.905 433.127 302.963C432.614 303.018 432.161 303.158 431.769 303.385C431.183 303.723 430.935 304.133 431.027 304.613C431.115 305.091 431.531 305.545 432.275 305.974L432.396 306.044ZM435.969 300.44L437.008 301.014C436.865 300.673 436.865 300.352 437.008 300.049C437.147 299.745 437.419 299.476 437.822 299.243C438.459 298.875 439.114 298.705 439.784 298.732C440.455 298.76 441.151 298.98 441.873 299.392L445.776 301.646L445.122 302.023L441.214 299.767C440.678 299.462 440.169 299.299 439.685 299.278C439.205 299.255 438.721 299.384 438.234 299.665C437.827 299.9 437.594 300.183 437.536 300.513C437.477 300.838 437.589 301.17 437.871 301.506L441.945 303.858L441.291 304.235L435.342 300.801L435.969 300.44ZM441.032 295.759L442.555 296.638L443.786 295.927L444.325 296.238L443.094 296.949L447.057 299.237C447.387 299.427 447.691 299.535 447.97 299.56C448.252 299.584 448.532 299.515 448.811 299.354C448.921 299.291 449.08 299.178 449.289 299.015L449.855 299.31C449.745 299.445 449.542 299.599 449.245 299.77C448.794 300.03 448.336 300.144 447.871 300.113C447.402 300.079 446.912 299.915 446.403 299.621L442.434 297.329L441.34 297.961L440.801 297.65L441.895 297.018L440.372 296.139L441.032 295.759ZM448.459 293.877C448.294 293.942 448.133 294.02 447.975 294.111C447.565 294.348 447.332 294.616 447.277 294.914C447.222 295.208 447.352 295.516 447.667 295.838L451.752 298.196L451.098 298.574L445.15 295.14L445.793 294.768L446.749 295.308C446.394 294.701 446.601 294.175 447.371 293.731C447.554 293.625 447.722 293.555 447.876 293.521L448.459 293.877ZM458.426 294.343C458.173 294.273 457.854 294.138 457.469 293.937C457.539 294.244 457.477 294.548 457.282 294.851C457.088 295.149 456.791 295.414 456.392 295.644C455.82 295.974 455.197 296.15 454.523 296.171C453.852 296.19 453.273 296.059 452.785 295.778C452.206 295.443 451.988 295.04 452.131 294.568C452.278 294.094 452.782 293.609 453.643 293.112L454.836 292.423L454.16 292.033C453.735 291.787 453.269 291.671 452.763 291.684C452.258 291.692 451.754 291.841 451.252 292.131C450.794 292.396 450.532 292.682 450.466 292.991C450.4 293.3 450.532 293.55 450.861 293.74L450.196 294.118C449.723 293.845 449.535 293.482 449.63 293.029C449.722 292.574 450.088 292.162 450.729 291.791C451.393 291.409 452.082 291.203 452.796 291.176C453.511 291.144 454.171 291.296 454.776 291.633L457.59 293.258C458.166 293.59 458.657 293.804 459.063 293.899L459.129 293.937L458.426 294.343ZM455.886 295.263C456.326 295.01 456.612 294.722 456.744 294.4C456.879 294.076 456.848 293.767 456.65 293.47L455.342 292.715L454.165 293.394C453.517 293.777 453.124 294.143 452.989 294.492C452.85 294.839 452.983 295.13 453.39 295.365C453.724 295.558 454.123 295.646 454.589 295.632C455.058 295.615 455.49 295.492 455.886 295.263ZM462.758 290.097C462.431 289.908 462.038 289.833 461.576 289.871C461.118 289.907 460.57 290.046 459.932 290.287C459.291 290.526 458.752 290.689 458.316 290.776C457.88 290.858 457.486 290.881 457.134 290.843C456.786 290.802 456.463 290.697 456.166 290.525C455.697 290.254 455.507 289.918 455.595 289.516C455.679 289.112 456.027 288.733 456.639 288.38C457.302 287.997 457.999 287.785 458.728 287.745C459.457 287.701 460.086 287.831 460.614 288.135L459.954 288.516C459.606 288.315 459.17 288.233 458.646 288.269C458.125 288.303 457.643 288.448 457.2 288.704C456.767 288.953 456.516 289.21 456.447 289.475C456.377 289.735 456.496 289.954 456.804 290.132C457.101 290.303 457.44 290.374 457.821 290.344C458.202 290.31 458.748 290.167 459.459 289.913C460.174 289.657 460.751 289.491 461.191 289.414C461.634 289.336 462.034 289.319 462.389 289.364C462.745 289.408 463.077 289.519 463.384 289.697C463.886 289.987 464.084 290.336 463.978 290.744C463.875 291.15 463.498 291.542 462.846 291.918C462.153 292.318 461.424 292.547 460.658 292.604C459.892 292.657 459.252 292.535 458.739 292.239L459.399 291.858C459.809 292.065 460.271 292.146 460.784 292.099C461.297 292.049 461.799 291.881 462.29 291.598C462.749 291.333 463.018 291.062 463.099 290.782C463.179 290.503 463.066 290.274 462.758 290.097ZM468.827 288.466C468.321 288.757 467.738 288.95 467.079 289.043C466.423 289.134 465.759 289.117 465.089 288.992C464.414 288.865 463.8 288.642 463.247 288.323L463.011 288.186C462.439 287.856 462.034 287.495 461.796 287.104C461.561 286.711 461.512 286.324 461.647 285.946C461.779 285.565 462.076 285.241 462.538 284.975C463.26 284.558 464.079 284.37 464.995 284.413C465.911 284.451 466.796 284.716 467.65 285.209L468.019 285.422L463.775 287.872L463.901 287.945C464.575 288.334 465.33 288.548 466.166 288.586C467.002 288.62 467.713 288.468 468.299 288.129C468.651 287.926 468.896 287.71 469.036 287.482C469.179 287.251 469.219 286.991 469.157 286.701L469.882 286.644C470.098 287.327 469.747 287.934 468.827 288.466ZM463.099 285.298C462.604 285.584 462.367 285.93 462.389 286.336C462.415 286.74 462.697 287.14 463.236 287.536L466.804 285.476L466.732 285.435C466.142 285.115 465.514 284.941 464.847 284.911C464.18 284.881 463.597 285.011 463.099 285.298ZM466.908 282.578L467.947 283.153C467.804 282.812 467.804 282.491 467.947 282.188C468.086 281.883 468.358 281.615 468.761 281.382C469.398 281.014 470.053 280.844 470.723 280.871C471.394 280.899 472.09 281.119 472.812 281.531L476.715 283.784L476.061 284.162L472.153 281.906C471.618 281.601 471.108 281.438 470.624 281.417C470.144 281.394 469.661 281.523 469.173 281.804C468.766 282.039 468.534 282.321 468.475 282.651C468.416 282.977 468.528 283.308 468.81 283.645L472.884 285.996L472.23 286.374L466.281 282.94L466.908 282.578ZM468.2 279.224C468.552 279.427 468.731 279.651 468.739 279.897C468.746 280.138 468.6 280.345 468.299 280.519C468.02 280.68 467.647 280.779 467.178 280.817C466.712 280.853 466.375 280.931 466.166 281.052C465.994 281.151 465.906 281.268 465.902 281.401C465.902 281.532 466.005 281.657 466.21 281.776L465.699 282.052C465.362 281.857 465.182 281.639 465.16 281.398C465.142 281.155 465.29 280.942 465.605 280.76C465.781 280.658 465.963 280.59 466.15 280.554C466.336 280.518 466.523 280.49 466.71 280.471C466.897 280.452 467.077 280.429 467.249 280.401C467.425 280.372 467.588 280.314 467.738 280.227C467.907 280.129 467.989 280.012 467.986 279.875C467.986 279.735 467.883 279.606 467.678 279.487L468.2 279.224ZM482.174 280.633C481.921 280.563 481.603 280.428 481.218 280.227C481.287 280.534 481.225 280.838 481.031 281.141C480.837 281.439 480.54 281.704 480.14 281.934C479.569 282.264 478.946 282.44 478.271 282.461C477.601 282.48 477.021 282.349 476.534 282.067C475.955 281.733 475.737 281.33 475.88 280.858C476.026 280.384 476.53 279.899 477.392 279.402L478.585 278.713L477.908 278.323C477.483 278.077 477.018 277.961 476.512 277.974C476.006 277.982 475.502 278.131 475 278.421C474.542 278.685 474.28 278.972 474.214 279.281C474.148 279.59 474.28 279.84 474.61 280.03L473.945 280.408C473.472 280.135 473.283 279.772 473.379 279.319C473.47 278.864 473.837 278.452 474.478 278.081C475.141 277.698 475.83 277.493 476.545 277.466C477.26 277.434 477.919 277.586 478.524 277.923L481.339 279.548C481.914 279.88 482.405 280.094 482.812 280.189L482.878 280.227L482.174 280.633ZM479.635 281.553C480.074 281.299 480.36 281.012 480.492 280.69C480.628 280.366 480.597 280.056 480.399 279.76L479.09 279.005L477.914 279.684C477.265 280.067 476.873 280.433 476.737 280.782C476.598 281.129 476.732 281.42 477.139 281.655C477.472 281.847 477.872 281.936 478.337 281.922C478.806 281.905 479.239 281.782 479.635 281.553Z" fill="#759958"/>
<rect x="0.866044" width="211.284" height="27.5768" rx="9.5" transform="matrix(0.866044 -0.499967 0.866044 0.499967 253.947 244.953)" fill="#FDFDFD" stroke="#D3D3D3"/>
<rect width="95.528" height="23.6779" transform="matrix(0.866044 -0.499967 0.866044 0.499967 468.084 309.425)" fill="#759958"/>
<path d="M505.239 306.69L504.102 307.346L495.482 302.37L496.619 301.714L505.239 306.69ZM501.781 301.29L502.622 301.734C502.495 301.097 502.827 300.55 503.616 300.094C504.97 299.312 506.417 299.359 507.956 300.234L512.189 302.678L511.094 303.31L506.855 300.863C506.389 300.599 505.941 300.463 505.511 300.456C505.085 300.447 504.652 300.569 504.214 300.822C503.859 301.027 503.642 301.262 503.563 301.526C503.484 301.79 503.524 302.055 503.681 302.319L508.246 304.954L507.151 305.586L500.745 301.888L501.781 301.29ZM510.324 299.995C509.325 299.418 508.763 298.827 508.637 298.221C508.506 297.613 508.822 297.089 509.584 296.649C510.365 296.198 511.251 296.005 512.242 296.071L511.585 295.63L512.586 295.053L518.837 298.662C519.666 299.14 520.073 299.66 520.057 300.22C520.045 300.779 519.625 301.297 518.796 301.776C518.334 302.042 517.783 302.246 517.144 302.387C516.505 302.529 515.897 302.567 515.321 302.503L515.232 301.796C516.282 301.86 517.146 301.696 517.825 301.304C518.358 300.996 518.622 300.67 518.618 300.326C518.618 299.98 518.346 299.65 517.801 299.335L517.251 299.017C517.318 299.562 516.972 300.053 516.215 300.49C515.465 300.923 514.555 301.1 513.485 301.02C512.42 300.938 511.366 300.596 510.324 299.995ZM511.549 299.431C512.272 299.848 512.988 300.091 513.699 300.159C514.405 300.225 515.025 300.104 515.557 299.797C516.248 299.398 516.442 298.924 516.138 298.375L513.213 296.686C512.266 296.527 511.457 296.641 510.786 297.028C510.253 297.336 510.044 297.696 510.158 298.108C510.273 298.521 510.736 298.962 511.549 299.431ZM518.322 292.876C518.129 292.955 517.935 293.051 517.742 293.163C517.024 293.577 516.842 294.035 517.197 294.537L521.744 297.162L520.649 297.794L514.243 294.096L515.309 293.481L516.067 293.898C515.853 293.36 516.076 292.901 516.736 292.52C516.949 292.397 517.138 292.32 517.304 292.288L518.322 292.876ZM527.416 294.024C526.547 294.525 525.557 294.769 524.444 294.755C523.327 294.74 522.291 294.456 521.336 293.904L521.134 293.788C520.499 293.421 520.053 293.025 519.796 292.599C519.54 292.168 519.488 291.747 519.642 291.334C519.796 290.917 520.128 290.562 520.637 290.268C521.47 289.787 522.391 289.572 523.402 289.622C524.412 289.672 525.428 289.992 526.451 290.582L526.907 290.846L522.567 293.351C523.214 293.706 523.909 293.895 524.651 293.918C525.393 293.936 526.036 293.788 526.581 293.474C526.968 293.251 527.216 293.016 527.327 292.77C527.437 292.524 527.463 292.267 527.404 292.001L528.594 291.915C528.882 292.701 528.489 293.404 527.416 294.024ZM521.537 290.787C521.095 291.043 520.886 291.35 520.909 291.71C520.929 292.068 521.194 292.435 521.703 292.811L524.911 290.958L524.829 290.91C524.24 290.607 523.66 290.446 523.088 290.425C522.512 290.402 521.995 290.523 521.537 290.787ZM533.099 288.645C532.803 288.474 532.462 288.406 532.075 288.443C531.688 288.475 531.157 288.617 530.482 288.87C529.811 289.121 529.229 289.293 528.736 289.386C528.246 289.477 527.808 289.502 527.422 289.461C527.039 289.418 526.689 289.305 526.374 289.123C525.849 288.82 525.626 288.436 525.705 287.971C525.788 287.504 526.174 287.071 526.865 286.672C527.591 286.253 528.367 286.022 529.192 285.979C530.021 285.933 530.727 286.079 531.311 286.416L530.21 287.052C529.91 286.879 529.523 286.804 529.05 286.826C528.58 286.847 528.152 286.969 527.765 287.192C527.366 287.422 527.141 287.652 527.09 287.882C527.039 288.113 527.153 288.308 527.433 288.47C527.698 288.623 528.002 288.678 528.345 288.634C528.689 288.591 529.194 288.447 529.861 288.204C530.532 287.958 531.122 287.786 531.631 287.688C532.14 287.59 532.596 287.563 532.998 287.609C533.401 287.65 533.774 287.77 534.117 287.968C534.69 288.298 534.921 288.696 534.81 289.161C534.696 289.623 534.273 290.065 533.543 290.487C533.03 290.783 532.485 290.993 531.909 291.116C531.333 291.239 530.77 291.272 530.222 291.215C529.673 291.153 529.209 291.013 528.831 290.794L529.926 290.162C530.313 290.363 530.751 290.447 531.24 290.415C531.73 290.378 532.199 290.23 532.649 289.971C533.064 289.731 533.312 289.492 533.395 289.253C533.478 289.009 533.379 288.806 533.099 288.645ZM541.275 285.886C541.085 285.85 540.809 285.75 540.446 285.586C540.466 286.185 540.122 286.688 539.416 287.096C538.784 287.461 538.088 287.658 537.326 287.688C536.564 287.713 535.909 287.567 535.361 287.25C534.694 286.865 534.429 286.421 534.567 285.917C534.705 285.409 535.234 284.89 536.154 284.359L537.22 283.743L536.716 283.453C536.334 283.232 535.915 283.123 535.461 283.125C535.003 283.125 534.552 283.254 534.106 283.511C533.715 283.737 533.486 283.983 533.419 284.249C533.352 284.516 533.458 284.73 533.738 284.892L532.637 285.528C532.318 285.343 532.122 285.1 532.051 284.8C531.98 284.494 532.051 284.18 532.264 283.856C532.481 283.53 532.823 283.233 533.289 282.964C534.027 282.538 534.79 282.311 535.58 282.284C536.365 282.254 537.089 282.422 537.752 282.787L540.701 284.489C541.289 284.828 541.831 285.055 542.329 285.169L542.423 285.223L541.275 285.886ZM538.623 286.454C538.966 286.256 539.203 286.016 539.333 285.736C539.463 285.456 539.455 285.194 539.309 284.95L537.995 284.191L537.137 284.687C535.795 285.461 535.517 286.076 536.302 286.529C536.645 286.727 537.028 286.816 537.45 286.796C537.873 286.775 538.263 286.661 538.623 286.454ZM541.589 279.444C541.395 279.524 541.202 279.619 541.009 279.731C540.29 280.146 540.109 280.604 540.464 281.105L545.011 283.73L543.915 284.362L537.51 280.664L538.575 280.049L539.333 280.466C539.12 279.928 539.343 279.469 540.002 279.089C540.215 278.965 540.405 278.888 540.57 278.856L541.589 279.444Z" fill="#F5F7F3"/>
<path d="M327.719 218.154C328.552 218.735 328.931 219.346 328.856 219.986C328.777 220.624 328.246 221.227 327.264 221.794C326.577 222.19 325.809 222.447 324.961 222.563C324.112 222.675 323.246 222.639 322.362 222.457C321.478 222.275 320.633 221.958 319.828 221.507L319.023 221.042C318.21 220.573 317.637 220.076 317.306 219.552C316.974 219.028 316.909 218.514 317.11 218.011C317.316 217.505 317.771 217.048 318.478 216.64C319.429 216.091 320.453 215.798 321.551 215.762C322.648 215.725 323.715 215.952 324.753 216.442L323.261 217.303C322.571 216.986 321.943 216.834 321.379 216.845C320.814 216.852 320.252 217.017 319.692 217.341C319.04 217.717 318.778 218.144 318.904 218.622C319.031 219.096 319.55 219.601 320.461 220.136L321.225 220.577C322.156 221.115 323.033 221.429 323.854 221.521C324.678 221.609 325.413 221.468 326.056 221.097C326.644 220.757 326.954 220.426 326.985 220.102C327.017 219.779 326.764 219.416 326.228 219.015L327.719 218.154ZM328.199 217.351C327.571 216.989 327.131 216.591 326.879 216.158C326.622 215.723 326.585 215.298 326.766 214.883C326.944 214.466 327.325 214.089 327.909 213.752C328.773 213.253 329.752 213.009 330.845 213.021C331.943 213.03 332.973 213.287 333.936 213.793L334.279 213.984C334.911 214.349 335.353 214.746 335.605 215.174C335.862 215.6 335.899 216.023 335.718 216.442C335.54 216.859 335.155 217.238 334.563 217.58C333.659 218.102 332.635 218.347 331.491 218.315C330.346 218.278 329.273 217.971 328.27 217.392L328.199 217.351ZM329.762 216.592C330.421 216.973 331.074 217.193 331.722 217.252C332.365 217.309 332.929 217.197 333.415 216.917C333.9 216.637 334.088 216.31 333.977 215.936C333.871 215.56 333.452 215.161 332.722 214.74C332.075 214.366 331.422 214.151 330.762 214.094C330.107 214.035 329.541 214.143 329.063 214.419C328.594 214.69 328.408 215.013 328.507 215.389C328.602 215.763 329.02 216.164 329.762 216.592ZM333.563 210.625L334.344 211.028C334.245 210.424 334.581 209.9 335.351 209.456C336.685 208.686 338.127 208.735 339.678 209.603L343.911 212.047L342.473 212.877L338.323 210.481C337.916 210.247 337.527 210.125 337.156 210.116C336.785 210.102 336.4 210.21 336.002 210.44C335.422 210.775 335.252 211.176 335.493 211.643L340.051 214.275L338.613 215.106L332.207 211.408L333.563 210.625ZM339.222 205.56L340.779 206.459L341.91 205.806L342.976 206.421L341.845 207.074L345.421 209.138C345.666 209.279 345.891 209.355 346.096 209.364C346.301 209.368 346.528 209.299 346.777 209.155C346.942 209.06 347.09 208.951 347.221 208.831L348.334 209.473C348.097 209.715 347.826 209.923 347.523 210.099C346.417 210.736 345.255 210.703 344.036 209.999L340.406 207.904L339.353 208.513L338.287 207.897L339.341 207.289L337.784 206.39L339.222 205.56ZM350.95 207.983L349.512 208.813L343.106 205.115L344.545 204.285L350.95 207.983ZM341.354 204.206C341.133 204.079 341.018 203.933 341.01 203.769C341.006 203.603 341.135 203.444 341.395 203.294C341.656 203.143 341.93 203.069 342.218 203.072C342.506 203.074 342.761 203.139 342.982 203.266C343.199 203.392 343.309 203.538 343.313 203.704C343.313 203.868 343.183 204.025 342.923 204.176C342.662 204.326 342.39 204.401 342.106 204.401C341.821 204.397 341.571 204.332 341.354 204.206ZM347.452 202.607L348.233 203.01C348.134 202.406 348.47 201.882 349.239 201.438C350.573 200.668 352.016 200.717 353.567 201.585L357.8 204.029L356.361 204.859L352.211 202.463C351.805 202.229 351.416 202.107 351.045 202.098C350.674 202.084 350.289 202.192 349.891 202.422C349.31 202.757 349.141 203.158 349.382 203.625L353.94 206.257L352.501 207.087L346.096 203.389L347.452 202.607ZM362.524 200.577C362.599 201.108 362.248 201.597 361.471 202.046C360.776 202.447 360.046 202.634 359.28 202.607C358.518 202.577 357.753 202.34 356.983 201.896L352.833 199.5L354.272 198.67L358.404 201.055C359.217 201.525 359.961 201.564 360.636 201.175C361.334 200.771 361.555 200.355 361.299 199.924L356.699 197.268L358.138 196.438L364.543 200.136L363.187 200.918L362.524 200.577ZM369.836 197.08C369.65 197.046 369.396 196.963 369.072 196.831C369.092 197.371 368.77 197.832 368.107 198.215C367.464 198.586 366.755 198.783 365.982 198.806C365.208 198.829 364.551 198.684 364.01 198.372C363.328 197.978 363.057 197.53 363.199 197.029C363.341 196.523 363.884 195.998 364.827 195.453L365.71 194.944L365.289 194.702C364.958 194.51 364.6 194.411 364.218 194.404C363.831 194.395 363.448 194.5 363.069 194.719C362.742 194.908 362.556 195.111 362.513 195.327C362.465 195.541 362.568 195.721 362.82 195.867L361.382 196.698C361.031 196.495 360.819 196.238 360.748 195.929C360.673 195.616 360.748 195.295 360.973 194.965C361.202 194.632 361.563 194.323 362.057 194.039C362.807 193.606 363.594 193.37 364.419 193.331C365.24 193.29 365.998 193.463 366.692 193.851L369.581 195.518C370.158 195.851 370.698 196.07 371.203 196.175L371.304 196.233L369.836 197.08ZM367.219 197.395C367.503 197.231 367.701 197.037 367.811 196.814C367.926 196.588 367.93 196.372 367.823 196.164L366.615 195.467L365.84 195.915C365.307 196.222 364.999 196.507 364.916 196.769C364.833 197.031 364.962 197.26 365.301 197.456C365.577 197.616 365.889 197.691 366.236 197.682C366.584 197.668 366.911 197.572 367.219 197.395ZM370.831 190.628C370.609 190.719 370.398 190.822 370.197 190.939C369.538 191.319 369.347 191.721 369.623 192.145L374.004 194.674L372.565 195.505L366.159 191.807L367.533 191.014L368.285 191.407C368.076 190.885 368.279 190.446 368.895 190.091C369.1 189.973 369.297 189.891 369.487 189.845L370.831 190.628ZM381.451 189.185C381.811 188.978 382.004 188.746 382.032 188.488C382.059 188.231 381.927 188.008 381.635 187.822L382.991 187.039C383.373 187.278 383.622 187.565 383.737 187.9C383.847 188.233 383.804 188.572 383.606 188.919C383.409 189.265 383.079 189.572 382.618 189.838C381.722 190.355 380.721 190.598 379.616 190.566C378.511 190.534 377.447 190.223 376.425 189.633L376.277 189.548C375.302 188.985 374.783 188.384 374.72 187.746C374.653 187.106 375.069 186.526 375.969 186.007C376.731 185.567 377.574 185.338 378.497 185.32C379.421 185.297 380.256 185.487 381.001 185.891L379.646 186.673C379.263 186.47 378.835 186.369 378.361 186.369C377.891 186.367 377.475 186.47 377.112 186.68C376.646 186.949 376.457 187.254 376.544 187.596C376.626 187.936 377.009 188.305 377.692 188.703L377.923 188.837C378.618 189.238 379.261 189.466 379.853 189.52C380.445 189.57 380.978 189.459 381.451 189.185ZM382.665 185.908C382.037 185.545 381.597 185.148 381.345 184.715C381.088 184.28 381.051 183.855 381.232 183.44C381.41 183.023 381.791 182.646 382.375 182.309C383.239 181.81 384.218 181.566 385.311 181.577C386.409 181.587 387.439 181.844 388.402 182.35L388.745 182.541C389.377 182.906 389.819 183.302 390.071 183.731C390.328 184.157 390.365 184.579 390.184 184.999C390.006 185.416 389.621 185.795 389.029 186.137C388.125 186.658 387.101 186.903 385.957 186.872C384.812 186.835 383.739 186.527 382.736 185.949L382.665 185.908ZM384.228 185.149C384.887 185.529 385.54 185.749 386.188 185.809C386.831 185.866 387.395 185.754 387.881 185.474C388.366 185.193 388.554 184.866 388.443 184.493C388.337 184.117 387.918 183.718 387.188 183.297C386.541 182.923 385.888 182.708 385.228 182.651C384.573 182.591 384.007 182.7 383.529 182.975C383.06 183.246 382.874 183.57 382.973 183.946C383.068 184.32 383.486 184.721 384.228 185.149ZM388.029 179.182L388.81 179.585C388.712 178.981 389.047 178.457 389.817 178.013C391.151 177.243 392.593 177.292 394.144 178.16L398.377 180.603L396.939 181.434L392.789 179.038C392.382 178.803 391.993 178.681 391.622 178.672C391.251 178.659 390.867 178.767 390.468 178.997C389.888 179.332 389.718 179.733 389.959 180.2L394.517 182.832L393.079 183.662L386.673 179.964L388.029 179.182ZM408.495 173.471C408.59 173.885 408.465 174.312 408.122 174.752C407.779 175.192 407.256 175.615 406.553 176.02C405.831 176.437 405.028 176.712 404.144 176.844C403.26 176.976 402.362 176.954 401.45 176.779C400.538 176.599 399.67 176.278 398.845 175.815L398.17 175.425C396.868 174.674 396.163 173.907 396.057 173.125C395.946 172.342 396.449 171.627 397.566 170.982C398.525 170.429 399.524 170.126 400.562 170.073C401.6 170.021 402.622 170.219 403.629 170.668L402.16 171.516C400.957 171.012 399.836 171.06 398.798 171.659C398.127 172.046 397.858 172.482 397.992 172.965C398.127 173.443 398.656 173.956 399.579 174.503L400.242 174.885C401.174 175.423 402.093 175.729 403.001 175.801C403.909 175.87 404.712 175.702 405.411 175.299C406.176 174.857 406.547 174.442 406.524 174.055L404.836 173.081L403.06 174.106L401.924 173.45L405.191 171.563L408.495 173.471ZM407.589 171.519C406.962 171.157 406.522 170.759 406.269 170.326C406.012 169.891 405.975 169.466 406.156 169.051C406.334 168.634 406.715 168.257 407.299 167.92C408.163 167.421 409.142 167.177 410.236 167.189C411.333 167.198 412.363 167.455 413.326 167.961L413.669 168.153C414.301 168.517 414.743 168.914 414.995 169.342C415.252 169.768 415.289 170.191 415.108 170.61C414.93 171.027 414.545 171.406 413.953 171.748C413.05 172.27 412.025 172.515 410.881 172.483C409.736 172.446 408.663 172.139 407.66 171.56L407.589 171.519ZM409.152 170.76C409.811 171.141 410.464 171.361 411.112 171.42C411.755 171.477 412.319 171.365 412.805 171.085C413.29 170.805 413.478 170.478 413.367 170.104C413.261 169.728 412.842 169.329 412.112 168.908C411.465 168.534 410.812 168.319 410.153 168.262C409.497 168.203 408.931 168.311 408.454 168.587C407.984 168.858 407.798 169.181 407.897 169.557C407.992 169.931 408.41 170.332 409.152 170.76ZM414.492 167.534C413.865 167.172 413.425 166.774 413.172 166.341C412.915 165.906 412.878 165.481 413.059 165.066C413.237 164.649 413.618 164.272 414.202 163.935C415.066 163.436 416.045 163.192 417.139 163.204C418.236 163.213 419.266 163.47 420.229 163.976L420.572 164.167C421.204 164.532 421.646 164.928 421.898 165.357C422.155 165.783 422.192 166.206 422.011 166.625C421.833 167.042 421.448 167.421 420.856 167.763C419.953 168.285 418.928 168.53 417.784 168.498C416.639 168.461 415.566 168.154 414.563 167.575L414.492 167.534ZM416.055 166.775C416.714 167.156 417.367 167.376 418.015 167.435C418.658 167.492 419.222 167.38 419.708 167.1C420.193 166.82 420.381 166.493 420.27 166.119C420.164 165.743 419.745 165.344 419.015 164.923C418.368 164.549 417.715 164.334 417.056 164.277C416.4 164.218 415.834 164.326 415.357 164.601C414.887 164.873 414.701 165.196 414.8 165.572C414.895 165.946 415.313 166.347 416.055 166.775ZM421.425 163.545C420.43 162.971 419.87 162.379 419.743 161.768C419.617 161.153 419.941 160.622 420.714 160.175C421.444 159.754 422.273 159.569 423.201 159.622L422.621 159.212L423.917 158.463L430.127 162.048C430.968 162.534 431.369 163.068 431.329 163.651C431.294 164.232 430.832 164.779 429.944 165.292C429.474 165.563 428.916 165.771 428.269 165.917C427.629 166.063 427.035 166.112 426.487 166.064L426.303 165.172C427.27 165.22 428.077 165.057 428.724 164.684C429.202 164.408 429.449 164.115 429.464 163.805C429.484 163.498 429.243 163.199 428.742 162.91L428.31 162.66C428.357 163.166 428.036 163.618 427.345 164.017C426.595 164.45 425.683 164.632 424.61 164.564C423.54 164.493 422.479 164.154 421.425 163.545ZM422.982 162.79C423.625 163.161 424.263 163.379 424.894 163.443C425.525 163.502 426.074 163.397 426.54 163.128C427.12 162.793 427.302 162.402 427.084 161.953L424.266 160.326C423.509 160.203 422.84 160.309 422.259 160.644C421.786 160.917 421.604 161.238 421.715 161.608C421.829 161.974 422.252 162.369 422.982 162.79ZM433.336 160.422L431.898 161.252L422.804 156.002L424.243 155.172L433.336 160.422ZM437.847 157.954C436.936 158.48 435.91 158.742 434.769 158.74C433.628 158.733 432.58 158.454 431.625 157.903L431.448 157.8C430.808 157.431 430.36 157.031 430.104 156.601C429.847 156.165 429.802 155.738 429.968 155.319C430.133 154.9 430.491 154.532 431.039 154.215C431.911 153.711 432.863 153.484 433.893 153.531C434.927 153.577 435.953 153.894 436.971 154.482L437.551 154.816L433.366 157.233C433.938 157.513 434.532 157.653 435.148 157.653C435.767 157.651 436.312 157.514 436.782 157.243C437.441 156.863 437.711 156.399 437.593 155.852L439.108 155.832C439.235 156.201 439.189 156.571 438.972 156.942C438.755 157.309 438.38 157.646 437.847 157.954ZM432.188 154.885C431.793 155.113 431.611 155.377 431.643 155.678C431.679 155.976 431.909 156.287 432.336 156.611L435.077 155.028L434.97 154.967C434.457 154.707 433.966 154.572 433.496 154.56C433.022 154.546 432.586 154.655 432.188 154.885Z" fill="#4C4C4C"/>
<path d="M521.919 320.623L519.772 321.862L524.043 324.327L522.117 325.439L511.034 319.041L514.931 316.791C516.21 316.053 517.484 315.648 518.752 315.578C520.021 315.508 521.198 315.786 522.284 316.413C523.025 316.841 523.467 317.303 523.609 317.801C523.751 318.294 523.637 318.802 523.266 319.326L530.376 320.557L530.475 320.614L528.412 321.805L521.919 320.623ZM518.227 320.97L520.206 319.827C520.856 319.452 521.201 319.066 521.242 318.667C521.277 318.266 521.011 317.901 520.442 317.573C519.849 317.23 519.219 317.063 518.555 317.072C517.895 317.078 517.225 317.271 516.545 317.652L514.513 318.825L518.227 320.97ZM535.445 317.92C534.273 318.597 532.953 318.934 531.487 318.931C530.02 318.922 528.673 318.563 527.445 317.854L527.217 317.722C526.395 317.248 525.819 316.734 525.489 316.18C525.159 315.62 525.101 315.071 525.314 314.532C525.527 313.993 525.986 313.52 526.692 313.113C527.813 312.465 529.036 312.172 530.36 312.234C531.69 312.293 533.009 312.7 534.318 313.456L535.064 313.886L529.683 316.993C530.419 317.353 531.182 317.533 531.974 317.533C532.771 317.531 533.471 317.355 534.075 317.006C534.922 316.517 535.27 315.921 535.118 315.218L537.066 315.191C537.229 315.666 537.17 316.142 536.891 316.619C536.612 317.091 536.13 317.525 535.445 317.92ZM528.168 313.974C527.661 314.267 527.427 314.607 527.468 314.994C527.514 315.377 527.81 315.777 528.358 316.193L531.883 314.159L531.746 314.08C531.086 313.746 530.454 313.571 529.85 313.557C529.241 313.539 528.681 313.678 528.168 313.974ZM535.536 312.867C534.258 312.129 533.537 311.367 533.375 310.582C533.212 309.791 533.628 309.108 534.623 308.534C535.562 307.992 536.627 307.755 537.82 307.822L537.074 307.295L538.741 306.333L546.726 310.942C547.806 311.566 548.321 312.253 548.271 313.003C548.225 313.75 547.631 314.453 546.49 315.112C545.886 315.461 545.168 315.729 544.335 315.916C543.513 316.104 542.75 316.167 542.044 316.105L541.808 314.958C543.052 315.02 544.089 314.81 544.922 314.33C545.536 313.976 545.853 313.599 545.873 313.201C545.898 312.805 545.589 312.421 544.944 312.049L544.389 311.729C544.45 312.379 544.036 312.961 543.148 313.473C542.184 314.03 541.012 314.264 539.631 314.176C538.256 314.085 536.891 313.649 535.536 312.867ZM537.538 311.896C538.365 312.373 539.185 312.653 539.997 312.735C540.809 312.811 541.514 312.676 542.113 312.331C542.859 311.9 543.092 311.396 542.813 310.819L539.19 308.727C538.216 308.569 537.356 308.705 536.61 309.136C536.001 309.488 535.767 309.901 535.909 310.375C536.056 310.847 536.599 311.354 537.538 311.896ZM550.874 308.837L549.024 309.905L540.788 305.15L542.638 304.083L550.874 308.837ZM538.885 302.321L540.994 301.103L541.192 303.652L539.708 304.509L538.885 302.321ZM555.357 303.665C555.027 303.475 554.639 303.409 554.193 303.467C553.751 303.523 553.15 303.695 552.389 303.982C551.627 304.269 550.935 304.475 550.311 304.601C548.941 304.877 547.832 304.77 546.984 304.28C546.274 303.87 545.98 303.355 546.101 302.734C546.223 302.113 546.746 301.535 547.669 301.002C548.654 300.434 549.692 300.116 550.783 300.049C551.879 299.978 552.815 300.167 553.591 300.616L551.742 301.683C551.386 301.478 550.96 301.385 550.463 301.402C549.961 301.417 549.491 301.55 549.055 301.802C548.649 302.036 548.41 302.282 548.339 302.54C548.273 302.795 548.398 303.013 548.712 303.195C548.996 303.359 549.336 303.418 549.732 303.371C550.128 303.324 550.77 303.138 551.658 302.813C552.541 302.485 553.3 302.266 553.934 302.158C554.568 302.044 555.139 302.019 555.646 302.083C556.159 302.145 556.636 302.303 557.077 302.558C557.818 302.986 558.113 303.51 557.96 304.131C557.803 304.749 557.227 305.345 556.233 305.919C555.558 306.309 554.835 306.586 554.063 306.75C553.292 306.914 552.546 306.958 551.825 306.882C551.105 306.806 550.498 306.625 550.006 306.341L551.803 305.304C552.264 305.542 552.767 305.641 553.31 305.603C553.848 305.562 554.368 305.397 554.87 305.107C555.357 304.825 555.636 304.559 555.707 304.307C555.773 304.052 555.657 303.838 555.357 303.665ZM553.112 295.725L555.114 296.881L556.567 296.041L557.938 296.832L556.484 297.671L561.081 300.326C561.396 300.507 561.685 300.604 561.949 300.616C562.213 300.621 562.505 300.532 562.824 300.348C563.037 300.225 563.228 300.085 563.395 299.93L564.826 300.756C564.522 301.067 564.174 301.335 563.783 301.56C562.363 302.381 560.868 302.338 559.3 301.433L554.634 298.739L553.279 299.521L551.909 298.73L553.264 297.948L551.262 296.793L553.112 295.725ZM563.989 293.708C563.705 293.825 563.433 293.958 563.174 294.108C562.327 294.597 562.081 295.114 562.436 295.659L568.069 298.911L566.219 299.978L557.983 295.224L559.749 294.204L560.716 294.71C560.447 294.039 560.708 293.475 561.5 293.018C561.764 292.866 562.017 292.76 562.261 292.702L563.989 293.708ZM576.396 294.103C576.158 294.059 575.83 293.952 575.414 293.783C575.439 294.477 575.026 295.07 574.173 295.562C573.346 296.04 572.435 296.293 571.441 296.322C570.446 296.352 569.601 296.166 568.906 295.764C568.028 295.258 567.681 294.682 567.863 294.037C568.046 293.387 568.744 292.712 569.957 292.012L571.091 291.357L570.55 291.045C570.124 290.799 569.665 290.671 569.173 290.663C568.675 290.651 568.183 290.786 567.696 291.067C567.275 291.31 567.036 291.571 566.98 291.849C566.919 292.124 567.051 292.356 567.376 292.543L565.526 293.611C565.075 293.35 564.803 293.021 564.712 292.622C564.616 292.221 564.712 291.808 565.001 291.383C565.296 290.956 565.76 290.559 566.394 290.192C567.358 289.636 568.371 289.333 569.431 289.283C570.487 289.23 571.461 289.453 572.354 289.951L576.069 292.095C576.81 292.523 577.505 292.804 578.154 292.939L578.284 293.014L576.396 294.103ZM573.032 294.508C573.397 294.297 573.651 294.048 573.793 293.761C573.94 293.471 573.945 293.192 573.808 292.926L572.255 292.029L571.258 292.605C570.573 293 570.177 293.367 570.071 293.703C569.964 294.04 570.129 294.335 570.565 294.587C570.921 294.792 571.322 294.888 571.768 294.877C572.215 294.859 572.636 294.736 573.032 294.508ZM571.989 284.827L573.991 285.983L575.445 285.143L576.815 285.934L575.361 286.774L579.958 289.428C580.273 289.609 580.562 289.706 580.826 289.718C581.09 289.724 581.382 289.634 581.701 289.45C581.915 289.327 582.105 289.188 582.272 289.032L583.703 289.858C583.399 290.169 583.051 290.437 582.66 290.663C581.24 291.483 579.745 291.44 578.177 290.535L573.511 287.842L572.156 288.624L570.786 287.833L572.141 287.051L570.139 285.895L571.989 284.827ZM588.879 287.073C587.707 287.749 586.388 288.086 584.921 288.083C583.455 288.074 582.107 287.716 580.879 287.007L580.651 286.875C579.829 286.4 579.253 285.886 578.923 285.332C578.593 284.773 578.535 284.224 578.748 283.685C578.961 283.146 579.42 282.672 580.126 282.265C581.247 281.618 582.47 281.325 583.795 281.386C585.124 281.445 586.443 281.852 587.753 282.608L588.499 283.039L583.117 286.145C583.853 286.506 584.617 286.686 585.408 286.686C586.205 286.683 586.905 286.507 587.509 286.159C588.357 285.669 588.704 285.073 588.552 284.37L590.501 284.344C590.663 284.818 590.605 285.294 590.325 285.772C590.046 286.243 589.564 286.677 588.879 287.073ZM581.602 283.127C581.095 283.419 580.862 283.759 580.902 284.146C580.948 284.53 581.245 284.93 581.793 285.346L585.317 283.311L585.18 283.232C584.52 282.898 583.888 282.724 583.285 282.709C582.676 282.691 582.115 282.831 581.602 283.127Z" fill="#4C4C4C"/>
<path d="M528.072 333.238C528.796 333.656 529.307 334.092 529.604 334.545C529.899 334.996 529.965 335.433 529.802 335.854C529.64 336.276 529.261 336.659 528.665 337.003C528.084 337.339 527.426 337.555 526.691 337.65C525.954 337.744 525.196 337.711 524.418 337.551C523.64 337.387 522.899 337.105 522.195 336.707L521.663 336.399C520.952 335.989 520.448 335.556 520.15 335.099C519.853 334.642 519.785 334.2 519.947 333.775C520.11 333.345 520.482 332.962 521.064 332.626C521.656 332.284 522.321 332.067 523.058 331.973C523.796 331.875 524.559 331.913 525.347 332.087C526.132 332.259 526.884 332.553 527.605 332.969L528.072 333.238ZM526.626 333.523C525.749 333.017 524.902 332.731 524.083 332.664C523.261 332.596 522.534 332.744 521.901 333.11C521.285 333.465 521.035 333.881 521.15 334.357C521.265 334.83 521.734 335.31 522.556 335.796L523.099 336.109C523.948 336.6 524.794 336.883 525.636 336.959C526.478 337.031 527.212 336.887 527.838 336.525C528.468 336.162 528.726 335.749 528.615 335.286C528.5 334.821 528.019 334.339 527.174 333.839L526.626 333.523ZM533.862 333.886L532.923 334.428L525.129 329.928L526.067 329.386L533.862 333.886ZM535.907 331.235L533.05 328.015L534.009 327.461L537.531 331.768L536.815 332.181L529.335 330.16L530.294 329.606L535.907 331.235ZM541.423 329.521L540.484 330.063L534.993 326.893L535.932 326.351L541.423 329.521ZM533.461 326.096C533.309 326.008 533.226 325.908 533.212 325.795C533.202 325.679 533.288 325.569 533.471 325.464C533.654 325.358 533.845 325.308 534.044 325.314C534.244 325.32 534.42 325.367 534.572 325.455C534.724 325.543 534.804 325.643 534.811 325.756C534.817 325.87 534.729 325.979 534.547 326.085C534.364 326.19 534.175 326.241 533.978 326.237C533.786 326.231 533.613 326.184 533.461 326.096ZM539.91 327.171C539.068 326.685 538.591 326.179 538.479 325.654C538.364 325.127 538.63 324.676 539.276 324.303C539.919 323.932 540.648 323.765 541.463 323.803L538.601 322.15L539.54 321.608L547.334 326.108L546.472 326.606L545.837 326.293C545.922 326.775 545.629 327.21 544.96 327.596C544.324 327.963 543.544 328.113 542.62 328.044C541.7 327.974 540.821 327.697 539.982 327.212L539.91 327.171ZM540.956 326.691C541.578 327.05 542.194 327.257 542.803 327.312C543.412 327.367 543.943 327.263 544.396 327.002C544.992 326.658 545.159 326.253 544.899 325.786L542.377 324.33C541.578 324.193 540.888 324.293 540.306 324.629C539.846 324.894 539.665 325.204 539.763 325.557C539.861 325.911 540.259 326.289 540.956 326.691ZM551.176 324.008C550.432 324.437 549.582 324.646 548.628 324.634C547.671 324.621 546.783 324.378 545.964 323.905L545.792 323.805C545.247 323.491 544.865 323.151 544.645 322.786C544.425 322.417 544.381 322.056 544.513 321.702C544.645 321.345 544.929 321.04 545.366 320.788C546.079 320.376 546.869 320.191 547.735 320.234C548.601 320.277 549.472 320.552 550.349 321.058L550.739 321.283L547.02 323.43C547.575 323.735 548.17 323.897 548.806 323.917C549.442 323.932 549.993 323.805 550.46 323.536C550.792 323.345 551.005 323.143 551.1 322.932C551.194 322.722 551.216 322.502 551.166 322.273L552.186 322.2C552.433 322.874 552.096 323.476 551.176 324.008ZM546.137 321.233C545.758 321.452 545.579 321.716 545.599 322.024C545.616 322.331 545.843 322.645 546.279 322.968L549.029 321.38L548.958 321.339C548.454 321.079 547.957 320.94 547.466 320.923C546.972 320.903 546.529 321.007 546.137 321.233ZM557.905 320.006L556.966 320.548L549.171 316.048L550.11 315.506L557.905 320.006ZM562.801 317.179C562.639 317.148 562.402 317.062 562.091 316.921C562.108 317.435 561.814 317.866 561.208 318.216C560.667 318.528 560.07 318.697 559.417 318.723C558.764 318.744 558.202 318.619 557.732 318.348C557.16 318.018 556.934 317.637 557.052 317.205C557.17 316.77 557.624 316.324 558.412 315.869L559.325 315.342L558.894 315.093C558.566 314.904 558.207 314.81 557.818 314.812C557.426 314.812 557.039 314.922 556.656 315.143C556.321 315.336 556.125 315.547 556.068 315.776C556.01 316.004 556.101 316.188 556.342 316.326L555.398 316.871C555.124 316.713 554.956 316.505 554.895 316.247C554.835 315.986 554.895 315.716 555.078 315.439C555.264 315.16 555.557 314.905 555.956 314.674C556.589 314.309 557.243 314.115 557.92 314.091C558.593 314.066 559.214 314.209 559.782 314.522L562.309 315.981C562.813 316.272 563.278 316.466 563.705 316.564L563.786 316.611L562.801 317.179ZM560.528 317.665C560.822 317.495 561.025 317.29 561.137 317.05C561.249 316.81 561.242 316.585 561.117 316.376L559.99 315.726L559.254 316.151C558.104 316.815 557.866 317.341 558.539 317.73C558.833 317.9 559.161 317.976 559.523 317.958C559.885 317.941 560.22 317.843 560.528 317.665ZM569.18 312.729C569.515 312.536 569.706 312.308 569.753 312.046C569.801 311.785 569.686 311.558 569.408 311.367L570.296 310.854C570.594 311.046 570.785 311.281 570.87 311.56C570.954 311.839 570.914 312.125 570.748 312.416C570.586 312.705 570.318 312.957 569.946 313.171C569.199 313.603 568.355 313.803 567.414 313.772C566.474 313.737 565.57 313.469 564.704 312.969L564.547 312.878C564.013 312.57 563.635 312.239 563.415 311.885C563.196 311.532 563.153 311.183 563.289 310.839C563.427 310.494 563.747 310.176 564.248 309.887C564.863 309.532 565.559 309.343 566.333 309.322C567.111 309.299 567.808 309.449 568.424 309.773L567.536 310.286C567.154 310.096 566.727 310.007 566.257 310.016C565.787 310.022 565.374 310.128 565.019 310.333C564.542 310.608 564.344 310.922 564.425 311.273C564.506 311.621 564.872 311.982 565.521 312.357L565.699 312.46C566.332 312.825 566.949 313.031 567.551 313.078C568.153 313.124 568.696 313.008 569.18 312.729ZM570.038 309.773C569.5 309.463 569.121 309.123 568.901 308.754C568.684 308.383 568.647 308.021 568.789 307.67C568.935 307.316 569.249 307 569.733 306.721C570.481 306.289 571.343 306.09 572.321 306.123C573.302 306.154 574.222 306.418 575.082 306.914L575.148 306.952C575.682 307.261 576.059 307.598 576.279 307.963C576.499 308.324 576.536 308.683 576.391 309.041C576.249 309.396 575.931 309.717 575.437 310.002C574.693 310.431 573.83 310.631 572.849 310.599C571.871 310.566 570.956 310.303 570.104 309.811L570.038 309.773ZM571.093 309.293C571.702 309.644 572.331 309.845 572.981 309.896C573.634 309.945 574.197 309.833 574.671 309.559C575.148 309.284 575.34 308.958 575.249 308.581C575.154 308.202 574.77 307.818 574.097 307.43C573.495 307.082 572.864 306.884 572.204 306.835C571.545 306.782 570.978 306.892 570.505 307.166C570.041 307.433 569.852 307.756 569.936 308.133C570.021 308.51 570.406 308.896 571.093 309.293ZM574.407 304.14L575.127 304.521C575.019 303.974 575.303 303.505 575.98 303.114C577.14 302.445 578.38 302.485 579.699 303.235L583.328 305.329L582.389 305.871L578.756 303.774C578.356 303.547 577.972 303.431 577.604 303.425C577.238 303.417 576.868 303.522 576.492 303.738C576.188 303.914 576.002 304.115 575.934 304.342C575.867 304.568 575.9 304.795 576.036 305.022L579.948 307.28L579.009 307.822L573.519 304.652L574.407 304.14ZM579.197 299.839L580.527 300.607L581.552 300.015L582.277 300.434L581.252 301.026L584.657 302.991C584.877 303.118 585.089 303.188 585.292 303.199C585.491 303.209 585.701 303.151 585.921 303.024C586.029 302.961 586.158 302.863 586.306 302.731L587.068 303.17C586.888 303.352 586.682 303.51 586.449 303.645C586.029 303.887 585.586 303.996 585.119 303.973C584.652 303.949 584.185 303.803 583.718 303.533L580.313 301.568L579.314 302.145L578.588 301.726L579.588 301.149L578.258 300.381L579.197 299.839ZM586.149 298.333C585.983 298.402 585.818 298.484 585.652 298.58C585.036 298.935 584.881 299.328 585.185 299.757L589.082 302.007L588.143 302.549L582.653 299.379L583.566 298.852L584.216 299.209C584.033 298.748 584.224 298.355 584.789 298.029C584.972 297.923 585.134 297.857 585.276 297.83L586.149 298.333ZM594.852 298.676C594.689 298.645 594.453 298.559 594.141 298.418C594.158 298.932 593.864 299.364 593.258 299.713C592.717 300.026 592.12 300.195 591.467 300.22C590.814 300.242 590.253 300.117 589.782 299.845C589.211 299.515 588.984 299.134 589.102 298.703C589.221 298.267 589.674 297.822 590.462 297.367L591.376 296.839L590.945 296.59C590.616 296.401 590.258 296.307 589.869 296.309C589.476 296.309 589.089 296.42 588.707 296.64C588.372 296.834 588.176 297.044 588.118 297.273C588.061 297.501 588.152 297.685 588.392 297.824L587.448 298.369C587.174 298.21 587.007 298.002 586.946 297.745C586.885 297.483 586.946 297.213 587.129 296.936C587.315 296.657 587.607 296.402 588.006 296.172C588.639 295.806 589.294 295.612 589.97 295.589C590.643 295.563 591.264 295.707 591.833 296.019L594.36 297.478C594.864 297.769 595.329 297.963 595.755 298.061L595.836 298.108L594.852 298.676ZM592.578 299.163C592.873 298.993 593.076 298.788 593.187 298.547C593.299 298.307 593.292 298.083 593.167 297.874L592.041 297.223L591.305 297.648C590.155 298.312 589.916 298.838 590.589 299.227C590.884 299.397 591.212 299.473 591.574 299.455C591.936 299.438 592.271 299.34 592.578 299.163ZM598.856 294.683C598.602 294.537 598.309 294.479 597.978 294.51C597.646 294.538 597.191 294.66 596.613 294.877C596.038 295.091 595.539 295.239 595.116 295.319C594.696 295.397 594.321 295.419 593.989 295.383C593.661 295.346 593.362 295.25 593.091 295.093C592.641 294.834 592.45 294.505 592.518 294.106C592.589 293.706 592.92 293.335 593.512 292.993C594.135 292.634 594.799 292.435 595.506 292.398C596.217 292.359 596.822 292.484 597.323 292.773L596.379 293.318C596.122 293.17 595.791 293.105 595.385 293.125C594.982 293.142 594.615 293.247 594.284 293.438C593.942 293.636 593.749 293.833 593.705 294.03C593.661 294.227 593.759 294.395 593.999 294.534C594.226 294.665 594.487 294.712 594.781 294.675C595.075 294.637 595.508 294.514 596.08 294.305C596.655 294.094 597.161 293.947 597.597 293.863C598.034 293.779 598.424 293.757 598.769 293.796C599.114 293.831 599.434 293.933 599.728 294.103C600.219 294.386 600.417 294.727 600.322 295.126C600.224 295.522 599.862 295.901 599.236 296.262C598.796 296.516 598.33 296.696 597.836 296.801C597.342 296.907 596.86 296.935 596.389 296.886C595.919 296.834 595.522 296.713 595.197 296.526L596.136 295.984C596.467 296.156 596.843 296.228 597.262 296.201C597.682 296.17 598.084 296.043 598.47 295.82C598.825 295.615 599.038 295.41 599.109 295.205C599.18 294.996 599.096 294.822 598.856 294.683ZM604.854 293.019C604.109 293.449 603.26 293.658 602.306 293.646C601.349 293.633 600.461 293.389 599.642 292.917L599.47 292.817C598.925 292.503 598.543 292.163 598.323 291.798C598.103 291.429 598.059 291.067 598.191 290.714C598.323 290.356 598.607 290.052 599.043 289.8C599.757 289.388 600.547 289.203 601.413 289.246C602.279 289.289 603.15 289.564 604.027 290.069L604.417 290.295L600.698 292.442C601.252 292.747 601.848 292.909 602.484 292.929C603.12 292.944 603.671 292.817 604.138 292.548C604.47 292.356 604.683 292.155 604.778 291.944C604.872 291.733 604.894 291.514 604.844 291.285L605.863 291.212C606.11 291.886 605.774 292.488 604.854 293.019ZM599.815 290.245C599.436 290.464 599.257 290.728 599.277 291.036C599.294 291.343 599.52 291.657 599.957 291.979L602.707 290.392L602.636 290.351C602.132 290.091 601.635 289.952 601.144 289.935C600.65 289.915 600.207 290.019 599.815 290.245ZM603.382 287.412L604.103 287.793C603.994 287.246 604.279 286.778 604.955 286.387C606.116 285.717 607.355 285.757 608.675 286.507L612.303 288.602L611.364 289.144L607.731 287.046C607.332 286.82 606.948 286.703 606.579 286.698C606.214 286.69 605.843 286.794 605.468 287.011C605.163 287.187 604.977 287.388 604.909 287.614C604.842 287.841 604.876 288.068 605.011 288.294L608.923 290.553L607.985 291.095L602.494 287.925L603.382 287.412ZM604.346 284.383C604.712 284.594 604.903 284.826 604.92 285.077C604.94 285.327 604.794 285.542 604.483 285.722C604.345 285.802 604.208 285.862 604.072 285.901C603.937 285.94 603.734 285.977 603.463 286.012C603.196 286.045 603.015 286.077 602.92 286.109C602.826 286.136 602.731 286.177 602.636 286.232C602.497 286.312 602.433 286.411 602.443 286.531C602.45 286.648 602.536 286.754 602.702 286.85L602.037 287.193C601.675 286.984 601.477 286.752 601.444 286.498C601.413 286.242 601.555 286.024 601.87 285.842C601.988 285.774 602.112 285.722 602.24 285.687C602.369 285.652 602.563 285.616 602.824 285.578C603.084 285.541 603.272 285.507 603.387 285.476C603.506 285.443 603.617 285.396 603.722 285.335C603.868 285.251 603.93 285.149 603.91 285.028C603.893 284.905 603.808 284.799 603.656 284.711L604.346 284.383ZM617.109 285.827C616.946 285.796 616.709 285.71 616.398 285.57C616.415 286.083 616.121 286.515 615.515 286.864C614.974 287.177 614.377 287.346 613.724 287.371C613.071 287.393 612.509 287.268 612.039 286.996C611.467 286.666 611.241 286.285 611.359 285.854C611.478 285.418 611.931 284.973 612.719 284.518L613.633 283.991L613.201 283.742C612.873 283.552 612.514 283.458 612.125 283.46C611.733 283.46 611.346 283.571 610.963 283.791C610.628 283.985 610.432 284.196 610.375 284.424C610.317 284.653 610.409 284.836 610.649 284.975L609.705 285.52C609.431 285.362 609.263 285.154 609.202 284.896C609.142 284.634 609.202 284.365 609.385 284.087C609.571 283.808 609.864 283.553 610.263 283.323C610.896 282.958 611.55 282.763 612.227 282.74C612.9 282.714 613.521 282.858 614.089 283.17L616.616 284.629C617.12 284.92 617.586 285.115 618.012 285.212L618.093 285.259L617.109 285.827ZM614.835 286.314C615.129 286.144 615.332 285.939 615.444 285.699C615.556 285.458 615.549 285.234 615.424 285.025L614.297 284.374L613.561 284.799C612.411 285.463 612.173 285.99 612.846 286.378C613.14 286.548 613.468 286.624 613.83 286.607C614.192 286.589 614.527 286.491 614.835 286.314Z" fill="#96AC78"/>
<g clip-path="url(#clip0)">
<path d="M212.005 161.502L207.376 158.176C208.166 158.763 209.145 159.284 210.2 159.762C222.214 164.911 237.76 160.195 238.552 159.955L243.181 163.282C242.351 163.543 226.843 168.237 214.829 163.089C213.774 162.611 212.795 162.089 212.005 161.502Z" fill="#C4C4C4"/>
<path d="M238.627 159.955L243.256 163.282C243.219 163.303 243.143 163.303 243.105 163.325L238.477 159.999C238.514 159.977 238.59 159.977 238.627 159.955Z" fill="#C4C4C4"/>
<path d="M238.439 160.021L243.067 163.347C241.219 163.893 226.39 168.063 214.866 163.11C213.774 162.654 212.832 162.111 212.042 161.524L207.413 158.198C208.204 158.785 209.182 159.306 210.237 159.784C221.799 164.715 236.59 160.567 238.439 160.021Z" fill="#C4C4C4"/>
<path d="M284.169 118.19L288.798 121.516C297.454 127.734 291.124 140.385 273.224 151.284C268.428 154.183 258.576 158.523 258.048 158.741L253.419 155.415C253.947 155.197 263.799 150.857 268.595 147.958C286.495 137.059 292.825 124.407 284.169 118.19Z" fill="#C4C4C4"/>
<path d="M284.169 118.19L288.798 121.516C289.476 121.994 290.04 122.494 290.529 123.038L285.9 119.712C285.411 119.168 284.809 118.646 284.169 118.19Z" fill="#C4C4C4"/>
<path d="M285.862 119.734L290.491 123.06C291.468 124.147 292.106 125.387 292.404 126.737L287.775 123.411C287.477 122.061 286.84 120.821 285.862 119.734Z" fill="#C4C4C4"/>
<path d="M287.775 123.41L292.404 126.737C293.448 131.437 290.416 137.404 283.839 143.461L279.211 140.134C285.787 134.078 288.819 128.068 287.775 123.41Z" fill="#C4C4C4"/>
<path d="M279.173 140.113L283.802 143.439C280.892 146.075 277.341 148.734 273.149 151.284C273.111 151.306 273.036 151.349 272.998 151.371L268.369 148.045C268.407 148.023 268.482 147.98 268.52 147.958C272.75 145.386 276.338 142.749 279.173 140.113Z" fill="#C4C4C4"/>
<path d="M268.407 148.023L273.036 151.35C268.24 154.249 258.539 158.502 258.01 158.72L253.381 155.393C253.872 155.197 263.573 150.944 268.407 148.023Z" fill="#C4C4C4"/>
<path d="M250.679 165.169L255.307 168.495L243.256 163.282L238.627 159.955L250.679 165.169Z" fill="#D3D3D3"/>
<path d="M253.343 155.415L257.972 158.741L255.308 168.495L250.679 165.169L253.343 155.415Z" fill="#E8E8E8"/>
<path d="M222.987 128.43C242.587 116.506 268.729 111.238 281.308 116.625C293.887 122.012 288.157 136.056 268.558 147.98C263.762 150.879 253.91 155.219 253.381 155.437L250.716 165.191L238.627 159.999C237.797 160.261 222.288 164.954 210.274 159.806C197.658 154.354 203.35 140.331 222.987 128.43Z" fill="#F8F8F8"/>
<path d="M260.222 120.409C260.222 120.409 278.54 136.914 242.046 150.201C242.046 150.201 242.37 156.012 240.863 155.491C240.072 155.209 241.216 150.507 241.216 150.507C241.216 150.507 207.528 128.661 260.222 120.409Z" fill="#B2C0A0"/>
<path d="M230.427 152.78C230.427 152.78 176 131.561 237.736 111.483C237.698 111.461 270.341 129.085 230.427 152.78Z" fill="#749858"/>
<path d="M237.698 111.504C237.698 111.504 269.814 128.868 231.295 152.278C231.295 152.278 234.933 159.523 232.748 159.133C231.655 158.938 230.427 152.823 230.427 152.823C230.427 152.823 213.776 132.834 237.698 111.504Z" fill="#6E9153"/>
<path d="M263.028 142.782C262.425 142.696 262.087 142.326 262.276 141.956C264.283 138.754 274.61 125.62 277.518 123.855C278.764 123.092 283.287 123.741 283.322 124.851C283.357 125.874 267.975 140.014 265.178 142.628C264.913 142.868 264.385 142.999 263.933 142.912L263.028 142.782Z" fill="#B2C0A0"/>
<path d="M258.08 146.117C258.309 145.072 259.933 144.047 261.706 143.85C263.478 143.652 264.721 144.326 264.454 145.393C264.225 146.438 262.601 147.462 260.829 147.66C259.056 147.857 257.851 147.162 258.08 146.117Z" fill="#B2C0A0"/>
</g>
<path d="M259.682 196.348L263.818 197.704L267.871 195.364L249.684 189.689L244.675 192.581L254.631 203.008L258.518 200.764L256.065 198.436L259.682 196.348ZM253.799 196.552L251.887 194.752C251.284 194.188 250.328 193.396 249.725 192.809L249.767 192.785C250.806 193.12 252.24 193.636 253.238 193.972L256.397 195.052L253.799 196.552ZM269.346 194.512L273.109 192.341L258.351 183.821L254.589 185.993L269.346 194.512ZM280.986 183.401C280.799 183.221 280.321 182.849 279.718 182.501C276.912 180.881 273.067 180.294 269.762 182.201C266 184.373 267.538 187.037 269.907 188.405C273.15 190.277 277.182 190.253 280.778 188.177C282.046 187.445 283.21 186.581 283.958 185.597L280.965 184.421C280.342 185.117 279.531 185.705 278.575 186.257C277.245 187.025 275.623 187.433 274.688 187.037L280.986 183.401ZM272.111 185.597C271.529 185.189 270.926 184.361 272.028 183.725C273.212 183.041 274.563 183.509 275.145 183.845L272.111 185.597ZM286.62 184.54L290.382 182.369L285.331 179.453C285.082 179.309 284.874 179.165 284.728 179.057C284.105 178.457 284.396 177.761 285.498 177.125C285.892 176.897 286.225 176.753 286.558 176.633L283.045 174.605C282.712 174.725 282.567 174.809 282.234 175.001C281.341 175.517 280.571 176.561 281.59 177.773L281.507 177.821L279.511 176.837L276.311 178.685C277.225 179.141 278.223 179.693 279.844 180.629L286.62 184.54ZM283.728 172.195L285.64 173.299L284.372 174.031L287.116 175.615L288.384 174.883L291.979 176.959C293.538 177.859 294.869 178.243 296.116 178.243C297.196 178.243 298.506 177.943 299.608 177.307C300.564 176.755 301.27 176.203 301.541 175.855L298.693 174.211C298.464 174.439 298.319 174.523 297.882 174.775C296.968 175.303 296.199 175.171 294.972 174.463L292.042 172.771L294.162 171.547L291.418 169.963L289.298 171.187L286.388 169.507L283.728 172.195ZM306.504 166.198C303.948 164.722 300.788 164.29 297.276 166.318C295.156 167.542 294.262 168.73 293.971 169.306L296.964 170.289C297.276 169.677 298.024 168.814 299.105 168.19C300.477 167.398 301.246 167.482 301.661 167.722L301.744 167.77C298.273 169.773 297.026 171.909 299.77 173.493C301.474 174.477 304.28 174.609 306.38 173.397C307.481 172.761 308.188 171.993 308.084 171.117L308.167 171.069L309.248 171.477L312.615 169.533C311.992 169.294 310.973 168.778 309.955 168.19L306.504 166.198ZM304.987 169.497C305.174 169.605 305.361 169.713 305.465 169.821C305.86 170.265 305.673 170.805 305.132 171.117C304.488 171.489 303.74 171.537 303.096 171.165C302.181 170.637 302.617 169.905 304.156 169.018L304.987 169.497ZM326.084 161.758L316.648 151.031L312.657 153.334L316.71 157.426C317.811 158.542 319.038 159.706 320.41 160.882L320.368 160.906C318.206 160.066 316.315 159.406 314.299 158.746L307.294 156.43L303.179 158.806L321.636 164.326L326.084 161.758ZM336.643 151.271C336.456 151.091 335.978 150.719 335.375 150.371C332.569 148.751 328.724 148.163 325.419 150.071C321.657 152.243 323.195 154.906 325.564 156.274C328.807 158.146 332.839 158.122 336.435 156.046C337.703 155.314 338.867 154.45 339.615 153.466L336.622 152.291C335.998 152.986 335.188 153.574 334.232 154.126C332.901 154.894 331.28 155.302 330.345 154.906L336.643 151.271ZM327.768 153.466C327.186 153.058 326.583 152.231 327.684 151.595C328.869 150.911 330.22 151.379 330.802 151.715L327.768 153.466ZM342.277 152.41L346.039 150.238L340.988 147.322C340.739 147.178 340.531 147.034 340.385 146.926C339.762 146.326 340.053 145.63 341.154 144.994C341.549 144.766 341.882 144.622 342.214 144.502L338.702 142.474C338.369 142.594 338.224 142.678 337.891 142.87C336.997 143.386 336.228 144.43 337.247 145.642L337.164 145.69L335.168 144.706L331.967 146.554C332.882 147.01 333.88 147.562 335.501 148.498L342.277 152.41ZM342.371 135.317L347.671 138.377L347.629 138.401C346.507 138.281 345.239 138.629 344.116 139.277C341.705 140.668 341.498 143.068 344.969 145.048C348.17 146.896 352.202 146.944 354.571 145.576C355.756 144.892 356.546 143.908 356.068 142.864L356.109 142.84L357.627 143.548L360.952 141.628C360.225 141.256 358.915 140.548 357.648 139.816L346.112 133.157L342.371 135.317ZM352.472 141.148C352.721 141.292 352.95 141.424 353.096 141.58C353.657 142.048 353.615 142.696 352.867 143.128C351.828 143.728 350.248 143.704 348.668 142.792C347.338 142.024 346.777 141.052 348.045 140.32C348.814 139.876 349.957 139.888 350.83 140.224C350.996 140.296 351.183 140.404 351.329 140.488L352.472 141.148ZM368.754 132.733C368.567 132.553 368.089 132.181 367.486 131.833C364.68 130.213 360.835 129.625 357.53 131.533C353.768 133.705 355.306 136.368 357.676 137.736C360.918 139.608 364.95 139.584 368.546 137.508C369.814 136.776 370.978 135.913 371.726 134.929L368.733 133.753C368.11 134.449 367.299 135.037 366.343 135.589C365.013 136.356 363.392 136.764 362.456 136.368L368.754 132.733ZM359.879 134.929C359.297 134.521 358.694 133.693 359.796 133.057C360.98 132.373 362.331 132.841 362.913 133.177L359.879 134.929Z" fill="#9A9A9A"/>
<line y1="-0.5" x2="92.2621" y2="-0.5" transform="matrix(0.866044 -0.499967 0.866044 0.499967 304.742 273.911)" stroke="#759958"/>
<line y1="-0.5" x2="97.9775" y2="-0.5" transform="matrix(0.866044 -0.499967 0.866044 0.499967 403.737 216.761)" stroke="#759958"/>
<path d="M400.085 220.163C400.809 220.581 401.32 221.017 401.618 221.47C401.912 221.921 401.978 222.358 401.816 222.78C401.653 223.201 401.275 223.584 400.679 223.928C400.097 224.264 399.439 224.48 398.705 224.575C397.968 224.669 397.21 224.636 396.432 224.476C395.654 224.312 394.913 224.03 394.209 223.632L393.676 223.324C392.966 222.914 392.462 222.481 392.164 222.024C391.866 221.567 391.799 221.125 391.961 220.7C392.124 220.27 392.496 219.887 393.078 219.551C393.67 219.209 394.334 218.992 395.072 218.898C395.809 218.8 396.572 218.838 397.36 219.012C398.145 219.184 398.898 219.478 399.619 219.894L400.085 220.163ZM398.639 220.448C397.763 219.942 396.916 219.656 396.097 219.589C395.275 219.521 394.547 219.669 393.915 220.035C393.299 220.39 393.049 220.806 393.164 221.283C393.279 221.755 393.747 222.235 394.569 222.721L395.112 223.034C395.962 223.525 396.807 223.808 397.65 223.884C398.492 223.956 399.226 223.812 399.852 223.45C400.481 223.087 400.74 222.674 400.628 222.211C400.513 221.746 400.033 221.264 399.187 220.764L398.639 220.448Z" fill="#B2C0A0"/>
<path d="M293.207 234.85C292.507 234.445 292.043 233.955 291.817 233.437L289.433 232.061L287.049 233.437C287.332 234.693 288.316 235.853 289.893 236.763C291.469 237.674 293.48 238.242 295.655 238.405L298.039 237.029L295.655 235.653C294.757 235.522 293.908 235.254 293.207 234.85V234.85Z" fill="#FBBD00"/>
<path d="M300.72 234.85L300.72 236.763L304.035 236.763C305.611 235.853 306.596 234.693 306.879 233.437L304.497 232.062L302.116 233.437C301.886 233.959 301.416 234.448 300.72 234.85V234.85Z" fill="#0F9D58"/>
<path d="M295.655 235.653L295.655 238.405C296.086 238.438 296.523 238.454 296.964 238.454C299.635 238.454 302.146 237.854 304.035 236.763L300.72 234.85C299.35 235.641 297.41 235.909 295.655 235.653Z" fill="#31AA52"/>
<path d="M304.035 228.599C303.605 228.351 303.135 228.125 302.638 227.927L302.236 227.766L295.343 231.746L298.658 233.659L302.012 231.723C302.335 232.285 302.363 232.879 302.116 233.437L306.879 233.437C306.935 233.188 306.964 232.936 306.964 232.681C306.964 231.139 305.924 229.69 304.035 228.599V228.599Z" fill="#3C79E6"/>
<path d="M296.964 229.614L297.55 229.614L297.55 226.908L296.964 226.908C294.293 226.908 291.781 227.509 289.893 228.599L289.893 230.513L293.207 230.513C294.211 229.933 295.545 229.614 296.964 229.614Z" fill="#CF2D48"/>
<path d="M293.207 230.513L289.893 228.599C288.004 229.69 286.964 231.139 286.964 232.681C286.964 232.936 286.993 233.188 287.049 233.437L291.817 233.437C291.373 232.424 291.837 231.304 293.207 230.513V230.513Z" fill="#EB4132"/>
<defs>
<filter id="filter0_d" x="40.7666" y="47.9634" width="699.947" height="417.317" filterUnits="userSpaceOnUse" color-interpolation-filters="sRGB">
<feFlood flood-opacity="0" result="BackgroundImageFix"/>
<feColorMatrix in="SourceAlpha" type="matrix" values="0 0 0 0 0 0 0 0 0 0 0 0 0 0 0 0 0 0 127 0"/>
<feOffset dy="15"/>
<feGaussianBlur stdDeviation="2"/>
<feColorMatrix type="matrix" values="0 0 0 0 0 0 0 0 0 0 0 0 0 0 0 0 0 0 0.25 0"/>
<feBlend mode="normal" in2="BackgroundImageFix" result="effect1_dropShadow"/>
<feBlend mode="normal" in="SourceGraphic" in2="effect1_dropShadow" result="shape"/>
</filter>
<clipPath id="clip0">
<rect width="119.206" height="93.8951" fill="white" transform="matrix(0.866044 -0.499967 0.866044 0.499967 150.593 144.099)"/>
</clipPath>
</defs>
</svg>
