<svg width="790" height="466" viewBox="0 0 790 466" fill="none" xmlns="http://www.w3.org/2000/svg">
<path d="M719.349 314.404L551.479 410.453C531.234 421.996 498.665 421.925 478.671 410.238L61.5555 167.426C41.5611 155.739 41.6862 136.937 61.9312 125.394L229.801 29.345C250.046 17.8017 282.615 17.8731 302.609 29.56L719.725 272.372C739.594 283.987 739.343 302.861 719.349 314.404Z" fill="#262626"/>
<g filter="url(#filter0_d)">
<path d="M719.349 341.627L551.479 437.676C531.234 449.219 498.666 449.148 478.671 437.461L61.5556 194.648C41.5612 182.961 38.1159 139.03 58.3609 127.487L229.801 56.5676C250.046 45.0243 282.615 45.0956 302.61 56.7826L723.818 274.163C743.687 285.778 739.343 330.084 719.349 341.627Z" fill="#262626"/>
</g>
<path d="M243.884 37.9107L211.316 56.5687C206.915 59.1097 207.041 63.2476 211.568 65.8608L217.478 69.2725C222.005 71.8857 222.131 76.0236 217.73 78.5646L154.354 114.864C149.953 117.405 142.786 117.188 138.259 114.574L132.348 111.163C127.821 108.549 120.528 108.405 116.253 110.873L104.81 117.479L76.3913 133.742C62.1821 141.8 62.1826 155.012 76.1409 163.215L483.196 400.22C497.281 408.35 520.041 408.422 534.25 400.363L701.743 304.533C715.952 296.474 715.952 283.262 701.993 275.059L294.938 38.054C280.979 29.8514 257.968 29.7796 243.884 37.9107Z" fill="white"/>
<rect width="212.284" height="28.5768" rx="10" transform="matrix(0.866044 -0.499967 0.866044 0.499967 269.97 252.135)" fill="#EEF2E9"/>
<path d="M273.698 237.507C274.769 238.254 275.256 239.039 275.159 239.863C275.058 240.683 274.375 241.458 273.112 242.187C272.229 242.697 271.242 243.026 270.151 243.176C269.06 243.319 267.946 243.274 266.809 243.04C265.673 242.805 264.587 242.398 263.552 241.818L262.516 241.22C261.471 240.617 260.735 239.978 260.309 239.305C259.883 238.631 259.799 237.97 260.058 237.323C260.322 236.672 260.908 236.085 261.816 235.561C263.039 234.855 264.356 234.478 265.767 234.431C267.177 234.384 268.55 234.676 269.884 235.306L267.966 236.413C267.078 236.006 266.271 235.81 265.546 235.824C264.82 235.833 264.097 236.045 263.376 236.461C262.539 236.945 262.202 237.494 262.364 238.109C262.526 238.719 263.194 239.367 264.366 240.056L265.348 240.623C266.545 241.314 267.672 241.718 268.727 241.836C269.788 241.95 270.732 241.768 271.559 241.291C272.315 240.854 272.714 240.428 272.754 240.012C272.795 239.596 272.47 239.13 271.78 238.615L273.698 237.507ZM274.315 236.475C273.508 236.009 272.942 235.498 272.617 234.941C272.287 234.381 272.239 233.835 272.472 233.302C272.701 232.766 273.191 232.281 273.942 231.847C275.053 231.206 276.311 230.892 277.717 230.907C279.128 230.919 280.452 231.25 281.69 231.9L282.132 232.146C282.944 232.615 283.512 233.125 283.837 233.675C284.167 234.223 284.215 234.767 283.981 235.306C283.753 235.842 283.258 236.33 282.497 236.769C281.335 237.44 280.018 237.755 278.547 237.714C277.075 237.667 275.695 237.271 274.406 236.527L274.315 236.475ZM276.324 235.499C277.171 235.988 278.011 236.271 278.843 236.347C279.671 236.42 280.396 236.277 281.02 235.917C281.645 235.556 281.886 235.136 281.744 234.655C281.607 234.172 281.069 233.659 280.13 233.117C279.298 232.637 278.458 232.36 277.61 232.287C276.768 232.211 276.04 232.35 275.426 232.704C274.822 233.053 274.583 233.469 274.71 233.952C274.832 234.433 275.37 234.948 276.324 235.499ZM285.496 227.304C285.212 227.421 284.94 227.554 284.682 227.704C283.834 228.193 283.588 228.71 283.943 229.255L289.576 232.507L287.726 233.574L279.49 228.82L281.256 227.8L282.223 228.306C281.954 227.635 282.215 227.071 283.007 226.614C283.271 226.462 283.525 226.356 283.768 226.298L285.496 227.304ZM290.977 224.14C290.692 224.257 290.421 224.39 290.162 224.54C289.315 225.029 289.069 225.546 289.424 226.091L295.056 229.343L293.207 230.411L284.971 225.656L286.737 224.637L287.704 225.142C287.435 224.471 287.696 223.907 288.488 223.45C288.751 223.298 289.005 223.192 289.249 223.134L290.977 224.14ZM302.318 225.326C301.146 226.003 299.826 226.34 298.36 226.337C296.893 226.328 295.546 225.969 294.318 225.261L294.09 225.129C293.268 224.654 292.692 224.14 292.362 223.586C292.032 223.027 291.974 222.477 292.187 221.938C292.4 221.399 292.859 220.926 293.565 220.519C294.686 219.872 295.909 219.579 297.233 219.64C298.563 219.699 299.882 220.106 301.191 220.862L301.937 221.293L296.556 224.399C297.292 224.76 298.055 224.94 298.847 224.94C299.644 224.937 300.344 224.761 300.948 224.412C301.795 223.923 302.143 223.327 301.991 222.624L303.939 222.598C304.102 223.072 304.043 223.548 303.764 224.026C303.485 224.497 303.003 224.931 302.318 225.326ZM295.041 221.38C294.534 221.673 294.3 222.013 294.341 222.4C294.387 222.784 294.683 223.183 295.231 223.599L298.756 221.565L298.619 221.486C297.959 221.152 297.327 220.978 296.723 220.963C296.114 220.945 295.554 221.085 295.041 221.38ZM302.371 220.277C301.564 219.812 300.999 219.3 300.674 218.744C300.344 218.184 300.296 217.638 300.529 217.105C300.758 216.569 301.247 216.084 301.998 215.65C303.11 215.009 304.368 214.695 305.774 214.71C307.184 214.722 308.509 215.053 309.747 215.703L310.189 215.949C311 216.418 311.569 216.928 311.894 217.478C312.223 218.026 312.272 218.57 312.038 219.109C311.81 219.645 311.315 220.132 310.554 220.572C309.392 221.243 308.075 221.558 306.603 221.517C305.132 221.47 303.752 221.074 302.463 220.33L302.371 220.277ZM304.381 219.302C305.228 219.791 306.068 220.074 306.9 220.15C307.727 220.223 308.453 220.08 309.077 219.719C309.701 219.359 309.942 218.939 309.8 218.458C309.663 217.975 309.125 217.462 308.187 216.92C307.354 216.44 306.515 216.163 305.667 216.09C304.825 216.014 304.097 216.153 303.483 216.507C302.879 216.856 302.64 217.272 302.767 217.755C302.889 218.236 303.427 218.751 304.381 219.302Z" fill="#4C4C4C"/>
<path d="M304.442 250.126C303.999 249.87 303.493 249.757 302.925 249.789C302.353 249.819 301.538 250.006 300.479 250.351C299.416 250.694 298.557 250.896 297.901 250.957C296.97 251.046 296.189 250.908 295.559 250.545C294.947 250.191 294.701 249.76 294.822 249.25C294.943 248.736 295.396 248.252 296.18 247.799C296.711 247.493 297.288 247.278 297.912 247.155C298.538 247.03 299.15 247.007 299.748 247.085C300.345 247.164 300.869 247.333 301.32 247.593L300.638 247.987C300.092 247.671 299.467 247.526 298.764 247.552C298.056 247.575 297.387 247.769 296.757 248.133C296.145 248.486 295.795 248.847 295.707 249.215C295.615 249.581 295.79 249.891 296.229 250.145C296.636 250.38 297.131 250.477 297.714 250.437C298.296 250.396 299.046 250.226 299.962 249.926C300.875 249.623 301.622 249.426 302.205 249.335C302.784 249.242 303.314 249.226 303.794 249.288C304.274 249.349 304.714 249.495 305.113 249.726C305.743 250.09 305.996 250.528 305.872 251.04C305.751 251.55 305.278 252.042 304.453 252.519C303.889 252.844 303.27 253.086 302.595 253.242C301.925 253.397 301.285 253.44 300.677 253.372C300.072 253.302 299.535 253.132 299.066 252.861L299.742 252.471C300.307 252.797 300.963 252.932 301.71 252.877C302.458 252.822 303.182 252.593 303.882 252.188C304.505 251.829 304.868 251.461 304.97 251.084C305.073 250.707 304.897 250.388 304.442 250.126ZM311.473 247.469C311.653 248.03 311.309 248.561 310.44 249.062C309.806 249.428 309.141 249.601 308.444 249.58C307.744 249.556 307.03 249.339 306.3 248.926L302.43 246.692L303.085 246.314L306.872 248.501C308.005 249.154 309.029 249.217 309.945 248.688C310.898 248.138 311.107 247.562 310.572 246.962L306.267 244.477L306.927 244.096L312.875 247.53L312.238 247.898L311.473 247.469ZM319.082 243.432C319.54 243.168 319.795 242.873 319.846 242.547C319.897 242.217 319.731 241.926 319.346 241.674L319.978 241.309C320.322 241.529 320.54 241.786 320.632 242.08C320.72 242.372 320.674 242.668 320.495 242.966C320.319 243.262 320.033 243.524 319.637 243.753C318.856 244.204 317.966 244.405 316.965 244.356C315.968 244.305 315.012 244.015 314.096 243.486L313.898 243.372C313.311 243.034 312.895 242.675 312.65 242.296C312.404 241.918 312.349 241.547 312.485 241.186C312.624 240.822 312.95 240.492 313.464 240.195C314.116 239.819 314.847 239.621 315.657 239.602C316.471 239.581 317.209 239.745 317.872 240.094L317.24 240.459C316.745 240.207 316.201 240.087 315.607 240.1C315.017 240.111 314.49 240.25 314.024 240.519C313.431 240.862 313.183 241.252 313.282 241.69C313.385 242.126 313.823 242.567 314.596 243.014L314.788 243.125C315.547 243.563 316.302 243.81 317.053 243.867C317.808 243.922 318.484 243.777 319.082 243.432ZM319.709 240.049C319.137 239.719 318.732 239.359 318.494 238.967C318.259 238.574 318.217 238.188 318.367 237.809C318.517 237.426 318.849 237.086 319.362 236.79C320.154 236.333 321.074 236.124 322.122 236.162C323.166 236.198 324.147 236.48 325.063 237.009L325.2 237.088C325.776 237.421 326.183 237.784 326.421 238.18C326.659 238.572 326.701 238.956 326.547 239.332C326.393 239.709 326.058 240.046 325.541 240.345C324.753 240.799 323.835 241.01 322.787 240.976C321.739 240.938 320.757 240.654 319.84 240.126L319.709 240.049ZM320.55 239.773C321.261 240.184 322.028 240.415 322.853 240.468C323.678 240.517 324.389 240.369 324.986 240.024C325.58 239.681 325.833 239.273 325.745 238.799C325.657 238.321 325.239 237.866 324.491 237.434L324.365 237.361C323.91 237.099 323.41 236.907 322.864 236.787C322.318 236.666 321.79 236.635 321.281 236.692C320.768 236.747 320.315 236.887 319.923 237.114C319.337 237.452 319.089 237.862 319.181 238.342C319.269 238.82 319.685 239.274 320.429 239.703L320.55 239.773ZM326.806 233.267C326.641 233.333 326.479 233.411 326.322 233.502C325.911 233.739 325.679 234.007 325.624 234.305C325.569 234.599 325.699 234.907 326.014 235.229L330.099 237.587L329.444 237.964L323.496 234.53L324.139 234.159L325.096 234.699C324.74 234.091 324.947 233.566 325.717 233.121C325.9 233.016 326.069 232.946 326.223 232.912L326.806 233.267ZM330.599 231.078C330.434 231.143 330.273 231.221 330.115 231.312C329.705 231.549 329.472 231.817 329.417 232.115C329.362 232.409 329.492 232.717 329.807 233.039L333.892 235.397L333.237 235.775L327.289 232.341L327.933 231.969L328.889 232.509C328.534 231.902 328.741 231.376 329.51 230.932C329.694 230.826 329.862 230.756 330.016 230.722L330.599 231.078ZM339.334 232.382C338.828 232.674 338.246 232.866 337.586 232.96C336.93 233.05 336.267 233.034 335.596 232.909C334.922 232.782 334.308 232.559 333.754 232.239L333.518 232.103C332.946 231.773 332.541 231.412 332.303 231.02C332.068 230.627 332.019 230.241 332.155 229.862C332.286 229.481 332.583 229.158 333.045 228.891C333.767 228.474 334.586 228.287 335.502 228.329C336.419 228.367 337.304 228.633 338.158 229.126L338.526 229.338L334.282 231.788L334.408 231.861C335.083 232.251 335.838 232.464 336.673 232.503C337.509 232.536 338.22 232.384 338.806 232.046C339.158 231.842 339.404 231.627 339.543 231.398C339.686 231.167 339.726 230.907 339.664 230.617L340.39 230.56C340.606 231.244 340.254 231.851 339.334 232.382ZM333.606 229.215C333.111 229.5 332.875 229.846 332.897 230.252C332.922 230.657 333.205 231.056 333.743 231.452L337.311 229.392L337.24 229.351C336.65 229.032 336.021 228.857 335.354 228.827C334.687 228.798 334.104 228.927 333.606 229.215ZM339.312 228.732C338.74 228.402 338.335 228.041 338.097 227.65C337.863 227.257 337.82 226.87 337.971 226.492C338.121 226.109 338.453 225.769 338.966 225.473C339.757 225.016 340.677 224.806 341.725 224.845C342.77 224.881 343.75 225.163 344.666 225.692L344.804 225.771C345.379 226.103 345.786 226.467 346.024 226.863C346.263 227.254 346.305 227.638 346.151 228.015C345.997 228.392 345.662 228.729 345.145 229.027C344.357 229.482 343.439 229.693 342.391 229.659C341.342 229.621 340.36 229.337 339.444 228.808L339.312 228.732ZM340.153 228.456C340.864 228.867 341.632 229.098 342.457 229.151C343.281 229.2 343.992 229.052 344.59 228.707C345.183 228.364 345.436 227.956 345.348 227.482C345.26 227.004 344.842 226.549 344.095 226.117L343.968 226.044C343.514 225.782 343.014 225.59 342.468 225.47C341.921 225.349 341.394 225.317 340.884 225.375C340.371 225.43 339.919 225.57 339.526 225.797C338.94 226.135 338.693 226.545 338.784 227.025C338.872 227.503 339.288 227.957 340.032 228.386L340.153 228.456ZM354.199 223.8C353.693 224.092 353.11 224.285 352.451 224.378C351.795 224.469 351.131 224.452 350.461 224.327C349.786 224.2 349.172 223.977 348.619 223.658L348.383 223.521C347.811 223.191 347.406 222.83 347.168 222.439C346.933 222.045 346.884 221.659 347.019 221.281C347.151 220.9 347.448 220.576 347.91 220.309C348.632 219.893 349.451 219.705 350.367 219.748C351.283 219.786 352.169 220.051 353.022 220.544L353.391 220.757L349.147 223.207L349.273 223.28C349.948 223.669 350.703 223.883 351.538 223.921C352.374 223.955 353.085 223.803 353.671 223.464C354.023 223.261 354.269 223.045 354.408 222.817C354.551 222.586 354.591 222.326 354.529 222.036L355.254 221.979C355.471 222.662 355.119 223.269 354.199 223.8ZM348.471 220.633C347.976 220.919 347.74 221.265 347.762 221.671C347.787 222.075 348.069 222.475 348.608 222.871L352.176 220.811L352.104 220.77C351.514 220.45 350.886 220.276 350.219 220.246C349.552 220.216 348.969 220.345 348.471 220.633ZM358.338 221.284L357.679 221.665L349.235 216.79L349.894 216.409L358.338 221.284ZM362.544 218.983C362.038 219.275 361.455 219.467 360.796 219.56C360.14 219.651 359.476 219.635 358.806 219.51C358.131 219.383 357.517 219.16 356.964 218.84L356.728 218.704C356.156 218.374 355.751 218.013 355.513 217.621C355.278 217.228 355.229 216.842 355.364 216.463C355.496 216.082 355.793 215.758 356.255 215.492C356.977 215.075 357.796 214.888 358.712 214.93C359.628 214.968 360.514 215.234 361.367 215.727L361.736 215.939L357.492 218.389L357.618 218.462C358.293 218.852 359.048 219.065 359.883 219.103C360.719 219.137 361.43 218.985 362.016 218.646C362.368 218.443 362.614 218.228 362.753 217.999C362.896 217.768 362.936 217.508 362.874 217.218L363.599 217.161C363.816 217.845 363.464 218.452 362.544 218.983ZM356.816 215.816C356.321 216.101 356.084 216.447 356.106 216.853C356.132 217.257 356.414 217.657 356.953 218.053L360.521 215.993L360.449 215.952C359.859 215.633 359.231 215.458 358.564 215.428C357.897 215.399 357.314 215.528 356.816 215.816ZM367.7 215.365C368.159 215.1 368.413 214.805 368.465 214.48C368.516 214.149 368.349 213.859 367.964 213.607L368.596 213.242C368.941 213.462 369.159 213.719 369.251 214.013C369.339 214.305 369.293 214.6 369.113 214.898C368.937 215.195 368.651 215.457 368.256 215.685C367.475 216.136 366.584 216.337 365.584 216.288C364.587 216.238 363.631 215.948 362.714 215.419L362.516 215.305C361.93 214.966 361.514 214.608 361.268 214.229C361.023 213.85 360.968 213.48 361.104 213.118C361.243 212.754 361.569 212.424 362.082 212.128C362.734 211.751 363.466 211.553 364.276 211.534C365.089 211.513 365.828 211.677 366.491 212.026L365.859 212.391C365.364 212.139 364.82 212.02 364.226 212.033C363.636 212.043 363.108 212.183 362.643 212.452C362.049 212.794 361.802 213.185 361.901 213.623C362.003 214.058 362.441 214.5 363.215 214.946L363.407 215.057C364.166 215.495 364.921 215.743 365.672 215.8C366.427 215.855 367.103 215.71 367.7 215.365ZM365.304 208.637L366.826 209.516L368.058 208.805L368.596 209.116L367.365 209.827L371.329 212.115C371.658 212.306 371.963 212.413 372.241 212.439C372.523 212.462 372.804 212.393 373.082 212.233C373.192 212.169 373.352 212.056 373.561 211.893L374.127 212.188C374.017 212.324 373.813 212.477 373.517 212.648C373.066 212.909 372.608 213.023 372.142 212.991C371.673 212.957 371.184 212.793 370.674 212.499L366.705 210.208L365.611 210.839L365.073 210.528L366.167 209.897L364.644 209.018L365.304 208.637ZM372.73 206.755C372.566 206.821 372.404 206.899 372.247 206.99C371.836 207.227 371.604 207.494 371.549 207.793C371.494 208.087 371.624 208.395 371.939 208.716L376.023 211.074L375.369 211.452L369.421 208.018L370.064 207.647L371.021 208.186C370.665 207.579 370.872 207.053 371.642 206.609C371.825 206.503 371.994 206.433 372.148 206.399L372.73 206.755ZM375.628 207.767C375.056 207.437 374.651 207.077 374.413 206.685C374.178 206.292 374.136 205.905 374.286 205.527C374.436 205.144 374.768 204.804 375.281 204.508C376.073 204.051 376.993 203.842 378.041 203.88C379.085 203.916 380.066 204.198 380.982 204.727L381.119 204.806C381.695 205.138 382.102 205.502 382.34 205.898C382.578 206.289 382.62 206.673 382.466 207.05C382.312 207.427 381.977 207.764 381.46 208.062C380.672 208.517 379.754 208.728 378.706 208.694C377.658 208.656 376.676 208.372 375.76 207.843L375.628 207.767ZM376.469 207.491C377.18 207.902 377.947 208.133 378.772 208.186C379.597 208.235 380.308 208.087 380.905 207.742C381.499 207.399 381.752 206.991 381.664 206.517C381.576 206.039 381.158 205.584 380.41 205.152L380.284 205.079C379.829 204.817 379.329 204.625 378.783 204.505C378.237 204.384 377.709 204.352 377.2 204.41C376.687 204.465 376.234 204.605 375.842 204.832C375.256 205.17 375.008 205.58 375.1 206.06C375.188 206.538 375.604 206.992 376.348 207.421L376.469 207.491ZM373.55 202.753L374.347 202.293L374.616 203.915L374.039 204.248L373.55 202.753ZM380.042 201.887L381.081 202.461C380.938 202.12 380.938 201.799 381.081 201.496C381.22 201.192 381.491 200.923 381.895 200.69C382.532 200.322 383.186 200.152 383.857 200.179C384.528 200.207 385.224 200.427 385.946 200.839L389.849 203.093L389.195 203.47L385.286 201.214C384.751 200.909 384.242 200.746 383.758 200.725C383.278 200.702 382.794 200.831 382.307 201.112C381.9 201.347 381.667 201.63 381.609 201.96C381.55 202.285 381.662 202.617 381.944 202.953L386.018 205.305L385.363 205.682L379.415 202.248L380.042 201.887ZM392.29 201.683L391.63 202.064L385.682 198.63L386.342 198.25L392.29 201.683ZM383.846 197.704C383.722 197.632 383.657 197.548 383.654 197.453C383.646 197.356 383.712 197.267 383.852 197.186C383.991 197.106 384.145 197.068 384.313 197.072C384.482 197.072 384.629 197.108 384.753 197.18C384.878 197.252 384.94 197.337 384.94 197.434C384.944 197.529 384.876 197.617 384.737 197.697C384.597 197.778 384.445 197.817 384.28 197.815C384.115 197.813 383.971 197.776 383.846 197.704ZM395.836 199.122C396.294 198.858 396.549 198.563 396.6 198.237C396.651 197.907 396.485 197.616 396.1 197.364L396.732 196.999C397.076 197.219 397.294 197.476 397.386 197.77C397.474 198.062 397.428 198.358 397.249 198.656C397.073 198.952 396.787 199.214 396.391 199.443C395.61 199.894 394.72 200.095 393.719 200.046C392.723 199.995 391.766 199.705 390.85 199.176L390.652 199.062C390.065 198.724 389.649 198.365 389.404 197.986C389.158 197.607 389.103 197.237 389.239 196.875C389.378 196.512 389.704 196.181 390.218 195.885C390.87 195.509 391.601 195.311 392.411 195.292C393.225 195.271 393.963 195.435 394.626 195.784L393.994 196.149C393.499 195.897 392.955 195.777 392.362 195.79C391.771 195.801 391.244 195.94 390.778 196.209C390.185 196.552 389.937 196.942 390.036 197.38C390.139 197.816 390.577 198.257 391.35 198.703L391.542 198.815C392.301 199.252 393.056 199.5 393.807 199.557C394.562 199.612 395.238 199.467 395.836 199.122ZM396.463 195.739C395.891 195.409 395.486 195.048 395.248 194.657C395.013 194.264 394.971 193.877 395.121 193.499C395.271 193.116 395.603 192.776 396.116 192.48C396.908 192.023 397.828 191.814 398.876 191.852C399.92 191.888 400.901 192.17 401.817 192.699L401.954 192.778C402.53 193.11 402.937 193.474 403.175 193.87C403.413 194.261 403.455 194.645 403.301 195.022C403.147 195.399 402.812 195.736 402.295 196.034C401.507 196.489 400.589 196.7 399.541 196.666C398.493 196.628 397.511 196.344 396.594 195.815L396.463 195.739ZM397.304 195.463C398.015 195.874 398.782 196.105 399.607 196.158C400.432 196.207 401.143 196.059 401.74 195.714C402.334 195.371 402.587 194.963 402.499 194.489C402.411 194.011 401.993 193.556 401.245 193.124L401.119 193.051C400.664 192.789 400.164 192.597 399.618 192.477C399.072 192.356 398.544 192.324 398.035 192.382C397.522 192.437 397.069 192.577 396.677 192.804C396.091 193.142 395.843 193.552 395.935 194.032C396.023 194.51 396.439 194.964 397.183 195.393L397.304 195.463Z" fill="#759958"/>
<rect width="212.284" height="28.5768" rx="10" transform="matrix(0.866044 -0.499967 0.866044 0.499967 330.849 289.135)" fill="#EEF2E9"/>
<path d="M336.698 274.916C337.769 275.663 338.256 276.448 338.159 277.271C338.058 278.091 337.375 278.866 336.112 279.596C335.229 280.105 334.242 280.435 333.151 280.584C332.06 280.728 330.946 280.682 329.809 280.448C328.673 280.214 327.587 279.807 326.552 279.226L325.516 278.629C324.471 278.025 323.735 277.387 323.309 276.713C322.883 276.039 322.799 275.379 323.058 274.731C323.322 274.081 323.908 273.493 324.816 272.969C326.039 272.263 327.356 271.887 328.767 271.84C330.177 271.793 331.55 272.084 332.884 272.714L330.966 273.822C330.078 273.414 329.271 273.218 328.546 273.233C327.82 273.242 327.097 273.454 326.376 273.87C325.539 274.353 325.202 274.903 325.364 275.518C325.526 276.127 326.194 276.776 327.366 277.464L328.348 278.031C329.545 278.723 330.672 279.127 331.727 279.244C332.788 279.358 333.732 279.177 334.559 278.699C335.315 278.263 335.714 277.836 335.754 277.42C335.795 277.004 335.47 276.539 334.78 276.023L336.698 274.916ZM337.315 273.883C336.508 273.417 335.942 272.906 335.617 272.349C335.287 271.79 335.239 271.244 335.472 270.71C335.701 270.174 336.191 269.689 336.942 269.256C338.053 268.614 339.311 268.301 340.717 268.316C342.128 268.327 343.452 268.658 344.69 269.309L345.132 269.555C345.944 270.023 346.512 270.533 346.837 271.084C347.167 271.632 347.215 272.175 346.981 272.714C346.753 273.25 346.258 273.738 345.497 274.177C344.335 274.848 343.018 275.163 341.547 275.122C340.075 275.075 338.695 274.68 337.406 273.936L337.315 273.883ZM339.324 272.908C340.171 273.397 341.011 273.679 341.843 273.756C342.671 273.829 343.396 273.685 344.02 273.325C344.645 272.965 344.886 272.544 344.744 272.064C344.607 271.58 344.069 271.068 343.13 270.526C342.298 270.045 341.458 269.769 340.61 269.695C339.768 269.619 339.04 269.758 338.426 270.113C337.822 270.461 337.583 270.877 337.71 271.361C337.832 271.841 338.37 272.357 339.324 272.908ZM344.211 265.235L345.215 265.754C345.089 264.977 345.52 264.304 346.509 263.732C348.225 262.742 350.079 262.805 352.074 263.921L357.516 267.063L355.666 268.131L350.331 265.051C349.808 264.749 349.308 264.592 348.831 264.58C348.354 264.563 347.859 264.702 347.347 264.998C346.601 265.429 346.383 265.944 346.692 266.545L352.553 269.928L350.704 270.996L342.468 266.241L344.211 265.235ZM351.488 258.723L353.489 259.879L354.943 259.039L356.313 259.83L354.86 260.67L359.457 263.324C359.772 263.505 360.061 263.602 360.325 263.614C360.589 263.62 360.88 263.53 361.2 263.346C361.413 263.223 361.603 263.083 361.771 262.928L363.202 263.754C362.897 264.065 362.55 264.333 362.159 264.558C360.738 265.379 359.244 265.336 357.676 264.431L353.01 261.737L351.655 262.52L350.285 261.729L351.64 260.946L349.638 259.791L351.488 258.723ZM362.365 256.706C362.08 256.823 361.809 256.956 361.55 257.106C360.703 257.595 360.457 258.112 360.812 258.657L366.445 261.909L364.595 262.977L356.359 258.222L358.125 257.203L359.092 257.708C358.823 257.037 359.084 256.473 359.876 256.016C360.14 255.864 360.393 255.758 360.637 255.7L362.365 256.706ZM374.772 257.101C374.533 257.058 374.206 256.951 373.79 256.781C373.815 257.475 373.402 258.068 372.549 258.56C371.722 259.038 370.811 259.291 369.817 259.321C368.822 259.35 367.977 259.164 367.282 258.762C366.404 258.256 366.056 257.68 366.239 257.036C366.422 256.385 367.119 255.71 368.332 255.01L369.466 254.355L368.926 254.043C368.5 253.797 368.04 253.67 367.548 253.661C367.051 253.649 366.559 253.784 366.072 254.065C365.65 254.308 365.412 254.569 365.356 254.847C365.295 255.123 365.427 255.354 365.752 255.541L363.902 256.609C363.451 256.349 363.179 256.019 363.088 255.621C362.991 255.219 363.088 254.806 363.377 254.381C363.671 253.954 364.136 253.557 364.77 253.191C365.734 252.634 366.746 252.331 367.807 252.281C368.863 252.228 369.837 252.451 370.73 252.949L374.444 255.093C375.185 255.521 375.881 255.802 376.53 255.937L376.659 256.012L374.772 257.101ZM371.407 257.506C371.773 257.295 372.026 257.046 372.169 256.759C372.316 256.469 372.321 256.19 372.184 255.924L370.631 255.027L369.634 255.603C368.949 255.998 368.553 256.365 368.446 256.702C368.34 257.038 368.505 257.333 368.941 257.585C369.296 257.79 369.697 257.887 370.144 257.875C370.59 257.857 371.012 257.734 371.407 257.506ZM380.663 251.116C380.333 250.926 379.945 250.86 379.499 250.919C379.057 250.974 378.456 251.146 377.695 251.433C376.933 251.72 376.241 251.926 375.617 252.052C374.247 252.328 373.138 252.221 372.29 251.732C371.58 251.322 371.286 250.806 371.407 250.185C371.529 249.564 372.052 248.987 372.975 248.454C373.96 247.885 374.998 247.567 376.089 247.5C377.185 247.43 378.121 247.619 378.897 248.067L377.048 249.135C376.692 248.93 376.266 248.836 375.769 248.853C375.267 248.868 374.797 249.001 374.361 249.253C373.955 249.488 373.716 249.734 373.645 249.992C373.579 250.246 373.704 250.465 374.018 250.646C374.302 250.81 374.642 250.869 375.038 250.822C375.434 250.775 376.076 250.589 376.964 250.264C377.847 249.936 378.606 249.718 379.24 249.609C379.874 249.495 380.445 249.47 380.952 249.535C381.465 249.596 381.942 249.754 382.383 250.009C383.124 250.437 383.419 250.961 383.266 251.582C383.109 252.2 382.533 252.797 381.539 253.371C380.864 253.76 380.141 254.037 379.369 254.201C378.598 254.365 377.852 254.409 377.131 254.333C376.411 254.257 375.804 254.077 375.312 253.793L377.109 252.756C377.57 252.993 378.073 253.092 378.616 253.054C379.154 253.013 379.674 252.848 380.176 252.558C380.663 252.277 380.942 252.01 381.013 251.758C381.079 251.503 380.963 251.289 380.663 251.116ZM390.117 248.418C388.945 249.095 387.625 249.432 386.159 249.429C384.692 249.42 383.345 249.061 382.117 248.353L381.889 248.221C381.067 247.746 380.491 247.232 380.161 246.678C379.831 246.119 379.773 245.569 379.986 245.03C380.199 244.491 380.658 244.018 381.364 243.611C382.485 242.964 383.708 242.671 385.032 242.732C386.362 242.791 387.681 243.198 388.99 243.954L389.736 244.385L384.355 247.491C385.091 247.852 385.854 248.032 386.646 248.032C387.443 248.029 388.143 247.853 388.747 247.504C389.594 247.015 389.942 246.419 389.79 245.716L391.738 245.69C391.901 246.164 391.842 246.64 391.563 247.118C391.284 247.589 390.802 248.023 390.117 248.418ZM382.84 244.472C382.333 244.765 382.099 245.105 382.14 245.492C382.186 245.876 382.482 246.275 383.03 246.691L386.555 244.657L386.418 244.578C385.758 244.244 385.126 244.07 384.522 244.055C383.913 244.037 383.353 244.177 382.84 244.472ZM388.191 239.845L389.196 240.364C389.069 239.587 389.5 238.914 390.49 238.342C392.205 237.352 394.06 237.415 396.054 238.531L401.497 241.673L399.647 242.741L394.311 239.661C393.788 239.359 393.289 239.202 392.812 239.191C392.335 239.173 391.84 239.312 391.327 239.608C390.581 240.039 390.363 240.554 390.673 241.155L396.534 244.538L394.684 245.606L386.448 240.852L388.191 239.845ZM389.394 235.354C389.952 235.677 390.254 236.038 390.3 236.44C390.35 236.838 390.132 237.178 389.645 237.459C389.447 237.573 389.254 237.661 389.067 237.723C388.879 237.778 388.574 237.84 388.153 237.907C387.737 237.972 387.458 238.027 387.316 238.074C387.179 238.118 387.044 238.178 386.912 238.255C386.72 238.366 386.628 238.504 386.638 238.668C386.649 238.826 386.77 238.972 387.004 239.107L385.809 239.727C385.251 239.404 384.941 239.041 384.88 238.637C384.824 238.23 385.037 237.887 385.52 237.609C385.809 237.442 386.271 237.307 386.905 237.204C387.544 237.099 387.996 236.97 388.26 236.818C388.453 236.706 388.546 236.57 388.541 236.409C388.531 236.245 388.407 236.094 388.168 235.956L389.394 235.354ZM408.309 237.74C408.07 237.696 407.743 237.59 407.327 237.42C407.352 238.114 406.939 238.707 406.086 239.199C405.259 239.677 404.348 239.93 403.354 239.959C402.359 239.989 401.514 239.803 400.819 239.401C399.941 238.895 399.594 238.319 399.776 237.674C399.959 237.024 400.657 236.349 401.869 235.649L403.004 234.994L402.463 234.682C402.037 234.436 401.578 234.308 401.085 234.3C400.588 234.288 400.096 234.423 399.609 234.704C399.188 234.947 398.949 235.208 398.893 235.486C398.832 235.762 398.964 235.993 399.289 236.18L397.439 237.248C396.988 236.988 396.716 236.658 396.625 236.26C396.529 235.858 396.625 235.445 396.914 235.02C397.209 234.593 397.673 234.196 398.307 233.83C399.271 233.273 400.284 232.97 401.344 232.92C402.4 232.867 403.374 233.09 404.267 233.588L407.982 235.732C408.723 236.16 409.418 236.441 410.067 236.576L410.197 236.651L408.309 237.74ZM404.945 238.145C405.31 237.934 405.564 237.685 405.706 237.398C405.853 237.108 405.858 236.829 405.721 236.563L404.168 235.666L403.171 236.242C402.486 236.637 402.09 237.004 401.984 237.341C401.877 237.677 402.042 237.972 402.478 238.224C402.834 238.429 403.235 238.526 403.681 238.514C404.128 238.496 404.549 238.373 404.945 238.145Z" fill="#4C4C4C"/>
<path d="M365.321 287.126C364.878 286.87 364.372 286.758 363.804 286.789C363.232 286.819 362.417 287.006 361.357 287.351C360.295 287.694 359.435 287.896 358.779 287.957C357.848 288.046 357.068 287.909 356.437 287.545C355.825 287.191 355.58 286.76 355.701 286.25C355.822 285.736 356.274 285.252 357.059 284.8C357.59 284.493 358.167 284.278 358.79 284.155C359.417 284.031 360.029 284.007 360.626 284.086C361.224 284.164 361.748 284.333 362.199 284.593L361.517 284.987C360.971 284.672 360.346 284.527 359.642 284.552C358.935 284.575 358.266 284.769 357.636 285.133C357.024 285.486 356.674 285.847 356.586 286.215C356.494 286.581 356.668 286.891 357.108 287.145C357.515 287.38 358.01 287.477 358.592 287.437C359.175 287.397 359.924 287.226 360.841 286.926C361.753 286.623 362.501 286.427 363.084 286.336C363.663 286.243 364.192 286.227 364.672 286.288C365.152 286.349 365.592 286.495 365.992 286.726C366.622 287.09 366.875 287.528 366.75 288.04C366.629 288.55 366.157 289.043 365.332 289.519C364.768 289.845 364.148 290.086 363.474 290.242C362.803 290.397 362.164 290.44 361.555 290.372C360.951 290.303 360.414 290.132 359.945 289.862L360.621 289.471C361.185 289.797 361.841 289.932 362.589 289.877C363.336 289.822 364.06 289.593 364.76 289.189C365.383 288.829 365.746 288.461 365.849 288.084C365.951 287.708 365.775 287.388 365.321 287.126ZM372.352 284.47C372.532 285.03 372.187 285.561 371.319 286.063C370.685 286.429 370.019 286.601 369.323 286.58C368.623 286.557 367.908 286.339 367.179 285.926L363.309 283.692L363.963 283.314L367.751 285.501C368.883 286.155 369.908 286.217 370.824 285.688C371.777 285.138 371.986 284.563 371.451 283.962L367.146 281.477L367.806 281.096L373.754 284.53L373.116 284.898L372.352 284.47ZM379.96 280.433C380.419 280.168 380.673 279.873 380.725 279.547C380.776 279.217 380.609 278.926 380.224 278.675L380.857 278.31C381.201 278.53 381.419 278.787 381.511 279.081C381.599 279.373 381.553 279.668 381.373 279.966C381.197 280.262 380.912 280.525 380.516 280.753C379.735 281.204 378.845 281.405 377.844 281.356C376.847 281.305 375.891 281.016 374.974 280.487L374.776 280.372C374.19 280.034 373.774 279.675 373.529 279.297C373.283 278.918 373.228 278.548 373.364 278.186C373.503 277.822 373.829 277.492 374.342 277.196C374.995 276.819 375.726 276.621 376.536 276.602C377.349 276.581 378.088 276.745 378.751 277.094L378.119 277.459C377.624 277.207 377.08 277.088 376.486 277.1C375.896 277.111 375.368 277.251 374.903 277.519C374.309 277.862 374.062 278.252 374.161 278.69C374.263 279.126 374.701 279.567 375.475 280.014L375.667 280.125C376.426 280.563 377.181 280.81 377.932 280.867C378.687 280.922 379.363 280.778 379.96 280.433ZM380.587 277.05C380.015 276.72 379.61 276.359 379.372 275.967C379.138 275.574 379.096 275.188 379.246 274.809C379.396 274.426 379.728 274.087 380.241 273.79C381.032 273.333 381.952 273.124 383.001 273.162C384.045 273.198 385.025 273.48 385.942 274.009L386.079 274.089C386.654 274.421 387.061 274.785 387.299 275.18C387.538 275.572 387.58 275.956 387.426 276.332C387.272 276.709 386.937 277.046 386.42 277.345C385.632 277.8 384.714 278.01 383.666 277.976C382.618 277.938 381.635 277.655 380.719 277.126L380.587 277.05ZM381.428 276.774C382.139 277.184 382.907 277.416 383.732 277.469C384.556 277.517 385.267 277.369 385.865 277.024C386.458 276.681 386.711 276.273 386.623 275.799C386.535 275.321 386.118 274.866 385.37 274.435L385.243 274.362C384.789 274.099 384.289 273.908 383.743 273.787C383.197 273.667 382.669 273.635 382.159 273.692C381.646 273.747 381.194 273.888 380.802 274.114C380.215 274.453 379.968 274.862 380.059 275.342C380.147 275.82 380.563 276.274 381.307 276.704L381.428 276.774ZM385.002 271.169L386.041 271.743C385.898 271.403 385.898 271.081 386.041 270.779C386.18 270.474 386.451 270.205 386.854 269.972C387.492 269.604 388.146 269.434 388.817 269.461C389.487 269.489 390.184 269.709 390.906 270.122L394.809 272.375L394.155 272.753L390.246 270.496C389.711 270.191 389.202 270.029 388.718 270.007C388.238 269.984 387.754 270.113 387.266 270.395C386.86 270.629 386.627 270.912 386.568 271.242C386.51 271.568 386.621 271.899 386.904 272.235L390.977 274.587L390.323 274.965L384.375 271.531L385.002 271.169ZM390.065 266.488L391.587 267.367L392.819 266.656L393.358 266.967L392.126 267.678L396.09 269.966C396.42 270.157 396.724 270.264 397.002 270.29C397.284 270.313 397.565 270.244 397.843 270.084C397.953 270.02 398.113 269.907 398.322 269.744L398.888 270.039C398.778 270.174 398.575 270.328 398.278 270.499C397.827 270.76 397.369 270.874 396.903 270.842C396.434 270.808 395.945 270.644 395.436 270.35L391.466 268.059L390.372 268.69L389.834 268.379L390.928 267.748L389.405 266.869L390.065 266.488ZM397.492 264.606C397.327 264.671 397.165 264.75 397.008 264.841C396.597 265.078 396.365 265.345 396.31 265.644C396.255 265.938 396.385 266.246 396.7 266.567L400.784 268.925L400.13 269.303L394.182 265.869L394.825 265.498L395.782 266.037C395.426 265.43 395.633 264.904 396.403 264.46C396.586 264.354 396.755 264.284 396.909 264.25L397.492 264.606ZM407.458 265.072C407.205 265.003 406.887 264.867 406.502 264.666C406.571 264.973 406.509 265.278 406.315 265.58C406.121 265.878 405.824 266.143 405.424 266.374C404.852 266.704 404.229 266.879 403.555 266.9C402.884 266.919 402.305 266.788 401.818 266.507C401.239 266.173 401.021 265.77 401.164 265.298C401.31 264.824 401.814 264.338 402.676 263.841L403.868 263.152L403.192 262.762C402.767 262.517 402.302 262.4 401.796 262.413C401.29 262.421 400.786 262.571 400.284 262.86C399.826 263.125 399.564 263.412 399.498 263.72C399.432 264.029 399.564 264.279 399.894 264.469L399.229 264.847C398.756 264.574 398.567 264.211 398.662 263.758C398.754 263.304 399.121 262.891 399.762 262.521C400.425 262.138 401.114 261.933 401.829 261.905C402.544 261.873 403.203 262.026 403.808 262.362L406.623 263.987C407.198 264.319 407.689 264.533 408.096 264.628L408.162 264.666L407.458 265.072ZM404.918 265.993C405.358 265.739 405.644 265.451 405.776 265.129C405.912 264.806 405.88 264.496 405.683 264.2L404.374 263.444L403.198 264.123C402.549 264.506 402.157 264.872 402.021 265.222C401.882 265.569 402.016 265.859 402.423 266.094C402.756 266.287 403.156 266.376 403.621 266.361C404.09 266.344 404.523 266.221 404.918 265.993ZM411.79 260.826C411.464 260.638 411.07 260.563 410.608 260.601C410.15 260.637 409.602 260.775 408.965 261.016C408.323 261.256 407.784 261.418 407.348 261.505C406.912 261.588 406.518 261.61 406.166 261.572C405.818 261.532 405.496 261.426 405.199 261.255C404.73 260.984 404.539 260.647 404.627 260.245C404.711 259.841 405.06 259.462 405.672 259.109C406.335 258.726 407.031 258.515 407.761 258.474C408.49 258.43 409.118 258.56 409.646 258.865L408.986 259.246C408.638 259.045 408.202 258.962 407.678 258.998C407.158 259.032 406.676 259.177 406.232 259.433C405.8 259.683 405.549 259.94 405.479 260.204C405.41 260.464 405.529 260.683 405.837 260.861C406.133 261.032 406.472 261.103 406.854 261.074C407.235 261.04 407.781 260.896 408.492 260.642C409.206 260.386 409.784 260.22 410.223 260.144C410.667 260.065 411.066 260.049 411.422 260.093C411.777 260.137 412.109 260.248 412.417 260.426C412.919 260.716 413.117 261.065 413.011 261.473C412.908 261.88 412.53 262.271 411.878 262.648C411.185 263.048 410.456 263.276 409.69 263.333C408.924 263.386 408.285 263.264 407.772 262.968L408.431 262.587C408.842 262.795 409.304 262.875 409.817 262.829C410.33 262.778 410.832 262.611 411.323 262.327C411.781 262.063 412.05 261.791 412.131 261.512C412.212 261.232 412.098 261.004 411.79 260.826ZM417.859 259.195C417.353 259.487 416.771 259.679 416.111 259.772C415.455 259.863 414.792 259.846 414.121 259.722C413.447 259.595 412.833 259.371 412.279 259.052L412.043 258.916C411.471 258.585 411.066 258.225 410.828 257.833C410.594 257.44 410.544 257.054 410.68 256.675C410.812 256.294 411.108 255.97 411.57 255.704C412.292 255.287 413.111 255.1 414.028 255.142C414.944 255.18 415.829 255.446 416.683 255.939L417.051 256.151L412.807 258.601L412.934 258.674C413.608 259.064 414.363 259.277 415.199 259.315C416.034 259.349 416.745 259.197 417.331 258.858C417.683 258.655 417.929 258.44 418.068 258.211C418.211 257.98 418.251 257.72 418.189 257.43L418.915 257.373C419.131 258.057 418.779 258.664 417.859 259.195ZM412.131 256.028C411.636 256.313 411.4 256.659 411.422 257.065C411.447 257.469 411.73 257.869 412.268 258.265L415.836 256.205L415.765 256.164C415.175 255.845 414.546 255.67 413.879 255.64C413.212 255.611 412.629 255.74 412.131 256.028ZM415.941 253.308L416.98 253.882C416.837 253.542 416.837 253.22 416.98 252.917C417.119 252.613 417.39 252.344 417.793 252.111C418.431 251.743 419.085 251.573 419.756 251.6C420.426 251.628 421.123 251.848 421.845 252.26L425.748 254.514L425.094 254.891L421.185 252.635C420.65 252.33 420.141 252.167 419.657 252.146C419.177 252.123 418.693 252.252 418.206 252.533C417.799 252.768 417.566 253.051 417.507 253.381C417.449 253.707 417.561 254.038 417.843 254.374L421.916 256.726L421.262 257.103L415.314 253.67L415.941 253.308ZM417.233 249.953C417.584 250.156 417.764 250.381 417.771 250.626C417.779 250.867 417.632 251.075 417.331 251.248C417.053 251.409 416.679 251.508 416.21 251.546C415.745 251.582 415.407 251.661 415.199 251.781C415.026 251.881 414.938 251.997 414.935 252.13C414.935 252.262 415.037 252.386 415.242 252.505L414.731 252.781C414.394 252.586 414.214 252.368 414.192 252.127C414.174 251.884 414.323 251.671 414.638 251.489C414.814 251.388 414.995 251.319 415.182 251.283C415.369 251.247 415.556 251.22 415.743 251.2C415.93 251.181 416.109 251.158 416.281 251.131C416.457 251.101 416.62 251.043 416.771 250.956C416.939 250.859 417.022 250.741 417.018 250.604C417.018 250.464 416.916 250.335 416.71 250.217L417.233 249.953ZM431.207 251.362C430.954 251.293 430.635 251.157 430.25 250.956C430.32 251.263 430.258 251.568 430.063 251.87C429.869 252.168 429.572 252.433 429.173 252.664C428.601 252.994 427.978 253.169 427.304 253.19C426.633 253.209 426.054 253.078 425.567 252.797C424.987 252.463 424.769 252.059 424.912 251.588C425.059 251.114 425.563 250.628 426.424 250.131L427.617 249.442L426.941 249.052C426.516 248.807 426.05 248.69 425.545 248.703C425.039 248.711 424.535 248.86 424.033 249.15C423.575 249.415 423.313 249.701 423.247 250.01C423.181 250.319 423.313 250.569 423.642 250.759L422.977 251.137C422.504 250.864 422.316 250.501 422.411 250.048C422.503 249.594 422.869 249.181 423.51 248.811C424.174 248.428 424.863 248.223 425.578 248.195C426.292 248.163 426.952 248.316 427.557 248.652L430.371 250.277C430.947 250.609 431.438 250.823 431.844 250.918L431.91 250.956L431.207 251.362ZM428.667 252.283C429.107 252.029 429.393 251.741 429.525 251.419C429.66 251.096 429.629 250.786 429.431 250.49L428.123 249.734L426.946 250.413C426.298 250.796 425.906 251.162 425.77 251.511C425.631 251.858 425.764 252.149 426.171 252.384C426.505 252.577 426.904 252.666 427.37 252.651C427.839 252.634 428.271 252.511 428.667 252.283Z" fill="#759958"/>
<rect width="95.528" height="23.6779" transform="matrix(0.866044 -0.499967 0.866044 0.499967 435 285.761)" fill="#759958"/>
<path d="M472.154 283.026L471.018 283.682L462.398 278.706L463.534 278.05L472.154 283.026ZM468.697 277.626L469.538 278.07C469.411 277.432 469.743 276.885 470.532 276.43C471.886 275.648 473.332 275.695 474.872 276.57L479.105 279.014L478.009 279.646L473.771 277.199C473.305 276.934 472.857 276.799 472.427 276.792C472 276.783 471.568 276.905 471.13 277.158C470.775 277.363 470.558 277.598 470.479 277.862C470.4 278.126 470.439 278.39 470.597 278.655L475.162 281.29L474.067 281.922L467.661 278.224L468.697 277.626ZM477.24 276.331C476.241 275.754 475.679 275.163 475.552 274.557C475.422 273.949 475.738 273.424 476.5 272.985C477.281 272.534 478.167 272.341 479.158 272.407L478.501 271.966L479.501 271.389L485.753 274.998C486.582 275.476 486.988 275.996 486.973 276.556C486.961 277.114 486.54 277.633 485.712 278.111C485.25 278.378 484.699 278.582 484.06 278.723C483.42 278.864 482.813 278.903 482.236 278.839L482.148 278.132C483.197 278.196 484.062 278.032 484.741 277.64C485.273 277.332 485.538 277.006 485.534 276.662C485.534 276.316 485.262 275.985 484.717 275.671L484.166 275.353C484.234 275.898 483.888 276.389 483.13 276.826C482.38 277.259 481.471 277.436 480.401 277.356C479.336 277.274 478.282 276.932 477.24 276.331ZM478.465 275.767C479.188 276.184 479.904 276.426 480.614 276.495C481.321 276.561 481.94 276.44 482.473 276.132C483.164 275.734 483.357 275.26 483.053 274.711L480.129 273.022C479.182 272.863 478.372 272.977 477.702 273.364C477.169 273.672 476.96 274.032 477.074 274.444C477.188 274.856 477.652 275.297 478.465 275.767ZM485.238 269.212C485.045 269.291 484.851 269.387 484.658 269.499C483.939 269.913 483.758 270.371 484.113 270.873L488.66 273.497L487.565 274.13L481.159 270.432L482.225 269.816L482.982 270.233C482.769 269.696 482.992 269.237 483.651 268.856C483.864 268.733 484.054 268.656 484.22 268.624L485.238 269.212ZM494.331 270.36C493.463 270.861 492.472 271.105 491.359 271.091C490.243 271.075 489.206 270.792 488.251 270.24L488.05 270.124C487.415 269.757 486.969 269.361 486.712 268.935C486.456 268.504 486.404 268.083 486.558 267.67C486.712 267.253 487.044 266.898 487.553 266.604C488.386 266.123 489.307 265.908 490.318 265.958C491.328 266.008 492.344 266.328 493.366 266.918L493.822 267.181L489.483 269.687C490.13 270.042 490.825 270.231 491.567 270.254C492.309 270.272 492.952 270.124 493.497 269.81C493.883 269.586 494.132 269.352 494.243 269.106C494.353 268.859 494.379 268.603 494.32 268.337L495.51 268.251C495.798 269.037 495.405 269.74 494.331 270.36ZM488.453 267.123C488.011 267.378 487.801 267.686 487.825 268.046C487.845 268.404 488.109 268.771 488.618 269.147L491.827 267.294L491.744 267.246C491.156 266.943 490.576 266.781 490.004 266.761C489.428 266.738 488.91 266.859 488.453 267.123ZM500.015 264.98C499.719 264.809 499.377 264.742 498.991 264.779C498.604 264.811 498.073 264.953 497.398 265.206C496.727 265.457 496.145 265.629 495.652 265.722C495.162 265.813 494.724 265.838 494.337 265.797C493.955 265.754 493.605 265.641 493.289 265.459C492.765 265.156 492.542 264.772 492.62 264.307C492.703 263.84 493.09 263.407 493.781 263.008C494.507 262.589 495.283 262.358 496.108 262.315C496.936 262.269 497.643 262.415 498.227 262.752L497.126 263.388C496.826 263.215 496.439 263.139 495.965 263.162C495.496 263.183 495.068 263.305 494.681 263.528C494.282 263.758 494.057 263.988 494.006 264.218C493.955 264.448 494.069 264.644 494.349 264.806C494.614 264.959 494.918 265.013 495.261 264.97C495.604 264.927 496.109 264.783 496.776 264.539C497.447 264.293 498.038 264.121 498.547 264.023C499.056 263.925 499.512 263.899 499.914 263.945C500.317 263.986 500.69 264.105 501.033 264.304C501.605 264.634 501.836 265.032 501.726 265.496C501.611 265.959 501.189 266.401 500.459 266.823C499.946 267.119 499.401 267.328 498.825 267.451C498.249 267.574 497.686 267.607 497.138 267.55C496.589 267.489 496.125 267.349 495.746 267.13L496.842 266.498C497.228 266.698 497.667 266.783 498.156 266.751C498.645 266.714 499.115 266.566 499.565 266.306C499.979 266.067 500.228 265.828 500.311 265.589C500.394 265.345 500.295 265.142 500.015 264.98ZM508.191 262.222C508.001 262.186 507.725 262.086 507.362 261.921C507.382 262.521 507.038 263.024 506.332 263.432C505.7 263.797 505.004 263.994 504.242 264.023C503.48 264.048 502.825 263.903 502.276 263.586C501.609 263.201 501.345 262.757 501.483 262.253C501.621 261.745 502.15 261.225 503.07 260.694L504.135 260.079L503.632 259.789C503.249 259.568 502.831 259.458 502.377 259.461C501.919 259.461 501.467 259.589 501.021 259.847C500.631 260.072 500.402 260.319 500.335 260.585C500.267 260.852 500.374 261.066 500.654 261.228L499.553 261.863C499.233 261.679 499.038 261.436 498.967 261.135C498.896 260.83 498.967 260.516 499.18 260.192C499.397 259.866 499.739 259.569 500.204 259.3C500.942 258.874 501.706 258.647 502.495 258.62C503.281 258.59 504.005 258.758 504.668 259.122L507.616 260.824C508.205 261.164 508.747 261.391 509.244 261.504L509.339 261.559L508.191 262.222ZM505.538 262.79C505.882 262.591 506.119 262.352 506.249 262.072C506.379 261.792 506.371 261.53 506.225 261.286L504.911 260.527L504.052 261.023C502.711 261.797 502.432 262.411 503.218 262.865C503.561 263.063 503.944 263.152 504.366 263.131C504.789 263.111 505.179 262.997 505.538 262.79ZM508.504 255.78C508.311 255.86 508.118 255.955 507.924 256.067C507.206 256.482 507.024 256.94 507.38 257.441L511.926 260.066L510.831 260.698L504.425 257L505.491 256.385L506.249 256.802C506.036 256.264 506.259 255.805 506.918 255.424C507.131 255.301 507.32 255.224 507.486 255.192L508.504 255.78Z" fill="#F5F7F3"/>
<path d="M503.651 305.53L501.505 306.769L505.775 309.235L503.849 310.346L492.767 303.948L496.664 301.699C497.943 300.96 499.216 300.556 500.485 300.486C501.754 300.415 502.931 300.694 504.017 301.321C504.758 301.748 505.199 302.211 505.341 302.709C505.483 303.201 505.369 303.71 504.999 304.234L512.108 305.464L512.207 305.522L510.144 306.712L503.651 305.53ZM499.96 305.877L501.939 304.735C502.588 304.36 502.933 303.973 502.974 303.575C503.009 303.174 502.743 302.809 502.175 302.481C501.581 302.138 500.952 301.971 500.287 301.98C499.627 301.986 498.957 302.179 498.278 302.56L496.245 303.733L499.96 305.877ZM517.177 302.828C516.005 303.505 514.686 303.841 513.219 303.839C511.753 303.83 510.406 303.471 509.177 302.762L508.949 302.63C508.127 302.156 507.551 301.641 507.221 301.088C506.891 300.528 506.833 299.979 507.046 299.44C507.259 298.901 507.719 298.428 508.424 298.021C509.545 297.373 510.768 297.08 512.093 297.142C513.422 297.2 514.742 297.607 516.051 298.363L516.797 298.794L511.415 301.901C512.151 302.261 512.915 302.441 513.706 302.441C514.503 302.438 515.203 302.262 515.807 301.914C516.655 301.425 517.002 300.828 516.85 300.125L518.799 300.099C518.961 300.574 518.903 301.05 518.624 301.527C518.345 301.999 517.862 302.432 517.177 302.828ZM509.901 298.882C509.393 299.175 509.16 299.515 509.2 299.901C509.246 300.285 509.543 300.685 510.091 301.101L513.615 299.066L513.478 298.987C512.818 298.653 512.187 298.479 511.583 298.464C510.974 298.447 510.413 298.586 509.901 298.882ZM517.269 297.774C515.99 297.036 515.269 296.275 515.107 295.489C514.945 294.699 515.361 294.016 516.355 293.442C517.294 292.9 518.36 292.663 519.552 292.73L518.806 292.203L520.473 291.24L528.458 295.85C529.539 296.474 530.054 297.161 530.003 297.911C529.957 298.658 529.364 299.361 528.222 300.02C527.618 300.369 526.9 300.637 526.068 300.824C525.246 301.012 524.482 301.075 523.777 301.013L523.541 299.866C524.784 299.928 525.822 299.718 526.654 299.238C527.268 298.883 527.585 298.507 527.605 298.108C527.631 297.713 527.321 297.329 526.677 296.957L526.121 296.636C526.182 297.287 525.768 297.868 524.88 298.381C523.916 298.937 522.744 299.172 521.364 299.084C519.989 298.993 518.624 298.557 517.269 297.774ZM519.271 296.803C520.098 297.281 520.917 297.561 521.729 297.643C522.541 297.719 523.246 297.584 523.845 297.238C524.591 296.808 524.825 296.304 524.546 295.727L520.922 293.635C519.948 293.477 519.088 293.613 518.342 294.044C517.733 294.395 517.5 294.808 517.642 295.283C517.789 295.755 518.332 296.261 519.271 296.803ZM532.606 293.745L530.757 294.813L522.521 290.058L524.37 288.99L532.606 293.745ZM520.618 287.228L522.726 286.011L522.924 288.56L521.44 289.417L520.618 287.228ZM537.09 288.573C536.76 288.383 536.372 288.317 535.925 288.375C535.484 288.431 534.882 288.602 534.121 288.889C533.36 289.176 532.667 289.383 532.043 289.509C530.673 289.784 529.564 289.677 528.717 289.188C528.006 288.778 527.712 288.262 527.834 287.641C527.956 287.02 528.478 286.443 529.402 285.91C530.386 285.342 531.424 285.024 532.515 284.956C533.611 284.886 534.547 285.075 535.324 285.523L533.474 286.591C533.119 286.386 532.693 286.292 532.195 286.31C531.693 286.325 531.224 286.458 530.787 286.71C530.381 286.944 530.143 287.19 530.072 287.448C530.006 287.703 530.13 287.921 530.445 288.103C530.729 288.267 531.069 288.325 531.465 288.279C531.86 288.232 532.502 288.046 533.39 287.72C534.273 287.392 535.032 287.174 535.666 287.066C536.301 286.951 536.871 286.927 537.379 286.991C537.891 287.053 538.368 287.211 538.81 287.466C539.551 287.893 539.845 288.418 539.693 289.039C539.536 289.657 538.96 290.253 537.965 290.827C537.29 291.217 536.567 291.494 535.796 291.658C535.024 291.822 534.278 291.866 533.558 291.79C532.837 291.713 532.231 291.533 531.739 291.249L533.535 290.212C533.997 290.449 534.499 290.549 535.042 290.511C535.58 290.47 536.1 290.304 536.603 290.014C537.09 289.733 537.369 289.466 537.44 289.214C537.506 288.96 537.389 288.746 537.09 288.573ZM534.844 280.633L536.846 281.788L538.3 280.949L539.67 281.74L538.216 282.579L542.814 285.233C543.128 285.415 543.418 285.512 543.681 285.523C543.945 285.529 544.237 285.44 544.557 285.255C544.77 285.132 544.96 284.993 545.128 284.838L546.559 285.664C546.254 285.974 545.907 286.243 545.516 286.468C544.095 287.288 542.601 287.246 541.033 286.341L536.367 283.647L535.012 284.429L533.642 283.638L534.996 282.856L532.995 281.7L534.844 280.633ZM545.721 278.616C545.437 278.733 545.166 278.866 544.907 279.015C544.059 279.505 543.813 280.022 544.169 280.567L549.801 283.818L547.952 284.886L539.716 280.132L541.482 279.112L542.448 279.617C542.179 278.947 542.441 278.383 543.232 277.926C543.496 277.773 543.75 277.668 543.993 277.609L545.721 278.616ZM558.128 279.011C557.89 278.967 557.563 278.86 557.147 278.69C557.172 279.385 556.758 279.978 555.906 280.47C555.079 280.947 554.168 281.201 553.173 281.23C552.179 281.259 551.334 281.073 550.639 280.672C549.761 280.165 549.413 279.59 549.596 278.945C549.778 278.295 550.476 277.62 551.689 276.919L552.823 276.265L552.283 275.953C551.856 275.707 551.397 275.579 550.905 275.57C550.408 275.559 549.915 275.693 549.428 275.975C549.007 276.218 548.769 276.479 548.713 276.757C548.652 277.032 548.784 277.264 549.109 277.451L547.259 278.519C546.807 278.258 546.536 277.929 546.444 277.53C546.348 277.129 546.444 276.716 546.734 276.291C547.028 275.863 547.492 275.466 548.127 275.1C549.091 274.544 550.103 274.24 551.164 274.191C552.219 274.138 553.194 274.36 554.087 274.858L557.801 277.003C558.542 277.431 559.237 277.712 559.887 277.847L560.016 277.921L558.128 279.011ZM554.764 279.415C555.129 279.204 555.383 278.955 555.525 278.668C555.672 278.378 555.677 278.1 555.54 277.833L553.988 276.937L552.991 277.513C552.305 277.908 551.91 278.274 551.803 278.611C551.697 278.948 551.861 279.242 552.298 279.494C552.653 279.699 553.054 279.796 553.501 279.784C553.947 279.767 554.368 279.644 554.764 279.415ZM553.721 269.735L555.723 270.89L557.177 270.051L558.547 270.842L557.093 271.681L561.691 274.336C562.005 274.517 562.295 274.614 562.558 274.626C562.822 274.631 563.114 274.542 563.434 274.358C563.647 274.235 563.837 274.095 564.005 273.94L565.436 274.766C565.131 275.077 564.784 275.345 564.393 275.57C562.972 276.391 561.478 276.348 559.91 275.443L555.244 272.749L553.889 273.531L552.519 272.74L553.873 271.958L551.872 270.803L553.721 269.735ZM570.612 271.98C569.439 272.657 568.12 272.994 566.654 272.991C565.187 272.982 563.84 272.623 562.612 271.914L562.383 271.783C561.561 271.308 560.985 270.794 560.656 270.24C560.326 269.681 560.267 269.131 560.48 268.592C560.694 268.053 561.153 267.58 561.858 267.173C562.98 266.526 564.203 266.233 565.527 266.294C566.857 266.353 568.176 266.76 569.485 267.516L570.231 267.946L564.85 271.053C565.585 271.413 566.349 271.594 567.141 271.594C567.937 271.591 568.638 271.415 569.242 271.066C570.089 270.577 570.437 269.981 570.284 269.278L572.233 269.251C572.395 269.726 572.337 270.202 572.058 270.68C571.779 271.151 571.297 271.585 570.612 271.98ZM563.335 268.034C562.827 268.327 562.594 268.667 562.635 269.054C562.68 269.437 562.977 269.837 563.525 270.253L567.049 268.219L566.912 268.14C566.253 267.806 565.621 267.631 565.017 267.617C564.408 267.599 563.847 267.738 563.335 268.034Z" fill="#4C4C4C"/>
<path d="M509.804 318.146C510.528 318.564 511.039 319 511.337 319.453C511.631 319.904 511.697 320.34 511.535 320.762C511.372 321.184 510.993 321.567 510.398 321.911C509.816 322.247 509.158 322.462 508.424 322.558C507.686 322.652 506.929 322.619 506.151 322.458C505.372 322.294 504.632 322.013 503.928 321.615L503.395 321.307C502.685 320.897 502.181 320.463 501.883 320.006C501.585 319.549 501.518 319.108 501.68 318.682C501.842 318.253 502.214 317.87 502.796 317.534C503.388 317.192 504.053 316.974 504.791 316.881C505.528 316.783 506.291 316.821 507.079 316.995C507.864 317.167 508.617 317.461 509.337 317.877L509.804 318.146ZM508.358 318.43C507.482 317.925 506.634 317.638 505.816 317.572C504.994 317.504 504.266 317.652 503.634 318.017C503.018 318.373 502.768 318.789 502.883 319.265C502.998 319.738 503.466 320.217 504.288 320.704L504.831 321.017C505.68 321.507 506.526 321.791 507.368 321.867C508.211 321.939 508.945 321.794 509.571 321.433C510.2 321.07 510.459 320.657 510.347 320.194C510.232 319.729 509.752 319.247 508.906 318.747L508.358 318.43ZM515.594 318.794L514.655 319.336L506.861 314.836L507.8 314.294L515.594 318.794ZM517.639 316.142L514.782 312.923L515.741 312.369L519.263 316.676L518.547 317.089L511.068 315.067L512.027 314.514L517.639 316.142ZM523.155 314.429L522.216 314.971L516.726 311.801L517.665 311.259L523.155 314.429ZM515.193 311.004C515.041 310.916 514.958 310.816 514.945 310.702C514.934 310.587 515.021 310.477 515.203 310.371C515.386 310.266 515.577 310.216 515.777 310.222C515.976 310.228 516.152 310.275 516.305 310.363C516.457 310.45 516.536 310.551 516.543 310.664C516.55 310.778 516.462 310.887 516.279 310.992C516.097 311.098 515.907 311.149 515.711 311.145C515.518 311.139 515.345 311.092 515.193 311.004ZM521.643 312.079C520.801 311.593 520.324 311.087 520.212 310.562C520.097 310.034 520.362 309.584 521.009 309.211C521.651 308.84 522.38 308.673 523.196 308.71L520.334 307.058L521.272 306.516L529.067 311.016L528.204 311.514L527.57 311.2C527.654 311.683 527.362 312.117 526.692 312.504C526.056 312.871 525.276 313.021 524.353 312.952C523.433 312.882 522.553 312.605 521.714 312.12L521.643 312.079ZM522.688 311.599C523.311 311.958 523.926 312.165 524.535 312.22C525.144 312.275 525.675 312.171 526.129 311.909C526.724 311.566 526.892 311.16 526.631 310.694L524.109 309.238C523.311 309.101 522.621 309.201 522.039 309.536C521.579 309.802 521.398 310.112 521.496 310.465C521.594 310.819 521.991 311.197 522.688 311.599ZM532.908 308.915C532.164 309.345 531.315 309.554 530.361 309.542C529.403 309.529 528.515 309.286 527.697 308.813L527.524 308.713C526.98 308.399 526.597 308.059 526.377 307.694C526.158 307.325 526.114 306.963 526.245 306.61C526.377 306.253 526.662 305.948 527.098 305.696C527.812 305.284 528.602 305.099 529.468 305.142C530.334 305.185 531.205 305.46 532.081 305.965L532.472 306.191L528.752 308.338C529.307 308.643 529.902 308.805 530.538 308.825C531.174 308.84 531.726 308.713 532.193 308.444C532.524 308.252 532.737 308.051 532.832 307.84C532.927 307.629 532.949 307.41 532.898 307.181L533.918 307.108C534.165 307.782 533.828 308.384 532.908 308.915ZM527.869 306.141C527.49 306.36 527.311 306.624 527.331 306.932C527.348 307.239 527.575 307.553 528.011 307.875L530.762 306.288L530.691 306.247C530.187 305.987 529.689 305.848 529.199 305.831C528.705 305.811 528.262 305.915 527.869 306.141ZM539.637 304.914L538.698 305.456L530.904 300.956L531.843 300.414L539.637 304.914ZM544.534 302.087C544.371 302.056 544.135 301.97 543.823 301.829C543.84 302.343 543.546 302.774 542.94 303.124C542.399 303.436 541.802 303.605 541.149 303.631C540.496 303.652 539.935 303.527 539.464 303.256C538.893 302.926 538.666 302.545 538.784 302.113C538.903 301.678 539.356 301.232 540.144 300.777L541.058 300.25L540.627 300.001C540.298 299.812 539.94 299.718 539.551 299.72C539.158 299.72 538.771 299.83 538.389 300.051C538.054 300.244 537.858 300.455 537.8 300.684C537.743 300.912 537.834 301.096 538.074 301.234L537.13 301.779C536.856 301.621 536.689 301.413 536.628 301.155C536.567 300.893 536.628 300.624 536.811 300.347C536.997 300.067 537.289 299.812 537.688 299.582C538.321 299.217 538.976 299.023 539.652 298.999C540.325 298.974 540.946 299.117 541.515 299.43L544.042 300.889C544.546 301.18 545.011 301.374 545.437 301.472L545.518 301.518L544.534 302.087ZM542.261 302.573C542.555 302.403 542.758 302.198 542.869 301.958C542.981 301.718 542.974 301.493 542.849 301.284L541.723 300.634L540.987 301.059C539.837 301.723 539.598 302.249 540.271 302.638C540.566 302.807 540.894 302.884 541.256 302.866C541.618 302.848 541.953 302.751 542.261 302.573ZM550.913 297.637C551.247 297.444 551.439 297.216 551.486 296.954C551.533 296.693 551.418 296.466 551.141 296.275L552.029 295.762C552.327 295.953 552.518 296.189 552.602 296.468C552.687 296.747 552.646 297.032 552.481 297.323C552.318 297.612 552.051 297.864 551.679 298.079C550.931 298.511 550.087 298.711 549.147 298.68C548.206 298.645 547.303 298.377 546.437 297.877L546.28 297.786C545.745 297.478 545.368 297.147 545.148 296.793C544.928 296.44 544.886 296.091 545.021 295.747C545.16 295.402 545.479 295.084 545.98 294.795C546.596 294.44 547.291 294.251 548.066 294.23C548.844 294.206 549.541 294.357 550.156 294.681L549.268 295.194C548.886 295.004 548.46 294.914 547.99 294.924C547.519 294.93 547.107 295.035 546.751 295.241C546.274 295.516 546.077 295.829 546.158 296.181C546.239 296.529 546.604 296.89 547.254 297.265L547.431 297.367C548.064 297.733 548.681 297.939 549.284 297.985C549.886 298.032 550.429 297.916 550.913 297.637ZM551.77 294.681C551.232 294.37 550.853 294.031 550.633 293.662C550.417 293.29 550.38 292.929 550.522 292.578C550.667 292.224 550.982 291.908 551.466 291.628C552.213 291.197 553.076 290.998 554.054 291.031C555.035 291.062 555.955 291.326 556.814 291.822L556.88 291.86C557.415 292.168 557.792 292.505 558.012 292.871C558.232 293.232 558.269 293.591 558.123 293.949C557.981 294.304 557.663 294.624 557.169 294.909C556.425 295.339 555.562 295.538 554.581 295.507C553.604 295.474 552.689 295.211 551.836 294.719L551.77 294.681ZM552.826 294.201C553.435 294.552 554.064 294.753 554.713 294.804C555.366 294.853 555.929 294.741 556.403 294.467C556.88 294.192 557.073 293.866 556.982 293.489C556.887 293.11 556.503 292.726 555.83 292.337C555.227 291.99 554.597 291.792 553.937 291.743C553.277 291.69 552.711 291.8 552.237 292.074C551.773 292.341 551.584 292.664 551.669 293.04C551.753 293.417 552.139 293.804 552.826 294.201ZM556.139 289.048L556.86 289.428C556.752 288.882 557.036 288.413 557.712 288.022C558.873 287.352 560.113 287.392 561.432 288.142L565.06 290.237L564.121 290.779L560.488 288.681C560.089 288.455 559.705 288.339 559.336 288.333C558.971 288.325 558.6 288.429 558.225 288.646C557.92 288.822 557.734 289.023 557.667 289.25C557.599 289.476 557.633 289.703 557.768 289.929L561.681 292.188L560.742 292.73L555.251 289.56L556.139 289.048ZM560.93 284.747L562.259 285.515L563.284 284.923L564.01 285.342L562.985 285.934L566.39 287.899C566.61 288.026 566.821 288.095 567.024 288.107C567.224 288.117 567.433 288.058 567.653 287.931C567.761 287.869 567.89 287.771 568.039 287.638L568.8 288.078C568.621 288.26 568.414 288.418 568.181 288.552C567.761 288.795 567.318 288.904 566.851 288.881C566.385 288.857 565.918 288.711 565.451 288.441L562.046 286.475L561.046 287.053L560.321 286.634L561.32 286.057L559.991 285.289L560.93 284.747ZM567.882 283.241C567.716 283.31 567.55 283.392 567.384 283.487C566.769 283.843 566.613 284.235 566.917 284.665L570.815 286.915L569.876 287.457L564.385 284.287L565.299 283.76L565.948 284.117C565.765 283.656 565.957 283.263 566.522 282.937C566.704 282.831 566.867 282.765 567.009 282.737L567.882 283.241ZM576.584 283.584C576.422 283.553 576.185 283.467 575.874 283.326C575.891 283.84 575.596 284.272 574.991 284.621C574.45 284.934 573.853 285.103 573.2 285.128C572.547 285.149 571.985 285.024 571.515 284.753C570.943 284.423 570.716 284.042 570.835 283.61C570.953 283.175 571.407 282.73 572.195 282.275L573.108 281.747L572.677 281.498C572.349 281.309 571.99 281.215 571.601 281.217C571.209 281.217 570.821 281.327 570.439 281.548C570.104 281.741 569.908 281.952 569.85 282.181C569.793 282.409 569.884 282.593 570.124 282.732L569.181 283.276C568.907 283.118 568.739 282.91 568.678 282.652C568.617 282.391 568.678 282.121 568.861 281.844C569.047 281.565 569.34 281.31 569.739 281.079C570.371 280.714 571.026 280.52 571.703 280.496C572.376 280.471 572.997 280.615 573.565 280.927L576.092 282.386C576.596 282.677 577.061 282.871 577.488 282.969L577.569 283.016L576.584 283.584ZM574.311 284.07C574.605 283.9 574.808 283.695 574.92 283.455C575.031 283.215 575.025 282.99 574.9 282.781L573.773 282.131L573.037 282.556C571.887 283.22 571.649 283.746 572.322 284.135C572.616 284.305 572.944 284.381 573.306 284.363C573.668 284.346 574.003 284.248 574.311 284.07ZM580.588 279.591C580.334 279.445 580.042 279.387 579.71 279.418C579.379 279.446 578.924 279.568 578.345 279.785C577.77 279.999 577.271 280.147 576.848 280.227C576.429 280.305 576.053 280.326 575.722 280.291C575.393 280.254 575.094 280.158 574.823 280.001C574.374 279.742 574.182 279.412 574.25 279.014C574.321 278.614 574.653 278.243 575.245 277.901C575.867 277.541 576.532 277.343 577.239 277.306C577.949 277.267 578.555 277.392 579.056 277.681L578.112 278.226C577.855 278.078 577.523 278.013 577.117 278.033C576.715 278.05 576.347 278.155 576.016 278.346C575.674 278.543 575.481 278.741 575.437 278.938C575.393 279.135 575.492 279.303 575.732 279.442C575.958 279.573 576.219 279.619 576.513 279.582C576.808 279.545 577.241 279.422 577.812 279.213C578.387 279.002 578.893 278.855 579.33 278.771C579.766 278.687 580.157 278.664 580.502 278.704C580.847 278.739 581.167 278.841 581.461 279.011C581.951 279.294 582.149 279.635 582.055 280.034C581.956 280.43 581.594 280.809 580.969 281.17C580.529 281.424 580.062 281.604 579.568 281.709C579.074 281.815 578.592 281.843 578.122 281.794C577.652 281.741 577.254 281.621 576.929 281.434L577.868 280.892C578.2 281.064 578.575 281.136 578.995 281.109C579.414 281.077 579.817 280.95 580.202 280.728C580.558 280.523 580.771 280.318 580.842 280.113C580.913 279.904 580.828 279.73 580.588 279.591ZM586.586 277.927C585.842 278.357 584.993 278.566 584.039 278.554C583.081 278.54 582.193 278.297 581.375 277.825L581.202 277.725C580.657 277.411 580.275 277.071 580.055 276.706C579.835 276.336 579.791 275.975 579.923 275.622C580.055 275.264 580.339 274.96 580.776 274.708C581.49 274.296 582.28 274.111 583.146 274.154C584.012 274.197 584.883 274.471 585.759 274.977L586.15 275.203L582.43 277.35C582.985 277.655 583.58 277.817 584.216 277.836C584.852 277.852 585.404 277.725 585.871 277.456C586.202 277.264 586.415 277.063 586.51 276.852C586.605 276.641 586.627 276.421 586.576 276.193L587.596 276.12C587.843 276.793 587.506 277.396 586.586 277.927ZM581.547 275.153C581.168 275.372 580.989 275.635 581.009 275.944C581.026 276.251 581.253 276.565 581.689 276.887L584.44 275.299L584.369 275.258C583.864 274.999 583.367 274.86 582.877 274.842C582.383 274.823 581.94 274.926 581.547 275.153ZM585.114 272.32L585.835 272.701C585.727 272.154 586.011 271.685 586.688 271.295C587.848 270.625 589.088 270.665 590.407 271.415L594.035 273.51L593.097 274.051L589.463 271.954C589.064 271.727 588.68 271.611 588.311 271.605C587.946 271.598 587.576 271.702 587.2 271.919C586.896 272.095 586.71 272.296 586.642 272.522C586.574 272.749 586.608 272.975 586.743 273.202L590.656 275.461L589.717 276.003L584.226 272.833L585.114 272.32ZM586.079 269.291C586.444 269.502 586.635 269.733 586.652 269.985C586.672 270.235 586.527 270.45 586.216 270.63C586.077 270.71 585.94 270.769 585.805 270.809C585.669 270.848 585.466 270.885 585.196 270.92C584.928 270.953 584.747 270.985 584.653 271.017C584.558 271.044 584.463 271.085 584.369 271.14C584.23 271.22 584.166 271.319 584.176 271.438C584.182 271.556 584.269 271.662 584.435 271.758L583.77 272.1C583.408 271.891 583.21 271.66 583.176 271.406C583.146 271.15 583.288 270.932 583.602 270.75C583.721 270.682 583.844 270.63 583.973 270.595C584.101 270.56 584.296 270.523 584.556 270.486C584.817 270.449 585.005 270.415 585.12 270.384C585.238 270.351 585.35 270.304 585.454 270.243C585.6 270.159 585.663 270.057 585.642 269.936C585.625 269.812 585.541 269.707 585.389 269.619L586.079 269.291ZM598.841 270.735C598.679 270.704 598.442 270.618 598.131 270.477C598.147 270.991 597.853 271.423 597.248 271.772C596.706 272.085 596.109 272.254 595.456 272.279C594.803 272.301 594.242 272.176 593.772 271.904C593.2 271.574 592.973 271.193 593.092 270.762C593.21 270.326 593.663 269.881 594.452 269.426L595.365 268.898L594.934 268.649C594.605 268.46 594.247 268.366 593.858 268.368C593.465 268.368 593.078 268.479 592.696 268.699C592.361 268.893 592.165 269.104 592.107 269.332C592.05 269.561 592.141 269.744 592.381 269.883L591.437 270.428C591.163 270.269 590.996 270.062 590.935 269.804C590.874 269.542 590.935 269.272 591.118 268.995C591.304 268.716 591.596 268.461 591.995 268.231C592.628 267.865 593.283 267.671 593.959 267.648C594.633 267.622 595.253 267.766 595.822 268.078L598.349 269.537C598.853 269.828 599.318 270.022 599.744 270.12L599.825 270.167L598.841 270.735ZM596.568 271.222C596.862 271.052 597.065 270.847 597.177 270.606C597.288 270.366 597.281 270.142 597.156 269.933L596.03 269.282L595.294 269.707C594.144 270.371 593.905 270.897 594.578 271.286C594.873 271.456 595.201 271.532 595.563 271.515C595.925 271.497 596.26 271.399 596.568 271.222Z" fill="#96AC78"/>
<g clip-path="url(#clip0)">
<path d="M212.005 161.502L207.376 158.176C208.166 158.763 209.145 159.285 210.199 159.762C222.213 164.911 237.76 160.196 238.552 159.955L243.181 163.282C242.351 163.544 226.842 168.237 214.828 163.089C213.774 162.611 212.795 162.089 212.005 161.502Z" fill="#C4C4C4"/>
<path d="M238.627 159.956L243.256 163.282C243.218 163.304 243.143 163.304 243.105 163.325L238.476 159.999C238.514 159.977 238.589 159.977 238.627 159.956Z" fill="#C4C4C4"/>
<path d="M238.439 160.021L243.067 163.347C241.219 163.893 226.39 168.063 214.866 163.111C213.774 162.654 212.832 162.111 212.042 161.524L207.413 158.198C208.204 158.785 209.182 159.306 210.237 159.784C221.799 164.715 236.59 160.567 238.439 160.021Z" fill="#C4C4C4"/>
<path d="M284.169 118.19L288.798 121.516C297.454 127.734 291.124 140.385 273.224 151.284C268.428 154.183 258.576 158.523 258.048 158.741L253.419 155.415C253.947 155.197 263.799 150.857 268.595 147.958C286.495 137.059 292.825 124.407 284.169 118.19Z" fill="#C4C4C4"/>
<path d="M284.169 118.19L288.798 121.516C289.476 121.994 290.04 122.494 290.529 123.038L285.9 119.712C285.411 119.168 284.809 118.646 284.169 118.19Z" fill="#C4C4C4"/>
<path d="M285.862 119.734L290.491 123.06C291.468 124.147 292.106 125.388 292.404 126.737L287.775 123.411C287.477 122.061 286.839 120.821 285.862 119.734Z" fill="#C4C4C4"/>
<path d="M287.775 123.411L292.404 126.737C293.448 131.437 290.416 137.404 283.839 143.461L279.211 140.135C285.787 134.078 288.819 128.068 287.775 123.411Z" fill="#C4C4C4"/>
<path d="M279.173 140.113L283.802 143.439C280.892 146.075 277.341 148.734 273.149 151.284C273.111 151.306 273.035 151.35 272.998 151.371L268.369 148.045C268.407 148.023 268.482 147.98 268.52 147.958C272.749 145.386 276.338 142.749 279.173 140.113Z" fill="#C4C4C4"/>
<path d="M268.407 148.023L273.036 151.35C268.24 154.249 258.539 158.502 258.01 158.72L253.381 155.393C253.872 155.197 263.573 150.944 268.407 148.023Z" fill="#C4C4C4"/>
<path d="M250.679 165.169L255.308 168.495L243.256 163.282L238.627 159.955L250.679 165.169Z" fill="#D3D3D3"/>
<path d="M253.344 155.415L257.973 158.741L255.308 168.495L250.679 165.169L253.344 155.415Z" fill="#E8E8E8"/>
<path d="M222.987 128.43C242.587 116.506 268.729 111.238 281.308 116.625C293.887 122.012 288.157 136.056 268.558 147.98C263.762 150.879 253.91 155.219 253.381 155.437L250.717 165.191L238.627 159.999C237.797 160.261 222.289 164.954 210.275 159.806C197.658 154.354 203.35 140.331 222.987 128.43Z" fill="#F8F8F8"/>
<path d="M260.222 120.409C260.222 120.409 278.54 136.914 242.046 150.201C242.046 150.201 242.37 156.012 240.864 155.491C240.073 155.209 241.216 150.507 241.216 150.507C241.216 150.507 207.528 128.661 260.222 120.409Z" fill="#B2C0A0"/>
<path d="M230.427 152.78C230.427 152.78 176 131.562 237.736 111.483C237.698 111.461 270.341 129.085 230.427 152.78Z" fill="#749858"/>
<path d="M237.698 111.504C237.698 111.504 269.814 128.868 231.295 152.278C231.295 152.278 234.934 159.523 232.748 159.134C231.655 158.939 230.427 152.823 230.427 152.823C230.427 152.823 213.776 132.835 237.698 111.504Z" fill="#6E9153"/>
<path d="M263.029 142.782C262.426 142.696 262.088 142.326 262.277 141.956C264.284 138.755 274.611 125.621 277.519 123.855C278.765 123.092 283.288 123.741 283.323 124.851C283.358 125.874 267.975 140.014 265.178 142.628C264.914 142.868 264.386 142.999 263.934 142.912L263.029 142.782Z" fill="#B2C0A0"/>
<path d="M258.081 146.117C258.31 145.072 259.934 144.047 261.706 143.85C263.479 143.653 264.721 144.326 264.455 145.393C264.226 146.438 262.602 147.462 260.829 147.66C259.057 147.857 257.852 147.162 258.081 146.117Z" fill="#B2C0A0"/>
</g>
<path d="M259.682 196.348L263.818 197.704L267.871 195.364L249.684 189.689L244.675 192.581L254.631 203.008L258.518 200.764L256.065 198.436L259.682 196.348ZM253.799 196.552L251.887 194.752C251.284 194.188 250.328 193.396 249.725 192.809L249.767 192.785C250.806 193.12 252.24 193.636 253.238 193.972L256.397 195.052L253.799 196.552ZM269.346 194.512L273.109 192.341L258.351 183.821L254.589 185.993L269.346 194.512ZM280.986 183.401C280.799 183.221 280.321 182.849 279.718 182.501C276.912 180.881 273.067 180.294 269.762 182.201C266 184.373 267.538 187.037 269.907 188.405C273.15 190.277 277.182 190.253 280.778 188.177C282.046 187.445 283.21 186.581 283.958 185.597L280.965 184.421C280.342 185.117 279.531 185.705 278.575 186.257C277.245 187.025 275.623 187.433 274.688 187.037L280.986 183.401ZM272.111 185.597C271.529 185.189 270.926 184.361 272.028 183.725C273.212 183.041 274.563 183.509 275.145 183.845L272.111 185.597ZM286.62 184.54L290.382 182.369L285.331 179.453C285.082 179.309 284.874 179.165 284.728 179.057C284.105 178.457 284.396 177.761 285.498 177.125C285.892 176.897 286.225 176.753 286.558 176.633L283.045 174.605C282.712 174.725 282.567 174.809 282.234 175.001C281.341 175.517 280.571 176.561 281.59 177.773L281.507 177.821L279.511 176.837L276.311 178.685C277.225 179.141 278.223 179.693 279.844 180.629L286.62 184.54ZM283.728 172.195L285.64 173.299L284.372 174.031L287.116 175.615L288.384 174.883L291.979 176.959C293.538 177.859 294.869 178.243 296.116 178.243C297.196 178.243 298.506 177.943 299.608 177.307C300.564 176.755 301.27 176.203 301.541 175.855L298.693 174.211C298.464 174.439 298.319 174.523 297.882 174.775C296.968 175.303 296.199 175.171 294.972 174.463L292.042 172.771L294.162 171.547L291.418 169.963L289.298 171.187L286.388 169.507L283.728 172.195ZM306.504 166.198C303.948 164.722 300.788 164.29 297.276 166.318C295.156 167.542 294.262 168.73 293.971 169.306L296.964 170.289C297.276 169.677 298.024 168.814 299.105 168.19C300.477 167.398 301.246 167.482 301.661 167.722L301.744 167.77C298.273 169.773 297.026 171.909 299.77 173.493C301.474 174.477 304.28 174.609 306.38 173.397C307.481 172.761 308.188 171.993 308.084 171.117L308.167 171.069L309.248 171.477L312.615 169.533C311.992 169.294 310.973 168.778 309.955 168.19L306.504 166.198ZM304.987 169.497C305.174 169.605 305.361 169.713 305.465 169.821C305.86 170.265 305.673 170.805 305.132 171.117C304.488 171.489 303.74 171.537 303.096 171.165C302.181 170.637 302.617 169.905 304.156 169.018L304.987 169.497ZM326.084 161.758L316.648 151.031L312.657 153.334L316.71 157.426C317.811 158.542 319.038 159.706 320.41 160.882L320.368 160.906C318.206 160.066 316.315 159.406 314.299 158.746L307.294 156.43L303.179 158.806L321.636 164.326L326.084 161.758ZM336.643 151.271C336.456 151.091 335.978 150.719 335.375 150.371C332.569 148.751 328.724 148.163 325.419 150.071C321.657 152.243 323.195 154.906 325.564 156.274C328.807 158.146 332.839 158.122 336.435 156.046C337.703 155.314 338.867 154.45 339.615 153.466L336.622 152.291C335.998 152.986 335.188 153.574 334.232 154.126C332.901 154.894 331.28 155.302 330.345 154.906L336.643 151.271ZM327.768 153.466C327.186 153.058 326.583 152.231 327.684 151.595C328.869 150.911 330.22 151.379 330.802 151.715L327.768 153.466ZM342.277 152.41L346.039 150.238L340.988 147.322C340.739 147.178 340.531 147.034 340.385 146.926C339.762 146.326 340.053 145.63 341.154 144.994C341.549 144.766 341.882 144.622 342.214 144.502L338.702 142.474C338.369 142.594 338.224 142.678 337.891 142.87C336.997 143.386 336.228 144.43 337.247 145.642L337.164 145.69L335.168 144.706L331.967 146.554C332.882 147.01 333.88 147.562 335.501 148.498L342.277 152.41ZM342.371 135.317L347.671 138.377L347.629 138.401C346.507 138.281 345.239 138.629 344.116 139.277C341.705 140.668 341.498 143.068 344.969 145.048C348.17 146.896 352.202 146.944 354.571 145.576C355.756 144.892 356.546 143.908 356.068 142.864L356.109 142.84L357.627 143.548L360.952 141.628C360.225 141.256 358.915 140.548 357.648 139.816L346.112 133.157L342.371 135.317ZM352.472 141.148C352.721 141.292 352.95 141.424 353.096 141.58C353.657 142.048 353.615 142.696 352.867 143.128C351.828 143.728 350.248 143.704 348.668 142.792C347.338 142.024 346.777 141.052 348.045 140.32C348.814 139.876 349.957 139.888 350.83 140.224C350.996 140.296 351.183 140.404 351.329 140.488L352.472 141.148ZM368.754 132.733C368.567 132.553 368.089 132.181 367.486 131.833C364.68 130.213 360.835 129.625 357.53 131.533C353.768 133.705 355.306 136.368 357.676 137.736C360.918 139.608 364.95 139.584 368.546 137.508C369.814 136.776 370.978 135.913 371.726 134.929L368.733 133.753C368.11 134.449 367.299 135.037 366.343 135.589C365.013 136.356 363.392 136.764 362.456 136.368L368.754 132.733ZM359.879 134.929C359.297 134.521 358.694 133.693 359.796 133.057C360.98 132.373 362.331 132.841 362.913 133.177L359.879 134.929Z" fill="#9A9A9A"/>
<defs>
<filter id="filter0_d" x="40.7664" y="47.9634" width="699.947" height="417.317" filterUnits="userSpaceOnUse" color-interpolation-filters="sRGB">
<feFlood flood-opacity="0" result="BackgroundImageFix"/>
<feColorMatrix in="SourceAlpha" type="matrix" values="0 0 0 0 0 0 0 0 0 0 0 0 0 0 0 0 0 0 127 0"/>
<feOffset dy="15"/>
<feGaussianBlur stdDeviation="2"/>
<feColorMatrix type="matrix" values="0 0 0 0 0 0 0 0 0 0 0 0 0 0 0 0 0 0 0.25 0"/>
<feBlend mode="normal" in2="BackgroundImageFix" result="effect1_dropShadow"/>
<feBlend mode="normal" in="SourceGraphic" in2="effect1_dropShadow" result="shape"/>
</filter>
<clipPath id="clip0">
<rect width="119.206" height="93.8951" fill="white" transform="matrix(0.866044 -0.499967 0.866044 0.499967 150.593 144.099)"/>
</clipPath>
</defs>
</svg>
