<svg width="49" height="49" viewBox="0 0 49 49" fill="none" xmlns="http://www.w3.org/2000/svg">
<path d="M24.0855 0C19.3218 0 14.6651 1.41259 10.7043 4.05913C6.74347 6.70568 3.65638 10.4673 1.83341 14.8684C0.0104358 19.2694 -0.466537 24.1122 0.462806 28.7843C1.39215 33.4564 3.68607 37.748 7.05448 41.1164C10.4229 44.4849 14.7145 46.7788 19.3866 47.7081C24.0588 48.6375 28.9015 48.1605 33.3026 46.3375C37.7036 44.5145 41.4653 41.4275 44.1118 37.4666C46.7583 33.5058 48.1709 28.8491 48.1709 24.0855C48.1709 20.9225 47.5479 17.7905 46.3375 14.8684C45.1271 11.9462 43.353 9.29101 41.1165 7.05447C38.8799 4.81793 36.2248 3.0438 33.3026 1.8334C30.3804 0.622989 27.2484 0 24.0855 0ZM28.2041 29.601C28.5987 30.0618 28.8049 30.6545 28.7814 31.2606C28.758 31.8668 28.5067 32.4418 28.0778 32.8708C27.6488 33.2997 27.0738 33.551 26.4677 33.5744C25.8615 33.5978 25.2688 33.3917 24.808 32.9971L17.5824 25.7714C17.1338 25.3202 16.882 24.7097 16.882 24.0734C16.882 23.4371 17.1338 22.8267 17.5824 22.3754L24.808 15.1498C25.024 14.8976 25.2897 14.6928 25.5885 14.5483C25.8873 14.4037 26.2128 14.3225 26.5445 14.3097C26.8762 14.2968 27.2069 14.3527 27.516 14.4738C27.8251 14.5949 28.1058 14.7786 28.3405 15.0133C28.5753 15.248 28.7589 15.5287 28.88 15.8378C29.0011 16.1469 29.057 16.4777 29.0442 16.8094C29.0314 17.1411 28.9501 17.4665 28.8056 17.7654C28.661 18.0642 28.4562 18.3299 28.2041 18.5458L22.6644 24.0855L28.2041 29.601Z" fill="#96AC78"/>
</svg>
