<svg width="49" height="49" viewBox="0 0 49 49" fill="none" xmlns="http://www.w3.org/2000/svg">
<path d="M24.6216 0C29.3852 0 34.0419 1.41259 38.0027 4.05913C41.9636 6.70568 45.0507 10.4673 46.8736 14.8684C48.6966 19.2694 49.1736 24.1122 48.2442 28.7843C47.3149 33.4564 45.021 37.748 41.6526 41.1164C38.2841 44.4849 33.9925 46.7788 29.3204 47.7081C24.6483 48.6375 19.8055 48.1605 15.4045 46.3375C11.0034 44.5145 7.24178 41.4275 4.59524 37.4666C1.94869 33.5058 0.536102 28.8491 0.536102 24.0855C0.536102 20.9225 1.15909 17.7905 2.3695 14.8684C3.5799 11.9462 5.35403 9.29101 7.59057 7.05447C9.82711 4.81793 12.4823 3.0438 15.4045 1.8334C18.3266 0.622989 21.4586 0 24.6216 0ZM20.5029 29.601C20.1084 30.0618 19.9022 30.6545 19.9256 31.2606C19.949 31.8668 20.2003 32.4418 20.6292 32.8708C21.0582 33.2997 21.6332 33.551 22.2394 33.5744C22.8456 33.5978 23.4382 33.3917 23.899 32.9971L31.1246 25.7714C31.5732 25.3202 31.825 24.7097 31.825 24.0734C31.825 23.4371 31.5732 22.8267 31.1246 22.3754L23.899 15.1498C23.6831 14.8976 23.4174 14.6928 23.1186 14.5483C22.8197 14.4037 22.4943 14.3225 22.1626 14.3097C21.8309 14.2968 21.5001 14.3527 21.191 14.4738C20.8819 14.5949 20.6012 14.7786 20.3665 15.0133C20.1318 15.248 19.9481 15.5287 19.827 15.8378C19.7059 16.1469 19.65 16.4777 19.6628 16.8094C19.6757 17.1411 19.7569 17.4665 19.9015 17.7654C20.046 18.0642 20.2508 18.3299 20.5029 18.5458L26.0426 24.0855L20.5029 29.601Z" fill="#96AC78"/>
</svg>
