<svg width="1016" height="309" viewBox="0 0 1016 309" fill="none" xmlns="http://www.w3.org/2000/svg">
<rect width="1015.66" height="308.023" rx="33.9232" fill="white"/>
<path d="M439.273 104.108H430.938V112.459H440.649V115H427.977V91.4365H440.487V93.9935H430.938V101.568H439.273V104.108ZM446.75 97.4892L446.831 99.3827C447.942 97.9046 449.361 97.1656 451.087 97.1656C454.184 97.1656 455.754 99.2317 455.797 103.364V115H452.948V103.493C452.948 102.123 452.716 101.152 452.252 100.58C451.799 99.9977 451.114 99.7064 450.197 99.7064C449.485 99.7064 448.843 99.9438 448.271 100.418C447.71 100.893 447.257 101.514 446.912 102.28V115H444.047V97.4892H446.75ZM463.856 93.2491V97.4892H466.494V99.8035H463.856V110.663C463.856 111.353 463.969 111.877 464.196 112.233C464.423 112.589 464.811 112.767 465.361 112.767C465.739 112.767 466.122 112.702 466.51 112.572L466.478 115C465.831 115.216 465.167 115.324 464.487 115.324C463.354 115.324 462.491 114.919 461.898 114.11C461.305 113.301 461.008 112.157 461.008 110.679V99.8035H458.338V97.4892H461.008V93.2491H463.856ZM477.143 100.176C476.744 100.1 476.312 100.062 475.848 100.062C474.381 100.062 473.356 100.866 472.773 102.474V115H469.909V97.4892H472.692L472.741 99.2694C473.507 97.8668 474.591 97.1656 475.994 97.1656C476.447 97.1656 476.825 97.2411 477.127 97.3921L477.143 100.176ZM485.947 115.324C483.768 115.324 482.095 114.676 480.93 113.382C479.765 112.076 479.171 110.166 479.15 107.653V105.533C479.15 102.922 479.716 100.877 480.849 99.3989C481.993 97.91 483.584 97.1656 485.623 97.1656C487.673 97.1656 489.205 97.8183 490.219 99.1238C491.234 100.429 491.751 102.463 491.773 105.225V107.102H481.998V107.507C481.998 109.384 482.349 110.749 483.05 111.601C483.762 112.454 484.782 112.88 486.109 112.88C486.95 112.88 487.689 112.723 488.326 112.411C488.973 112.087 489.577 111.58 490.138 110.889L491.627 112.702C490.387 114.45 488.493 115.324 485.947 115.324ZM485.623 99.6255C484.436 99.6255 483.557 100.035 482.985 100.855C482.413 101.665 482.09 102.927 482.014 104.642H488.909V104.254C488.833 102.592 488.531 101.406 488.002 100.694C487.484 99.9815 486.691 99.6255 485.623 99.6255ZM506.581 93.2491V97.4892H509.219V99.8035H506.581V110.663C506.581 111.353 506.694 111.877 506.921 112.233C507.148 112.589 507.536 112.767 508.086 112.767C508.464 112.767 508.847 112.702 509.235 112.572L509.203 115C508.556 115.216 507.892 115.324 507.212 115.324C506.079 115.324 505.216 114.919 504.623 114.11C504.03 113.301 503.733 112.157 503.733 110.679V99.8035H501.062V97.4892H503.733V93.2491H506.581ZM511.711 105.435C511.711 102.889 512.326 100.877 513.556 99.3989C514.797 97.91 516.432 97.1656 518.46 97.1656C520.488 97.1656 522.117 97.8884 523.347 99.3342C524.588 100.78 525.225 102.749 525.257 105.241V107.086C525.257 109.622 524.642 111.628 523.412 113.107C522.182 114.585 520.542 115.324 518.492 115.324C516.464 115.324 514.835 114.606 513.605 113.171C512.386 111.736 511.755 109.794 511.711 107.345V105.435ZM514.576 107.086C514.576 108.888 514.927 110.307 515.628 111.342C516.34 112.367 517.295 112.88 518.492 112.88C521.017 112.88 522.317 111.057 522.393 107.41V105.435C522.393 103.644 522.037 102.231 521.324 101.195C520.612 100.149 519.658 99.6255 518.46 99.6255C517.284 99.6255 516.34 100.149 515.628 101.195C514.927 102.231 514.576 103.639 514.576 105.419V107.086ZM528.348 105.452C528.348 102.754 528.85 100.699 529.853 99.2856C530.867 97.8722 532.319 97.1656 534.207 97.1656C535.879 97.1656 537.185 97.8453 538.123 99.2047V90.1418H540.988V115H538.366L538.22 113.123C537.282 114.59 535.938 115.324 534.191 115.324C532.378 115.324 530.954 114.622 529.918 113.22C528.893 111.806 528.37 109.816 528.348 107.248V105.452ZM531.213 107.086C531.213 109.05 531.504 110.496 532.087 111.423C532.669 112.34 533.619 112.799 534.935 112.799C536.359 112.799 537.422 112.082 538.123 110.647V101.81C537.39 100.408 536.332 99.7064 534.951 99.7064C533.635 99.7064 532.685 100.17 532.103 101.098C531.52 102.015 531.224 103.429 531.213 105.338V107.086ZM544.791 105.435C544.791 102.889 545.406 100.877 546.636 99.3989C547.877 97.91 549.511 97.1656 551.539 97.1656C553.568 97.1656 555.197 97.8884 556.427 99.3342C557.668 100.78 558.304 102.749 558.337 105.241V107.086C558.337 109.622 557.722 111.628 556.492 113.107C555.262 114.585 553.622 115.324 551.572 115.324C549.543 115.324 547.914 114.606 546.684 113.171C545.465 111.736 544.834 109.794 544.791 107.345V105.435ZM547.655 107.086C547.655 108.888 548.006 110.307 548.707 111.342C549.419 112.367 550.374 112.88 551.572 112.88C554.097 112.88 555.397 111.057 555.472 107.41V105.435C555.472 103.644 555.116 102.231 554.404 101.195C553.692 100.149 552.737 99.6255 551.539 99.6255C550.363 99.6255 549.419 100.149 548.707 101.195C548.006 102.231 547.655 103.639 547.655 105.419V107.086ZM570.539 110.517C570.539 109.902 570.307 109.373 569.843 108.931C569.379 108.489 568.484 107.971 567.157 107.377C565.614 106.741 564.524 106.196 563.888 105.743C563.262 105.29 562.793 104.777 562.48 104.205C562.167 103.623 562.01 102.932 562.01 102.134C562.01 100.71 562.528 99.5284 563.564 98.5897C564.611 97.6403 565.943 97.1656 567.561 97.1656C569.266 97.1656 570.636 97.6619 571.672 98.6545C572.708 99.6471 573.226 100.92 573.226 102.474H570.377C570.377 101.686 570.113 101.017 569.584 100.467C569.056 99.906 568.381 99.6255 567.561 99.6255C566.72 99.6255 566.056 99.8467 565.571 100.289C565.096 100.721 564.859 101.303 564.859 102.037C564.859 102.619 565.031 103.089 565.377 103.445C565.733 103.801 566.58 104.27 567.917 104.853C570.043 105.684 571.489 106.498 572.255 107.297C573.021 108.084 573.404 109.088 573.404 110.307C573.404 111.828 572.88 113.047 571.834 113.964C570.787 114.871 569.385 115.324 567.626 115.324C565.803 115.324 564.325 114.8 563.192 113.754C562.059 112.707 561.492 111.38 561.492 109.773H564.373C564.406 110.744 564.702 111.504 565.263 112.055C565.824 112.605 566.612 112.88 567.626 112.88C568.576 112.88 569.298 112.67 569.795 112.249C570.291 111.817 570.539 111.24 570.539 110.517ZM590.834 112.88C591.783 112.88 592.544 112.589 593.115 112.006C593.687 111.413 594 110.571 594.054 109.481H596.757C596.692 111.164 596.093 112.562 594.96 113.673C593.838 114.773 592.463 115.324 590.834 115.324C588.665 115.324 587.009 114.644 585.865 113.285C584.732 111.914 584.166 109.881 584.166 107.183V105.257C584.166 102.614 584.732 100.607 585.865 99.2371C586.998 97.8561 588.649 97.1656 590.817 97.1656C592.608 97.1656 594.027 97.732 595.074 98.8648C596.131 99.9977 596.692 101.546 596.757 103.51H594.054C593.989 102.215 593.676 101.244 593.115 100.597C592.565 99.9492 591.799 99.6255 590.817 99.6255C589.544 99.6255 588.6 100.046 587.985 100.888C587.37 101.719 587.052 103.089 587.03 104.998V107.232C587.03 109.293 587.332 110.749 587.937 111.601C588.552 112.454 589.517 112.88 590.834 112.88ZM608.992 113.463C608.042 114.703 606.656 115.324 604.832 115.324C603.246 115.324 602.049 114.779 601.24 113.689C600.43 112.589 600.02 110.992 600.01 108.899V97.4892H602.858V108.688C602.858 111.418 603.678 112.783 605.318 112.783C607.055 112.783 608.253 112.006 608.911 110.452V97.4892H611.775V115H609.056L608.992 113.463ZM619.171 115H616.307V97.4892H619.171V115ZM619.398 92.8445C619.398 93.33 619.263 93.7346 618.993 94.0583C618.723 94.382 618.313 94.5438 617.763 94.5438C617.224 94.5438 616.819 94.382 616.549 94.0583C616.28 93.7346 616.145 93.33 616.145 92.8445C616.145 92.359 616.28 91.949 616.549 91.6145C616.819 91.2801 617.224 91.1128 617.763 91.1128C618.303 91.1128 618.707 91.2855 618.977 91.6307C619.257 91.9652 619.398 92.3698 619.398 92.8445ZM623.088 105.452C623.088 102.754 623.589 100.699 624.593 99.2856C625.607 97.8722 627.058 97.1656 628.946 97.1656C630.618 97.1656 631.924 97.8453 632.863 99.2047V90.1418H635.727V115H633.105L632.96 113.123C632.021 114.59 630.678 115.324 628.93 115.324C627.117 115.324 625.693 114.622 624.657 113.22C623.632 111.806 623.109 109.816 623.088 107.248V105.452ZM625.952 107.086C625.952 109.05 626.243 110.496 626.826 111.423C627.409 112.34 628.358 112.799 629.674 112.799C631.099 112.799 632.161 112.082 632.863 110.647V101.81C632.129 100.408 631.072 99.7064 629.691 99.7064C628.374 99.7064 627.425 100.17 626.842 101.098C626.26 102.015 625.963 103.429 625.952 105.338V107.086ZM649.143 115C648.971 114.622 648.847 113.986 648.771 113.09C647.757 114.579 646.462 115.324 644.887 115.324C643.301 115.324 642.06 114.881 641.165 113.997C640.28 113.101 639.838 111.844 639.838 110.226C639.838 108.446 640.442 107.032 641.65 105.986C642.859 104.939 644.515 104.405 646.619 104.383H648.723V102.522C648.723 101.476 648.491 100.731 648.027 100.289C647.563 99.8467 646.856 99.6255 645.907 99.6255C645.044 99.6255 644.342 99.8844 643.803 100.402C643.263 100.909 642.994 101.557 642.994 102.344H640.129C640.129 101.449 640.393 100.597 640.922 99.7873C641.451 98.9673 642.163 98.3254 643.058 97.8615C643.954 97.3975 644.952 97.1656 646.052 97.1656C647.843 97.1656 649.203 97.6133 650.131 98.5088C651.069 99.3935 651.549 100.688 651.571 102.393V111.229C651.582 112.578 651.765 113.748 652.121 114.741V115H649.143ZM645.324 112.718C646.025 112.718 646.694 112.524 647.331 112.135C647.967 111.747 648.431 111.262 648.723 110.679V106.504H647.104C645.745 106.525 644.671 106.833 643.884 107.426C643.096 108.009 642.702 108.829 642.702 109.886C642.702 110.879 642.902 111.601 643.301 112.055C643.7 112.497 644.375 112.718 645.324 112.718ZM658.724 97.4892L658.789 99.1076C659.857 97.8129 661.265 97.1656 663.013 97.1656C664.966 97.1656 666.33 98.0125 667.107 99.7064C668.208 98.0125 669.74 97.1656 671.703 97.1656C674.929 97.1656 676.58 99.1777 676.656 103.202V115H673.807V103.477C673.807 102.204 673.581 101.26 673.128 100.645C672.675 100.019 671.908 99.7064 670.83 99.7064C669.966 99.7064 669.265 100.041 668.726 100.71C668.186 101.379 667.873 102.231 667.787 103.267V115H664.906V103.348C664.874 100.92 663.887 99.7064 661.945 99.7064C660.499 99.7064 659.479 100.429 658.886 101.875V115H656.038V97.4892H658.724ZM680.378 105.435C680.378 102.889 680.993 100.877 682.223 99.3989C683.464 97.91 685.098 97.1656 687.127 97.1656C689.155 97.1656 690.784 97.8884 692.014 99.3342C693.255 100.78 693.891 102.749 693.924 105.241V107.086C693.924 109.622 693.309 111.628 692.079 113.107C690.849 114.585 689.209 115.324 687.159 115.324C685.131 115.324 683.501 114.606 682.271 113.171C681.052 111.736 680.421 109.794 680.378 107.345V105.435ZM683.242 107.086C683.242 108.888 683.593 110.307 684.294 111.342C685.006 112.367 685.961 112.88 687.159 112.88C689.684 112.88 690.984 111.057 691.059 107.41V105.435C691.059 103.644 690.703 102.231 689.991 101.195C689.279 100.149 688.324 99.6255 687.127 99.6255C685.951 99.6255 685.006 100.149 684.294 101.195C683.593 102.231 683.242 103.639 683.242 105.419V107.086ZM706.126 110.517C706.126 109.902 705.894 109.373 705.43 108.931C704.966 108.489 704.071 107.971 702.744 107.377C701.201 106.741 700.111 106.196 699.475 105.743C698.849 105.29 698.38 104.777 698.067 104.205C697.754 103.623 697.597 102.932 697.597 102.134C697.597 100.71 698.115 99.5284 699.151 98.5897C700.198 97.6403 701.53 97.1656 703.148 97.1656C704.853 97.1656 706.223 97.6619 707.259 98.6545C708.295 99.6471 708.813 100.92 708.813 102.474H705.964C705.964 101.686 705.7 101.017 705.171 100.467C704.643 99.906 703.968 99.6255 703.148 99.6255C702.307 99.6255 701.643 99.8467 701.158 100.289C700.683 100.721 700.446 101.303 700.446 102.037C700.446 102.619 700.618 103.089 700.964 103.445C701.32 103.801 702.167 104.27 703.504 104.853C705.63 105.684 707.076 106.498 707.842 107.297C708.608 108.084 708.991 109.088 708.991 110.307C708.991 111.828 708.467 113.047 707.421 113.964C706.374 114.871 704.972 115.324 703.213 115.324C701.39 115.324 699.912 114.8 698.779 113.754C697.646 112.707 697.08 111.38 697.08 109.773H699.96C699.993 110.744 700.289 111.504 700.85 112.055C701.411 112.605 702.199 112.88 703.213 112.88C704.163 112.88 704.885 112.67 705.382 112.249C705.878 111.817 706.126 111.24 706.126 110.517ZM726.599 115.324C724.419 115.324 722.747 114.676 721.582 113.382C720.416 112.076 719.823 110.166 719.801 107.653V105.533C719.801 102.922 720.368 100.877 721.501 99.3989C722.644 97.91 724.236 97.1656 726.275 97.1656C728.325 97.1656 729.857 97.8183 730.871 99.1238C731.885 100.429 732.403 102.463 732.425 105.225V107.102H722.65V107.507C722.65 109.384 723 110.749 723.702 111.601C724.414 112.454 725.433 112.88 726.76 112.88C727.602 112.88 728.341 112.723 728.978 112.411C729.625 112.087 730.229 111.58 730.79 110.889L732.279 112.702C731.038 114.45 729.145 115.324 726.599 115.324ZM726.275 99.6255C725.088 99.6255 724.209 100.035 723.637 100.855C723.065 101.665 722.742 102.927 722.666 104.642H729.56V104.254C729.485 102.592 729.183 101.406 728.654 100.694C728.136 99.9815 727.343 99.6255 726.275 99.6255ZM738.963 115H736.098V90.1418H738.963V115ZM763.74 107.086C763.74 109.859 763.239 111.925 762.235 113.285C761.243 114.644 759.835 115.324 758.011 115.324C756.253 115.324 754.899 114.66 753.949 113.333V121.732H751.101V97.4892H753.69L753.836 99.4313C754.796 97.9208 756.172 97.1656 757.963 97.1656C759.883 97.1656 761.318 97.8345 762.268 99.1723C763.217 100.51 763.708 102.512 763.74 105.176V107.086ZM760.892 105.452C760.892 103.488 760.59 102.042 759.986 101.114C759.381 100.176 758.41 99.7064 757.073 99.7064C755.702 99.7064 754.661 100.392 753.949 101.762V110.873C754.65 112.211 755.702 112.88 757.105 112.88C758.4 112.88 759.349 112.416 759.953 111.488C760.568 110.549 760.881 109.12 760.892 107.199V105.452ZM770.521 115H767.657V90.1418H770.521V115ZM784.051 115C783.878 114.622 783.754 113.986 783.679 113.09C782.664 114.579 781.37 115.324 779.794 115.324C778.208 115.324 776.968 114.881 776.072 113.997C775.188 113.101 774.745 111.844 774.745 110.226C774.745 108.446 775.349 107.032 776.558 105.986C777.766 104.939 779.422 104.405 781.526 104.383H783.63V102.522C783.63 101.476 783.398 100.731 782.934 100.289C782.47 99.8467 781.763 99.6255 780.814 99.6255C779.951 99.6255 779.25 99.8844 778.71 100.402C778.171 100.909 777.901 101.557 777.901 102.344H775.036C775.036 101.449 775.301 100.597 775.829 99.7873C776.358 98.9673 777.07 98.3254 777.966 97.8615C778.861 97.3975 779.859 97.1656 780.96 97.1656C782.751 97.1656 784.11 97.6133 785.038 98.5088C785.977 99.3935 786.457 100.688 786.478 102.393V111.229C786.489 112.578 786.673 113.748 787.029 114.741V115H784.051ZM780.231 112.718C780.933 112.718 781.602 112.524 782.238 112.135C782.875 111.747 783.339 111.262 783.63 110.679V106.504H782.012C780.652 106.525 779.579 106.833 778.791 107.426C778.003 108.009 777.61 108.829 777.61 109.886C777.61 110.879 777.809 111.601 778.208 112.055C778.608 112.497 779.282 112.718 780.231 112.718ZM793.632 97.4892L793.712 99.3827C794.824 97.9046 796.243 97.1656 797.969 97.1656C801.065 97.1656 802.635 99.2317 802.678 103.364V115H799.83V103.493C799.83 102.123 799.598 101.152 799.134 100.58C798.681 99.9977 797.996 99.7064 797.079 99.7064C796.367 99.7064 795.725 99.9438 795.153 100.418C794.592 100.893 794.139 101.514 793.793 102.28V115H790.929V97.4892H793.632ZM813.246 115.324C811.067 115.324 809.394 114.676 808.229 113.382C807.064 112.076 806.471 110.166 806.449 107.653V105.533C806.449 102.922 807.015 100.877 808.148 99.3989C809.292 97.91 810.883 97.1656 812.923 97.1656C814.972 97.1656 816.504 97.8183 817.519 99.1238C818.533 100.429 819.051 102.463 819.072 105.225V107.102H809.297V107.507C809.297 109.384 809.648 110.749 810.349 111.601C811.061 112.454 812.081 112.88 813.408 112.88C814.25 112.88 814.989 112.723 815.625 112.411C816.273 112.087 816.877 111.58 817.438 110.889L818.927 112.702C817.686 114.45 815.792 115.324 813.246 115.324ZM812.923 99.6255C811.736 99.6255 810.856 100.035 810.285 100.855C809.713 101.665 809.389 102.927 809.314 104.642H816.208V104.254C816.132 102.592 815.83 101.406 815.302 100.694C814.784 99.9815 813.991 99.6255 812.923 99.6255ZM826.274 93.2491V97.4892H828.912V99.8035H826.274V110.663C826.274 111.353 826.387 111.877 826.614 112.233C826.841 112.589 827.229 112.767 827.779 112.767C828.157 112.767 828.54 112.702 828.928 112.572L828.896 115C828.248 115.216 827.585 115.324 826.905 115.324C825.772 115.324 824.909 114.919 824.316 114.11C823.722 113.301 823.426 112.157 823.426 110.679V99.8035H820.755V97.4892H823.426V93.2491H826.274ZM841.341 115C841.168 114.622 841.044 113.986 840.969 113.09C839.955 114.579 838.66 115.324 837.085 115.324C835.499 115.324 834.258 114.881 833.363 113.997C832.478 113.101 832.035 111.844 832.035 110.226C832.035 108.446 832.64 107.032 833.848 105.986C835.056 104.939 836.713 104.405 838.816 104.383H840.92V102.522C840.92 101.476 840.688 100.731 840.224 100.289C839.76 99.8467 839.054 99.6255 838.104 99.6255C837.241 99.6255 836.54 99.8844 836 100.402C835.461 100.909 835.191 101.557 835.191 102.344H832.327C832.327 101.449 832.591 100.597 833.12 99.7873C833.648 98.9673 834.361 98.3254 835.256 97.8615C836.152 97.3975 837.15 97.1656 838.25 97.1656C840.041 97.1656 841.4 97.6133 842.328 98.5088C843.267 99.3935 843.747 100.688 843.769 102.393V111.229C843.779 112.578 843.963 113.748 844.319 114.741V115H841.341ZM837.522 112.718C838.223 112.718 838.892 112.524 839.529 112.135C840.165 111.747 840.629 111.262 840.92 110.679V106.504H839.302C837.943 106.525 836.869 106.833 836.081 107.426C835.294 108.009 834.9 108.829 834.9 109.886C834.9 110.879 835.1 111.601 835.499 112.055C835.898 112.497 836.572 112.718 837.522 112.718Z" fill="#759958"/>
<path d="M432.723 135.938H434.879V148.02C434.879 149.652 434.461 150.93 433.625 151.852C432.797 152.773 431.68 153.234 430.273 153.234C428.828 153.234 427.703 152.797 426.898 151.922C426.094 151.047 425.691 149.836 425.691 148.289H427.836C427.836 149.266 428.051 150.027 428.48 150.574C428.91 151.121 429.508 151.395 430.273 151.395C431.016 151.395 431.609 151.098 432.055 150.504C432.5 149.91 432.723 149.078 432.723 148.008V135.938ZM444.617 151.887C443.93 152.785 442.926 153.234 441.605 153.234C440.457 153.234 439.59 152.84 439.004 152.051C438.418 151.254 438.121 150.098 438.113 148.582V140.32H440.176V148.43C440.176 150.406 440.77 151.395 441.957 151.395C443.215 151.395 444.082 150.832 444.559 149.707V140.32H446.633V153H444.664L444.617 151.887ZM451.707 140.32L451.766 141.691C452.57 140.621 453.598 140.086 454.848 140.086C457.09 140.086 458.227 141.582 458.258 144.574V153H456.195V144.668C456.195 143.676 456.027 142.973 455.691 142.559C455.363 142.137 454.867 141.926 454.203 141.926C453.688 141.926 453.223 142.098 452.809 142.441C452.402 142.785 452.074 143.234 451.824 143.789V153H449.75V140.32H451.707ZM464.094 137.25V140.32H466.004V141.996H464.094V149.859C464.094 150.359 464.176 150.738 464.34 150.996C464.504 151.254 464.785 151.383 465.184 151.383C465.457 151.383 465.734 151.336 466.016 151.242L465.992 153C465.523 153.156 465.043 153.234 464.551 153.234C463.73 153.234 463.105 152.941 462.676 152.355C462.246 151.77 462.031 150.941 462.031 149.871V141.996H460.098V140.32H462.031V137.25H464.094ZM467.809 146.074C467.809 144.23 468.254 142.773 469.145 141.703C470.043 140.625 471.227 140.086 472.695 140.086C474.164 140.086 475.344 140.609 476.234 141.656C477.133 142.703 477.594 144.129 477.617 145.934V147.27C477.617 149.105 477.172 150.559 476.281 151.629C475.391 152.699 474.203 153.234 472.719 153.234C471.25 153.234 470.07 152.715 469.18 151.676C468.297 150.637 467.84 149.23 467.809 147.457V146.074ZM469.883 147.27C469.883 148.574 470.137 149.602 470.645 150.352C471.16 151.094 471.852 151.465 472.719 151.465C474.547 151.465 475.488 150.145 475.543 147.504V146.074C475.543 144.777 475.285 143.754 474.77 143.004C474.254 142.246 473.562 141.867 472.695 141.867C471.844 141.867 471.16 142.246 470.645 143.004C470.137 143.754 469.883 144.773 469.883 146.062V147.27ZM486.453 149.754C486.453 149.309 486.285 148.926 485.949 148.605C485.613 148.285 484.965 147.91 484.004 147.48C482.887 147.02 482.098 146.625 481.637 146.297C481.184 145.969 480.844 145.598 480.617 145.184C480.391 144.762 480.277 144.262 480.277 143.684C480.277 142.652 480.652 141.797 481.402 141.117C482.16 140.43 483.125 140.086 484.297 140.086C485.531 140.086 486.523 140.445 487.273 141.164C488.023 141.883 488.398 142.805 488.398 143.93H486.336C486.336 143.359 486.145 142.875 485.762 142.477C485.379 142.07 484.891 141.867 484.297 141.867C483.688 141.867 483.207 142.027 482.855 142.348C482.512 142.66 482.34 143.082 482.34 143.613C482.34 144.035 482.465 144.375 482.715 144.633C482.973 144.891 483.586 145.23 484.555 145.652C486.094 146.254 487.141 146.844 487.695 147.422C488.25 147.992 488.527 148.719 488.527 149.602C488.527 150.703 488.148 151.586 487.391 152.25C486.633 152.906 485.617 153.234 484.344 153.234C483.023 153.234 481.953 152.855 481.133 152.098C480.312 151.34 479.902 150.379 479.902 149.215H481.988C482.012 149.918 482.227 150.469 482.633 150.867C483.039 151.266 483.609 151.465 484.344 151.465C485.031 151.465 485.555 151.312 485.914 151.008C486.273 150.695 486.453 150.277 486.453 149.754ZM505.906 147.27C505.906 149.277 505.543 150.773 504.816 151.758C504.098 152.742 503.078 153.234 501.758 153.234C500.484 153.234 499.504 152.754 498.816 151.793V157.875H496.754V140.32H498.629L498.734 141.727C499.43 140.633 500.426 140.086 501.723 140.086C503.113 140.086 504.152 140.57 504.84 141.539C505.527 142.508 505.883 143.957 505.906 145.887V147.27ZM503.844 146.086C503.844 144.664 503.625 143.617 503.188 142.945C502.75 142.266 502.047 141.926 501.078 141.926C500.086 141.926 499.332 142.422 498.816 143.414V150.012C499.324 150.98 500.086 151.465 501.102 151.465C502.039 151.465 502.727 151.129 503.164 150.457C503.609 149.777 503.836 148.742 503.844 147.352V146.086ZM508.145 146.074C508.145 144.23 508.59 142.773 509.48 141.703C510.379 140.625 511.562 140.086 513.031 140.086C514.5 140.086 515.68 140.609 516.57 141.656C517.469 142.703 517.93 144.129 517.953 145.934V147.27C517.953 149.105 517.508 150.559 516.617 151.629C515.727 152.699 514.539 153.234 513.055 153.234C511.586 153.234 510.406 152.715 509.516 151.676C508.633 150.637 508.176 149.23 508.145 147.457V146.074ZM510.219 147.27C510.219 148.574 510.473 149.602 510.98 150.352C511.496 151.094 512.188 151.465 513.055 151.465C514.883 151.465 515.824 150.145 515.879 147.504V146.074C515.879 144.777 515.621 143.754 515.105 143.004C514.59 142.246 513.898 141.867 513.031 141.867C512.18 141.867 511.496 142.246 510.98 143.004C510.473 143.754 510.219 144.773 510.219 146.062V147.27ZM520.191 146.086C520.191 144.133 520.555 142.645 521.281 141.621C522.016 140.598 523.066 140.086 524.434 140.086C525.645 140.086 526.59 140.578 527.27 141.562V135H529.344V153H527.445L527.34 151.641C526.66 152.703 525.688 153.234 524.422 153.234C523.109 153.234 522.078 152.727 521.328 151.711C520.586 150.688 520.207 149.246 520.191 147.387V146.086ZM522.266 147.27C522.266 148.691 522.477 149.738 522.898 150.41C523.32 151.074 524.008 151.406 524.961 151.406C525.992 151.406 526.762 150.887 527.27 149.848V143.449C526.738 142.434 525.973 141.926 524.973 141.926C524.02 141.926 523.332 142.262 522.91 142.934C522.488 143.598 522.273 144.621 522.266 146.004V147.27ZM537.066 153.234C535.488 153.234 534.277 152.766 533.434 151.828C532.59 150.883 532.16 149.5 532.145 147.68V146.145C532.145 144.254 532.555 142.773 533.375 141.703C534.203 140.625 535.355 140.086 536.832 140.086C538.316 140.086 539.426 140.559 540.16 141.504C540.895 142.449 541.27 143.922 541.285 145.922V147.281H534.207V147.574C534.207 148.934 534.461 149.922 534.969 150.539C535.484 151.156 536.223 151.465 537.184 151.465C537.793 151.465 538.328 151.352 538.789 151.125C539.258 150.891 539.695 150.523 540.102 150.023L541.18 151.336C540.281 152.602 538.91 153.234 537.066 153.234ZM536.832 141.867C535.973 141.867 535.336 142.164 534.922 142.758C534.508 143.344 534.273 144.258 534.219 145.5H539.211V145.219C539.156 144.016 538.938 143.156 538.555 142.641C538.18 142.125 537.605 141.867 536.832 141.867ZM545.738 140.32L545.785 141.492C546.559 140.555 547.578 140.086 548.844 140.086C550.258 140.086 551.246 140.699 551.809 141.926C552.605 140.699 553.715 140.086 555.137 140.086C557.473 140.086 558.668 141.543 558.723 144.457V153H556.66V144.656C556.66 143.734 556.496 143.051 556.168 142.605C555.84 142.152 555.285 141.926 554.504 141.926C553.879 141.926 553.371 142.168 552.98 142.652C552.59 143.137 552.363 143.754 552.301 144.504V153H550.215V144.562C550.191 142.805 549.477 141.926 548.07 141.926C547.023 141.926 546.285 142.449 545.855 143.496V153H543.793V140.32H545.738ZM561.418 146.074C561.418 144.23 561.863 142.773 562.754 141.703C563.652 140.625 564.836 140.086 566.305 140.086C567.773 140.086 568.953 140.609 569.844 141.656C570.742 142.703 571.203 144.129 571.227 145.934V147.27C571.227 149.105 570.781 150.559 569.891 151.629C569 152.699 567.812 153.234 566.328 153.234C564.859 153.234 563.68 152.715 562.789 151.676C561.906 150.637 561.449 149.23 561.418 147.457V146.074ZM563.492 147.27C563.492 148.574 563.746 149.602 564.254 150.352C564.77 151.094 565.461 151.465 566.328 151.465C568.156 151.465 569.098 150.145 569.152 147.504V146.074C569.152 144.777 568.895 143.754 568.379 143.004C567.863 142.246 567.172 141.867 566.305 141.867C565.453 141.867 564.77 142.246 564.254 143.004C563.746 143.754 563.492 144.773 563.492 146.062V147.27ZM580.062 149.754C580.062 149.309 579.895 148.926 579.559 148.605C579.223 148.285 578.574 147.91 577.613 147.48C576.496 147.02 575.707 146.625 575.246 146.297C574.793 145.969 574.453 145.598 574.227 145.184C574 144.762 573.887 144.262 573.887 143.684C573.887 142.652 574.262 141.797 575.012 141.117C575.77 140.43 576.734 140.086 577.906 140.086C579.141 140.086 580.133 140.445 580.883 141.164C581.633 141.883 582.008 142.805 582.008 143.93H579.945C579.945 143.359 579.754 142.875 579.371 142.477C578.988 142.07 578.5 141.867 577.906 141.867C577.297 141.867 576.816 142.027 576.465 142.348C576.121 142.66 575.949 143.082 575.949 143.613C575.949 144.035 576.074 144.375 576.324 144.633C576.582 144.891 577.195 145.23 578.164 145.652C579.703 146.254 580.75 146.844 581.305 147.422C581.859 147.992 582.137 148.719 582.137 149.602C582.137 150.703 581.758 151.586 581 152.25C580.242 152.906 579.227 153.234 577.953 153.234C576.633 153.234 575.562 152.855 574.742 152.098C573.922 151.34 573.512 150.379 573.512 149.215H575.598C575.621 149.918 575.836 150.469 576.242 150.867C576.648 151.266 577.219 151.465 577.953 151.465C578.641 151.465 579.164 151.312 579.523 151.008C579.883 150.695 580.062 150.277 580.062 149.754ZM594.758 151.465C595.445 151.465 595.996 151.254 596.41 150.832C596.824 150.402 597.051 149.793 597.09 149.004H599.047C599 150.223 598.566 151.234 597.746 152.039C596.934 152.836 595.938 153.234 594.758 153.234C593.188 153.234 591.988 152.742 591.16 151.758C590.34 150.766 589.93 149.293 589.93 147.34V145.945C589.93 144.031 590.34 142.578 591.16 141.586C591.98 140.586 593.176 140.086 594.746 140.086C596.043 140.086 597.07 140.496 597.828 141.316C598.594 142.137 599 143.258 599.047 144.68H597.09C597.043 143.742 596.816 143.039 596.41 142.57C596.012 142.102 595.457 141.867 594.746 141.867C593.824 141.867 593.141 142.172 592.695 142.781C592.25 143.383 592.02 144.375 592.004 145.758V147.375C592.004 148.867 592.223 149.922 592.66 150.539C593.105 151.156 593.805 151.465 594.758 151.465ZM606.676 142.266C606.387 142.211 606.074 142.184 605.738 142.184C604.676 142.184 603.934 142.766 603.512 143.93V153H601.438V140.32H603.453L603.488 141.609C604.043 140.594 604.828 140.086 605.844 140.086C606.172 140.086 606.445 140.141 606.664 140.25L606.676 142.266ZM613.051 153.234C611.473 153.234 610.262 152.766 609.418 151.828C608.574 150.883 608.145 149.5 608.129 147.68V146.145C608.129 144.254 608.539 142.773 609.359 141.703C610.188 140.625 611.34 140.086 612.816 140.086C614.301 140.086 615.41 140.559 616.145 141.504C616.879 142.449 617.254 143.922 617.27 145.922V147.281H610.191V147.574C610.191 148.934 610.445 149.922 610.953 150.539C611.469 151.156 612.207 151.465 613.168 151.465C613.777 151.465 614.312 151.352 614.773 151.125C615.242 150.891 615.68 150.523 616.086 150.023L617.164 151.336C616.266 152.602 614.895 153.234 613.051 153.234ZM612.816 141.867C611.957 141.867 611.32 142.164 610.906 142.758C610.492 143.344 610.258 144.258 610.203 145.5H615.195V145.219C615.141 144.016 614.922 143.156 614.539 142.641C614.164 142.125 613.59 141.867 612.816 141.867ZM626.293 153C626.168 152.727 626.078 152.266 626.023 151.617C625.289 152.695 624.352 153.234 623.211 153.234C622.062 153.234 621.164 152.914 620.516 152.273C619.875 151.625 619.555 150.715 619.555 149.543C619.555 148.254 619.992 147.23 620.867 146.473C621.742 145.715 622.941 145.328 624.465 145.312H625.988V143.965C625.988 143.207 625.82 142.668 625.484 142.348C625.148 142.027 624.637 141.867 623.949 141.867C623.324 141.867 622.816 142.055 622.426 142.43C622.035 142.797 621.84 143.266 621.84 143.836H619.766C619.766 143.188 619.957 142.57 620.34 141.984C620.723 141.391 621.238 140.926 621.887 140.59C622.535 140.254 623.258 140.086 624.055 140.086C625.352 140.086 626.336 140.41 627.008 141.059C627.688 141.699 628.035 142.637 628.051 143.871V150.27C628.059 151.246 628.191 152.094 628.449 152.812V153H626.293ZM623.527 151.348C624.035 151.348 624.52 151.207 624.98 150.926C625.441 150.645 625.777 150.293 625.988 149.871V146.848H624.816C623.832 146.863 623.055 147.086 622.484 147.516C621.914 147.938 621.629 148.531 621.629 149.297C621.629 150.016 621.773 150.539 622.062 150.867C622.352 151.188 622.84 151.348 623.527 151.348ZM636.512 142.266C636.223 142.211 635.91 142.184 635.574 142.184C634.512 142.184 633.77 142.766 633.348 143.93V153H631.273V140.32H633.289L633.324 141.609C633.879 140.594 634.664 140.086 635.68 140.086C636.008 140.086 636.281 140.141 636.5 140.25L636.512 142.266ZM648.5 151.465C649.188 151.465 649.738 151.254 650.152 150.832C650.566 150.402 650.793 149.793 650.832 149.004H652.789C652.742 150.223 652.309 151.234 651.488 152.039C650.676 152.836 649.68 153.234 648.5 153.234C646.93 153.234 645.73 152.742 644.902 151.758C644.082 150.766 643.672 149.293 643.672 147.34V145.945C643.672 144.031 644.082 142.578 644.902 141.586C645.723 140.586 646.918 140.086 648.488 140.086C649.785 140.086 650.812 140.496 651.57 141.316C652.336 142.137 652.742 143.258 652.789 144.68H650.832C650.785 143.742 650.559 143.039 650.152 142.57C649.754 142.102 649.199 141.867 648.488 141.867C647.566 141.867 646.883 142.172 646.438 142.781C645.992 143.383 645.762 144.375 645.746 145.758V147.375C645.746 148.867 645.965 149.922 646.402 150.539C646.848 151.156 647.547 151.465 648.5 151.465ZM654.746 146.074C654.746 144.23 655.191 142.773 656.082 141.703C656.98 140.625 658.164 140.086 659.633 140.086C661.102 140.086 662.281 140.609 663.172 141.656C664.07 142.703 664.531 144.129 664.555 145.934V147.27C664.555 149.105 664.109 150.559 663.219 151.629C662.328 152.699 661.141 153.234 659.656 153.234C658.188 153.234 657.008 152.715 656.117 151.676C655.234 150.637 654.777 149.23 654.746 147.457V146.074ZM656.82 147.27C656.82 148.574 657.074 149.602 657.582 150.352C658.098 151.094 658.789 151.465 659.656 151.465C661.484 151.465 662.426 150.145 662.48 147.504V146.074C662.48 144.777 662.223 143.754 661.707 143.004C661.191 142.246 660.5 141.867 659.633 141.867C658.781 141.867 658.098 142.246 657.582 143.004C657.074 143.754 656.82 144.773 656.82 146.062V147.27ZM669.184 140.32L669.242 141.691C670.047 140.621 671.074 140.086 672.324 140.086C674.566 140.086 675.703 141.582 675.734 144.574V153H673.672V144.668C673.672 143.676 673.504 142.973 673.168 142.559C672.84 142.137 672.344 141.926 671.68 141.926C671.164 141.926 670.699 142.098 670.285 142.441C669.879 142.785 669.551 143.234 669.301 143.789V153H667.227V140.32H669.184ZM683.258 151.465C683.945 151.465 684.496 151.254 684.91 150.832C685.324 150.402 685.551 149.793 685.59 149.004H687.547C687.5 150.223 687.066 151.234 686.246 152.039C685.434 152.836 684.438 153.234 683.258 153.234C681.688 153.234 680.488 152.742 679.66 151.758C678.84 150.766 678.43 149.293 678.43 147.34V145.945C678.43 144.031 678.84 142.578 679.66 141.586C680.48 140.586 681.676 140.086 683.246 140.086C684.543 140.086 685.57 140.496 686.328 141.316C687.094 142.137 687.5 143.258 687.547 144.68H685.59C685.543 143.742 685.316 143.039 684.91 142.57C684.512 142.102 683.957 141.867 683.246 141.867C682.324 141.867 681.641 142.172 681.195 142.781C680.75 143.383 680.52 144.375 680.504 145.758V147.375C680.504 148.867 680.723 149.922 681.16 150.539C681.605 151.156 682.305 151.465 683.258 151.465ZM692.176 153H690.102V140.32H692.176V153ZM692.34 136.957C692.34 137.309 692.242 137.602 692.047 137.836C691.852 138.07 691.555 138.188 691.156 138.188C690.766 138.188 690.473 138.07 690.277 137.836C690.082 137.602 689.984 137.309 689.984 136.957C689.984 136.605 690.082 136.309 690.277 136.066C690.473 135.824 690.766 135.703 691.156 135.703C691.547 135.703 691.84 135.828 692.035 136.078C692.238 136.32 692.34 136.613 692.34 136.957ZM699.98 153.234C698.402 153.234 697.191 152.766 696.348 151.828C695.504 150.883 695.074 149.5 695.059 147.68V146.145C695.059 144.254 695.469 142.773 696.289 141.703C697.117 140.625 698.27 140.086 699.746 140.086C701.23 140.086 702.34 140.559 703.074 141.504C703.809 142.449 704.184 143.922 704.199 145.922V147.281H697.121V147.574C697.121 148.934 697.375 149.922 697.883 150.539C698.398 151.156 699.137 151.465 700.098 151.465C700.707 151.465 701.242 151.352 701.703 151.125C702.172 150.891 702.609 150.523 703.016 150.023L704.094 151.336C703.195 152.602 701.824 153.234 699.98 153.234ZM699.746 141.867C698.887 141.867 698.25 142.164 697.836 142.758C697.422 143.344 697.188 144.258 697.133 145.5H702.125V145.219C702.07 144.016 701.852 143.156 701.469 142.641C701.094 142.125 700.52 141.867 699.746 141.867ZM708.652 140.32L708.711 141.691C709.516 140.621 710.543 140.086 711.793 140.086C714.035 140.086 715.172 141.582 715.203 144.574V153H713.141V144.668C713.141 143.676 712.973 142.973 712.637 142.559C712.309 142.137 711.812 141.926 711.148 141.926C710.633 141.926 710.168 142.098 709.754 142.441C709.348 142.785 709.02 143.234 708.77 143.789V153H706.695V140.32H708.652ZM722.727 151.465C723.414 151.465 723.965 151.254 724.379 150.832C724.793 150.402 725.02 149.793 725.059 149.004H727.016C726.969 150.223 726.535 151.234 725.715 152.039C724.902 152.836 723.906 153.234 722.727 153.234C721.156 153.234 719.957 152.742 719.129 151.758C718.309 150.766 717.898 149.293 717.898 147.34V145.945C717.898 144.031 718.309 142.578 719.129 141.586C719.949 140.586 721.145 140.086 722.715 140.086C724.012 140.086 725.039 140.496 725.797 141.316C726.562 142.137 726.969 143.258 727.016 144.68H725.059C725.012 143.742 724.785 143.039 724.379 142.57C723.98 142.102 723.426 141.867 722.715 141.867C721.793 141.867 721.109 142.172 720.664 142.781C720.219 143.383 719.988 144.375 719.973 145.758V147.375C719.973 148.867 720.191 149.922 720.629 150.539C721.074 151.156 721.773 151.465 722.727 151.465ZM731.645 153H729.57V140.32H731.645V153ZM731.809 136.957C731.809 137.309 731.711 137.602 731.516 137.836C731.32 138.07 731.023 138.188 730.625 138.188C730.234 138.188 729.941 138.07 729.746 137.836C729.551 137.602 729.453 137.309 729.453 136.957C729.453 136.605 729.551 136.309 729.746 136.066C729.941 135.824 730.234 135.703 730.625 135.703C731.016 135.703 731.309 135.828 731.504 136.078C731.707 136.32 731.809 136.613 731.809 136.957ZM741.441 153C741.316 152.727 741.227 152.266 741.172 151.617C740.438 152.695 739.5 153.234 738.359 153.234C737.211 153.234 736.312 152.914 735.664 152.273C735.023 151.625 734.703 150.715 734.703 149.543C734.703 148.254 735.141 147.23 736.016 146.473C736.891 145.715 738.09 145.328 739.613 145.312H741.137V143.965C741.137 143.207 740.969 142.668 740.633 142.348C740.297 142.027 739.785 141.867 739.098 141.867C738.473 141.867 737.965 142.055 737.574 142.43C737.184 142.797 736.988 143.266 736.988 143.836H734.914C734.914 143.188 735.105 142.57 735.488 141.984C735.871 141.391 736.387 140.926 737.035 140.59C737.684 140.254 738.406 140.086 739.203 140.086C740.5 140.086 741.484 140.41 742.156 141.059C742.836 141.699 743.184 142.637 743.199 143.871V150.27C743.207 151.246 743.34 152.094 743.598 152.812V153H741.441ZM738.676 151.348C739.184 151.348 739.668 151.207 740.129 150.926C740.59 150.645 740.926 150.293 741.137 149.871V146.848H739.965C738.98 146.863 738.203 147.086 737.633 147.516C737.062 147.938 736.777 148.531 736.777 149.297C736.777 150.016 736.922 150.539 737.211 150.867C737.5 151.188 737.988 151.348 738.676 151.348ZM758.094 149.754C758.094 149.309 757.926 148.926 757.59 148.605C757.254 148.285 756.605 147.91 755.645 147.48C754.527 147.02 753.738 146.625 753.277 146.297C752.824 145.969 752.484 145.598 752.258 145.184C752.031 144.762 751.918 144.262 751.918 143.684C751.918 142.652 752.293 141.797 753.043 141.117C753.801 140.43 754.766 140.086 755.938 140.086C757.172 140.086 758.164 140.445 758.914 141.164C759.664 141.883 760.039 142.805 760.039 143.93H757.977C757.977 143.359 757.785 142.875 757.402 142.477C757.02 142.07 756.531 141.867 755.938 141.867C755.328 141.867 754.848 142.027 754.496 142.348C754.152 142.66 753.98 143.082 753.98 143.613C753.98 144.035 754.105 144.375 754.355 144.633C754.613 144.891 755.227 145.23 756.195 145.652C757.734 146.254 758.781 146.844 759.336 147.422C759.891 147.992 760.168 148.719 760.168 149.602C760.168 150.703 759.789 151.586 759.031 152.25C758.273 152.906 757.258 153.234 755.984 153.234C754.664 153.234 753.594 152.855 752.773 152.098C751.953 151.34 751.543 150.379 751.543 149.215H753.629C753.652 149.918 753.867 150.469 754.273 150.867C754.68 151.266 755.25 151.465 755.984 151.465C756.672 151.465 757.195 151.312 757.555 151.008C757.914 150.695 758.094 150.277 758.094 149.754ZM762.441 146.074C762.441 144.23 762.887 142.773 763.777 141.703C764.676 140.625 765.859 140.086 767.328 140.086C768.797 140.086 769.977 140.609 770.867 141.656C771.766 142.703 772.227 144.129 772.25 145.934V147.27C772.25 149.105 771.805 150.559 770.914 151.629C770.023 152.699 768.836 153.234 767.352 153.234C765.883 153.234 764.703 152.715 763.812 151.676C762.93 150.637 762.473 149.23 762.441 147.457V146.074ZM764.516 147.27C764.516 148.574 764.77 149.602 765.277 150.352C765.793 151.094 766.484 151.465 767.352 151.465C769.18 151.465 770.121 150.145 770.176 147.504V146.074C770.176 144.777 769.918 143.754 769.402 143.004C768.887 142.246 768.195 141.867 767.328 141.867C766.477 141.867 765.793 142.246 765.277 143.004C764.77 143.754 764.516 144.773 764.516 146.062V147.27ZM784.109 147.27C784.109 149.246 783.754 150.734 783.043 151.734C782.332 152.734 781.301 153.234 779.949 153.234C778.605 153.234 777.598 152.656 776.926 151.5L776.82 153H774.934V135H776.996V141.715C777.676 140.629 778.652 140.086 779.926 140.086C781.316 140.086 782.359 140.578 783.055 141.562C783.75 142.547 784.102 144.031 784.109 146.016V147.27ZM782.047 146.086C782.047 144.586 781.836 143.52 781.414 142.887C781 142.246 780.324 141.926 779.387 141.926C778.316 141.926 777.52 142.504 776.996 143.66V149.695C777.512 150.836 778.316 151.406 779.41 151.406C780.348 151.406 781.02 151.078 781.426 150.422C781.832 149.766 782.039 148.746 782.047 147.363V146.086ZM791.996 142.266C791.707 142.211 791.395 142.184 791.059 142.184C789.996 142.184 789.254 142.766 788.832 143.93V153H786.758V140.32H788.773L788.809 141.609C789.363 140.594 790.148 140.086 791.164 140.086C791.492 140.086 791.766 140.141 791.984 140.25L791.996 142.266ZM798.371 153.234C796.793 153.234 795.582 152.766 794.738 151.828C793.895 150.883 793.465 149.5 793.449 147.68V146.145C793.449 144.254 793.859 142.773 794.68 141.703C795.508 140.625 796.66 140.086 798.137 140.086C799.621 140.086 800.73 140.559 801.465 141.504C802.199 142.449 802.574 143.922 802.59 145.922V147.281H795.512V147.574C795.512 148.934 795.766 149.922 796.273 150.539C796.789 151.156 797.527 151.465 798.488 151.465C799.098 151.465 799.633 151.352 800.094 151.125C800.562 150.891 801 150.523 801.406 150.023L802.484 151.336C801.586 152.602 800.215 153.234 798.371 153.234ZM798.137 141.867C797.277 141.867 796.641 142.164 796.227 142.758C795.812 143.344 795.578 144.258 795.523 145.5H800.516V145.219C800.461 144.016 800.242 143.156 799.859 142.641C799.484 142.125 798.91 141.867 798.137 141.867ZM812.832 153H810.758V135H812.832V153ZM822.629 153C822.504 152.727 822.414 152.266 822.359 151.617C821.625 152.695 820.688 153.234 819.547 153.234C818.398 153.234 817.5 152.914 816.852 152.273C816.211 151.625 815.891 150.715 815.891 149.543C815.891 148.254 816.328 147.23 817.203 146.473C818.078 145.715 819.277 145.328 820.801 145.312H822.324V143.965C822.324 143.207 822.156 142.668 821.82 142.348C821.484 142.027 820.973 141.867 820.285 141.867C819.66 141.867 819.152 142.055 818.762 142.43C818.371 142.797 818.176 143.266 818.176 143.836H816.102C816.102 143.188 816.293 142.57 816.676 141.984C817.059 141.391 817.574 140.926 818.223 140.59C818.871 140.254 819.594 140.086 820.391 140.086C821.688 140.086 822.672 140.41 823.344 141.059C824.023 141.699 824.371 142.637 824.387 143.871V150.27C824.395 151.246 824.527 152.094 824.785 152.812V153H822.629ZM819.863 151.348C820.371 151.348 820.855 151.207 821.316 150.926C821.777 150.645 822.113 150.293 822.324 149.871V146.848H821.152C820.168 146.863 819.391 147.086 818.82 147.516C818.25 147.938 817.965 148.531 817.965 149.297C817.965 150.016 818.109 150.539 818.398 150.867C818.688 151.188 819.176 151.348 819.863 151.348ZM430.953 179.465C431.641 179.465 432.191 179.254 432.605 178.832C433.02 178.402 433.246 177.793 433.285 177.004H435.242C435.195 178.223 434.762 179.234 433.941 180.039C433.129 180.836 432.133 181.234 430.953 181.234C429.383 181.234 428.184 180.742 427.355 179.758C426.535 178.766 426.125 177.293 426.125 175.34V173.945C426.125 172.031 426.535 170.578 427.355 169.586C428.176 168.586 429.371 168.086 430.941 168.086C432.238 168.086 433.266 168.496 434.023 169.316C434.789 170.137 435.195 171.258 435.242 172.68H433.285C433.238 171.742 433.012 171.039 432.605 170.57C432.207 170.102 431.652 169.867 430.941 169.867C430.02 169.867 429.336 170.172 428.891 170.781C428.445 171.383 428.215 172.375 428.199 173.758V175.375C428.199 176.867 428.418 177.922 428.855 178.539C429.301 179.156 430 179.465 430.953 179.465ZM437.199 174.074C437.199 172.23 437.645 170.773 438.535 169.703C439.434 168.625 440.617 168.086 442.086 168.086C443.555 168.086 444.734 168.609 445.625 169.656C446.523 170.703 446.984 172.129 447.008 173.934V175.27C447.008 177.105 446.562 178.559 445.672 179.629C444.781 180.699 443.594 181.234 442.109 181.234C440.641 181.234 439.461 180.715 438.57 179.676C437.688 178.637 437.23 177.23 437.199 175.457V174.074ZM439.273 175.27C439.273 176.574 439.527 177.602 440.035 178.352C440.551 179.094 441.242 179.465 442.109 179.465C443.938 179.465 444.879 178.145 444.934 175.504V174.074C444.934 172.777 444.676 171.754 444.16 171.004C443.645 170.246 442.953 169.867 442.086 169.867C441.234 169.867 440.551 170.246 440.035 171.004C439.527 171.754 439.273 172.773 439.273 174.062V175.27ZM451.637 168.32L451.695 169.691C452.5 168.621 453.527 168.086 454.777 168.086C457.02 168.086 458.156 169.582 458.188 172.574V181H456.125V172.668C456.125 171.676 455.957 170.973 455.621 170.559C455.293 170.137 454.797 169.926 454.133 169.926C453.617 169.926 453.152 170.098 452.738 170.441C452.332 170.785 452.004 171.234 451.754 171.789V181H449.68V168.32H451.637ZM464.023 165.25V168.32H465.934V169.996H464.023V177.859C464.023 178.359 464.105 178.738 464.27 178.996C464.434 179.254 464.715 179.383 465.113 179.383C465.387 179.383 465.664 179.336 465.945 179.242L465.922 181C465.453 181.156 464.973 181.234 464.48 181.234C463.66 181.234 463.035 180.941 462.605 180.355C462.176 179.77 461.961 178.941 461.961 177.871V169.996H460.027V168.32H461.961V165.25H464.023ZM474.934 181C474.809 180.727 474.719 180.266 474.664 179.617C473.93 180.695 472.992 181.234 471.852 181.234C470.703 181.234 469.805 180.914 469.156 180.273C468.516 179.625 468.195 178.715 468.195 177.543C468.195 176.254 468.633 175.23 469.508 174.473C470.383 173.715 471.582 173.328 473.105 173.312H474.629V171.965C474.629 171.207 474.461 170.668 474.125 170.348C473.789 170.027 473.277 169.867 472.59 169.867C471.965 169.867 471.457 170.055 471.066 170.43C470.676 170.797 470.48 171.266 470.48 171.836H468.406C468.406 171.188 468.598 170.57 468.98 169.984C469.363 169.391 469.879 168.926 470.527 168.59C471.176 168.254 471.898 168.086 472.695 168.086C473.992 168.086 474.977 168.41 475.648 169.059C476.328 169.699 476.676 170.637 476.691 171.871V178.27C476.699 179.246 476.832 180.094 477.09 180.812V181H474.934ZM472.168 179.348C472.676 179.348 473.16 179.207 473.621 178.926C474.082 178.645 474.418 178.293 474.629 177.871V174.848H473.457C472.473 174.863 471.695 175.086 471.125 175.516C470.555 175.938 470.27 176.531 470.27 177.297C470.27 178.016 470.414 178.539 470.703 178.867C470.992 179.188 471.48 179.348 472.168 179.348ZM481.871 168.32L481.918 169.492C482.691 168.555 483.711 168.086 484.977 168.086C486.391 168.086 487.379 168.699 487.941 169.926C488.738 168.699 489.848 168.086 491.27 168.086C493.605 168.086 494.801 169.543 494.855 172.457V181H492.793V172.656C492.793 171.734 492.629 171.051 492.301 170.605C491.973 170.152 491.418 169.926 490.637 169.926C490.012 169.926 489.504 170.168 489.113 170.652C488.723 171.137 488.496 171.754 488.434 172.504V181H486.348V172.562C486.324 170.805 485.609 169.926 484.203 169.926C483.156 169.926 482.418 170.449 481.988 171.496V181H479.926V168.32H481.871ZM500.223 181H498.148V168.32H500.223V181ZM500.387 164.957C500.387 165.309 500.289 165.602 500.094 165.836C499.898 166.07 499.602 166.188 499.203 166.188C498.812 166.188 498.52 166.07 498.324 165.836C498.129 165.602 498.031 165.309 498.031 164.957C498.031 164.605 498.129 164.309 498.324 164.066C498.52 163.824 498.812 163.703 499.203 163.703C499.594 163.703 499.887 163.828 500.082 164.078C500.285 164.32 500.387 164.613 500.387 164.957ZM505.449 168.32L505.508 169.691C506.312 168.621 507.34 168.086 508.59 168.086C510.832 168.086 511.969 169.582 512 172.574V181H509.938V172.668C509.938 171.676 509.77 170.973 509.434 170.559C509.105 170.137 508.609 169.926 507.945 169.926C507.43 169.926 506.965 170.098 506.551 170.441C506.145 170.785 505.816 171.234 505.566 171.789V181H503.492V168.32H505.449ZM521.645 181C521.52 180.727 521.43 180.266 521.375 179.617C520.641 180.695 519.703 181.234 518.562 181.234C517.414 181.234 516.516 180.914 515.867 180.273C515.227 179.625 514.906 178.715 514.906 177.543C514.906 176.254 515.344 175.23 516.219 174.473C517.094 173.715 518.293 173.328 519.816 173.312H521.34V171.965C521.34 171.207 521.172 170.668 520.836 170.348C520.5 170.027 519.988 169.867 519.301 169.867C518.676 169.867 518.168 170.055 517.777 170.43C517.387 170.797 517.191 171.266 517.191 171.836H515.117C515.117 171.188 515.309 170.57 515.691 169.984C516.074 169.391 516.59 168.926 517.238 168.59C517.887 168.254 518.609 168.086 519.406 168.086C520.703 168.086 521.688 168.41 522.359 169.059C523.039 169.699 523.387 170.637 523.402 171.871V178.27C523.41 179.246 523.543 180.094 523.801 180.812V181H521.645ZM518.879 179.348C519.387 179.348 519.871 179.207 520.332 178.926C520.793 178.645 521.129 178.293 521.34 177.871V174.848H520.168C519.184 174.863 518.406 175.086 517.836 175.516C517.266 175.938 516.98 176.531 516.98 177.297C516.98 178.016 517.125 178.539 517.414 178.867C517.703 179.188 518.191 179.348 518.879 179.348ZM531.031 179.465C531.719 179.465 532.27 179.254 532.684 178.832C533.098 178.402 533.324 177.793 533.363 177.004H535.32C535.273 178.223 534.84 179.234 534.02 180.039C533.207 180.836 532.211 181.234 531.031 181.234C529.461 181.234 528.262 180.742 527.434 179.758C526.613 178.766 526.203 177.293 526.203 175.34V173.945C526.203 172.031 526.613 170.578 527.434 169.586C528.254 168.586 529.449 168.086 531.02 168.086C532.316 168.086 533.344 168.496 534.102 169.316C534.867 170.137 535.273 171.258 535.32 172.68H533.363C533.316 171.742 533.09 171.039 532.684 170.57C532.285 170.102 531.73 169.867 531.02 169.867C530.098 169.867 529.414 170.172 528.969 170.781C528.523 171.383 528.293 172.375 528.277 173.758V175.375C528.277 176.867 528.496 177.922 528.934 178.539C529.379 179.156 530.078 179.465 531.031 179.465ZM539.949 181H537.875V168.32H539.949V181ZM540.113 164.957C540.113 165.309 540.016 165.602 539.82 165.836C539.625 166.07 539.328 166.188 538.93 166.188C538.539 166.188 538.246 166.07 538.051 165.836C537.855 165.602 537.758 165.309 537.758 164.957C537.758 164.605 537.855 164.309 538.051 164.066C538.246 163.824 538.539 163.703 538.93 163.703C539.32 163.703 539.613 163.828 539.809 164.078C540.012 164.32 540.113 164.613 540.113 164.957ZM542.785 174.074C542.785 172.23 543.23 170.773 544.121 169.703C545.02 168.625 546.203 168.086 547.672 168.086C549.141 168.086 550.32 168.609 551.211 169.656C552.109 170.703 552.57 172.129 552.594 173.934V175.27C552.594 177.105 552.148 178.559 551.258 179.629C550.367 180.699 549.18 181.234 547.695 181.234C546.227 181.234 545.047 180.715 544.156 179.676C543.273 178.637 542.816 177.23 542.785 175.457V174.074ZM544.859 175.27C544.859 176.574 545.113 177.602 545.621 178.352C546.137 179.094 546.828 179.465 547.695 179.465C549.523 179.465 550.465 178.145 550.52 175.504V174.074C550.52 172.777 550.262 171.754 549.746 171.004C549.23 170.246 548.539 169.867 547.672 169.867C546.82 169.867 546.137 170.246 545.621 171.004C545.113 171.754 544.859 172.773 544.859 174.062V175.27ZM548.645 163H551.27L548.129 166.445H546.383L548.645 163ZM557.223 168.32L557.281 169.691C558.086 168.621 559.113 168.086 560.363 168.086C562.605 168.086 563.742 169.582 563.773 172.574V181H561.711V172.668C561.711 171.676 561.543 170.973 561.207 170.559C560.879 170.137 560.383 169.926 559.719 169.926C559.203 169.926 558.738 170.098 558.324 170.441C557.918 170.785 557.59 171.234 557.34 171.789V181H555.266V168.32H557.223ZM575.867 177.555L578.176 168.32H580.379L576.23 182.793C575.918 183.879 575.477 184.703 574.906 185.266C574.336 185.836 573.688 186.121 572.961 186.121C572.68 186.121 572.32 186.059 571.883 185.934V184.176L572.34 184.223C572.941 184.223 573.41 184.078 573.746 183.789C574.09 183.508 574.367 183.016 574.578 182.312L574.988 180.895L571.262 168.32H573.523L575.867 177.555ZM593.152 170.266C592.863 170.211 592.551 170.184 592.215 170.184C591.152 170.184 590.41 170.766 589.988 171.93V181H587.914V168.32H589.93L589.965 169.609C590.52 168.594 591.305 168.086 592.32 168.086C592.648 168.086 592.922 168.141 593.141 168.25L593.152 170.266ZM599.527 181.234C597.949 181.234 596.738 180.766 595.895 179.828C595.051 178.883 594.621 177.5 594.605 175.68V174.145C594.605 172.254 595.016 170.773 595.836 169.703C596.664 168.625 597.816 168.086 599.293 168.086C600.777 168.086 601.887 168.559 602.621 169.504C603.355 170.449 603.73 171.922 603.746 173.922V175.281H596.668V175.574C596.668 176.934 596.922 177.922 597.43 178.539C597.945 179.156 598.684 179.465 599.645 179.465C600.254 179.465 600.789 179.352 601.25 179.125C601.719 178.891 602.156 178.523 602.562 178.023L603.641 179.336C602.742 180.602 601.371 181.234 599.527 181.234ZM599.293 169.867C598.434 169.867 597.797 170.164 597.383 170.758C596.969 171.344 596.734 172.258 596.68 173.5H601.672V173.219C601.617 172.016 601.398 171.156 601.016 170.641C600.641 170.125 600.066 169.867 599.293 169.867ZM605.809 174.086C605.809 172.133 606.172 170.645 606.898 169.621C607.633 168.598 608.684 168.086 610.051 168.086C611.262 168.086 612.207 168.578 612.887 169.562V163H614.961V181H613.062L612.957 179.641C612.277 180.703 611.305 181.234 610.039 181.234C608.727 181.234 607.695 180.727 606.945 179.711C606.203 178.688 605.824 177.246 605.809 175.387V174.086ZM607.883 175.27C607.883 176.691 608.094 177.738 608.516 178.41C608.938 179.074 609.625 179.406 610.578 179.406C611.609 179.406 612.379 178.887 612.887 177.848V171.449C612.355 170.434 611.59 169.926 610.59 169.926C609.637 169.926 608.949 170.262 608.527 170.934C608.105 171.598 607.891 172.621 607.883 174.004V175.27ZM624.617 179.887C623.93 180.785 622.926 181.234 621.605 181.234C620.457 181.234 619.59 180.84 619.004 180.051C618.418 179.254 618.121 178.098 618.113 176.582V168.32H620.176V176.43C620.176 178.406 620.77 179.395 621.957 179.395C623.215 179.395 624.082 178.832 624.559 177.707V168.32H626.633V181H624.664L624.617 179.887ZM634.156 179.465C634.844 179.465 635.395 179.254 635.809 178.832C636.223 178.402 636.449 177.793 636.488 177.004H638.445C638.398 178.223 637.965 179.234 637.145 180.039C636.332 180.836 635.336 181.234 634.156 181.234C632.586 181.234 631.387 180.742 630.559 179.758C629.738 178.766 629.328 177.293 629.328 175.34V173.945C629.328 172.031 629.738 170.578 630.559 169.586C631.379 168.586 632.574 168.086 634.145 168.086C635.441 168.086 636.469 168.496 637.227 169.316C637.992 170.137 638.398 171.258 638.445 172.68H636.488C636.441 171.742 636.215 171.039 635.809 170.57C635.41 170.102 634.855 169.867 634.145 169.867C633.223 169.867 632.539 170.172 632.094 170.781C631.648 171.383 631.418 172.375 631.402 173.758V175.375C631.402 176.867 631.621 177.922 632.059 178.539C632.504 179.156 633.203 179.465 634.156 179.465ZM643.074 181H641V168.32H643.074V181ZM643.238 164.957C643.238 165.309 643.141 165.602 642.945 165.836C642.75 166.07 642.453 166.188 642.055 166.188C641.664 166.188 641.371 166.07 641.176 165.836C640.98 165.602 640.883 165.309 640.883 164.957C640.883 164.605 640.98 164.309 641.176 164.066C641.371 163.824 641.664 163.703 642.055 163.703C642.445 163.703 642.738 163.828 642.934 164.078C643.137 164.32 643.238 164.613 643.238 164.957ZM651.582 170.266C651.293 170.211 650.98 170.184 650.645 170.184C649.582 170.184 648.84 170.766 648.418 171.93V181H646.344V168.32H648.359L648.395 169.609C648.949 168.594 649.734 168.086 650.75 168.086C651.078 168.086 651.352 168.141 651.57 168.25L651.582 170.266ZM663.699 181.234C662.121 181.234 660.91 180.766 660.066 179.828C659.223 178.883 658.793 177.5 658.777 175.68V174.145C658.777 172.254 659.188 170.773 660.008 169.703C660.836 168.625 661.988 168.086 663.465 168.086C664.949 168.086 666.059 168.559 666.793 169.504C667.527 170.449 667.902 171.922 667.918 173.922V175.281H660.84V175.574C660.84 176.934 661.094 177.922 661.602 178.539C662.117 179.156 662.855 179.465 663.816 179.465C664.426 179.465 664.961 179.352 665.422 179.125C665.891 178.891 666.328 178.523 666.734 178.023L667.812 179.336C666.914 180.602 665.543 181.234 663.699 181.234ZM663.465 169.867C662.605 169.867 661.969 170.164 661.555 170.758C661.141 171.344 660.906 172.258 660.852 173.5H665.844V173.219C665.789 172.016 665.57 171.156 665.188 170.641C664.812 170.125 664.238 169.867 663.465 169.867ZM672.652 181H670.578V163H672.652V181ZM683.668 181H681.594V168.32H683.668V181ZM683.832 164.957C683.832 165.309 683.734 165.602 683.539 165.836C683.344 166.07 683.047 166.188 682.648 166.188C682.258 166.188 681.965 166.07 681.77 165.836C681.574 165.602 681.477 165.309 681.477 164.957C681.477 164.605 681.574 164.309 681.77 164.066C681.965 163.824 682.258 163.703 682.648 163.703C683.039 163.703 683.332 163.828 683.527 164.078C683.73 164.32 683.832 164.613 683.832 164.957ZM688.895 168.32L688.941 169.492C689.715 168.555 690.734 168.086 692 168.086C693.414 168.086 694.402 168.699 694.965 169.926C695.762 168.699 696.871 168.086 698.293 168.086C700.629 168.086 701.824 169.543 701.879 172.457V181H699.816V172.656C699.816 171.734 699.652 171.051 699.324 170.605C698.996 170.152 698.441 169.926 697.66 169.926C697.035 169.926 696.527 170.168 696.137 170.652C695.746 171.137 695.52 171.754 695.457 172.504V181H693.371V172.562C693.348 170.805 692.633 169.926 691.227 169.926C690.18 169.926 689.441 170.449 689.012 171.496V181H686.949V168.32H688.895ZM714.172 175.27C714.172 177.277 713.809 178.773 713.082 179.758C712.363 180.742 711.344 181.234 710.023 181.234C708.75 181.234 707.77 180.754 707.082 179.793V185.875H705.02V168.32H706.895L707 169.727C707.695 168.633 708.691 168.086 709.988 168.086C711.379 168.086 712.418 168.57 713.105 169.539C713.793 170.508 714.148 171.957 714.172 173.887V175.27ZM712.109 174.086C712.109 172.664 711.891 171.617 711.453 170.945C711.016 170.266 710.312 169.926 709.344 169.926C708.352 169.926 707.598 170.422 707.082 171.414V178.012C707.59 178.98 708.352 179.465 709.367 179.465C710.305 179.465 710.992 179.129 711.43 178.457C711.875 177.777 712.102 176.742 712.109 175.352V174.086ZM723.371 181C723.246 180.727 723.156 180.266 723.102 179.617C722.367 180.695 721.43 181.234 720.289 181.234C719.141 181.234 718.242 180.914 717.594 180.273C716.953 179.625 716.633 178.715 716.633 177.543C716.633 176.254 717.07 175.23 717.945 174.473C718.82 173.715 720.02 173.328 721.543 173.312H723.066V171.965C723.066 171.207 722.898 170.668 722.562 170.348C722.227 170.027 721.715 169.867 721.027 169.867C720.402 169.867 719.895 170.055 719.504 170.43C719.113 170.797 718.918 171.266 718.918 171.836H716.844C716.844 171.188 717.035 170.57 717.418 169.984C717.801 169.391 718.316 168.926 718.965 168.59C719.613 168.254 720.336 168.086 721.133 168.086C722.43 168.086 723.414 168.41 724.086 169.059C724.766 169.699 725.113 170.637 725.129 171.871V178.27C725.137 179.246 725.27 180.094 725.527 180.812V181H723.371ZM720.605 179.348C721.113 179.348 721.598 179.207 722.059 178.926C722.52 178.645 722.855 178.293 723.066 177.871V174.848H721.895C720.91 174.863 720.133 175.086 719.562 175.516C718.992 175.938 718.707 176.531 718.707 177.297C718.707 178.016 718.852 178.539 719.141 178.867C719.43 179.188 719.918 179.348 720.605 179.348ZM732.758 179.465C733.445 179.465 733.996 179.254 734.41 178.832C734.824 178.402 735.051 177.793 735.09 177.004H737.047C737 178.223 736.566 179.234 735.746 180.039C734.934 180.836 733.938 181.234 732.758 181.234C731.188 181.234 729.988 180.742 729.16 179.758C728.34 178.766 727.93 177.293 727.93 175.34V173.945C727.93 172.031 728.34 170.578 729.16 169.586C729.98 168.586 731.176 168.086 732.746 168.086C734.043 168.086 735.07 168.496 735.828 169.316C736.594 170.137 737 171.258 737.047 172.68H735.09C735.043 171.742 734.816 171.039 734.41 170.57C734.012 170.102 733.457 169.867 732.746 169.867C731.824 169.867 731.141 170.172 730.695 170.781C730.25 171.383 730.02 172.375 730.004 173.758V175.375C730.004 176.867 730.223 177.922 730.66 178.539C731.105 179.156 731.805 179.465 732.758 179.465ZM742.156 165.25V168.32H744.066V169.996H742.156V177.859C742.156 178.359 742.238 178.738 742.402 178.996C742.566 179.254 742.848 179.383 743.246 179.383C743.52 179.383 743.797 179.336 744.078 179.242L744.055 181C743.586 181.156 743.105 181.234 742.613 181.234C741.793 181.234 741.168 180.941 740.738 180.355C740.309 179.77 740.094 178.941 740.094 177.871V169.996H738.16V168.32H740.094V165.25H742.156ZM745.871 174.074C745.871 172.23 746.316 170.773 747.207 169.703C748.105 168.625 749.289 168.086 750.758 168.086C752.227 168.086 753.406 168.609 754.297 169.656C755.195 170.703 755.656 172.129 755.68 173.934V175.27C755.68 177.105 755.234 178.559 754.344 179.629C753.453 180.699 752.266 181.234 750.781 181.234C749.312 181.234 748.133 180.715 747.242 179.676C746.359 178.637 745.902 177.23 745.871 175.457V174.074ZM747.945 175.27C747.945 176.574 748.199 177.602 748.707 178.352C749.223 179.094 749.914 179.465 750.781 179.465C752.609 179.465 753.551 178.145 753.605 175.504V174.074C753.605 172.777 753.348 171.754 752.832 171.004C752.316 170.246 751.625 169.867 750.758 169.867C749.906 169.867 749.223 170.246 748.707 171.004C748.199 171.754 747.945 172.773 747.945 174.062V175.27ZM768.395 181.234C766.816 181.234 765.605 180.766 764.762 179.828C763.918 178.883 763.488 177.5 763.473 175.68V174.145C763.473 172.254 763.883 170.773 764.703 169.703C765.531 168.625 766.684 168.086 768.16 168.086C769.645 168.086 770.754 168.559 771.488 169.504C772.223 170.449 772.598 171.922 772.613 173.922V175.281H765.535V175.574C765.535 176.934 765.789 177.922 766.297 178.539C766.812 179.156 767.551 179.465 768.512 179.465C769.121 179.465 769.656 179.352 770.117 179.125C770.586 178.891 771.023 178.523 771.43 178.023L772.508 179.336C771.609 180.602 770.238 181.234 768.395 181.234ZM768.16 169.867C767.301 169.867 766.664 170.164 766.25 170.758C765.836 171.344 765.602 172.258 765.547 173.5H770.539V173.219C770.484 172.016 770.266 171.156 769.883 170.641C769.508 170.125 768.934 169.867 768.16 169.867ZM777.066 168.32L777.125 169.691C777.93 168.621 778.957 168.086 780.207 168.086C782.449 168.086 783.586 169.582 783.617 172.574V181H781.555V172.668C781.555 171.676 781.387 170.973 781.051 170.559C780.723 170.137 780.227 169.926 779.562 169.926C779.047 169.926 778.582 170.098 778.168 170.441C777.762 170.785 777.434 171.234 777.184 171.789V181H775.109V168.32H777.066ZM796.777 181.234C795.199 181.234 793.988 180.766 793.145 179.828C792.301 178.883 791.871 177.5 791.855 175.68V174.145C791.855 172.254 792.266 170.773 793.086 169.703C793.914 168.625 795.066 168.086 796.543 168.086C798.027 168.086 799.137 168.559 799.871 169.504C800.605 170.449 800.98 171.922 800.996 173.922V175.281H793.918V175.574C793.918 176.934 794.172 177.922 794.68 178.539C795.195 179.156 795.934 179.465 796.895 179.465C797.504 179.465 798.039 179.352 798.5 179.125C798.969 178.891 799.406 178.523 799.812 178.023L800.891 179.336C799.992 180.602 798.621 181.234 796.777 181.234ZM796.543 169.867C795.684 169.867 795.047 170.164 794.633 170.758C794.219 171.344 793.984 172.258 793.93 173.5H798.922V173.219C798.867 172.016 798.648 171.156 798.266 170.641C797.891 170.125 797.316 169.867 796.543 169.867ZM805.73 181H803.656V163H805.73V181ZM816.465 168.32L816.512 169.492C817.285 168.555 818.305 168.086 819.57 168.086C820.984 168.086 821.973 168.699 822.535 169.926C823.332 168.699 824.441 168.086 825.863 168.086C828.199 168.086 829.395 169.543 829.449 172.457V181H827.387V172.656C827.387 171.734 827.223 171.051 826.895 170.605C826.566 170.152 826.012 169.926 825.23 169.926C824.605 169.926 824.098 170.168 823.707 170.652C823.316 171.137 823.09 171.754 823.027 172.504V181H820.941V172.562C820.918 170.805 820.203 169.926 818.797 169.926C817.75 169.926 817.012 170.449 816.582 171.496V181H814.52V168.32H816.465ZM837.113 181.234C835.535 181.234 834.324 180.766 833.48 179.828C832.637 178.883 832.207 177.5 832.191 175.68V174.145C832.191 172.254 832.602 170.773 833.422 169.703C834.25 168.625 835.402 168.086 836.879 168.086C838.363 168.086 839.473 168.559 840.207 169.504C840.941 170.449 841.316 171.922 841.332 173.922V175.281H834.254V175.574C834.254 176.934 834.508 177.922 835.016 178.539C835.531 179.156 836.27 179.465 837.23 179.465C837.84 179.465 838.375 179.352 838.836 179.125C839.305 178.891 839.742 178.523 840.148 178.023L841.227 179.336C840.328 180.602 838.957 181.234 837.113 181.234ZM836.879 169.867C836.02 169.867 835.383 170.164 834.969 170.758C834.555 171.344 834.32 172.258 834.266 173.5H839.258V173.219C839.203 172.016 838.984 171.156 838.602 170.641C838.227 170.125 837.652 169.867 836.879 169.867ZM843.395 174.086C843.395 172.133 843.758 170.645 844.484 169.621C845.219 168.598 846.27 168.086 847.637 168.086C848.848 168.086 849.793 168.578 850.473 169.562V163H852.547V181H850.648L850.543 179.641C849.863 180.703 848.891 181.234 847.625 181.234C846.312 181.234 845.281 180.727 844.531 179.711C843.789 178.688 843.41 177.246 843.395 175.387V174.086ZM845.469 175.27C845.469 176.691 845.68 177.738 846.102 178.41C846.523 179.074 847.211 179.406 848.164 179.406C849.195 179.406 849.965 178.887 850.473 177.848V171.449C849.941 170.434 849.176 169.926 848.176 169.926C847.223 169.926 846.535 170.262 846.113 170.934C845.691 171.598 845.477 172.621 845.469 174.004V175.27ZM857.973 181H855.898V168.32H857.973V181ZM858.137 164.957C858.137 165.309 858.039 165.602 857.844 165.836C857.648 166.07 857.352 166.188 856.953 166.188C856.562 166.188 856.27 166.07 856.074 165.836C855.879 165.602 855.781 165.309 855.781 164.957C855.781 164.605 855.879 164.309 856.074 164.066C856.27 163.824 856.562 163.703 856.953 163.703C857.344 163.703 857.637 163.828 857.832 164.078C858.035 164.32 858.137 164.613 858.137 164.957ZM860.809 174.074C860.809 172.23 861.254 170.773 862.145 169.703C863.043 168.625 864.227 168.086 865.695 168.086C867.164 168.086 868.344 168.609 869.234 169.656C870.133 170.703 870.594 172.129 870.617 173.934V175.27C870.617 177.105 870.172 178.559 869.281 179.629C868.391 180.699 867.203 181.234 865.719 181.234C864.25 181.234 863.07 180.715 862.18 179.676C861.297 178.637 860.84 177.23 860.809 175.457V174.074ZM862.883 175.27C862.883 176.574 863.137 177.602 863.645 178.352C864.16 179.094 864.852 179.465 865.719 179.465C867.547 179.465 868.488 178.145 868.543 175.504V174.074C868.543 172.777 868.285 171.754 867.77 171.004C867.254 170.246 866.562 169.867 865.695 169.867C864.844 169.867 864.16 170.246 863.645 171.004C863.137 171.754 862.883 172.773 862.883 174.062V175.27ZM433.074 209C432.949 208.727 432.859 208.266 432.805 207.617C432.07 208.695 431.133 209.234 429.992 209.234C428.844 209.234 427.945 208.914 427.297 208.273C426.656 207.625 426.336 206.715 426.336 205.543C426.336 204.254 426.773 203.23 427.648 202.473C428.523 201.715 429.723 201.328 431.246 201.312H432.77V199.965C432.77 199.207 432.602 198.668 432.266 198.348C431.93 198.027 431.418 197.867 430.73 197.867C430.105 197.867 429.598 198.055 429.207 198.43C428.816 198.797 428.621 199.266 428.621 199.836H426.547C426.547 199.188 426.738 198.57 427.121 197.984C427.504 197.391 428.02 196.926 428.668 196.59C429.316 196.254 430.039 196.086 430.836 196.086C432.133 196.086 433.117 196.41 433.789 197.059C434.469 197.699 434.816 198.637 434.832 199.871V206.27C434.84 207.246 434.973 208.094 435.23 208.812V209H433.074ZM430.309 207.348C430.816 207.348 431.301 207.207 431.762 206.926C432.223 206.645 432.559 206.293 432.77 205.871V202.848H431.598C430.613 202.863 429.836 203.086 429.266 203.516C428.695 203.938 428.41 204.531 428.41 205.297C428.41 206.016 428.555 206.539 428.844 206.867C429.133 207.188 429.621 207.348 430.309 207.348ZM440.012 196.32L440.059 197.492C440.832 196.555 441.852 196.086 443.117 196.086C444.531 196.086 445.52 196.699 446.082 197.926C446.879 196.699 447.988 196.086 449.41 196.086C451.746 196.086 452.941 197.543 452.996 200.457V209H450.934V200.656C450.934 199.734 450.77 199.051 450.441 198.605C450.113 198.152 449.559 197.926 448.777 197.926C448.152 197.926 447.645 198.168 447.254 198.652C446.863 199.137 446.637 199.754 446.574 200.504V209H444.488V200.562C444.465 198.805 443.75 197.926 442.344 197.926C441.297 197.926 440.559 198.449 440.129 199.496V209H438.066V196.32H440.012ZM465.312 203.27C465.312 205.246 464.957 206.734 464.246 207.734C463.535 208.734 462.504 209.234 461.152 209.234C459.809 209.234 458.801 208.656 458.129 207.5L458.023 209H456.137V191H458.199V197.715C458.879 196.629 459.855 196.086 461.129 196.086C462.52 196.086 463.562 196.578 464.258 197.562C464.953 198.547 465.305 200.031 465.312 202.016V203.27ZM463.25 202.086C463.25 200.586 463.039 199.52 462.617 198.887C462.203 198.246 461.527 197.926 460.59 197.926C459.52 197.926 458.723 198.504 458.199 199.66V205.695C458.715 206.836 459.52 207.406 460.613 207.406C461.551 207.406 462.223 207.078 462.629 206.422C463.035 205.766 463.242 204.746 463.25 203.363V202.086ZM470.199 209H468.125V196.32H470.199V209ZM470.363 192.957C470.363 193.309 470.266 193.602 470.07 193.836C469.875 194.07 469.578 194.188 469.18 194.188C468.789 194.188 468.496 194.07 468.301 193.836C468.105 193.602 468.008 193.309 468.008 192.957C468.008 192.605 468.105 192.309 468.301 192.066C468.496 191.824 468.789 191.703 469.18 191.703C469.57 191.703 469.863 191.828 470.059 192.078C470.262 192.32 470.363 192.613 470.363 192.957ZM478.004 209.234C476.426 209.234 475.215 208.766 474.371 207.828C473.527 206.883 473.098 205.5 473.082 203.68V202.145C473.082 200.254 473.492 198.773 474.312 197.703C475.141 196.625 476.293 196.086 477.77 196.086C479.254 196.086 480.363 196.559 481.098 197.504C481.832 198.449 482.207 199.922 482.223 201.922V203.281H475.145V203.574C475.145 204.934 475.398 205.922 475.906 206.539C476.422 207.156 477.16 207.465 478.121 207.465C478.73 207.465 479.266 207.352 479.727 207.125C480.195 206.891 480.633 206.523 481.039 206.023L482.117 207.336C481.219 208.602 479.848 209.234 478.004 209.234ZM477.77 197.867C476.91 197.867 476.273 198.164 475.859 198.758C475.445 199.344 475.211 200.258 475.156 201.5H480.148V201.219C480.094 200.016 479.875 199.156 479.492 198.641C479.117 198.125 478.543 197.867 477.77 197.867ZM486.676 196.32L486.734 197.691C487.539 196.621 488.566 196.086 489.816 196.086C492.059 196.086 493.195 197.582 493.227 200.574V209H491.164V200.668C491.164 199.676 490.996 198.973 490.66 198.559C490.332 198.137 489.836 197.926 489.172 197.926C488.656 197.926 488.191 198.098 487.777 198.441C487.371 198.785 487.043 199.234 486.793 199.789V209H484.719V196.32H486.676ZM499.062 193.25V196.32H500.973V197.996H499.062V205.859C499.062 206.359 499.145 206.738 499.309 206.996C499.473 207.254 499.754 207.383 500.152 207.383C500.426 207.383 500.703 207.336 500.984 207.242L500.961 209C500.492 209.156 500.012 209.234 499.52 209.234C498.699 209.234 498.074 208.941 497.645 208.355C497.215 207.77 497 206.941 497 205.871V197.996H495.066V196.32H497V193.25H499.062ZM507.98 209.234C506.402 209.234 505.191 208.766 504.348 207.828C503.504 206.883 503.074 205.5 503.059 203.68V202.145C503.059 200.254 503.469 198.773 504.289 197.703C505.117 196.625 506.27 196.086 507.746 196.086C509.23 196.086 510.34 196.559 511.074 197.504C511.809 198.449 512.184 199.922 512.199 201.922V203.281H505.121V203.574C505.121 204.934 505.375 205.922 505.883 206.539C506.398 207.156 507.137 207.465 508.098 207.465C508.707 207.465 509.242 207.352 509.703 207.125C510.172 206.891 510.609 206.523 511.016 206.023L512.094 207.336C511.195 208.602 509.824 209.234 507.98 209.234ZM507.746 197.867C506.887 197.867 506.25 198.164 505.836 198.758C505.422 199.344 505.188 200.258 505.133 201.5H510.125V201.219C510.07 200.016 509.852 199.156 509.469 198.641C509.094 198.125 508.52 197.867 507.746 197.867ZM514.836 207.863C514.836 207.488 514.945 207.176 515.164 206.926C515.391 206.676 515.727 206.551 516.172 206.551C516.617 206.551 516.953 206.676 517.18 206.926C517.414 207.176 517.531 207.488 517.531 207.863C517.531 208.223 517.414 208.523 517.18 208.766C516.953 209.008 516.617 209.129 516.172 209.129C515.727 209.129 515.391 209.008 515.164 208.766C514.945 208.523 514.836 208.223 514.836 207.863Z" fill="#B3C1A0"/>
<path d="M168.998 142.839C166.068 140.104 142.629 98.1093 103.564 130.338C64.4995 162.566 156.302 233.86 168.998 241.673C181.694 249.486 271.543 165.496 242.245 134.244C212.946 102.992 168.998 142.839 168.998 142.839Z" fill="#F9F1D7"/>
<path d="M228.181 216.476C226.521 201.533 223.493 189.033 210.797 177.02C209.235 175.555 207.574 174.09 205.719 172.723C203.375 170.868 200.64 167.84 200.738 165.105C200.836 163.934 199.664 163.152 198.492 163.445C192.339 165.008 179.252 167.938 171.146 167.938C160.794 167.938 151.614 165.789 146.731 164.324C145.949 164.129 145.07 164.617 145.07 165.496C144.973 168.231 142.434 170.672 139.504 172.918C121.143 187.177 118.995 202.51 117.823 220.578C117.53 225.656 114.893 247.044 127.784 247.923C142.141 248.9 163.919 248.411 173.197 248.118C182.475 248.411 204.254 248.9 218.61 247.923C232.673 246.946 228.767 221.945 228.181 216.476Z" fill="#A3DCD6"/>
<path d="M111.084 177.997C111.084 177.997 95.3605 160.613 77 181.708C77 181.708 94.7745 196.651 111.084 177.997Z" fill="#9DD25F"/>
<path d="M116.261 168.427C116.261 168.427 121.046 154.461 103.857 150.847C103.857 150.847 101.025 165.204 116.261 168.427Z" fill="#65B479"/>
<path d="M230.037 170.868C230.037 170.868 246.151 152.996 265 174.677C265 174.677 246.737 190.107 230.037 170.868Z" fill="#9DD25F"/>
<path d="M224.665 161.102C224.665 161.102 219.782 146.745 237.459 143.034C237.459 143.034 240.291 157.781 224.665 161.102Z" fill="#65B479"/>
<path d="M175.834 179.364C184.526 179.755 192.925 178.974 201.422 177.02C203.277 176.63 202.496 173.798 200.64 174.188C192.437 176.141 184.233 176.825 175.834 176.434C173.881 176.337 173.881 179.267 175.834 179.364Z" fill="white"/>
<path d="M144.191 180.536C128.858 192.061 121.143 213.058 121.534 231.809C121.534 233.665 124.464 233.665 124.464 231.809C124.171 214.23 131.3 193.818 145.754 183.076C147.219 182.001 145.754 179.462 144.191 180.536Z" fill="white"/>
<path d="M214.996 200.557C215.582 209.053 216.168 217.452 216.657 225.949C216.949 231.418 216.559 236.496 210.504 238.743C206.5 240.208 201.91 239.719 197.71 240.11C195.854 240.305 195.854 243.235 197.71 243.04C205.523 242.258 216.559 243.235 219.293 233.664C220.563 229.269 219.586 224.093 219.293 219.601C218.903 213.253 218.512 206.905 218.024 200.557C217.828 198.701 214.899 198.701 214.996 200.557Z" fill="white"/>
<path d="M186.869 190.498C188.529 191.572 189.311 193.428 189.213 195.381C189.115 197.236 192.045 197.236 192.143 195.381C192.338 192.353 190.873 189.619 188.334 187.959C186.772 186.884 185.307 189.423 186.869 190.498Z" fill="white"/>
<path d="M196.148 188.056C198.59 187.568 198.297 191.767 198.199 192.939C198.101 194.795 201.031 194.795 201.129 192.939C201.226 190.888 201.226 188.74 200.054 187.08C198.98 185.517 197.222 184.833 195.367 185.224C193.511 185.615 194.292 188.447 196.148 188.056Z" fill="white"/>
<path d="M149.172 168.426C149.172 168.426 163.822 174.286 177.494 170.38" stroke="white" stroke-width="1.95324" stroke-miterlimit="10" stroke-linecap="round" stroke-linejoin="round"/>
<path d="M156.692 242.845C158.645 236.79 160.989 227.61 160.794 218.918C160.794 218.918 162.942 119.009 105.322 102.895" stroke="#65B479" stroke-width="0.717329" stroke-miterlimit="10"/>
<path d="M151.418 157.195C151.418 157.195 144.484 126.334 152.786 124.185C161.185 122.037 161.185 156.219 151.418 157.195Z" fill="#65B479"/>
<path d="M140.188 131.217C140.188 131.217 133.254 100.356 141.555 98.2072C149.954 96.0586 149.954 130.143 140.188 131.217Z" fill="#65B479"/>
<path d="M125.929 113.247C125.929 113.247 110.01 85.9016 117.335 81.4091C124.659 76.9167 134.914 109.341 125.929 113.247Z" fill="#65B479"/>
<path d="M114.893 106.997C114.893 106.997 84.422 98.7932 86.3752 90.3943C88.2308 82.093 118.506 97.9143 114.893 106.997Z" fill="#65B479"/>
<path d="M145.754 140.397C145.754 140.397 119.678 122.622 114.599 129.557C109.423 136.491 141.164 149.089 145.754 140.397Z" fill="#65B479"/>
<path d="M131.006 118.228C131.006 118.228 104.931 100.453 99.8522 107.387C94.7738 114.321 126.514 126.92 131.006 118.228Z" fill="#65B479"/>
<path d="M230.622 102.895C173.88 121.548 180.423 221.261 180.423 221.261C180.423 221.261 182.083 232.492 187.455 242.747" stroke="#65B479" stroke-width="0.717329" stroke-miterlimit="10"/>
<path d="M187.065 159.246C187.065 159.246 192.631 128.189 184.232 126.334C175.736 124.478 177.298 158.562 187.065 159.246Z" fill="#65B479"/>
<path d="M197.124 132.779C197.124 132.779 202.69 101.723 194.291 99.8673C185.795 98.1094 187.357 132.096 197.124 132.779Z" fill="#65B479"/>
<path d="M210.601 114.223C210.601 114.223 225.251 86.1944 217.731 81.9949C210.308 77.6978 201.421 110.61 210.601 114.223Z" fill="#65B479"/>
<path d="M221.344 107.387C221.344 107.387 251.424 97.816 249.178 89.6124C246.834 81.3111 217.34 98.4997 221.344 107.387Z" fill="#65B479"/>
<path d="M192.045 142.155C192.045 142.155 217.339 123.208 222.711 129.849C228.082 136.588 197.026 150.554 192.045 142.155Z" fill="#65B479"/>
<path d="M205.718 119.4C205.718 119.4 231.013 100.453 236.384 107.094C241.756 113.833 210.601 127.799 205.718 119.4Z" fill="#65B479"/>
<path d="M168.606 67.8342L171.438 216.378V243.138" stroke="#9DD25F" stroke-width="0.717329" stroke-miterlimit="10"/>
<path d="M168.9 93.1286C168.9 93.1286 179.838 63.537 171.83 60.2165C163.919 56.9936 159.427 90.7848 168.9 93.1286Z" fill="#9DD25F"/>
<path d="M169.387 103.676C169.387 103.676 152.785 76.819 145.363 81.0185C137.843 85.3156 161.672 109.731 169.387 103.676Z" fill="#9DD25F"/>
<path d="M169.387 123.697C169.387 123.697 152.785 96.8397 145.363 101.039C137.843 105.336 161.672 129.752 169.387 123.697Z" fill="#9DD25F"/>
<path d="M170.072 148.113C170.072 148.113 153.469 121.255 146.047 125.455C138.624 129.752 162.356 154.168 170.072 148.113Z" fill="#9DD25F"/>
<path d="M168.997 111.587C168.997 111.587 185.599 84.7297 193.021 88.9291C200.444 93.1286 176.712 117.544 168.997 111.587Z" fill="#9DD25F"/>
<path d="M169.68 133.073C169.68 133.073 186.283 106.215 193.705 110.415C201.225 114.712 177.395 139.128 169.68 133.073Z" fill="#9DD25F"/>
<path d="M170.462 157.488C170.462 157.488 187.064 130.631 194.487 134.83C201.909 139.03 178.177 163.543 170.462 157.488Z" fill="#9DD25F"/>
<path d="M103.272 208.565C129.152 208.761 205.426 208.761 233.358 203.096C236.385 202.51 238.534 205.831 236.776 208.272L227.888 220.578C226.619 222.336 227.303 224.777 229.256 225.656L236.971 228.879C240.292 230.246 239.413 235.129 235.799 235.325L108.155 240.11C104.736 240.208 103.369 235.715 106.299 233.957L112.256 230.246C114.112 229.074 114.405 226.438 112.745 224.973L101.025 214.327C98.7791 212.276 100.244 208.468 103.272 208.565Z" fill="#F8B736"/>
<path d="M139.033 212.322C139.101 212.069 139.334 211.84 139.732 211.636C140.13 211.416 140.508 211.299 140.867 211.284C141.07 211.276 141.22 211.309 141.317 211.383C141.429 211.456 141.465 211.564 141.424 211.707L140.263 216.517C140.196 216.786 139.963 217.03 139.566 217.25C139.184 217.469 138.813 217.586 138.454 217.601C138.251 217.609 138.093 217.577 137.981 217.503C137.883 217.413 137.847 217.282 137.871 217.109C137.957 216.558 137.992 216.064 137.974 215.627C137.937 214.737 137.714 214.261 137.305 214.2C137.131 214.16 136.911 214.333 136.646 214.72C136.395 215.09 136.109 215.547 135.788 216.092C134.672 217.859 133.835 219.911 133.275 222.249C133.089 223.054 132.947 223.772 132.848 224.401C132.748 225.031 132.712 225.65 132.737 226.259C132.763 226.884 132.864 227.435 133.04 227.912C133.217 228.405 133.493 228.84 133.868 229.215C134.242 229.575 134.664 229.745 135.132 229.726C135.585 229.707 136.016 229.533 136.424 229.203C136.833 228.873 137.261 228.441 137.708 227.907L137.558 227.678C137.508 227.602 137.481 227.533 137.479 227.47C137.469 227.236 137.647 227.01 138.014 226.791C138.379 226.557 138.749 226.432 139.124 226.417C139.483 226.402 139.745 226.501 139.911 226.713L140.234 227.169C140.251 227.199 140.261 227.246 140.264 227.308C140.267 227.386 140.247 227.473 140.204 227.569C140.16 227.649 140.117 227.721 140.072 227.785C139.377 228.752 138.513 229.601 137.48 230.332C136.462 231.063 135.438 231.449 134.408 231.492C133.612 231.525 132.868 231.321 132.177 230.88C130.988 230.101 130.356 228.813 130.282 227.018C130.236 225.909 130.419 224.486 130.832 222.749C131.283 220.806 131.927 218.973 132.763 217.25C133.598 215.511 134.646 214.193 135.907 213.296C136.62 212.781 137.321 212.51 138.008 212.482C138.32 212.469 138.635 212.526 138.953 212.654L139.033 212.322ZM151.894 217.208C151.996 217.017 152.253 216.81 152.666 216.59C153.094 216.353 153.472 216.228 153.8 216.215C154.268 216.195 154.48 216.405 154.436 216.845C154.438 216.892 154.433 216.963 154.421 217.057C154.41 217.151 154.397 217.222 154.383 217.27L154.385 217.316C154.272 218.369 154.145 219.633 154.003 221.109C153.875 222.569 153.774 223.715 153.699 224.547L153.277 229.068C153.243 229.383 153.027 229.657 152.63 229.893C152.249 230.127 151.855 230.253 151.45 230.27C151.2 230.28 150.995 230.234 150.834 230.131C150.689 230.028 150.628 229.874 150.651 229.67C150.767 228.32 150.957 226.295 151.22 223.594L151.002 224.002C150.625 224.705 150.341 225.218 150.151 225.538C149.494 226.66 148.782 227.612 148.017 228.395C147.268 229.176 146.391 229.713 145.386 230.005C145 230.115 144.65 230.176 144.338 230.189C142.871 230.25 142.095 229.281 142.013 227.283C141.974 226.346 142.078 225.278 142.326 224.079C142.573 222.865 142.862 221.727 143.193 220.665C143.54 219.603 143.843 218.793 144.101 218.235C144.201 218.012 144.436 217.814 144.804 217.643C145.187 217.455 145.558 217.353 145.917 217.339C146.136 217.33 146.309 217.361 146.437 217.434C146.581 217.507 146.656 217.613 146.662 217.754C146.664 217.816 146.645 217.911 146.603 218.037C145.652 220.376 145.059 222.488 144.825 224.375L144.734 225.012C144.636 225.673 144.594 226.175 144.608 226.518C144.616 226.69 144.629 226.815 144.647 226.892C144.868 227.681 145.188 228.043 145.607 227.978C145.778 227.956 145.975 227.799 146.198 227.508C146.436 227.217 146.585 227.039 146.645 226.974C147.373 226.052 148.028 225.055 148.609 223.983C149.189 222.896 149.86 221.539 150.622 219.912C151.008 219.036 151.432 218.135 151.894 217.208ZM158.357 211.803C158.183 211.764 158.011 211.747 157.839 211.754C157.495 211.769 157.195 211.867 156.936 212.05C156.601 212.251 156.413 212.447 156.374 212.636C156.201 213.378 156.089 213.868 156.036 214.105L156.039 214.175C156.042 214.253 156.077 214.33 156.142 214.405C156.207 214.465 156.28 214.509 156.359 214.537C156.486 214.594 156.628 214.62 156.784 214.613C157.034 214.603 157.328 214.52 157.665 214.366C158.018 214.195 158.244 213.974 158.342 213.704C158.425 213.435 158.538 212.961 158.682 212.283L158.68 212.236C158.677 212.158 158.642 212.081 158.577 212.005C158.51 211.914 158.437 211.847 158.357 211.803ZM157.832 221.232C157.765 221.861 157.632 223 157.434 224.65C157.252 226.284 157.102 227.768 156.985 229.103C156.951 229.401 156.751 229.667 156.385 229.902C156.034 230.119 155.672 230.236 155.297 230.252C155.047 230.262 154.85 230.223 154.706 230.135C154.576 230.031 154.523 229.877 154.546 229.673C154.747 228.1 154.954 226.309 155.168 224.298C155.397 222.271 155.556 220.826 155.645 219.962L156.004 216.733C156.039 216.45 156.24 216.2 156.606 215.981C156.988 215.762 157.359 215.645 157.718 215.63C157.936 215.621 158.11 215.661 158.239 215.749C158.368 215.838 158.42 215.969 158.396 216.142L157.832 221.232ZM162.014 227.886C162.321 228.107 162.708 228.209 163.176 228.189C163.723 228.167 164.41 227.958 165.238 227.564C165.618 224.655 165.891 221.798 166.056 218.991L166.01 218.993C165.167 219.028 164.406 219.349 163.727 219.956C163.048 220.563 162.493 221.305 162.06 222.183C161.643 223.061 161.366 223.924 161.229 224.775C161.167 225.168 161.144 225.552 161.159 225.927C161.197 226.848 161.482 227.501 162.014 227.886ZM166.311 211.544C166.315 211.263 166.5 211.013 166.867 210.794C167.232 210.56 167.61 210.435 168.001 210.419C168.485 210.399 168.726 210.569 168.725 210.928C168.673 216.092 168.331 221.431 167.7 226.946C167.955 227.061 168.086 227.22 168.095 227.423C168.104 227.657 167.926 227.891 167.561 228.125L167.456 228.997C167.406 229.297 167.19 229.564 166.809 229.798C166.443 230.017 166.072 230.134 165.697 230.149C165.463 230.159 165.274 230.12 165.13 230.032C164.984 229.929 164.931 229.774 164.97 229.57C164.966 229.491 164.972 229.437 164.986 229.405C164 229.758 163.179 229.949 162.523 229.976C161.805 230.006 161.151 229.876 160.56 229.588C159.97 229.315 159.531 228.903 159.242 228.352C158.953 227.801 158.795 227.174 158.765 226.472C158.755 226.222 158.772 225.877 158.816 225.437C158.983 224.164 159.401 222.927 160.07 221.726C160.74 220.525 161.606 219.528 162.668 218.733C163.73 217.938 164.892 217.491 166.154 217.392C166.253 215.246 166.306 213.296 166.311 211.544ZM175.058 216.742C174.287 217.384 173.68 218.394 173.237 219.773C174.743 219.132 176.104 218.591 177.322 218.15C176.777 217.453 176.234 216.991 175.692 216.763C175.581 216.72 175.471 216.694 175.361 216.683C175.266 216.671 175.211 216.665 175.196 216.666C175.212 216.681 175.197 216.697 175.151 216.715C175.12 216.732 175.089 216.741 175.058 216.742ZM175.083 215.075C175.33 215.003 175.594 214.96 175.875 214.949C177.374 214.887 178.774 215.838 180.075 217.801C180.125 217.862 180.151 217.939 180.155 218.032C180.162 218.204 180.06 218.388 179.85 218.585C179.686 218.779 179.473 218.936 179.212 219.057C177.68 219.808 175.543 220.718 172.804 221.785C172.681 222.588 172.636 223.411 172.671 224.254C172.687 224.644 172.707 224.925 172.73 225.096C172.79 225.797 172.956 226.4 173.227 226.905C173.312 227.074 173.428 227.233 173.575 227.383C173.738 227.533 173.859 227.63 173.939 227.673C173.987 227.703 174.066 227.715 174.175 227.711C174.284 227.706 174.408 227.67 174.546 227.601C174.699 227.532 174.868 227.439 175.05 227.322C175.492 227.038 175.901 226.716 176.277 226.357C176.653 225.997 177.103 225.533 177.627 224.964C177.837 224.736 178.199 224.612 178.714 224.59C178.995 224.579 179.231 224.616 179.423 224.702C179.629 224.771 179.735 224.884 179.742 225.04C179.747 225.181 179.676 225.34 179.527 225.518C178.602 226.605 177.648 227.535 176.663 228.311C175.679 229.087 174.679 229.496 173.664 229.538C173.18 229.558 172.723 229.475 172.293 229.29C171.577 228.991 171.048 228.489 170.706 227.784C170.364 227.079 170.173 226.242 170.133 225.274C170.103 224.556 170.162 223.709 170.309 222.733L170.124 222.788L169.94 222.866C169.709 222.953 169.523 223 169.382 223.006C169.164 223.015 168.99 222.968 168.86 222.863C168.731 222.759 168.663 222.621 168.656 222.45C168.647 222.247 168.717 222.048 168.865 221.854C169.029 221.644 169.272 221.47 169.595 221.332L170.724 220.839C170.846 220.396 171.033 219.818 171.285 219.103C171.682 218.117 172.194 217.259 172.821 216.53C173.447 215.8 174.201 215.315 175.083 215.075ZM194.333 214.138C194.323 215.78 194.344 217.249 194.398 218.545C194.531 221.762 194.868 224.617 195.41 227.113C195.487 227.469 195.359 227.787 195.027 228.067C194.694 228.331 194.324 228.472 193.918 228.488C193.684 228.498 193.487 228.451 193.326 228.349C193.165 228.246 193.065 228.086 193.025 227.868C192.493 224.856 192.142 222.04 191.971 219.42C191.295 221.231 190.501 223.766 189.588 227.025C189.575 227.089 189.532 227.176 189.458 227.289C189.326 227.482 189.121 227.639 188.844 227.76C188.568 227.881 188.289 227.947 188.008 227.959C187.79 227.968 187.617 227.944 187.489 227.887C187.282 227.786 187.174 227.642 187.166 227.454C187.164 227.407 187.176 227.321 187.202 227.195C187.211 227.022 187.208 226.772 187.195 226.444C187.172 225.898 187.093 225.111 186.956 224.085L186.81 222.824C186.685 221.297 186.582 220.151 186.504 219.388C185.811 220.793 185.26 221.833 184.85 222.506C184.557 224.505 184.012 226.451 183.215 228.345C183.115 228.568 182.888 228.765 182.536 228.936C182.183 229.107 181.835 229.2 181.492 229.214C181.273 229.223 181.092 229.191 180.948 229.119C180.82 229.046 180.753 228.94 180.747 228.799C180.743 228.705 180.763 228.603 180.805 228.492C181.458 226.901 181.939 225.278 182.245 223.623C182.18 223.563 182.146 223.479 182.141 223.369C182.135 223.213 182.19 223.047 182.308 222.87L182.395 222.702C182.593 221.443 182.663 220.11 182.605 218.705C182.58 218.112 182.533 217.527 182.462 216.952C182.435 216.687 182.605 216.437 182.97 216.203C183.336 215.969 183.714 215.844 184.104 215.828C184.323 215.819 184.504 215.858 184.649 215.946C184.793 216.034 184.877 216.164 184.9 216.335C184.942 216.614 184.992 217.066 185.049 217.689C185.381 217.018 185.738 216.386 186.12 215.791C186.141 215.525 186.319 215.291 186.654 215.089C186.989 214.872 187.344 214.755 187.719 214.74C187.953 214.73 188.151 214.777 188.311 214.88C188.487 214.966 188.587 215.118 188.612 215.336C188.851 217.344 189.035 219.135 189.163 220.709C190.103 218.105 191.053 215.947 192.014 214.234C192.117 214.057 192.321 213.893 192.627 213.739C192.934 213.586 193.235 213.503 193.532 213.491C193.766 213.481 193.956 213.528 194.101 213.631C194.261 213.734 194.339 213.903 194.333 214.138ZM204.232 219.968C204.164 218.313 203.142 217.049 201.166 216.177C200.699 216.603 200.238 217.162 199.781 217.853C199.224 218.737 198.772 219.717 198.425 220.795C198.287 221.223 198.162 221.807 198.052 222.546C197.941 223.27 197.899 223.945 197.925 224.569C197.951 225.209 198.058 225.721 198.246 226.104C198.449 226.471 198.753 226.646 199.159 226.629C199.487 226.616 199.864 226.467 200.29 226.184C201.464 225.431 202.427 224.516 203.179 223.437C203.932 222.358 204.283 221.201 204.232 219.968ZM204.713 215.702C205.297 216.21 205.751 216.793 206.075 217.452C206.415 218.11 206.601 218.814 206.632 219.564C206.676 220.641 206.409 221.747 205.831 222.881C205.44 223.648 204.856 224.462 204.079 225.323C203.301 226.184 202.425 226.924 201.449 227.543C200.489 228.146 199.556 228.466 198.651 228.504C198.088 228.527 197.552 228.424 197.043 228.195C195.957 227.661 195.383 226.645 195.321 225.146C195.276 224.069 195.47 222.88 195.901 221.58C196.331 220.264 196.801 219.15 197.311 218.237C198.55 216.074 199.893 214.689 201.338 214.082C201.737 213.909 202.171 213.813 202.639 213.794C203.186 213.771 203.652 213.893 204.039 214.158C204.424 214.408 204.66 214.821 204.747 215.396L204.751 215.489C204.753 215.536 204.74 215.607 204.713 215.702ZM209.822 216.828C209.847 217.421 210.017 217.938 210.332 218.378C210.663 218.818 211.053 219.185 211.504 219.479C211.954 219.773 212.562 220.116 213.329 220.506C214.368 221.042 215.162 221.533 215.712 221.979C216.278 222.425 216.662 222.996 216.862 223.691C216.938 224.001 216.978 224.226 216.984 224.366C217.029 225.459 216.484 226.272 215.349 226.803C214.213 227.32 212.911 227.608 211.444 227.669C210.866 227.693 210.357 227.675 209.917 227.615C209.398 227.543 208.852 227.385 208.279 227.143C207.72 226.885 207.246 226.568 206.855 226.193C206.479 225.802 206.283 225.396 206.265 224.974C206.238 224.319 206.721 223.697 207.713 223.108C207.988 222.956 208.258 222.874 208.524 222.863C208.773 222.853 208.979 222.899 209.139 223.002C209.316 223.104 209.407 223.233 209.413 223.39C209.425 223.671 209.21 223.953 208.768 224.237C208.676 224.288 208.633 224.36 208.636 224.454C208.644 224.641 208.802 224.862 209.109 225.115C209.417 225.368 209.659 225.538 209.834 225.624C210.314 225.87 211.07 226.003 212.103 226.023C212.228 226.033 212.447 226.032 212.76 226.019C213.322 225.996 213.771 225.884 214.106 225.682C214.442 225.48 214.576 225.131 214.509 224.633C214.418 223.964 213.708 223.235 212.377 222.446L211.464 221.921C210.631 221.455 209.942 221.045 209.396 220.693C208.864 220.324 208.4 219.881 208.003 219.366C207.606 218.835 207.394 218.234 207.366 217.563C207.348 217.141 207.409 216.716 207.548 216.288C207.849 215.259 208.457 214.452 209.371 213.867C210.285 213.266 211.28 212.943 212.357 212.899C213.466 212.853 214.406 213.096 215.179 213.627C215.967 214.157 216.383 214.937 216.425 215.968C216.439 216.296 216.407 216.649 216.328 217.027C216.278 217.311 216.053 217.563 215.656 217.783C215.258 218.002 214.88 218.12 214.521 218.134C214.302 218.144 214.129 218.104 214 218.015C213.887 217.926 213.858 217.794 213.913 217.62C213.993 217.288 214.027 216.959 214.013 216.631C213.992 216.115 213.841 215.684 213.561 215.336C213.28 214.988 212.88 214.754 212.359 214.635C212.075 214.584 211.863 214.561 211.722 214.567C211.16 214.591 210.693 214.813 210.319 215.235C209.961 215.641 209.795 216.172 209.822 216.828Z" fill="#CEDADF"/>
</svg>
