<svg width="513" height="140" viewBox="0 0 513 140" fill="none" xmlns="http://www.w3.org/2000/svg">
<path d="M14.2731 20.1084H5.9385V28.4592H15.6487V31H2.97688V7.43652H15.4869V9.99355H5.9385V17.5675H14.2731V20.1084ZM21.75 13.4892L21.8309 15.3827C22.9422 13.9046 24.3609 13.1656 26.0872 13.1656C29.1837 13.1656 30.7535 15.2317 30.7967 19.3639V31H27.9483V19.4934C27.9483 18.1232 27.7164 17.1521 27.2524 16.5803C26.7993 15.9977 26.1142 15.7064 25.1971 15.7064C24.485 15.7064 23.8431 15.9438 23.2712 16.4185C22.7102 16.8932 22.2571 17.5136 21.9118 18.2796V31H19.0473V13.4892H21.75ZM38.8562 9.2491V13.4892H41.4941V15.8035H38.8562V26.6628C38.8562 27.3533 38.9694 27.8765 39.196 28.2326C39.4226 28.5886 39.811 28.7666 40.3612 28.7666C40.7389 28.7666 41.1219 28.7019 41.5103 28.5724L41.4779 31C40.8306 31.2158 40.167 31.3237 39.4873 31.3237C38.3545 31.3237 37.4913 30.9191 36.8979 30.1099C36.3045 29.3007 36.0078 28.1571 36.0078 26.679V15.8035H33.3375V13.4892H36.0078V9.2491H38.8562ZM52.143 16.1757C51.7438 16.1002 51.3122 16.0624 50.8483 16.0624C49.381 16.0624 48.356 16.8662 47.7734 18.4738V31H44.9089V13.4892H47.6925L47.741 15.2694C48.507 13.8668 49.5913 13.1656 50.9939 13.1656C51.4471 13.1656 51.8247 13.2411 52.1268 13.3921L52.143 16.1757ZM60.9469 31.3237C58.7675 31.3237 57.0952 30.6763 55.93 29.3816C54.7647 28.0761 54.1713 26.1665 54.1498 23.6526V21.5325C54.1498 18.9216 54.7162 16.877 55.849 15.3989C56.9927 13.91 58.5841 13.1656 60.6232 13.1656C62.6732 13.1656 64.2052 13.8183 65.2194 15.1238C66.2336 16.4293 66.7515 18.463 66.773 21.225V23.1024H56.9981V23.5069C56.9981 25.3843 57.3487 26.7491 58.05 27.6014C58.7621 28.4538 59.7817 28.8799 61.1087 28.8799C61.9503 28.8799 62.6894 28.7235 63.3259 28.4106C63.9733 28.0869 64.5775 27.5798 65.1385 26.8893L66.6274 28.7019C65.3866 30.4498 63.4931 31.3237 60.9469 31.3237ZM60.6232 15.6255C59.4364 15.6255 58.5571 16.0355 57.9853 16.8554C57.4135 17.6646 57.0898 18.927 57.0143 20.6424H63.9085V20.254C63.833 18.5925 63.5309 17.4057 63.0022 16.6936C62.4844 15.9815 61.6914 15.6255 60.6232 15.6255ZM81.5811 9.2491V13.4892H84.2191V15.8035H81.5811V26.6628C81.5811 27.3533 81.6944 27.8765 81.921 28.2326C82.1476 28.5886 82.536 28.7666 83.0862 28.7666C83.4638 28.7666 83.8469 28.7019 84.2353 28.5724L84.2029 31C83.5556 31.2158 82.892 31.3237 82.2123 31.3237C81.0794 31.3237 80.2163 30.9191 79.6229 30.1099C79.0295 29.3007 78.7328 28.1571 78.7328 26.679V15.8035H76.0625V13.4892H78.7328V9.2491H81.5811ZM86.7114 21.4354C86.7114 18.8892 87.3264 16.877 88.5563 15.3989C89.7971 13.91 91.4316 13.1656 93.46 13.1656C95.4883 13.1656 97.1175 13.8884 98.3475 15.3342C99.5882 16.7799 100.225 18.7489 100.257 21.2412V23.0862C100.257 25.6216 99.6422 27.6284 98.4122 29.1065C97.1822 30.5846 95.5423 31.3237 93.4923 31.3237C91.464 31.3237 89.8348 30.6062 88.6049 29.1712C87.3857 27.7363 86.7545 25.7942 86.7114 23.3451V21.4354ZM89.5759 23.0862C89.5759 24.888 89.9265 26.3067 90.6278 27.3425C91.3399 28.3675 92.2948 28.8799 93.4923 28.8799C96.017 28.8799 97.3171 27.0566 97.3926 23.4098V21.4354C97.3926 19.6444 97.0366 18.2311 96.3245 17.1953C95.6124 16.1488 94.6576 15.6255 93.46 15.6255C92.284 15.6255 91.3399 16.1488 90.6278 17.1953C89.9265 18.2311 89.5759 19.639 89.5759 21.4192V23.0862ZM103.348 21.4516C103.348 18.7543 103.85 16.699 104.853 15.2856C105.867 13.8722 107.319 13.1656 109.207 13.1656C110.879 13.1656 112.185 13.8453 113.123 15.2047V6.14183H115.988V31H113.366L113.22 29.1227C112.282 30.59 110.938 31.3237 109.191 31.3237C107.378 31.3237 105.954 30.6224 104.918 29.2198C103.893 27.8064 103.37 25.8158 103.348 23.248V21.4516ZM106.213 23.0862C106.213 25.0498 106.504 26.4955 107.087 27.4234C107.669 28.3405 108.619 28.799 109.935 28.799C111.359 28.799 112.422 28.0815 113.123 26.6466V17.8103C112.39 16.4077 111.332 15.7064 109.951 15.7064C108.635 15.7064 107.685 16.1703 107.103 17.0982C106.52 18.0153 106.224 19.4287 106.213 21.3383V23.0862ZM119.791 21.4354C119.791 18.8892 120.406 16.877 121.636 15.3989C122.877 13.91 124.511 13.1656 126.539 13.1656C128.568 13.1656 130.197 13.8884 131.427 15.3342C132.668 16.7799 133.304 18.7489 133.337 21.2412V23.0862C133.337 25.6216 132.722 27.6284 131.492 29.1065C130.262 30.5846 128.622 31.3237 126.572 31.3237C124.543 31.3237 122.914 30.6062 121.684 29.1712C120.465 27.7363 119.834 25.7942 119.791 23.3451V21.4354ZM122.655 23.0862C122.655 24.888 123.006 26.3067 123.707 27.3425C124.419 28.3675 125.374 28.8799 126.572 28.8799C129.097 28.8799 130.397 27.0566 130.472 23.4098V21.4354C130.472 19.6444 130.116 18.2311 129.404 17.1953C128.692 16.1488 127.737 15.6255 126.539 15.6255C125.363 15.6255 124.419 16.1488 123.707 17.1953C123.006 18.2311 122.655 19.639 122.655 21.4192V23.0862ZM145.539 26.5171C145.539 25.9021 145.307 25.3735 144.843 24.9311C144.379 24.4888 143.484 23.9709 142.157 23.3775C140.614 22.7409 139.524 22.1961 138.888 21.7429C138.262 21.2898 137.793 20.7773 137.48 20.2055C137.167 19.6229 137.01 18.9323 137.01 18.134C137.01 16.7098 137.528 15.5284 138.564 14.5897C139.611 13.6403 140.943 13.1656 142.561 13.1656C144.266 13.1656 145.636 13.6619 146.672 14.6545C147.708 15.6471 148.226 16.9202 148.226 18.4738H145.377C145.377 17.6862 145.113 17.0173 144.584 16.467C144.056 15.906 143.381 15.6255 142.561 15.6255C141.72 15.6255 141.056 15.8467 140.571 16.289C140.096 16.7206 139.859 17.3032 139.859 18.0369C139.859 18.6195 140.031 19.0888 140.377 19.4448C140.733 19.8009 141.58 20.2702 142.917 20.8528C145.043 21.6836 146.489 22.4982 147.255 23.2966C148.021 24.0842 148.404 25.0876 148.404 26.3067C148.404 27.828 147.88 29.0472 146.834 29.9642C145.787 30.8705 144.385 31.3237 142.626 31.3237C140.803 31.3237 139.325 30.8004 138.192 29.7539C137.059 28.7073 136.492 27.3802 136.492 25.7727H139.373C139.406 26.7437 139.702 27.5043 140.263 28.0546C140.824 28.6048 141.612 28.8799 142.626 28.8799C143.576 28.8799 144.298 28.6695 144.795 28.2488C145.291 27.8172 145.539 27.24 145.539 26.5171ZM165.834 28.8799C166.783 28.8799 167.544 28.5886 168.115 28.006C168.687 27.4126 169 26.5711 169.054 25.4814H171.757C171.692 27.1645 171.093 28.5617 169.96 29.6729C168.838 30.7734 167.463 31.3237 165.834 31.3237C163.665 31.3237 162.009 30.644 160.865 29.2845C159.732 27.9143 159.166 25.8806 159.166 23.1833V21.2574C159.166 18.6141 159.732 16.6073 160.865 15.2371C161.998 13.8561 163.649 13.1656 165.817 13.1656C167.608 13.1656 169.027 13.732 170.074 14.8648C171.131 15.9977 171.692 17.5459 171.757 19.5096H169.054C168.989 18.2149 168.676 17.2438 168.115 16.5965C167.565 15.9492 166.799 15.6255 165.817 15.6255C164.544 15.6255 163.6 16.0463 162.985 16.8878C162.37 17.7186 162.052 19.0888 162.03 20.9985V23.2318C162.03 25.2925 162.332 26.7491 162.937 27.6014C163.552 28.4538 164.517 28.8799 165.834 28.8799ZM183.992 29.4625C183.042 30.7033 181.656 31.3237 179.832 31.3237C178.246 31.3237 177.049 30.7788 176.24 29.6891C175.43 28.5886 175.02 26.9918 175.01 24.8987V13.4892H177.858V24.6884C177.858 27.418 178.678 28.7828 180.318 28.7828C182.055 28.7828 183.253 28.006 183.911 26.4524V13.4892H186.775V31H184.056L183.992 29.4625ZM194.171 31H191.307V13.4892H194.171V31ZM194.398 8.84451C194.398 9.33002 194.263 9.73461 193.993 10.0583C193.723 10.382 193.313 10.5438 192.763 10.5438C192.224 10.5438 191.819 10.382 191.549 10.0583C191.28 9.73461 191.145 9.33002 191.145 8.84451C191.145 8.359 191.28 7.94901 191.549 7.61454C191.819 7.28008 192.224 7.11285 192.763 7.11285C193.303 7.11285 193.707 7.28548 193.977 7.63073C194.257 7.96519 194.398 8.36978 194.398 8.84451ZM198.088 21.4516C198.088 18.7543 198.589 16.699 199.593 15.2856C200.607 13.8722 202.058 13.1656 203.946 13.1656C205.618 13.1656 206.924 13.8453 207.863 15.2047V6.14183H210.727V31H208.105L207.96 29.1227C207.021 30.59 205.678 31.3237 203.93 31.3237C202.117 31.3237 200.693 30.6224 199.657 29.2198C198.632 27.8064 198.109 25.8158 198.088 23.248V21.4516ZM200.952 23.0862C200.952 25.0498 201.243 26.4955 201.826 27.4234C202.409 28.3405 203.358 28.799 204.674 28.799C206.099 28.799 207.161 28.0815 207.863 26.6466V17.8103C207.129 16.4077 206.072 15.7064 204.691 15.7064C203.374 15.7064 202.425 16.1703 201.842 17.0982C201.26 18.0153 200.963 19.4287 200.952 21.3383V23.0862ZM224.143 31C223.971 30.6224 223.847 29.9858 223.771 29.0903C222.757 30.5792 221.462 31.3237 219.887 31.3237C218.301 31.3237 217.06 30.8813 216.165 29.9966C215.28 29.1011 214.838 27.8442 214.838 26.2258C214.838 24.4456 215.442 23.0322 216.65 21.9857C217.859 20.9391 219.515 20.4051 221.619 20.3835H223.723V18.5224C223.723 17.4758 223.491 16.7314 223.027 16.289C222.563 15.8467 221.856 15.6255 220.907 15.6255C220.044 15.6255 219.342 15.8844 218.803 16.4023C218.263 16.9094 217.994 17.5567 217.994 18.3443H215.129C215.129 17.4488 215.393 16.5965 215.922 15.7873C216.451 14.9673 217.163 14.3254 218.058 13.8615C218.954 13.3975 219.952 13.1656 221.052 13.1656C222.843 13.1656 224.203 13.6133 225.131 14.5088C226.069 15.3935 226.549 16.6882 226.571 18.3929V27.2292C226.582 28.5778 226.765 29.7485 227.121 30.7411V31H224.143ZM220.324 28.7181C221.025 28.7181 221.694 28.5239 222.331 28.1355C222.967 27.7471 223.431 27.2616 223.723 26.679V22.5036H222.104C220.745 22.5251 219.671 22.8326 218.884 23.426C218.096 24.0086 217.702 24.8286 217.702 25.8859C217.702 26.8785 217.902 27.6014 218.301 28.0546C218.7 28.4969 219.375 28.7181 220.324 28.7181ZM233.724 13.4892L233.789 15.1076C234.857 13.8129 236.265 13.1656 238.013 13.1656C239.966 13.1656 241.33 14.0125 242.107 15.7064C243.208 14.0125 244.74 13.1656 246.703 13.1656C249.929 13.1656 251.58 15.1777 251.656 19.2021V31H248.807V19.4772C248.807 18.2041 248.581 17.26 248.128 16.6451C247.675 16.0193 246.908 15.7064 245.83 15.7064C244.966 15.7064 244.265 16.0409 243.726 16.7098C243.186 17.3787 242.873 18.2311 242.787 19.2668V31H239.906V19.3477C239.874 16.9202 238.887 15.7064 236.945 15.7064C235.499 15.7064 234.479 16.4293 233.886 17.875V31H231.038V13.4892H233.724ZM255.378 21.4354C255.378 18.8892 255.993 16.877 257.223 15.3989C258.464 13.91 260.098 13.1656 262.127 13.1656C264.155 13.1656 265.784 13.8884 267.014 15.3342C268.255 16.7799 268.891 18.7489 268.924 21.2412V23.0862C268.924 25.6216 268.309 27.6284 267.079 29.1065C265.849 30.5846 264.209 31.3237 262.159 31.3237C260.131 31.3237 258.501 30.6062 257.271 29.1712C256.052 27.7363 255.421 25.7942 255.378 23.3451V21.4354ZM258.242 23.0862C258.242 24.888 258.593 26.3067 259.294 27.3425C260.006 28.3675 260.961 28.8799 262.159 28.8799C264.684 28.8799 265.984 27.0566 266.059 23.4098V21.4354C266.059 19.6444 265.703 18.2311 264.991 17.1953C264.279 16.1488 263.324 15.6255 262.127 15.6255C260.951 15.6255 260.006 16.1488 259.294 17.1953C258.593 18.2311 258.242 19.639 258.242 21.4192V23.0862ZM281.126 26.5171C281.126 25.9021 280.894 25.3735 280.43 24.9311C279.966 24.4888 279.071 23.9709 277.744 23.3775C276.201 22.7409 275.111 22.1961 274.475 21.7429C273.849 21.2898 273.38 20.7773 273.067 20.2055C272.754 19.6229 272.597 18.9323 272.597 18.134C272.597 16.7098 273.115 15.5284 274.151 14.5897C275.198 13.6403 276.53 13.1656 278.148 13.1656C279.853 13.1656 281.223 13.6619 282.259 14.6545C283.295 15.6471 283.813 16.9202 283.813 18.4738H280.964C280.964 17.6862 280.7 17.0173 280.171 16.467C279.643 15.906 278.968 15.6255 278.148 15.6255C277.307 15.6255 276.643 15.8467 276.158 16.289C275.683 16.7206 275.446 17.3032 275.446 18.0369C275.446 18.6195 275.618 19.0888 275.964 19.4448C276.32 19.8009 277.167 20.2702 278.504 20.8528C280.63 21.6836 282.076 22.4982 282.842 23.2966C283.608 24.0842 283.991 25.0876 283.991 26.3067C283.991 27.828 283.467 29.0472 282.421 29.9642C281.374 30.8705 279.972 31.3237 278.213 31.3237C276.39 31.3237 274.912 30.8004 273.779 29.7539C272.646 28.7073 272.08 27.3802 272.08 25.7727H274.96C274.993 26.7437 275.289 27.5043 275.85 28.0546C276.411 28.6048 277.199 28.8799 278.213 28.8799C279.163 28.8799 279.885 28.6695 280.382 28.2488C280.878 27.8172 281.126 27.24 281.126 26.5171ZM301.599 31.3237C299.419 31.3237 297.747 30.6763 296.582 29.3816C295.416 28.0761 294.823 26.1665 294.801 23.6526V21.5325C294.801 18.9216 295.368 16.877 296.501 15.3989C297.644 13.91 299.236 13.1656 301.275 13.1656C303.325 13.1656 304.857 13.8183 305.871 15.1238C306.885 16.4293 307.403 18.463 307.425 21.225V23.1024H297.65V23.5069C297.65 25.3843 298 26.7491 298.702 27.6014C299.414 28.4538 300.433 28.8799 301.76 28.8799C302.602 28.8799 303.341 28.7235 303.978 28.4106C304.625 28.0869 305.229 27.5798 305.79 26.8893L307.279 28.7019C306.038 30.4498 304.145 31.3237 301.599 31.3237ZM301.275 15.6255C300.088 15.6255 299.209 16.0355 298.637 16.8554C298.065 17.6646 297.742 18.927 297.666 20.6424H304.56V20.254C304.485 18.5925 304.183 17.4057 303.654 16.6936C303.136 15.9815 302.343 15.6255 301.275 15.6255ZM313.963 31H311.098V6.14183H313.963V31ZM338.74 23.0862C338.74 25.859 338.239 27.9251 337.235 29.2845C336.243 30.644 334.835 31.3237 333.011 31.3237C331.253 31.3237 329.899 30.6601 328.949 29.3331V37.7324H326.101V13.4892H328.69L328.836 15.4313C329.796 13.9208 331.172 13.1656 332.963 13.1656C334.883 13.1656 336.318 13.8345 337.268 15.1723C338.217 16.5102 338.708 18.5116 338.74 21.1765V23.0862ZM335.892 21.4516C335.892 19.488 335.59 18.0422 334.986 17.1144C334.381 16.1757 333.41 15.7064 332.073 15.7064C330.702 15.7064 329.661 16.3915 328.949 17.7617V26.8732C329.65 28.211 330.702 28.8799 332.105 28.8799C333.4 28.8799 334.349 28.416 334.953 27.4881C335.568 26.5495 335.881 25.1199 335.892 23.1995V21.4516ZM345.521 31H342.657V6.14183H345.521V31ZM359.051 31C358.878 30.6224 358.754 29.9858 358.679 29.0903C357.664 30.5792 356.37 31.3237 354.794 31.3237C353.208 31.3237 351.968 30.8813 351.072 29.9966C350.188 29.1011 349.745 27.8442 349.745 26.2258C349.745 24.4456 350.349 23.0322 351.558 21.9857C352.766 20.9391 354.422 20.4051 356.526 20.3835H358.63V18.5224C358.63 17.4758 358.398 16.7314 357.934 16.289C357.47 15.8467 356.763 15.6255 355.814 15.6255C354.951 15.6255 354.25 15.8844 353.71 16.4023C353.171 16.9094 352.901 17.5567 352.901 18.3443H350.036C350.036 17.4488 350.301 16.5965 350.829 15.7873C351.358 14.9673 352.07 14.3254 352.966 13.8615C353.861 13.3975 354.859 13.1656 355.96 13.1656C357.751 13.1656 359.11 13.6133 360.038 14.5088C360.977 15.3935 361.457 16.6882 361.478 18.3929V27.2292C361.489 28.5778 361.673 29.7485 362.029 30.7411V31H359.051ZM355.231 28.7181C355.933 28.7181 356.602 28.5239 357.238 28.1355C357.875 27.7471 358.339 27.2616 358.63 26.679V22.5036H357.012C355.652 22.5251 354.579 22.8326 353.791 23.426C353.003 24.0086 352.61 24.8286 352.61 25.8859C352.61 26.8785 352.809 27.6014 353.208 28.0546C353.608 28.4969 354.282 28.7181 355.231 28.7181ZM368.632 13.4892L368.712 15.3827C369.824 13.9046 371.243 13.1656 372.969 13.1656C376.065 13.1656 377.635 15.2317 377.678 19.3639V31H374.83V19.4934C374.83 18.1232 374.598 17.1521 374.134 16.5803C373.681 15.9977 372.996 15.7064 372.079 15.7064C371.367 15.7064 370.725 15.9438 370.153 16.4185C369.592 16.8932 369.139 17.5136 368.793 18.2796V31H365.929V13.4892H368.632ZM388.246 31.3237C386.067 31.3237 384.394 30.6763 383.229 29.3816C382.064 28.0761 381.471 26.1665 381.449 23.6526V21.5325C381.449 18.9216 382.015 16.877 383.148 15.3989C384.292 13.91 385.883 13.1656 387.923 13.1656C389.972 13.1656 391.504 13.8183 392.519 15.1238C393.533 16.4293 394.051 18.463 394.072 21.225V23.1024H384.297V23.5069C384.297 25.3843 384.648 26.7491 385.349 27.6014C386.061 28.4538 387.081 28.8799 388.408 28.8799C389.25 28.8799 389.989 28.7235 390.625 28.4106C391.273 28.0869 391.877 27.5798 392.438 26.8893L393.927 28.7019C392.686 30.4498 390.792 31.3237 388.246 31.3237ZM387.923 15.6255C386.736 15.6255 385.856 16.0355 385.285 16.8554C384.713 17.6646 384.389 18.927 384.314 20.6424H391.208V20.254C391.132 18.5925 390.83 17.4057 390.302 16.6936C389.784 15.9815 388.991 15.6255 387.923 15.6255ZM401.274 9.2491V13.4892H403.912V15.8035H401.274V26.6628C401.274 27.3533 401.387 27.8765 401.614 28.2326C401.841 28.5886 402.229 28.7666 402.779 28.7666C403.157 28.7666 403.54 28.7019 403.928 28.5724L403.896 31C403.248 31.2158 402.585 31.3237 401.905 31.3237C400.772 31.3237 399.909 30.9191 399.316 30.1099C398.722 29.3007 398.426 28.1571 398.426 26.679V15.8035H395.755V13.4892H398.426V9.2491H401.274ZM416.341 31C416.168 30.6224 416.044 29.9858 415.969 29.0903C414.955 30.5792 413.66 31.3237 412.085 31.3237C410.499 31.3237 409.258 30.8813 408.363 29.9966C407.478 29.1011 407.035 27.8442 407.035 26.2258C407.035 24.4456 407.64 23.0322 408.848 21.9857C410.056 20.9391 411.713 20.4051 413.816 20.3835H415.92V18.5224C415.92 17.4758 415.688 16.7314 415.224 16.289C414.76 15.8467 414.054 15.6255 413.104 15.6255C412.241 15.6255 411.54 15.8844 411 16.4023C410.461 16.9094 410.191 17.5567 410.191 18.3443H407.327C407.327 17.4488 407.591 16.5965 408.12 15.7873C408.648 14.9673 409.361 14.3254 410.256 13.8615C411.152 13.3975 412.15 13.1656 413.25 13.1656C415.041 13.1656 416.4 13.6133 417.328 14.5088C418.267 15.3935 418.747 16.6882 418.769 18.3929V27.2292C418.779 28.5778 418.963 29.7485 419.319 30.7411V31H416.341ZM412.522 28.7181C413.223 28.7181 413.892 28.5239 414.529 28.1355C415.165 27.7471 415.629 27.2616 415.92 26.679V22.5036H414.302C412.943 22.5251 411.869 22.8326 411.081 23.426C410.294 24.0086 409.9 24.8286 409.9 25.8859C409.9 26.8785 410.1 27.6014 410.499 28.0546C410.898 28.4969 411.572 28.7181 412.522 28.7181Z" fill="#759958"/>
<path d="M7.72266 51.9375H9.87891V64.0195C9.87891 65.6523 9.46094 66.9297 8.625 67.8516C7.79688 68.7734 6.67969 69.2344 5.27344 69.2344C3.82812 69.2344 2.70312 68.7969 1.89844 67.9219C1.09375 67.0469 0.691406 65.8359 0.691406 64.2891H2.83594C2.83594 65.2656 3.05078 66.0273 3.48047 66.5742C3.91016 67.1211 4.50781 67.3945 5.27344 67.3945C6.01562 67.3945 6.60938 67.0977 7.05469 66.5039C7.5 65.9102 7.72266 65.0781 7.72266 64.0078V51.9375ZM19.6172 67.8867C18.9297 68.7852 17.9258 69.2344 16.6055 69.2344C15.457 69.2344 14.5898 68.8398 14.0039 68.0508C13.418 67.2539 13.1211 66.0977 13.1133 64.582V56.3203H15.1758V64.4297C15.1758 66.4062 15.7695 67.3945 16.957 67.3945C18.2148 67.3945 19.082 66.832 19.5586 65.707V56.3203H21.6328V69H19.6641L19.6172 67.8867ZM26.707 56.3203L26.7656 57.6914C27.5703 56.6211 28.5977 56.0859 29.8477 56.0859C32.0898 56.0859 33.2266 57.582 33.2578 60.5742V69H31.1953V60.668C31.1953 59.6758 31.0273 58.9727 30.6914 58.5586C30.3633 58.1367 29.8672 57.9258 29.2031 57.9258C28.6875 57.9258 28.2227 58.0977 27.8086 58.4414C27.4023 58.7852 27.0742 59.2344 26.8242 59.7891V69H24.75V56.3203H26.707ZM39.0938 53.25V56.3203H41.0039V57.9961H39.0938V65.8594C39.0938 66.3594 39.1758 66.7383 39.3398 66.9961C39.5039 67.2539 39.7852 67.3828 40.1836 67.3828C40.457 67.3828 40.7344 67.3359 41.0156 67.2422L40.9922 69C40.5234 69.1562 40.043 69.2344 39.5508 69.2344C38.7305 69.2344 38.1055 68.9414 37.6758 68.3555C37.2461 67.7695 37.0312 66.9414 37.0312 65.8711V57.9961H35.0977V56.3203H37.0312V53.25H39.0938ZM42.8086 62.0742C42.8086 60.2305 43.2539 58.7734 44.1445 57.7031C45.043 56.625 46.2266 56.0859 47.6953 56.0859C49.1641 56.0859 50.3438 56.6094 51.2344 57.6562C52.1328 58.7031 52.5938 60.1289 52.6172 61.9336V63.2695C52.6172 65.1055 52.1719 66.5586 51.2812 67.6289C50.3906 68.6992 49.2031 69.2344 47.7188 69.2344C46.25 69.2344 45.0703 68.7148 44.1797 67.6758C43.2969 66.6367 42.8398 65.2305 42.8086 63.457V62.0742ZM44.8828 63.2695C44.8828 64.5742 45.1367 65.6016 45.6445 66.3516C46.1602 67.0938 46.8516 67.4648 47.7188 67.4648C49.5469 67.4648 50.4883 66.1445 50.543 63.5039V62.0742C50.543 60.7773 50.2852 59.7539 49.7695 59.0039C49.2539 58.2461 48.5625 57.8672 47.6953 57.8672C46.8438 57.8672 46.1602 58.2461 45.6445 59.0039C45.1367 59.7539 44.8828 60.7734 44.8828 62.0625V63.2695ZM61.4531 65.7539C61.4531 65.3086 61.2852 64.9258 60.9492 64.6055C60.6133 64.2852 59.9648 63.9102 59.0039 63.4805C57.8867 63.0195 57.0977 62.625 56.6367 62.2969C56.1836 61.9688 55.8438 61.5977 55.6172 61.1836C55.3906 60.7617 55.2773 60.2617 55.2773 59.6836C55.2773 58.6523 55.6523 57.7969 56.4023 57.1172C57.1602 56.4297 58.125 56.0859 59.2969 56.0859C60.5312 56.0859 61.5234 56.4453 62.2734 57.1641C63.0234 57.8828 63.3984 58.8047 63.3984 59.9297H61.3359C61.3359 59.3594 61.1445 58.875 60.7617 58.4766C60.3789 58.0703 59.8906 57.8672 59.2969 57.8672C58.6875 57.8672 58.207 58.0273 57.8555 58.3477C57.5117 58.6602 57.3398 59.082 57.3398 59.6133C57.3398 60.0352 57.4648 60.375 57.7148 60.6328C57.9727 60.8906 58.5859 61.2305 59.5547 61.6523C61.0938 62.2539 62.1406 62.8438 62.6953 63.4219C63.25 63.9922 63.5273 64.7188 63.5273 65.6016C63.5273 66.7031 63.1484 67.5859 62.3906 68.25C61.6328 68.9062 60.6172 69.2344 59.3438 69.2344C58.0234 69.2344 56.9531 68.8555 56.1328 68.0977C55.3125 67.3398 54.9023 66.3789 54.9023 65.2148H56.9883C57.0117 65.918 57.2266 66.4688 57.6328 66.8672C58.0391 67.2656 58.6094 67.4648 59.3438 67.4648C60.0312 67.4648 60.5547 67.3125 60.9141 67.0078C61.2734 66.6953 61.4531 66.2773 61.4531 65.7539ZM80.9062 63.2695C80.9062 65.2773 80.543 66.7734 79.8164 67.7578C79.0977 68.7422 78.0781 69.2344 76.7578 69.2344C75.4844 69.2344 74.5039 68.7539 73.8164 67.793V73.875H71.7539V56.3203H73.6289L73.7344 57.7266C74.4297 56.6328 75.4258 56.0859 76.7227 56.0859C78.1133 56.0859 79.1523 56.5703 79.8398 57.5391C80.5273 58.5078 80.8828 59.957 80.9062 61.8867V63.2695ZM78.8438 62.0859C78.8438 60.6641 78.625 59.6172 78.1875 58.9453C77.75 58.2656 77.0469 57.9258 76.0781 57.9258C75.0859 57.9258 74.332 58.4219 73.8164 59.4141V66.0117C74.3242 66.9805 75.0859 67.4648 76.1016 67.4648C77.0391 67.4648 77.7266 67.1289 78.1641 66.457C78.6094 65.7773 78.8359 64.7422 78.8438 63.3516V62.0859ZM83.1445 62.0742C83.1445 60.2305 83.5898 58.7734 84.4805 57.7031C85.3789 56.625 86.5625 56.0859 88.0312 56.0859C89.5 56.0859 90.6797 56.6094 91.5703 57.6562C92.4688 58.7031 92.9297 60.1289 92.9531 61.9336V63.2695C92.9531 65.1055 92.5078 66.5586 91.6172 67.6289C90.7266 68.6992 89.5391 69.2344 88.0547 69.2344C86.5859 69.2344 85.4062 68.7148 84.5156 67.6758C83.6328 66.6367 83.1758 65.2305 83.1445 63.457V62.0742ZM85.2188 63.2695C85.2188 64.5742 85.4727 65.6016 85.9805 66.3516C86.4961 67.0938 87.1875 67.4648 88.0547 67.4648C89.8828 67.4648 90.8242 66.1445 90.8789 63.5039V62.0742C90.8789 60.7773 90.6211 59.7539 90.1055 59.0039C89.5898 58.2461 88.8984 57.8672 88.0312 57.8672C87.1797 57.8672 86.4961 58.2461 85.9805 59.0039C85.4727 59.7539 85.2188 60.7734 85.2188 62.0625V63.2695ZM95.1914 62.0859C95.1914 60.1328 95.5547 58.6445 96.2812 57.6211C97.0156 56.5977 98.0664 56.0859 99.4336 56.0859C100.645 56.0859 101.59 56.5781 102.27 57.5625V51H104.344V69H102.445L102.34 67.6406C101.66 68.7031 100.688 69.2344 99.4219 69.2344C98.1094 69.2344 97.0781 68.7266 96.3281 67.7109C95.5859 66.6875 95.207 65.2461 95.1914 63.3867V62.0859ZM97.2656 63.2695C97.2656 64.6914 97.4766 65.7383 97.8984 66.4102C98.3203 67.0742 99.0078 67.4062 99.9609 67.4062C100.992 67.4062 101.762 66.8867 102.27 65.8477V59.4492C101.738 58.4336 100.973 57.9258 99.9727 57.9258C99.0195 57.9258 98.332 58.2617 97.9102 58.9336C97.4883 59.5977 97.2734 60.6211 97.2656 62.0039V63.2695ZM112.066 69.2344C110.488 69.2344 109.277 68.7656 108.434 67.8281C107.59 66.8828 107.16 65.5 107.145 63.6797V62.1445C107.145 60.2539 107.555 58.7734 108.375 57.7031C109.203 56.625 110.355 56.0859 111.832 56.0859C113.316 56.0859 114.426 56.5586 115.16 57.5039C115.895 58.4492 116.27 59.9219 116.285 61.9219V63.2812H109.207V63.5742C109.207 64.9336 109.461 65.9219 109.969 66.5391C110.484 67.1562 111.223 67.4648 112.184 67.4648C112.793 67.4648 113.328 67.3516 113.789 67.125C114.258 66.8906 114.695 66.5234 115.102 66.0234L116.18 67.3359C115.281 68.6016 113.91 69.2344 112.066 69.2344ZM111.832 57.8672C110.973 57.8672 110.336 58.1641 109.922 58.7578C109.508 59.3438 109.273 60.2578 109.219 61.5H114.211V61.2188C114.156 60.0156 113.938 59.1562 113.555 58.6406C113.18 58.125 112.605 57.8672 111.832 57.8672ZM120.738 56.3203L120.785 57.4922C121.559 56.5547 122.578 56.0859 123.844 56.0859C125.258 56.0859 126.246 56.6992 126.809 57.9258C127.605 56.6992 128.715 56.0859 130.137 56.0859C132.473 56.0859 133.668 57.543 133.723 60.457V69H131.66V60.6562C131.66 59.7344 131.496 59.0508 131.168 58.6055C130.84 58.1523 130.285 57.9258 129.504 57.9258C128.879 57.9258 128.371 58.168 127.98 58.6523C127.59 59.1367 127.363 59.7539 127.301 60.5039V69H125.215V60.5625C125.191 58.8047 124.477 57.9258 123.07 57.9258C122.023 57.9258 121.285 58.4492 120.855 59.4961V69H118.793V56.3203H120.738ZM136.418 62.0742C136.418 60.2305 136.863 58.7734 137.754 57.7031C138.652 56.625 139.836 56.0859 141.305 56.0859C142.773 56.0859 143.953 56.6094 144.844 57.6562C145.742 58.7031 146.203 60.1289 146.227 61.9336V63.2695C146.227 65.1055 145.781 66.5586 144.891 67.6289C144 68.6992 142.812 69.2344 141.328 69.2344C139.859 69.2344 138.68 68.7148 137.789 67.6758C136.906 66.6367 136.449 65.2305 136.418 63.457V62.0742ZM138.492 63.2695C138.492 64.5742 138.746 65.6016 139.254 66.3516C139.77 67.0938 140.461 67.4648 141.328 67.4648C143.156 67.4648 144.098 66.1445 144.152 63.5039V62.0742C144.152 60.7773 143.895 59.7539 143.379 59.0039C142.863 58.2461 142.172 57.8672 141.305 57.8672C140.453 57.8672 139.77 58.2461 139.254 59.0039C138.746 59.7539 138.492 60.7734 138.492 62.0625V63.2695ZM155.062 65.7539C155.062 65.3086 154.895 64.9258 154.559 64.6055C154.223 64.2852 153.574 63.9102 152.613 63.4805C151.496 63.0195 150.707 62.625 150.246 62.2969C149.793 61.9688 149.453 61.5977 149.227 61.1836C149 60.7617 148.887 60.2617 148.887 59.6836C148.887 58.6523 149.262 57.7969 150.012 57.1172C150.77 56.4297 151.734 56.0859 152.906 56.0859C154.141 56.0859 155.133 56.4453 155.883 57.1641C156.633 57.8828 157.008 58.8047 157.008 59.9297H154.945C154.945 59.3594 154.754 58.875 154.371 58.4766C153.988 58.0703 153.5 57.8672 152.906 57.8672C152.297 57.8672 151.816 58.0273 151.465 58.3477C151.121 58.6602 150.949 59.082 150.949 59.6133C150.949 60.0352 151.074 60.375 151.324 60.6328C151.582 60.8906 152.195 61.2305 153.164 61.6523C154.703 62.2539 155.75 62.8438 156.305 63.4219C156.859 63.9922 157.137 64.7188 157.137 65.6016C157.137 66.7031 156.758 67.5859 156 68.25C155.242 68.9062 154.227 69.2344 152.953 69.2344C151.633 69.2344 150.562 68.8555 149.742 68.0977C148.922 67.3398 148.512 66.3789 148.512 65.2148H150.598C150.621 65.918 150.836 66.4688 151.242 66.8672C151.648 67.2656 152.219 67.4648 152.953 67.4648C153.641 67.4648 154.164 67.3125 154.523 67.0078C154.883 66.6953 155.062 66.2773 155.062 65.7539ZM169.758 67.4648C170.445 67.4648 170.996 67.2539 171.41 66.832C171.824 66.4023 172.051 65.793 172.09 65.0039H174.047C174 66.2227 173.566 67.2344 172.746 68.0391C171.934 68.8359 170.938 69.2344 169.758 69.2344C168.188 69.2344 166.988 68.7422 166.16 67.7578C165.34 66.7656 164.93 65.293 164.93 63.3398V61.9453C164.93 60.0312 165.34 58.5781 166.16 57.5859C166.98 56.5859 168.176 56.0859 169.746 56.0859C171.043 56.0859 172.07 56.4961 172.828 57.3164C173.594 58.1367 174 59.2578 174.047 60.6797H172.09C172.043 59.7422 171.816 59.0391 171.41 58.5703C171.012 58.1016 170.457 57.8672 169.746 57.8672C168.824 57.8672 168.141 58.1719 167.695 58.7812C167.25 59.3828 167.02 60.375 167.004 61.7578V63.375C167.004 64.8672 167.223 65.9219 167.66 66.5391C168.105 67.1562 168.805 67.4648 169.758 67.4648ZM181.676 58.2656C181.387 58.2109 181.074 58.1836 180.738 58.1836C179.676 58.1836 178.934 58.7656 178.512 59.9297V69H176.438V56.3203H178.453L178.488 57.6094C179.043 56.5938 179.828 56.0859 180.844 56.0859C181.172 56.0859 181.445 56.1406 181.664 56.25L181.676 58.2656ZM188.051 69.2344C186.473 69.2344 185.262 68.7656 184.418 67.8281C183.574 66.8828 183.145 65.5 183.129 63.6797V62.1445C183.129 60.2539 183.539 58.7734 184.359 57.7031C185.188 56.625 186.34 56.0859 187.816 56.0859C189.301 56.0859 190.41 56.5586 191.145 57.5039C191.879 58.4492 192.254 59.9219 192.27 61.9219V63.2812H185.191V63.5742C185.191 64.9336 185.445 65.9219 185.953 66.5391C186.469 67.1562 187.207 67.4648 188.168 67.4648C188.777 67.4648 189.312 67.3516 189.773 67.125C190.242 66.8906 190.68 66.5234 191.086 66.0234L192.164 67.3359C191.266 68.6016 189.895 69.2344 188.051 69.2344ZM187.816 57.8672C186.957 57.8672 186.32 58.1641 185.906 58.7578C185.492 59.3438 185.258 60.2578 185.203 61.5H190.195V61.2188C190.141 60.0156 189.922 59.1562 189.539 58.6406C189.164 58.125 188.59 57.8672 187.816 57.8672ZM201.293 69C201.168 68.7266 201.078 68.2656 201.023 67.6172C200.289 68.6953 199.352 69.2344 198.211 69.2344C197.062 69.2344 196.164 68.9141 195.516 68.2734C194.875 67.625 194.555 66.7148 194.555 65.543C194.555 64.2539 194.992 63.2305 195.867 62.4727C196.742 61.7148 197.941 61.3281 199.465 61.3125H200.988V59.9648C200.988 59.207 200.82 58.668 200.484 58.3477C200.148 58.0273 199.637 57.8672 198.949 57.8672C198.324 57.8672 197.816 58.0547 197.426 58.4297C197.035 58.7969 196.84 59.2656 196.84 59.8359H194.766C194.766 59.1875 194.957 58.5703 195.34 57.9844C195.723 57.3906 196.238 56.9258 196.887 56.5898C197.535 56.2539 198.258 56.0859 199.055 56.0859C200.352 56.0859 201.336 56.4102 202.008 57.0586C202.688 57.6992 203.035 58.6367 203.051 59.8711V66.2695C203.059 67.2461 203.191 68.0938 203.449 68.8125V69H201.293ZM198.527 67.3477C199.035 67.3477 199.52 67.207 199.98 66.9258C200.441 66.6445 200.777 66.293 200.988 65.8711V62.8477H199.816C198.832 62.8633 198.055 63.0859 197.484 63.5156C196.914 63.9375 196.629 64.5312 196.629 65.2969C196.629 66.0156 196.773 66.5391 197.062 66.8672C197.352 67.1875 197.84 67.3477 198.527 67.3477ZM211.512 58.2656C211.223 58.2109 210.91 58.1836 210.574 58.1836C209.512 58.1836 208.77 58.7656 208.348 59.9297V69H206.273V56.3203H208.289L208.324 57.6094C208.879 56.5938 209.664 56.0859 210.68 56.0859C211.008 56.0859 211.281 56.1406 211.5 56.25L211.512 58.2656ZM223.5 67.4648C224.188 67.4648 224.738 67.2539 225.152 66.832C225.566 66.4023 225.793 65.793 225.832 65.0039H227.789C227.742 66.2227 227.309 67.2344 226.488 68.0391C225.676 68.8359 224.68 69.2344 223.5 69.2344C221.93 69.2344 220.73 68.7422 219.902 67.7578C219.082 66.7656 218.672 65.293 218.672 63.3398V61.9453C218.672 60.0312 219.082 58.5781 219.902 57.5859C220.723 56.5859 221.918 56.0859 223.488 56.0859C224.785 56.0859 225.812 56.4961 226.57 57.3164C227.336 58.1367 227.742 59.2578 227.789 60.6797H225.832C225.785 59.7422 225.559 59.0391 225.152 58.5703C224.754 58.1016 224.199 57.8672 223.488 57.8672C222.566 57.8672 221.883 58.1719 221.438 58.7812C220.992 59.3828 220.762 60.375 220.746 61.7578V63.375C220.746 64.8672 220.965 65.9219 221.402 66.5391C221.848 67.1562 222.547 67.4648 223.5 67.4648ZM229.746 62.0742C229.746 60.2305 230.191 58.7734 231.082 57.7031C231.98 56.625 233.164 56.0859 234.633 56.0859C236.102 56.0859 237.281 56.6094 238.172 57.6562C239.07 58.7031 239.531 60.1289 239.555 61.9336V63.2695C239.555 65.1055 239.109 66.5586 238.219 67.6289C237.328 68.6992 236.141 69.2344 234.656 69.2344C233.188 69.2344 232.008 68.7148 231.117 67.6758C230.234 66.6367 229.777 65.2305 229.746 63.457V62.0742ZM231.82 63.2695C231.82 64.5742 232.074 65.6016 232.582 66.3516C233.098 67.0938 233.789 67.4648 234.656 67.4648C236.484 67.4648 237.426 66.1445 237.48 63.5039V62.0742C237.48 60.7773 237.223 59.7539 236.707 59.0039C236.191 58.2461 235.5 57.8672 234.633 57.8672C233.781 57.8672 233.098 58.2461 232.582 59.0039C232.074 59.7539 231.82 60.7734 231.82 62.0625V63.2695ZM244.184 56.3203L244.242 57.6914C245.047 56.6211 246.074 56.0859 247.324 56.0859C249.566 56.0859 250.703 57.582 250.734 60.5742V69H248.672V60.668C248.672 59.6758 248.504 58.9727 248.168 58.5586C247.84 58.1367 247.344 57.9258 246.68 57.9258C246.164 57.9258 245.699 58.0977 245.285 58.4414C244.879 58.7852 244.551 59.2344 244.301 59.7891V69H242.227V56.3203H244.184ZM258.258 67.4648C258.945 67.4648 259.496 67.2539 259.91 66.832C260.324 66.4023 260.551 65.793 260.59 65.0039H262.547C262.5 66.2227 262.066 67.2344 261.246 68.0391C260.434 68.8359 259.438 69.2344 258.258 69.2344C256.688 69.2344 255.488 68.7422 254.66 67.7578C253.84 66.7656 253.43 65.293 253.43 63.3398V61.9453C253.43 60.0312 253.84 58.5781 254.66 57.5859C255.48 56.5859 256.676 56.0859 258.246 56.0859C259.543 56.0859 260.57 56.4961 261.328 57.3164C262.094 58.1367 262.5 59.2578 262.547 60.6797H260.59C260.543 59.7422 260.316 59.0391 259.91 58.5703C259.512 58.1016 258.957 57.8672 258.246 57.8672C257.324 57.8672 256.641 58.1719 256.195 58.7812C255.75 59.3828 255.52 60.375 255.504 61.7578V63.375C255.504 64.8672 255.723 65.9219 256.16 66.5391C256.605 67.1562 257.305 67.4648 258.258 67.4648ZM267.176 69H265.102V56.3203H267.176V69ZM267.34 52.957C267.34 53.3086 267.242 53.6016 267.047 53.8359C266.852 54.0703 266.555 54.1875 266.156 54.1875C265.766 54.1875 265.473 54.0703 265.277 53.8359C265.082 53.6016 264.984 53.3086 264.984 52.957C264.984 52.6055 265.082 52.3086 265.277 52.0664C265.473 51.8242 265.766 51.7031 266.156 51.7031C266.547 51.7031 266.84 51.8281 267.035 52.0781C267.238 52.3203 267.34 52.6133 267.34 52.957ZM274.98 69.2344C273.402 69.2344 272.191 68.7656 271.348 67.8281C270.504 66.8828 270.074 65.5 270.059 63.6797V62.1445C270.059 60.2539 270.469 58.7734 271.289 57.7031C272.117 56.625 273.27 56.0859 274.746 56.0859C276.23 56.0859 277.34 56.5586 278.074 57.5039C278.809 58.4492 279.184 59.9219 279.199 61.9219V63.2812H272.121V63.5742C272.121 64.9336 272.375 65.9219 272.883 66.5391C273.398 67.1562 274.137 67.4648 275.098 67.4648C275.707 67.4648 276.242 67.3516 276.703 67.125C277.172 66.8906 277.609 66.5234 278.016 66.0234L279.094 67.3359C278.195 68.6016 276.824 69.2344 274.98 69.2344ZM274.746 57.8672C273.887 57.8672 273.25 58.1641 272.836 58.7578C272.422 59.3438 272.188 60.2578 272.133 61.5H277.125V61.2188C277.07 60.0156 276.852 59.1562 276.469 58.6406C276.094 58.125 275.52 57.8672 274.746 57.8672ZM283.652 56.3203L283.711 57.6914C284.516 56.6211 285.543 56.0859 286.793 56.0859C289.035 56.0859 290.172 57.582 290.203 60.5742V69H288.141V60.668C288.141 59.6758 287.973 58.9727 287.637 58.5586C287.309 58.1367 286.812 57.9258 286.148 57.9258C285.633 57.9258 285.168 58.0977 284.754 58.4414C284.348 58.7852 284.02 59.2344 283.77 59.7891V69H281.695V56.3203H283.652ZM297.727 67.4648C298.414 67.4648 298.965 67.2539 299.379 66.832C299.793 66.4023 300.02 65.793 300.059 65.0039H302.016C301.969 66.2227 301.535 67.2344 300.715 68.0391C299.902 68.8359 298.906 69.2344 297.727 69.2344C296.156 69.2344 294.957 68.7422 294.129 67.7578C293.309 66.7656 292.898 65.293 292.898 63.3398V61.9453C292.898 60.0312 293.309 58.5781 294.129 57.5859C294.949 56.5859 296.145 56.0859 297.715 56.0859C299.012 56.0859 300.039 56.4961 300.797 57.3164C301.562 58.1367 301.969 59.2578 302.016 60.6797H300.059C300.012 59.7422 299.785 59.0391 299.379 58.5703C298.98 58.1016 298.426 57.8672 297.715 57.8672C296.793 57.8672 296.109 58.1719 295.664 58.7812C295.219 59.3828 294.988 60.375 294.973 61.7578V63.375C294.973 64.8672 295.191 65.9219 295.629 66.5391C296.074 67.1562 296.773 67.4648 297.727 67.4648ZM306.645 69H304.57V56.3203H306.645V69ZM306.809 52.957C306.809 53.3086 306.711 53.6016 306.516 53.8359C306.32 54.0703 306.023 54.1875 305.625 54.1875C305.234 54.1875 304.941 54.0703 304.746 53.8359C304.551 53.6016 304.453 53.3086 304.453 52.957C304.453 52.6055 304.551 52.3086 304.746 52.0664C304.941 51.8242 305.234 51.7031 305.625 51.7031C306.016 51.7031 306.309 51.8281 306.504 52.0781C306.707 52.3203 306.809 52.6133 306.809 52.957ZM316.441 69C316.316 68.7266 316.227 68.2656 316.172 67.6172C315.438 68.6953 314.5 69.2344 313.359 69.2344C312.211 69.2344 311.312 68.9141 310.664 68.2734C310.023 67.625 309.703 66.7148 309.703 65.543C309.703 64.2539 310.141 63.2305 311.016 62.4727C311.891 61.7148 313.09 61.3281 314.613 61.3125H316.137V59.9648C316.137 59.207 315.969 58.668 315.633 58.3477C315.297 58.0273 314.785 57.8672 314.098 57.8672C313.473 57.8672 312.965 58.0547 312.574 58.4297C312.184 58.7969 311.988 59.2656 311.988 59.8359H309.914C309.914 59.1875 310.105 58.5703 310.488 57.9844C310.871 57.3906 311.387 56.9258 312.035 56.5898C312.684 56.2539 313.406 56.0859 314.203 56.0859C315.5 56.0859 316.484 56.4102 317.156 57.0586C317.836 57.6992 318.184 58.6367 318.199 59.8711V66.2695C318.207 67.2461 318.34 68.0938 318.598 68.8125V69H316.441ZM313.676 67.3477C314.184 67.3477 314.668 67.207 315.129 66.9258C315.59 66.6445 315.926 66.293 316.137 65.8711V62.8477H314.965C313.98 62.8633 313.203 63.0859 312.633 63.5156C312.062 63.9375 311.777 64.5312 311.777 65.2969C311.777 66.0156 311.922 66.5391 312.211 66.8672C312.5 67.1875 312.988 67.3477 313.676 67.3477ZM333.094 65.7539C333.094 65.3086 332.926 64.9258 332.59 64.6055C332.254 64.2852 331.605 63.9102 330.645 63.4805C329.527 63.0195 328.738 62.625 328.277 62.2969C327.824 61.9688 327.484 61.5977 327.258 61.1836C327.031 60.7617 326.918 60.2617 326.918 59.6836C326.918 58.6523 327.293 57.7969 328.043 57.1172C328.801 56.4297 329.766 56.0859 330.938 56.0859C332.172 56.0859 333.164 56.4453 333.914 57.1641C334.664 57.8828 335.039 58.8047 335.039 59.9297H332.977C332.977 59.3594 332.785 58.875 332.402 58.4766C332.02 58.0703 331.531 57.8672 330.938 57.8672C330.328 57.8672 329.848 58.0273 329.496 58.3477C329.152 58.6602 328.98 59.082 328.98 59.6133C328.98 60.0352 329.105 60.375 329.355 60.6328C329.613 60.8906 330.227 61.2305 331.195 61.6523C332.734 62.2539 333.781 62.8438 334.336 63.4219C334.891 63.9922 335.168 64.7188 335.168 65.6016C335.168 66.7031 334.789 67.5859 334.031 68.25C333.273 68.9062 332.258 69.2344 330.984 69.2344C329.664 69.2344 328.594 68.8555 327.773 68.0977C326.953 67.3398 326.543 66.3789 326.543 65.2148H328.629C328.652 65.918 328.867 66.4688 329.273 66.8672C329.68 67.2656 330.25 67.4648 330.984 67.4648C331.672 67.4648 332.195 67.3125 332.555 67.0078C332.914 66.6953 333.094 66.2773 333.094 65.7539ZM337.441 62.0742C337.441 60.2305 337.887 58.7734 338.777 57.7031C339.676 56.625 340.859 56.0859 342.328 56.0859C343.797 56.0859 344.977 56.6094 345.867 57.6562C346.766 58.7031 347.227 60.1289 347.25 61.9336V63.2695C347.25 65.1055 346.805 66.5586 345.914 67.6289C345.023 68.6992 343.836 69.2344 342.352 69.2344C340.883 69.2344 339.703 68.7148 338.812 67.6758C337.93 66.6367 337.473 65.2305 337.441 63.457V62.0742ZM339.516 63.2695C339.516 64.5742 339.77 65.6016 340.277 66.3516C340.793 67.0938 341.484 67.4648 342.352 67.4648C344.18 67.4648 345.121 66.1445 345.176 63.5039V62.0742C345.176 60.7773 344.918 59.7539 344.402 59.0039C343.887 58.2461 343.195 57.8672 342.328 57.8672C341.477 57.8672 340.793 58.2461 340.277 59.0039C339.77 59.7539 339.516 60.7734 339.516 62.0625V63.2695ZM359.109 63.2695C359.109 65.2461 358.754 66.7344 358.043 67.7344C357.332 68.7344 356.301 69.2344 354.949 69.2344C353.605 69.2344 352.598 68.6562 351.926 67.5L351.82 69H349.934V51H351.996V57.7148C352.676 56.6289 353.652 56.0859 354.926 56.0859C356.316 56.0859 357.359 56.5781 358.055 57.5625C358.75 58.5469 359.102 60.0312 359.109 62.0156V63.2695ZM357.047 62.0859C357.047 60.5859 356.836 59.5195 356.414 58.8867C356 58.2461 355.324 57.9258 354.387 57.9258C353.316 57.9258 352.52 58.5039 351.996 59.6602V65.6953C352.512 66.8359 353.316 67.4062 354.41 67.4062C355.348 67.4062 356.02 67.0781 356.426 66.4219C356.832 65.7656 357.039 64.7461 357.047 63.3633V62.0859ZM366.996 58.2656C366.707 58.2109 366.395 58.1836 366.059 58.1836C364.996 58.1836 364.254 58.7656 363.832 59.9297V69H361.758V56.3203H363.773L363.809 57.6094C364.363 56.5938 365.148 56.0859 366.164 56.0859C366.492 56.0859 366.766 56.1406 366.984 56.25L366.996 58.2656ZM373.371 69.2344C371.793 69.2344 370.582 68.7656 369.738 67.8281C368.895 66.8828 368.465 65.5 368.449 63.6797V62.1445C368.449 60.2539 368.859 58.7734 369.68 57.7031C370.508 56.625 371.66 56.0859 373.137 56.0859C374.621 56.0859 375.73 56.5586 376.465 57.5039C377.199 58.4492 377.574 59.9219 377.59 61.9219V63.2812H370.512V63.5742C370.512 64.9336 370.766 65.9219 371.273 66.5391C371.789 67.1562 372.527 67.4648 373.488 67.4648C374.098 67.4648 374.633 67.3516 375.094 67.125C375.562 66.8906 376 66.5234 376.406 66.0234L377.484 67.3359C376.586 68.6016 375.215 69.2344 373.371 69.2344ZM373.137 57.8672C372.277 57.8672 371.641 58.1641 371.227 58.7578C370.812 59.3438 370.578 60.2578 370.523 61.5H375.516V61.2188C375.461 60.0156 375.242 59.1562 374.859 58.6406C374.484 58.125 373.91 57.8672 373.137 57.8672ZM387.832 69H385.758V51H387.832V69ZM397.629 69C397.504 68.7266 397.414 68.2656 397.359 67.6172C396.625 68.6953 395.688 69.2344 394.547 69.2344C393.398 69.2344 392.5 68.9141 391.852 68.2734C391.211 67.625 390.891 66.7148 390.891 65.543C390.891 64.2539 391.328 63.2305 392.203 62.4727C393.078 61.7148 394.277 61.3281 395.801 61.3125H397.324V59.9648C397.324 59.207 397.156 58.668 396.82 58.3477C396.484 58.0273 395.973 57.8672 395.285 57.8672C394.66 57.8672 394.152 58.0547 393.762 58.4297C393.371 58.7969 393.176 59.2656 393.176 59.8359H391.102C391.102 59.1875 391.293 58.5703 391.676 57.9844C392.059 57.3906 392.574 56.9258 393.223 56.5898C393.871 56.2539 394.594 56.0859 395.391 56.0859C396.688 56.0859 397.672 56.4102 398.344 57.0586C399.023 57.6992 399.371 58.6367 399.387 59.8711V66.2695C399.395 67.2461 399.527 68.0938 399.785 68.8125V69H397.629ZM394.863 67.3477C395.371 67.3477 395.855 67.207 396.316 66.9258C396.777 66.6445 397.113 66.293 397.324 65.8711V62.8477H396.152C395.168 62.8633 394.391 63.0859 393.82 63.5156C393.25 63.9375 392.965 64.5312 392.965 65.2969C392.965 66.0156 393.109 66.5391 393.398 66.8672C393.688 67.1875 394.176 67.3477 394.863 67.3477ZM5.95312 95.4648C6.64062 95.4648 7.19141 95.2539 7.60547 94.832C8.01953 94.4023 8.24609 93.793 8.28516 93.0039H10.2422C10.1953 94.2227 9.76172 95.2344 8.94141 96.0391C8.12891 96.8359 7.13281 97.2344 5.95312 97.2344C4.38281 97.2344 3.18359 96.7422 2.35547 95.7578C1.53516 94.7656 1.125 93.293 1.125 91.3398V89.9453C1.125 88.0312 1.53516 86.5781 2.35547 85.5859C3.17578 84.5859 4.37109 84.0859 5.94141 84.0859C7.23828 84.0859 8.26562 84.4961 9.02344 85.3164C9.78906 86.1367 10.1953 87.2578 10.2422 88.6797H8.28516C8.23828 87.7422 8.01172 87.0391 7.60547 86.5703C7.20703 86.1016 6.65234 85.8672 5.94141 85.8672C5.01953 85.8672 4.33594 86.1719 3.89062 86.7812C3.44531 87.3828 3.21484 88.375 3.19922 89.7578V91.375C3.19922 92.8672 3.41797 93.9219 3.85547 94.5391C4.30078 95.1562 5 95.4648 5.95312 95.4648ZM12.1992 90.0742C12.1992 88.2305 12.6445 86.7734 13.5352 85.7031C14.4336 84.625 15.6172 84.0859 17.0859 84.0859C18.5547 84.0859 19.7344 84.6094 20.625 85.6562C21.5234 86.7031 21.9844 88.1289 22.0078 89.9336V91.2695C22.0078 93.1055 21.5625 94.5586 20.6719 95.6289C19.7812 96.6992 18.5938 97.2344 17.1094 97.2344C15.6406 97.2344 14.4609 96.7148 13.5703 95.6758C12.6875 94.6367 12.2305 93.2305 12.1992 91.457V90.0742ZM14.2734 91.2695C14.2734 92.5742 14.5273 93.6016 15.0352 94.3516C15.5508 95.0938 16.2422 95.4648 17.1094 95.4648C18.9375 95.4648 19.8789 94.1445 19.9336 91.5039V90.0742C19.9336 88.7773 19.6758 87.7539 19.1602 87.0039C18.6445 86.2461 17.9531 85.8672 17.0859 85.8672C16.2344 85.8672 15.5508 86.2461 15.0352 87.0039C14.5273 87.7539 14.2734 88.7734 14.2734 90.0625V91.2695ZM26.6367 84.3203L26.6953 85.6914C27.5 84.6211 28.5273 84.0859 29.7773 84.0859C32.0195 84.0859 33.1562 85.582 33.1875 88.5742V97H31.125V88.668C31.125 87.6758 30.957 86.9727 30.6211 86.5586C30.293 86.1367 29.7969 85.9258 29.1328 85.9258C28.6172 85.9258 28.1523 86.0977 27.7383 86.4414C27.332 86.7852 27.0039 87.2344 26.7539 87.7891V97H24.6797V84.3203H26.6367ZM39.0234 81.25V84.3203H40.9336V85.9961H39.0234V93.8594C39.0234 94.3594 39.1055 94.7383 39.2695 94.9961C39.4336 95.2539 39.7148 95.3828 40.1133 95.3828C40.3867 95.3828 40.6641 95.3359 40.9453 95.2422L40.9219 97C40.4531 97.1562 39.9727 97.2344 39.4805 97.2344C38.6602 97.2344 38.0352 96.9414 37.6055 96.3555C37.1758 95.7695 36.9609 94.9414 36.9609 93.8711V85.9961H35.0273V84.3203H36.9609V81.25H39.0234ZM49.9336 97C49.8086 96.7266 49.7188 96.2656 49.6641 95.6172C48.9297 96.6953 47.9922 97.2344 46.8516 97.2344C45.7031 97.2344 44.8047 96.9141 44.1562 96.2734C43.5156 95.625 43.1953 94.7148 43.1953 93.543C43.1953 92.2539 43.6328 91.2305 44.5078 90.4727C45.3828 89.7148 46.582 89.3281 48.1055 89.3125H49.6289V87.9648C49.6289 87.207 49.4609 86.668 49.125 86.3477C48.7891 86.0273 48.2773 85.8672 47.5898 85.8672C46.9648 85.8672 46.457 86.0547 46.0664 86.4297C45.6758 86.7969 45.4805 87.2656 45.4805 87.8359H43.4062C43.4062 87.1875 43.5977 86.5703 43.9805 85.9844C44.3633 85.3906 44.8789 84.9258 45.5273 84.5898C46.1758 84.2539 46.8984 84.0859 47.6953 84.0859C48.9922 84.0859 49.9766 84.4102 50.6484 85.0586C51.3281 85.6992 51.6758 86.6367 51.6914 87.8711V94.2695C51.6992 95.2461 51.832 96.0938 52.0898 96.8125V97H49.9336ZM47.168 95.3477C47.6758 95.3477 48.1602 95.207 48.6211 94.9258C49.082 94.6445 49.418 94.293 49.6289 93.8711V90.8477H48.457C47.4727 90.8633 46.6953 91.0859 46.125 91.5156C45.5547 91.9375 45.2695 92.5312 45.2695 93.2969C45.2695 94.0156 45.4141 94.5391 45.7031 94.8672C45.9922 95.1875 46.4805 95.3477 47.168 95.3477ZM56.8711 84.3203L56.918 85.4922C57.6914 84.5547 58.7109 84.0859 59.9766 84.0859C61.3906 84.0859 62.3789 84.6992 62.9414 85.9258C63.7383 84.6992 64.8477 84.0859 66.2695 84.0859C68.6055 84.0859 69.8008 85.543 69.8555 88.457V97H67.793V88.6562C67.793 87.7344 67.6289 87.0508 67.3008 86.6055C66.9727 86.1523 66.418 85.9258 65.6367 85.9258C65.0117 85.9258 64.5039 86.168 64.1133 86.6523C63.7227 87.1367 63.4961 87.7539 63.4336 88.5039V97H61.3477V88.5625C61.3242 86.8047 60.6094 85.9258 59.2031 85.9258C58.1562 85.9258 57.418 86.4492 56.9883 87.4961V97H54.9258V84.3203H56.8711ZM75.2227 97H73.1484V84.3203H75.2227V97ZM75.3867 80.957C75.3867 81.3086 75.2891 81.6016 75.0938 81.8359C74.8984 82.0703 74.6016 82.1875 74.2031 82.1875C73.8125 82.1875 73.5195 82.0703 73.3242 81.8359C73.1289 81.6016 73.0312 81.3086 73.0312 80.957C73.0312 80.6055 73.1289 80.3086 73.3242 80.0664C73.5195 79.8242 73.8125 79.7031 74.2031 79.7031C74.5938 79.7031 74.8867 79.8281 75.082 80.0781C75.2852 80.3203 75.3867 80.6133 75.3867 80.957ZM80.4492 84.3203L80.5078 85.6914C81.3125 84.6211 82.3398 84.0859 83.5898 84.0859C85.832 84.0859 86.9688 85.582 87 88.5742V97H84.9375V88.668C84.9375 87.6758 84.7695 86.9727 84.4336 86.5586C84.1055 86.1367 83.6094 85.9258 82.9453 85.9258C82.4297 85.9258 81.9648 86.0977 81.5508 86.4414C81.1445 86.7852 80.8164 87.2344 80.5664 87.7891V97H78.4922V84.3203H80.4492ZM96.6445 97C96.5195 96.7266 96.4297 96.2656 96.375 95.6172C95.6406 96.6953 94.7031 97.2344 93.5625 97.2344C92.4141 97.2344 91.5156 96.9141 90.8672 96.2734C90.2266 95.625 89.9062 94.7148 89.9062 93.543C89.9062 92.2539 90.3438 91.2305 91.2188 90.4727C92.0938 89.7148 93.293 89.3281 94.8164 89.3125H96.3398V87.9648C96.3398 87.207 96.1719 86.668 95.8359 86.3477C95.5 86.0273 94.9883 85.8672 94.3008 85.8672C93.6758 85.8672 93.168 86.0547 92.7773 86.4297C92.3867 86.7969 92.1914 87.2656 92.1914 87.8359H90.1172C90.1172 87.1875 90.3086 86.5703 90.6914 85.9844C91.0742 85.3906 91.5898 84.9258 92.2383 84.5898C92.8867 84.2539 93.6094 84.0859 94.4062 84.0859C95.7031 84.0859 96.6875 84.4102 97.3594 85.0586C98.0391 85.6992 98.3867 86.6367 98.4023 87.8711V94.2695C98.4102 95.2461 98.543 96.0938 98.8008 96.8125V97H96.6445ZM93.8789 95.3477C94.3867 95.3477 94.8711 95.207 95.332 94.9258C95.793 94.6445 96.1289 94.293 96.3398 93.8711V90.8477H95.168C94.1836 90.8633 93.4062 91.0859 92.8359 91.5156C92.2656 91.9375 91.9805 92.5312 91.9805 93.2969C91.9805 94.0156 92.125 94.5391 92.4141 94.8672C92.7031 95.1875 93.1914 95.3477 93.8789 95.3477ZM106.031 95.4648C106.719 95.4648 107.27 95.2539 107.684 94.832C108.098 94.4023 108.324 93.793 108.363 93.0039H110.32C110.273 94.2227 109.84 95.2344 109.02 96.0391C108.207 96.8359 107.211 97.2344 106.031 97.2344C104.461 97.2344 103.262 96.7422 102.434 95.7578C101.613 94.7656 101.203 93.293 101.203 91.3398V89.9453C101.203 88.0312 101.613 86.5781 102.434 85.5859C103.254 84.5859 104.449 84.0859 106.02 84.0859C107.316 84.0859 108.344 84.4961 109.102 85.3164C109.867 86.1367 110.273 87.2578 110.32 88.6797H108.363C108.316 87.7422 108.09 87.0391 107.684 86.5703C107.285 86.1016 106.73 85.8672 106.02 85.8672C105.098 85.8672 104.414 86.1719 103.969 86.7812C103.523 87.3828 103.293 88.375 103.277 89.7578V91.375C103.277 92.8672 103.496 93.9219 103.934 94.5391C104.379 95.1562 105.078 95.4648 106.031 95.4648ZM114.949 97H112.875V84.3203H114.949V97ZM115.113 80.957C115.113 81.3086 115.016 81.6016 114.82 81.8359C114.625 82.0703 114.328 82.1875 113.93 82.1875C113.539 82.1875 113.246 82.0703 113.051 81.8359C112.855 81.6016 112.758 81.3086 112.758 80.957C112.758 80.6055 112.855 80.3086 113.051 80.0664C113.246 79.8242 113.539 79.7031 113.93 79.7031C114.32 79.7031 114.613 79.8281 114.809 80.0781C115.012 80.3203 115.113 80.6133 115.113 80.957ZM117.785 90.0742C117.785 88.2305 118.23 86.7734 119.121 85.7031C120.02 84.625 121.203 84.0859 122.672 84.0859C124.141 84.0859 125.32 84.6094 126.211 85.6562C127.109 86.7031 127.57 88.1289 127.594 89.9336V91.2695C127.594 93.1055 127.148 94.5586 126.258 95.6289C125.367 96.6992 124.18 97.2344 122.695 97.2344C121.227 97.2344 120.047 96.7148 119.156 95.6758C118.273 94.6367 117.816 93.2305 117.785 91.457V90.0742ZM119.859 91.2695C119.859 92.5742 120.113 93.6016 120.621 94.3516C121.137 95.0938 121.828 95.4648 122.695 95.4648C124.523 95.4648 125.465 94.1445 125.52 91.5039V90.0742C125.52 88.7773 125.262 87.7539 124.746 87.0039C124.23 86.2461 123.539 85.8672 122.672 85.8672C121.82 85.8672 121.137 86.2461 120.621 87.0039C120.113 87.7539 119.859 88.7734 119.859 90.0625V91.2695ZM123.645 79H126.27L123.129 82.4453H121.383L123.645 79ZM132.223 84.3203L132.281 85.6914C133.086 84.6211 134.113 84.0859 135.363 84.0859C137.605 84.0859 138.742 85.582 138.773 88.5742V97H136.711V88.668C136.711 87.6758 136.543 86.9727 136.207 86.5586C135.879 86.1367 135.383 85.9258 134.719 85.9258C134.203 85.9258 133.738 86.0977 133.324 86.4414C132.918 86.7852 132.59 87.2344 132.34 87.7891V97H130.266V84.3203H132.223ZM150.867 93.5547L153.176 84.3203H155.379L151.23 98.793C150.918 99.8789 150.477 100.703 149.906 101.266C149.336 101.836 148.688 102.121 147.961 102.121C147.68 102.121 147.32 102.059 146.883 101.934V100.176L147.34 100.223C147.941 100.223 148.41 100.078 148.746 99.7891C149.09 99.5078 149.367 99.0156 149.578 98.3125L149.988 96.8945L146.262 84.3203H148.523L150.867 93.5547ZM168.152 86.2656C167.863 86.2109 167.551 86.1836 167.215 86.1836C166.152 86.1836 165.41 86.7656 164.988 87.9297V97H162.914V84.3203H164.93L164.965 85.6094C165.52 84.5938 166.305 84.0859 167.32 84.0859C167.648 84.0859 167.922 84.1406 168.141 84.25L168.152 86.2656ZM174.527 97.2344C172.949 97.2344 171.738 96.7656 170.895 95.8281C170.051 94.8828 169.621 93.5 169.605 91.6797V90.1445C169.605 88.2539 170.016 86.7734 170.836 85.7031C171.664 84.625 172.816 84.0859 174.293 84.0859C175.777 84.0859 176.887 84.5586 177.621 85.5039C178.355 86.4492 178.73 87.9219 178.746 89.9219V91.2812H171.668V91.5742C171.668 92.9336 171.922 93.9219 172.43 94.5391C172.945 95.1562 173.684 95.4648 174.645 95.4648C175.254 95.4648 175.789 95.3516 176.25 95.125C176.719 94.8906 177.156 94.5234 177.562 94.0234L178.641 95.3359C177.742 96.6016 176.371 97.2344 174.527 97.2344ZM174.293 85.8672C173.434 85.8672 172.797 86.1641 172.383 86.7578C171.969 87.3438 171.734 88.2578 171.68 89.5H176.672V89.2188C176.617 88.0156 176.398 87.1562 176.016 86.6406C175.641 86.125 175.066 85.8672 174.293 85.8672ZM180.809 90.0859C180.809 88.1328 181.172 86.6445 181.898 85.6211C182.633 84.5977 183.684 84.0859 185.051 84.0859C186.262 84.0859 187.207 84.5781 187.887 85.5625V79H189.961V97H188.062L187.957 95.6406C187.277 96.7031 186.305 97.2344 185.039 97.2344C183.727 97.2344 182.695 96.7266 181.945 95.7109C181.203 94.6875 180.824 93.2461 180.809 91.3867V90.0859ZM182.883 91.2695C182.883 92.6914 183.094 93.7383 183.516 94.4102C183.938 95.0742 184.625 95.4062 185.578 95.4062C186.609 95.4062 187.379 94.8867 187.887 93.8477V87.4492C187.355 86.4336 186.59 85.9258 185.59 85.9258C184.637 85.9258 183.949 86.2617 183.527 86.9336C183.105 87.5977 182.891 88.6211 182.883 90.0039V91.2695ZM199.617 95.8867C198.93 96.7852 197.926 97.2344 196.605 97.2344C195.457 97.2344 194.59 96.8398 194.004 96.0508C193.418 95.2539 193.121 94.0977 193.113 92.582V84.3203H195.176V92.4297C195.176 94.4062 195.77 95.3945 196.957 95.3945C198.215 95.3945 199.082 94.832 199.559 93.707V84.3203H201.633V97H199.664L199.617 95.8867ZM209.156 95.4648C209.844 95.4648 210.395 95.2539 210.809 94.832C211.223 94.4023 211.449 93.793 211.488 93.0039H213.445C213.398 94.2227 212.965 95.2344 212.145 96.0391C211.332 96.8359 210.336 97.2344 209.156 97.2344C207.586 97.2344 206.387 96.7422 205.559 95.7578C204.738 94.7656 204.328 93.293 204.328 91.3398V89.9453C204.328 88.0312 204.738 86.5781 205.559 85.5859C206.379 84.5859 207.574 84.0859 209.145 84.0859C210.441 84.0859 211.469 84.4961 212.227 85.3164C212.992 86.1367 213.398 87.2578 213.445 88.6797H211.488C211.441 87.7422 211.215 87.0391 210.809 86.5703C210.41 86.1016 209.855 85.8672 209.145 85.8672C208.223 85.8672 207.539 86.1719 207.094 86.7812C206.648 87.3828 206.418 88.375 206.402 89.7578V91.375C206.402 92.8672 206.621 93.9219 207.059 94.5391C207.504 95.1562 208.203 95.4648 209.156 95.4648ZM218.074 97H216V84.3203H218.074V97ZM218.238 80.957C218.238 81.3086 218.141 81.6016 217.945 81.8359C217.75 82.0703 217.453 82.1875 217.055 82.1875C216.664 82.1875 216.371 82.0703 216.176 81.8359C215.98 81.6016 215.883 81.3086 215.883 80.957C215.883 80.6055 215.98 80.3086 216.176 80.0664C216.371 79.8242 216.664 79.7031 217.055 79.7031C217.445 79.7031 217.738 79.8281 217.934 80.0781C218.137 80.3203 218.238 80.6133 218.238 80.957ZM226.582 86.2656C226.293 86.2109 225.98 86.1836 225.645 86.1836C224.582 86.1836 223.84 86.7656 223.418 87.9297V97H221.344V84.3203H223.359L223.395 85.6094C223.949 84.5938 224.734 84.0859 225.75 84.0859C226.078 84.0859 226.352 84.1406 226.57 84.25L226.582 86.2656ZM238.699 97.2344C237.121 97.2344 235.91 96.7656 235.066 95.8281C234.223 94.8828 233.793 93.5 233.777 91.6797V90.1445C233.777 88.2539 234.188 86.7734 235.008 85.7031C235.836 84.625 236.988 84.0859 238.465 84.0859C239.949 84.0859 241.059 84.5586 241.793 85.5039C242.527 86.4492 242.902 87.9219 242.918 89.9219V91.2812H235.84V91.5742C235.84 92.9336 236.094 93.9219 236.602 94.5391C237.117 95.1562 237.855 95.4648 238.816 95.4648C239.426 95.4648 239.961 95.3516 240.422 95.125C240.891 94.8906 241.328 94.5234 241.734 94.0234L242.812 95.3359C241.914 96.6016 240.543 97.2344 238.699 97.2344ZM238.465 85.8672C237.605 85.8672 236.969 86.1641 236.555 86.7578C236.141 87.3438 235.906 88.2578 235.852 89.5H240.844V89.2188C240.789 88.0156 240.57 87.1562 240.188 86.6406C239.812 86.125 239.238 85.8672 238.465 85.8672ZM247.652 97H245.578V79H247.652V97ZM258.668 97H256.594V84.3203H258.668V97ZM258.832 80.957C258.832 81.3086 258.734 81.6016 258.539 81.8359C258.344 82.0703 258.047 82.1875 257.648 82.1875C257.258 82.1875 256.965 82.0703 256.77 81.8359C256.574 81.6016 256.477 81.3086 256.477 80.957C256.477 80.6055 256.574 80.3086 256.77 80.0664C256.965 79.8242 257.258 79.7031 257.648 79.7031C258.039 79.7031 258.332 79.8281 258.527 80.0781C258.73 80.3203 258.832 80.6133 258.832 80.957ZM263.895 84.3203L263.941 85.4922C264.715 84.5547 265.734 84.0859 267 84.0859C268.414 84.0859 269.402 84.6992 269.965 85.9258C270.762 84.6992 271.871 84.0859 273.293 84.0859C275.629 84.0859 276.824 85.543 276.879 88.457V97H274.816V88.6562C274.816 87.7344 274.652 87.0508 274.324 86.6055C273.996 86.1523 273.441 85.9258 272.66 85.9258C272.035 85.9258 271.527 86.168 271.137 86.6523C270.746 87.1367 270.52 87.7539 270.457 88.5039V97H268.371V88.5625C268.348 86.8047 267.633 85.9258 266.227 85.9258C265.18 85.9258 264.441 86.4492 264.012 87.4961V97H261.949V84.3203H263.895ZM289.172 91.2695C289.172 93.2773 288.809 94.7734 288.082 95.7578C287.363 96.7422 286.344 97.2344 285.023 97.2344C283.75 97.2344 282.77 96.7539 282.082 95.793V101.875H280.02V84.3203H281.895L282 85.7266C282.695 84.6328 283.691 84.0859 284.988 84.0859C286.379 84.0859 287.418 84.5703 288.105 85.5391C288.793 86.5078 289.148 87.957 289.172 89.8867V91.2695ZM287.109 90.0859C287.109 88.6641 286.891 87.6172 286.453 86.9453C286.016 86.2656 285.312 85.9258 284.344 85.9258C283.352 85.9258 282.598 86.4219 282.082 87.4141V94.0117C282.59 94.9805 283.352 95.4648 284.367 95.4648C285.305 95.4648 285.992 95.1289 286.43 94.457C286.875 93.7773 287.102 92.7422 287.109 91.3516V90.0859ZM298.371 97C298.246 96.7266 298.156 96.2656 298.102 95.6172C297.367 96.6953 296.43 97.2344 295.289 97.2344C294.141 97.2344 293.242 96.9141 292.594 96.2734C291.953 95.625 291.633 94.7148 291.633 93.543C291.633 92.2539 292.07 91.2305 292.945 90.4727C293.82 89.7148 295.02 89.3281 296.543 89.3125H298.066V87.9648C298.066 87.207 297.898 86.668 297.562 86.3477C297.227 86.0273 296.715 85.8672 296.027 85.8672C295.402 85.8672 294.895 86.0547 294.504 86.4297C294.113 86.7969 293.918 87.2656 293.918 87.8359H291.844C291.844 87.1875 292.035 86.5703 292.418 85.9844C292.801 85.3906 293.316 84.9258 293.965 84.5898C294.613 84.2539 295.336 84.0859 296.133 84.0859C297.43 84.0859 298.414 84.4102 299.086 85.0586C299.766 85.6992 300.113 86.6367 300.129 87.8711V94.2695C300.137 95.2461 300.27 96.0938 300.527 96.8125V97H298.371ZM295.605 95.3477C296.113 95.3477 296.598 95.207 297.059 94.9258C297.52 94.6445 297.855 94.293 298.066 93.8711V90.8477H296.895C295.91 90.8633 295.133 91.0859 294.562 91.5156C293.992 91.9375 293.707 92.5312 293.707 93.2969C293.707 94.0156 293.852 94.5391 294.141 94.8672C294.43 95.1875 294.918 95.3477 295.605 95.3477ZM307.758 95.4648C308.445 95.4648 308.996 95.2539 309.41 94.832C309.824 94.4023 310.051 93.793 310.09 93.0039H312.047C312 94.2227 311.566 95.2344 310.746 96.0391C309.934 96.8359 308.938 97.2344 307.758 97.2344C306.188 97.2344 304.988 96.7422 304.16 95.7578C303.34 94.7656 302.93 93.293 302.93 91.3398V89.9453C302.93 88.0312 303.34 86.5781 304.16 85.5859C304.98 84.5859 306.176 84.0859 307.746 84.0859C309.043 84.0859 310.07 84.4961 310.828 85.3164C311.594 86.1367 312 87.2578 312.047 88.6797H310.09C310.043 87.7422 309.816 87.0391 309.41 86.5703C309.012 86.1016 308.457 85.8672 307.746 85.8672C306.824 85.8672 306.141 86.1719 305.695 86.7812C305.25 87.3828 305.02 88.375 305.004 89.7578V91.375C305.004 92.8672 305.223 93.9219 305.66 94.5391C306.105 95.1562 306.805 95.4648 307.758 95.4648ZM317.156 81.25V84.3203H319.066V85.9961H317.156V93.8594C317.156 94.3594 317.238 94.7383 317.402 94.9961C317.566 95.2539 317.848 95.3828 318.246 95.3828C318.52 95.3828 318.797 95.3359 319.078 95.2422L319.055 97C318.586 97.1562 318.105 97.2344 317.613 97.2344C316.793 97.2344 316.168 96.9414 315.738 96.3555C315.309 95.7695 315.094 94.9414 315.094 93.8711V85.9961H313.16V84.3203H315.094V81.25H317.156ZM320.871 90.0742C320.871 88.2305 321.316 86.7734 322.207 85.7031C323.105 84.625 324.289 84.0859 325.758 84.0859C327.227 84.0859 328.406 84.6094 329.297 85.6562C330.195 86.7031 330.656 88.1289 330.68 89.9336V91.2695C330.68 93.1055 330.234 94.5586 329.344 95.6289C328.453 96.6992 327.266 97.2344 325.781 97.2344C324.312 97.2344 323.133 96.7148 322.242 95.6758C321.359 94.6367 320.902 93.2305 320.871 91.457V90.0742ZM322.945 91.2695C322.945 92.5742 323.199 93.6016 323.707 94.3516C324.223 95.0938 324.914 95.4648 325.781 95.4648C327.609 95.4648 328.551 94.1445 328.605 91.5039V90.0742C328.605 88.7773 328.348 87.7539 327.832 87.0039C327.316 86.2461 326.625 85.8672 325.758 85.8672C324.906 85.8672 324.223 86.2461 323.707 87.0039C323.199 87.7539 322.945 88.7734 322.945 90.0625V91.2695ZM343.395 97.2344C341.816 97.2344 340.605 96.7656 339.762 95.8281C338.918 94.8828 338.488 93.5 338.473 91.6797V90.1445C338.473 88.2539 338.883 86.7734 339.703 85.7031C340.531 84.625 341.684 84.0859 343.16 84.0859C344.645 84.0859 345.754 84.5586 346.488 85.5039C347.223 86.4492 347.598 87.9219 347.613 89.9219V91.2812H340.535V91.5742C340.535 92.9336 340.789 93.9219 341.297 94.5391C341.812 95.1562 342.551 95.4648 343.512 95.4648C344.121 95.4648 344.656 95.3516 345.117 95.125C345.586 94.8906 346.023 94.5234 346.43 94.0234L347.508 95.3359C346.609 96.6016 345.238 97.2344 343.395 97.2344ZM343.16 85.8672C342.301 85.8672 341.664 86.1641 341.25 86.7578C340.836 87.3438 340.602 88.2578 340.547 89.5H345.539V89.2188C345.484 88.0156 345.266 87.1562 344.883 86.6406C344.508 86.125 343.934 85.8672 343.16 85.8672ZM352.066 84.3203L352.125 85.6914C352.93 84.6211 353.957 84.0859 355.207 84.0859C357.449 84.0859 358.586 85.582 358.617 88.5742V97H356.555V88.668C356.555 87.6758 356.387 86.9727 356.051 86.5586C355.723 86.1367 355.227 85.9258 354.562 85.9258C354.047 85.9258 353.582 86.0977 353.168 86.4414C352.762 86.7852 352.434 87.2344 352.184 87.7891V97H350.109V84.3203H352.066ZM371.777 97.2344C370.199 97.2344 368.988 96.7656 368.145 95.8281C367.301 94.8828 366.871 93.5 366.855 91.6797V90.1445C366.855 88.2539 367.266 86.7734 368.086 85.7031C368.914 84.625 370.066 84.0859 371.543 84.0859C373.027 84.0859 374.137 84.5586 374.871 85.5039C375.605 86.4492 375.98 87.9219 375.996 89.9219V91.2812H368.918V91.5742C368.918 92.9336 369.172 93.9219 369.68 94.5391C370.195 95.1562 370.934 95.4648 371.895 95.4648C372.504 95.4648 373.039 95.3516 373.5 95.125C373.969 94.8906 374.406 94.5234 374.812 94.0234L375.891 95.3359C374.992 96.6016 373.621 97.2344 371.777 97.2344ZM371.543 85.8672C370.684 85.8672 370.047 86.1641 369.633 86.7578C369.219 87.3438 368.984 88.2578 368.93 89.5H373.922V89.2188C373.867 88.0156 373.648 87.1562 373.266 86.6406C372.891 86.125 372.316 85.8672 371.543 85.8672ZM380.73 97H378.656V79H380.73V97ZM391.465 84.3203L391.512 85.4922C392.285 84.5547 393.305 84.0859 394.57 84.0859C395.984 84.0859 396.973 84.6992 397.535 85.9258C398.332 84.6992 399.441 84.0859 400.863 84.0859C403.199 84.0859 404.395 85.543 404.449 88.457V97H402.387V88.6562C402.387 87.7344 402.223 87.0508 401.895 86.6055C401.566 86.1523 401.012 85.9258 400.23 85.9258C399.605 85.9258 399.098 86.168 398.707 86.6523C398.316 87.1367 398.09 87.7539 398.027 88.5039V97H395.941V88.5625C395.918 86.8047 395.203 85.9258 393.797 85.9258C392.75 85.9258 392.012 86.4492 391.582 87.4961V97H389.52V84.3203H391.465ZM412.113 97.2344C410.535 97.2344 409.324 96.7656 408.48 95.8281C407.637 94.8828 407.207 93.5 407.191 91.6797V90.1445C407.191 88.2539 407.602 86.7734 408.422 85.7031C409.25 84.625 410.402 84.0859 411.879 84.0859C413.363 84.0859 414.473 84.5586 415.207 85.5039C415.941 86.4492 416.316 87.9219 416.332 89.9219V91.2812H409.254V91.5742C409.254 92.9336 409.508 93.9219 410.016 94.5391C410.531 95.1562 411.27 95.4648 412.23 95.4648C412.84 95.4648 413.375 95.3516 413.836 95.125C414.305 94.8906 414.742 94.5234 415.148 94.0234L416.227 95.3359C415.328 96.6016 413.957 97.2344 412.113 97.2344ZM411.879 85.8672C411.02 85.8672 410.383 86.1641 409.969 86.7578C409.555 87.3438 409.32 88.2578 409.266 89.5H414.258V89.2188C414.203 88.0156 413.984 87.1562 413.602 86.6406C413.227 86.125 412.652 85.8672 411.879 85.8672ZM418.395 90.0859C418.395 88.1328 418.758 86.6445 419.484 85.6211C420.219 84.5977 421.27 84.0859 422.637 84.0859C423.848 84.0859 424.793 84.5781 425.473 85.5625V79H427.547V97H425.648L425.543 95.6406C424.863 96.7031 423.891 97.2344 422.625 97.2344C421.312 97.2344 420.281 96.7266 419.531 95.7109C418.789 94.6875 418.41 93.2461 418.395 91.3867V90.0859ZM420.469 91.2695C420.469 92.6914 420.68 93.7383 421.102 94.4102C421.523 95.0742 422.211 95.4062 423.164 95.4062C424.195 95.4062 424.965 94.8867 425.473 93.8477V87.4492C424.941 86.4336 424.176 85.9258 423.176 85.9258C422.223 85.9258 421.535 86.2617 421.113 86.9336C420.691 87.5977 420.477 88.6211 420.469 90.0039V91.2695ZM432.973 97H430.898V84.3203H432.973V97ZM433.137 80.957C433.137 81.3086 433.039 81.6016 432.844 81.8359C432.648 82.0703 432.352 82.1875 431.953 82.1875C431.562 82.1875 431.27 82.0703 431.074 81.8359C430.879 81.6016 430.781 81.3086 430.781 80.957C430.781 80.6055 430.879 80.3086 431.074 80.0664C431.27 79.8242 431.562 79.7031 431.953 79.7031C432.344 79.7031 432.637 79.8281 432.832 80.0781C433.035 80.3203 433.137 80.6133 433.137 80.957ZM435.809 90.0742C435.809 88.2305 436.254 86.7734 437.145 85.7031C438.043 84.625 439.227 84.0859 440.695 84.0859C442.164 84.0859 443.344 84.6094 444.234 85.6562C445.133 86.7031 445.594 88.1289 445.617 89.9336V91.2695C445.617 93.1055 445.172 94.5586 444.281 95.6289C443.391 96.6992 442.203 97.2344 440.719 97.2344C439.25 97.2344 438.07 96.7148 437.18 95.6758C436.297 94.6367 435.84 93.2305 435.809 91.457V90.0742ZM437.883 91.2695C437.883 92.5742 438.137 93.6016 438.645 94.3516C439.16 95.0938 439.852 95.4648 440.719 95.4648C442.547 95.4648 443.488 94.1445 443.543 91.5039V90.0742C443.543 88.7773 443.285 87.7539 442.77 87.0039C442.254 86.2461 441.562 85.8672 440.695 85.8672C439.844 85.8672 439.16 86.2461 438.645 87.0039C438.137 87.7539 437.883 88.7734 437.883 90.0625V91.2695ZM8.07422 125C7.94922 124.727 7.85938 124.266 7.80469 123.617C7.07031 124.695 6.13281 125.234 4.99219 125.234C3.84375 125.234 2.94531 124.914 2.29688 124.273C1.65625 123.625 1.33594 122.715 1.33594 121.543C1.33594 120.254 1.77344 119.23 2.64844 118.473C3.52344 117.715 4.72266 117.328 6.24609 117.312H7.76953V115.965C7.76953 115.207 7.60156 114.668 7.26562 114.348C6.92969 114.027 6.41797 113.867 5.73047 113.867C5.10547 113.867 4.59766 114.055 4.20703 114.43C3.81641 114.797 3.62109 115.266 3.62109 115.836H1.54688C1.54688 115.188 1.73828 114.57 2.12109 113.984C2.50391 113.391 3.01953 112.926 3.66797 112.59C4.31641 112.254 5.03906 112.086 5.83594 112.086C7.13281 112.086 8.11719 112.41 8.78906 113.059C9.46875 113.699 9.81641 114.637 9.83203 115.871V122.27C9.83984 123.246 9.97266 124.094 10.2305 124.812V125H8.07422ZM5.30859 123.348C5.81641 123.348 6.30078 123.207 6.76172 122.926C7.22266 122.645 7.55859 122.293 7.76953 121.871V118.848H6.59766C5.61328 118.863 4.83594 119.086 4.26562 119.516C3.69531 119.938 3.41016 120.531 3.41016 121.297C3.41016 122.016 3.55469 122.539 3.84375 122.867C4.13281 123.188 4.62109 123.348 5.30859 123.348ZM15.0117 112.32L15.0586 113.492C15.832 112.555 16.8516 112.086 18.1172 112.086C19.5312 112.086 20.5195 112.699 21.082 113.926C21.8789 112.699 22.9883 112.086 24.4102 112.086C26.7461 112.086 27.9414 113.543 27.9961 116.457V125H25.9336V116.656C25.9336 115.734 25.7695 115.051 25.4414 114.605C25.1133 114.152 24.5586 113.926 23.7773 113.926C23.1523 113.926 22.6445 114.168 22.2539 114.652C21.8633 115.137 21.6367 115.754 21.5742 116.504V125H19.4883V116.562C19.4648 114.805 18.75 113.926 17.3438 113.926C16.2969 113.926 15.5586 114.449 15.1289 115.496V125H13.0664V112.32H15.0117ZM40.3125 119.27C40.3125 121.246 39.957 122.734 39.2461 123.734C38.5352 124.734 37.5039 125.234 36.1523 125.234C34.8086 125.234 33.8008 124.656 33.1289 123.5L33.0234 125H31.1367V107H33.1992V113.715C33.8789 112.629 34.8555 112.086 36.1289 112.086C37.5195 112.086 38.5625 112.578 39.2578 113.562C39.9531 114.547 40.3047 116.031 40.3125 118.016V119.27ZM38.25 118.086C38.25 116.586 38.0391 115.52 37.6172 114.887C37.2031 114.246 36.5273 113.926 35.5898 113.926C34.5195 113.926 33.7227 114.504 33.1992 115.66V121.695C33.7148 122.836 34.5195 123.406 35.6133 123.406C36.5508 123.406 37.2227 123.078 37.6289 122.422C38.0352 121.766 38.2422 120.746 38.25 119.363V118.086ZM45.1992 125H43.125V112.32H45.1992V125ZM45.3633 108.957C45.3633 109.309 45.2656 109.602 45.0703 109.836C44.875 110.07 44.5781 110.188 44.1797 110.188C43.7891 110.188 43.4961 110.07 43.3008 109.836C43.1055 109.602 43.0078 109.309 43.0078 108.957C43.0078 108.605 43.1055 108.309 43.3008 108.066C43.4961 107.824 43.7891 107.703 44.1797 107.703C44.5703 107.703 44.8633 107.828 45.0586 108.078C45.2617 108.32 45.3633 108.613 45.3633 108.957ZM53.0039 125.234C51.4258 125.234 50.2148 124.766 49.3711 123.828C48.5273 122.883 48.0977 121.5 48.082 119.68V118.145C48.082 116.254 48.4922 114.773 49.3125 113.703C50.1406 112.625 51.293 112.086 52.7695 112.086C54.2539 112.086 55.3633 112.559 56.0977 113.504C56.832 114.449 57.207 115.922 57.2227 117.922V119.281H50.1445V119.574C50.1445 120.934 50.3984 121.922 50.9062 122.539C51.4219 123.156 52.1602 123.465 53.1211 123.465C53.7305 123.465 54.2656 123.352 54.7266 123.125C55.1953 122.891 55.6328 122.523 56.0391 122.023L57.1172 123.336C56.2188 124.602 54.8477 125.234 53.0039 125.234ZM52.7695 113.867C51.9102 113.867 51.2734 114.164 50.8594 114.758C50.4453 115.344 50.2109 116.258 50.1562 117.5H55.1484V117.219C55.0938 116.016 54.875 115.156 54.4922 114.641C54.1172 114.125 53.543 113.867 52.7695 113.867ZM61.6758 112.32L61.7344 113.691C62.5391 112.621 63.5664 112.086 64.8164 112.086C67.0586 112.086 68.1953 113.582 68.2266 116.574V125H66.1641V116.668C66.1641 115.676 65.9961 114.973 65.6602 114.559C65.332 114.137 64.8359 113.926 64.1719 113.926C63.6562 113.926 63.1914 114.098 62.7773 114.441C62.3711 114.785 62.043 115.234 61.793 115.789V125H59.7188V112.32H61.6758ZM74.0625 109.25V112.32H75.9727V113.996H74.0625V121.859C74.0625 122.359 74.1445 122.738 74.3086 122.996C74.4727 123.254 74.7539 123.383 75.1523 123.383C75.4258 123.383 75.7031 123.336 75.9844 123.242L75.9609 125C75.4922 125.156 75.0117 125.234 74.5195 125.234C73.6992 125.234 73.0742 124.941 72.6445 124.355C72.2148 123.77 72 122.941 72 121.871V113.996H70.0664V112.32H72V109.25H74.0625ZM82.9805 125.234C81.4023 125.234 80.1914 124.766 79.3477 123.828C78.5039 122.883 78.0742 121.5 78.0586 119.68V118.145C78.0586 116.254 78.4688 114.773 79.2891 113.703C80.1172 112.625 81.2695 112.086 82.7461 112.086C84.2305 112.086 85.3398 112.559 86.0742 113.504C86.8086 114.449 87.1836 115.922 87.1992 117.922V119.281H80.1211V119.574C80.1211 120.934 80.375 121.922 80.8828 122.539C81.3984 123.156 82.1367 123.465 83.0977 123.465C83.707 123.465 84.2422 123.352 84.7031 123.125C85.1719 122.891 85.6094 122.523 86.0156 122.023L87.0938 123.336C86.1953 124.602 84.8242 125.234 82.9805 125.234ZM82.7461 113.867C81.8867 113.867 81.25 114.164 80.8359 114.758C80.4219 115.344 80.1875 116.258 80.1328 117.5H85.125V117.219C85.0703 116.016 84.8516 115.156 84.4688 114.641C84.0938 114.125 83.5195 113.867 82.7461 113.867ZM89.8359 123.863C89.8359 123.488 89.9453 123.176 90.1641 122.926C90.3906 122.676 90.7266 122.551 91.1719 122.551C91.6172 122.551 91.9531 122.676 92.1797 122.926C92.4141 123.176 92.5312 123.488 92.5312 123.863C92.5312 124.223 92.4141 124.523 92.1797 124.766C91.9531 125.008 91.6172 125.129 91.1719 125.129C90.7266 125.129 90.3906 125.008 90.1641 124.766C89.9453 124.523 89.8359 124.223 89.8359 123.863Z" fill="#B3C1A0"/>
</svg>
