<svg width="513" height="111" viewBox="0 0 513 111" fill="none" xmlns="http://www.w3.org/2000/svg">
<path d="M5.95468 28.4592H15.1956V31H2.97688V7.43652H5.95468V28.4592ZM17.7364 21.4354C17.7364 18.8892 18.3514 16.877 19.5814 15.3989C20.8221 13.91 22.4567 13.1656 24.485 13.1656C26.5134 13.1656 28.1425 13.8884 29.3725 15.3342C30.6133 16.7799 31.2498 18.7489 31.2822 21.2412V23.0862C31.2822 25.6216 30.6672 27.6284 29.4372 29.1065C28.2073 30.5846 26.5673 31.3237 24.5174 31.3237C22.489 31.3237 20.8599 30.6062 19.6299 29.1712C18.4107 27.7363 17.7796 25.7942 17.7364 23.3451V21.4354ZM20.6009 23.0862C20.6009 24.888 20.9516 26.3067 21.6529 27.3425C22.365 28.3675 23.3198 28.8799 24.5174 28.8799C27.042 28.8799 28.3421 27.0566 28.4177 23.4098V21.4354C28.4177 19.6444 28.0616 18.2311 27.3495 17.1953C26.6375 16.1488 25.6826 15.6255 24.485 15.6255C23.309 15.6255 22.365 16.1488 21.6529 17.1953C20.9516 18.2311 20.6009 19.639 20.6009 21.4192V23.0862ZM34.4056 21.4516C34.4056 18.722 34.9019 16.6612 35.8945 15.2694C36.8871 13.8668 38.3383 13.1656 40.248 13.1656C42.0282 13.1656 43.3822 13.9262 44.3101 15.4475L44.4557 13.4892H47.0451V31.1618C47.0451 33.3305 46.4895 34.992 45.3782 36.1464C44.2669 37.3116 42.7187 37.8943 40.7335 37.8943C39.8703 37.8943 38.8993 37.6785 37.8204 37.2469C36.7523 36.8261 35.9485 36.3029 35.409 35.6771L36.5743 33.7027C37.7611 34.8679 39.0719 35.4505 40.5069 35.4505C42.8913 35.4505 44.1159 34.1504 44.1806 31.5502V29.2683C43.2527 30.6386 41.9365 31.3237 40.2318 31.3237C38.4192 31.3237 37.0058 30.644 35.9916 29.2845C34.9775 27.9143 34.4488 25.9507 34.4056 23.3937V21.4516ZM37.2702 23.0862C37.2702 25.0498 37.5561 26.4955 38.1279 27.4234C38.7105 28.3405 39.6599 28.799 40.9762 28.799C42.4004 28.799 43.4685 28.0707 44.1806 26.6142V17.8588C43.4361 16.4239 42.3788 15.7064 41.0086 15.7064C39.6923 15.7064 38.7429 16.1703 38.1603 17.0982C37.5776 18.0153 37.2809 19.4287 37.2702 21.3383V23.0862ZM58.5517 16.1757C58.1525 16.1002 57.721 16.0624 57.257 16.0624C55.7897 16.0624 54.7647 16.8662 54.1821 18.4738V31H51.3176V13.4892H54.1012L54.1498 15.2694C54.9158 13.8668 56.0001 13.1656 57.4027 13.1656C57.8558 13.1656 58.2334 13.2411 58.5355 13.3921L58.5517 16.1757ZM67.3557 31.3237C65.1763 31.3237 63.5039 30.6763 62.3387 29.3816C61.1735 28.0761 60.5801 26.1665 60.5585 23.6526V21.5325C60.5585 18.9216 61.1249 16.877 62.2578 15.3989C63.4014 13.91 64.9928 13.1656 67.032 13.1656C69.0819 13.1656 70.614 13.8183 71.6282 15.1238C72.6423 16.4293 73.1602 18.463 73.1818 21.225V23.1024H63.4068V23.5069C63.4068 25.3843 63.7575 26.7491 64.4588 27.6014C65.1709 28.4538 66.1904 28.8799 67.5175 28.8799C68.3591 28.8799 69.0981 28.7235 69.7347 28.4106C70.382 28.0869 70.9862 27.5798 71.5472 26.8893L73.0361 28.7019C71.7954 30.4498 69.9019 31.3237 67.3557 31.3237ZM67.032 15.6255C65.8452 15.6255 64.9659 16.0355 64.394 16.8554C63.8222 17.6646 63.4985 18.927 63.423 20.6424H70.3173V20.254C70.2418 18.5925 69.9397 17.4057 69.411 16.6936C68.8931 15.9815 68.1001 15.6255 67.032 15.6255ZM79.3316 13.4892L79.3963 15.1076C80.4645 13.8129 81.8724 13.1656 83.6203 13.1656C85.5731 13.1656 86.9379 14.0125 87.7148 15.7064C88.8153 14.0125 90.3473 13.1656 92.3109 13.1656C95.5369 13.1656 97.1876 15.1777 97.2632 19.2021V31H94.4148V19.4772C94.4148 18.2041 94.1882 17.26 93.7351 16.6451C93.282 16.0193 92.5159 15.7064 91.437 15.7064C90.5739 15.7064 89.8726 16.0409 89.3331 16.7098C88.7937 17.3787 88.4808 18.2311 88.3945 19.2668V31H85.5138V19.3477C85.4814 16.9202 84.4942 15.7064 82.5522 15.7064C81.1064 15.7064 80.0868 16.4293 79.4934 17.875V31H76.6451V13.4892H79.3316ZM100.985 21.4354C100.985 18.8892 101.6 16.877 102.83 15.3989C104.071 13.91 105.706 13.1656 107.734 13.1656C109.762 13.1656 111.392 13.8884 112.621 15.3342C113.862 16.7799 114.499 18.7489 114.531 21.2412V23.0862C114.531 25.6216 113.916 27.6284 112.686 29.1065C111.456 30.5846 109.816 31.3237 107.766 31.3237C105.738 31.3237 104.109 30.6062 102.879 29.1712C101.66 27.7363 101.029 25.7942 100.985 23.3451V21.4354ZM103.85 23.0862C103.85 24.888 104.201 26.3067 104.902 27.3425C105.614 28.3675 106.569 28.8799 107.766 28.8799C110.291 28.8799 111.591 27.0566 111.667 23.4098V21.4354C111.667 19.6444 111.311 18.2311 110.599 17.1953C109.886 16.1488 108.932 15.6255 107.734 15.6255C106.558 15.6255 105.614 16.1488 104.902 17.1953C104.201 18.2311 103.85 19.639 103.85 21.4192V23.0862ZM126.734 26.5171C126.734 25.9021 126.502 25.3735 126.038 24.9311C125.574 24.4888 124.678 23.9709 123.351 23.3775C121.808 22.7409 120.719 22.1961 120.082 21.7429C119.456 21.2898 118.987 20.7773 118.674 20.2055C118.361 19.6229 118.205 18.9323 118.205 18.134C118.205 16.7098 118.723 15.5284 119.759 14.5897C120.805 13.6403 122.138 13.1656 123.756 13.1656C125.461 13.1656 126.831 13.6619 127.867 14.6545C128.902 15.6471 129.42 16.9202 129.42 18.4738H126.572C126.572 17.6862 126.308 17.0173 125.779 16.467C125.25 15.906 124.576 15.6255 123.756 15.6255C122.914 15.6255 122.251 15.8467 121.765 16.289C121.291 16.7206 121.053 17.3032 121.053 18.0369C121.053 18.6195 121.226 19.0888 121.571 19.4448C121.927 19.8009 122.774 20.2702 124.112 20.8528C126.237 21.6836 127.683 22.4982 128.449 23.2966C129.215 24.0842 129.598 25.0876 129.598 26.3067C129.598 27.828 129.075 29.0472 128.028 29.9642C126.982 30.8705 125.579 31.3237 123.821 31.3237C121.997 31.3237 120.519 30.8004 119.386 29.7539C118.253 28.7073 117.687 27.3802 117.687 25.7727H120.568C120.6 26.7437 120.897 27.5043 121.458 28.0546C122.019 28.6048 122.806 28.8799 123.821 28.8799C124.77 28.8799 125.493 28.6695 125.989 28.2488C126.486 27.8172 126.734 27.24 126.734 26.5171ZM147.028 28.8799C147.977 28.8799 148.738 28.5886 149.31 28.006C149.882 27.4126 150.195 26.5711 150.249 25.4814H152.951C152.887 27.1645 152.288 28.5617 151.155 29.6729C150.033 30.7734 148.657 31.3237 147.028 31.3237C144.859 31.3237 143.203 30.644 142.06 29.2845C140.927 27.9143 140.36 25.8806 140.36 23.1833V21.2574C140.36 18.6141 140.927 16.6073 142.06 15.2371C143.193 13.8561 144.843 13.1656 147.012 13.1656C148.803 13.1656 150.222 13.732 151.268 14.8648C152.326 15.9977 152.887 17.5459 152.951 19.5096H150.249C150.184 18.2149 149.871 17.2438 149.31 16.5965C148.76 15.9492 147.994 15.6255 147.012 15.6255C145.739 15.6255 144.795 16.0463 144.18 16.8878C143.565 17.7186 143.246 19.0888 143.225 20.9985V23.2318C143.225 25.2925 143.527 26.7491 144.131 27.6014C144.746 28.4538 145.712 28.8799 147.028 28.8799ZM155.654 21.4354C155.654 18.8892 156.269 16.877 157.499 15.3989C158.74 13.91 160.374 13.1656 162.403 13.1656C164.431 13.1656 166.06 13.8884 167.29 15.3342C168.531 16.7799 169.167 18.7489 169.2 21.2412V23.0862C169.2 25.6216 168.585 27.6284 167.355 29.1065C166.125 30.5846 164.485 31.3237 162.435 31.3237C160.407 31.3237 158.777 30.6062 157.547 29.1712C156.328 27.7363 155.697 25.7942 155.654 23.3451V21.4354ZM158.518 23.0862C158.518 24.888 158.869 26.3067 159.57 27.3425C160.283 28.3675 161.237 28.8799 162.435 28.8799C164.96 28.8799 166.26 27.0566 166.335 23.4098V21.4354C166.335 19.6444 165.979 18.2311 165.267 17.1953C164.555 16.1488 163.6 15.6255 162.403 15.6255C161.227 15.6255 160.283 16.1488 159.57 17.1953C158.869 18.2311 158.518 19.639 158.518 21.4192V23.0862ZM175.592 13.4892L175.673 15.3827C176.784 13.9046 178.203 13.1656 179.93 13.1656C183.026 13.1656 184.596 15.2317 184.639 19.3639V31H181.791V19.4934C181.791 18.1232 181.559 17.1521 181.095 16.5803C180.642 15.9977 179.956 15.7064 179.039 15.7064C178.327 15.7064 177.685 15.9438 177.114 16.4185C176.553 16.8932 176.099 17.5136 175.754 18.2796V31H172.89V13.4892H175.592ZM195.029 28.8799C195.978 28.8799 196.739 28.5886 197.311 28.006C197.883 27.4126 198.196 26.5711 198.249 25.4814H200.952C200.887 27.1645 200.289 28.5617 199.156 29.6729C198.034 30.7734 196.658 31.3237 195.029 31.3237C192.86 31.3237 191.204 30.644 190.061 29.2845C188.928 27.9143 188.361 25.8806 188.361 23.1833V21.2574C188.361 18.6141 188.928 16.6073 190.061 15.2371C191.193 13.8561 192.844 13.1656 195.013 13.1656C196.804 13.1656 198.223 13.732 199.269 14.8648C200.326 15.9977 200.887 17.5459 200.952 19.5096H198.249C198.185 18.2149 197.872 17.2438 197.311 16.5965C196.761 15.9492 195.995 15.6255 195.013 15.6255C193.74 15.6255 192.796 16.0463 192.181 16.8878C191.566 17.7186 191.247 19.0888 191.226 20.9985V23.2318C191.226 25.2925 191.528 26.7491 192.132 27.6014C192.747 28.4538 193.713 28.8799 195.029 28.8799ZM207.345 31H204.48V13.4892H207.345V31ZM207.571 8.84451C207.571 9.33002 207.436 9.73461 207.167 10.0583C206.897 10.382 206.487 10.5438 205.937 10.5438C205.397 10.5438 204.993 10.382 204.723 10.0583C204.453 9.73461 204.318 9.33002 204.318 8.84451C204.318 8.359 204.453 7.94901 204.723 7.61454C204.993 7.28008 205.397 7.11285 205.937 7.11285C206.476 7.11285 206.881 7.28548 207.151 7.63073C207.431 7.96519 207.571 8.36978 207.571 8.84451ZM218.123 31.3237C215.944 31.3237 214.271 30.6763 213.106 29.3816C211.941 28.0761 211.347 26.1665 211.326 23.6526V21.5325C211.326 18.9216 211.892 16.877 213.025 15.3989C214.169 13.91 215.76 13.1656 217.799 13.1656C219.849 13.1656 221.381 13.8183 222.396 15.1238C223.41 16.4293 223.928 18.463 223.949 21.225V23.1024H214.174V23.5069C214.174 25.3843 214.525 26.7491 215.226 27.6014C215.938 28.4538 216.958 28.8799 218.285 28.8799C219.126 28.8799 219.866 28.7235 220.502 28.4106C221.149 28.0869 221.754 27.5798 222.315 26.8893L223.804 28.7019C222.563 30.4498 220.669 31.3237 218.123 31.3237ZM217.799 15.6255C216.613 15.6255 215.733 16.0355 215.161 16.8554C214.59 17.6646 214.266 18.927 214.19 20.6424H221.085V20.254C221.009 18.5925 220.707 17.4057 220.178 16.6936C219.661 15.9815 218.868 15.6255 217.799 15.6255ZM230.099 13.4892L230.18 15.3827C231.291 13.9046 232.71 13.1656 234.436 13.1656C237.533 13.1656 239.103 15.2317 239.146 19.3639V31H236.297V19.4934C236.297 18.1232 236.065 17.1521 235.601 16.5803C235.148 15.9977 234.463 15.7064 233.546 15.7064C232.834 15.7064 232.192 15.9438 231.62 16.4185C231.059 16.8932 230.606 17.5136 230.261 18.2796V31H227.396V13.4892H230.099ZM249.536 28.8799C250.485 28.8799 251.246 28.5886 251.818 28.006C252.389 27.4126 252.702 26.5711 252.756 25.4814H255.459C255.394 27.1645 254.795 28.5617 253.662 29.6729C252.54 30.7734 251.165 31.3237 249.536 31.3237C247.367 31.3237 245.711 30.644 244.567 29.2845C243.434 27.9143 242.868 25.8806 242.868 23.1833V21.2574C242.868 18.6141 243.434 16.6073 244.567 15.2371C245.7 13.8561 247.351 13.1656 249.519 13.1656C251.31 13.1656 252.729 13.732 253.776 14.8648C254.833 15.9977 255.394 17.5459 255.459 19.5096H252.756C252.691 18.2149 252.379 17.2438 251.818 16.5965C251.267 15.9492 250.501 15.6255 249.519 15.6255C248.246 15.6255 247.302 16.0463 246.687 16.8878C246.072 17.7186 245.754 19.0888 245.732 20.9985V23.2318C245.732 25.2925 246.035 26.7491 246.639 27.6014C247.254 28.4538 248.219 28.8799 249.536 28.8799ZM261.851 31H258.987V13.4892H261.851V31ZM262.078 8.84451C262.078 9.33002 261.943 9.73461 261.673 10.0583C261.404 10.382 260.994 10.5438 260.443 10.5438C259.904 10.5438 259.499 10.382 259.23 10.0583C258.96 9.73461 258.825 9.33002 258.825 8.84451C258.825 8.359 258.96 7.94901 259.23 7.61454C259.499 7.28008 259.904 7.11285 260.443 7.11285C260.983 7.11285 261.388 7.28548 261.657 7.63073C261.938 7.96519 262.078 8.36978 262.078 8.84451ZM275.381 31C275.208 30.6224 275.084 29.9858 275.009 29.0903C273.995 30.5792 272.7 31.3237 271.125 31.3237C269.539 31.3237 268.298 30.8813 267.402 29.9966C266.518 29.1011 266.075 27.8442 266.075 26.2258C266.075 24.4456 266.68 23.0322 267.888 21.9857C269.096 20.9391 270.752 20.4051 272.856 20.3835H274.96V18.5224C274.96 17.4758 274.728 16.7314 274.264 16.289C273.8 15.8467 273.094 15.6255 272.144 15.6255C271.281 15.6255 270.58 15.8844 270.04 16.4023C269.501 16.9094 269.231 17.5567 269.231 18.3443H266.367C266.367 17.4488 266.631 16.5965 267.16 15.7873C267.688 14.9673 268.4 14.3254 269.296 13.8615C270.191 13.3975 271.189 13.1656 272.29 13.1656C274.081 13.1656 275.44 13.6133 276.368 14.5088C277.307 15.3935 277.787 16.6882 277.809 18.3929V27.2292C277.819 28.5778 278.003 29.7485 278.359 30.7411V31H275.381ZM271.562 28.7181C272.263 28.7181 272.932 28.5239 273.568 28.1355C274.205 27.7471 274.669 27.2616 274.96 26.679V22.5036H273.342C271.982 22.5251 270.909 22.8326 270.121 23.426C269.334 24.0086 268.94 24.8286 268.94 25.8859C268.94 26.8785 269.139 27.6014 269.539 28.0546C269.938 28.4969 270.612 28.7181 271.562 28.7181ZM296.129 31.3237C293.949 31.3237 292.277 30.6763 291.112 29.3816C289.946 28.0761 289.353 26.1665 289.331 23.6526V21.5325C289.331 18.9216 289.898 16.877 291.031 15.3989C292.174 13.91 293.766 13.1656 295.805 13.1656C297.855 13.1656 299.387 13.8183 300.401 15.1238C301.415 16.4293 301.933 18.463 301.955 21.225V23.1024H292.18V23.5069C292.18 25.3843 292.53 26.7491 293.232 27.6014C293.944 28.4538 294.963 28.8799 296.29 28.8799C297.132 28.8799 297.871 28.7235 298.508 28.4106C299.155 28.0869 299.759 27.5798 300.32 26.8893L301.809 28.7019C300.568 30.4498 298.675 31.3237 296.129 31.3237ZM295.805 15.6255C294.618 15.6255 293.739 16.0355 293.167 16.8554C292.595 17.6646 292.271 18.927 292.196 20.6424H299.09V20.254C299.015 18.5925 298.713 17.4057 298.184 16.6936C297.666 15.9815 296.873 15.6255 295.805 15.6255ZM311.487 28.8799C312.436 28.8799 313.197 28.5886 313.769 28.006C314.341 27.4126 314.653 26.5711 314.707 25.4814H317.41C317.345 27.1645 316.747 28.5617 315.614 29.6729C314.492 30.7734 313.116 31.3237 311.487 31.3237C309.318 31.3237 307.662 30.644 306.518 29.2845C305.386 27.9143 304.819 25.8806 304.819 23.1833V21.2574C304.819 18.6141 305.386 16.6073 306.518 15.2371C307.651 13.8561 309.302 13.1656 311.471 13.1656C313.262 13.1656 314.68 13.732 315.727 14.8648C316.784 15.9977 317.345 17.5459 317.41 19.5096H314.707C314.643 18.2149 314.33 17.2438 313.769 16.5965C313.219 15.9492 312.452 15.6255 311.471 15.6255C310.198 15.6255 309.254 16.0463 308.639 16.8878C308.024 17.7186 307.705 19.0888 307.684 20.9985V23.2318C307.684 25.2925 307.986 26.7491 308.59 27.6014C309.205 28.4538 310.171 28.8799 311.487 28.8799ZM320.113 21.4354C320.113 18.8892 320.728 16.877 321.958 15.3989C323.198 13.91 324.833 13.1656 326.861 13.1656C328.89 13.1656 330.519 13.8884 331.749 15.3342C332.99 16.7799 333.626 18.7489 333.659 21.2412V23.0862C333.659 25.6216 333.044 27.6284 331.814 29.1065C330.584 30.5846 328.944 31.3237 326.894 31.3237C324.865 31.3237 323.236 30.6062 322.006 29.1712C320.787 27.7363 320.156 25.7942 320.113 23.3451V21.4354ZM322.977 23.0862C322.977 24.888 323.328 26.3067 324.029 27.3425C324.741 28.3675 325.696 28.8799 326.894 28.8799C329.418 28.8799 330.718 27.0566 330.794 23.4098V21.4354C330.794 19.6444 330.438 18.2311 329.726 17.1953C329.014 16.1488 328.059 15.6255 326.861 15.6255C325.685 15.6255 324.741 16.1488 324.029 17.1953C323.328 18.2311 322.977 19.639 322.977 21.4192V23.0862ZM340.44 31H337.575V6.14183H340.44V31ZM344.356 21.4354C344.356 18.8892 344.971 16.877 346.201 15.3989C347.442 13.91 349.076 13.1656 351.105 13.1656C353.133 13.1656 354.762 13.8884 355.992 15.3342C357.233 16.7799 357.869 18.7489 357.902 21.2412V23.0862C357.902 25.6216 357.287 27.6284 356.057 29.1065C354.827 30.5846 353.187 31.3237 351.137 31.3237C349.109 31.3237 347.479 30.6062 346.249 29.1712C345.03 27.7363 344.399 25.7942 344.356 23.3451V21.4354ZM347.22 23.0862C347.22 24.888 347.571 26.3067 348.272 27.3425C348.985 28.3675 349.939 28.8799 351.137 28.8799C353.662 28.8799 354.962 27.0566 355.037 23.4098V21.4354C355.037 19.6444 354.681 18.2311 353.969 17.1953C353.257 16.1488 352.302 15.6255 351.105 15.6255C349.929 15.6255 348.985 16.1488 348.272 17.1953C347.571 18.2311 347.22 19.639 347.22 21.4192V23.0862ZM352.448 6.14183H356.073L351.736 10.8998H349.324L352.448 6.14183ZM361.025 21.4516C361.025 18.722 361.522 16.6612 362.514 15.2694C363.507 13.8668 364.958 13.1656 366.868 13.1656C368.648 13.1656 370.002 13.9262 370.93 15.4475L371.075 13.4892H373.665V31.1618C373.665 33.3305 373.109 34.992 371.998 36.1464C370.886 37.3116 369.338 37.8943 367.353 37.8943C366.49 37.8943 365.519 37.6785 364.44 37.2469C363.372 36.8261 362.568 36.3029 362.029 35.6771L363.194 33.7027C364.381 34.8679 365.692 35.4505 367.126 35.4505C369.511 35.4505 370.735 34.1504 370.8 31.5502V29.2683C369.872 30.6386 368.556 31.3237 366.851 31.3237C365.039 31.3237 363.625 30.644 362.611 29.2845C361.597 27.9143 361.068 25.9507 361.025 23.3937V21.4516ZM363.89 23.0862C363.89 25.0498 364.176 26.4955 364.747 27.4234C365.33 28.3405 366.28 28.799 367.596 28.799C369.02 28.799 370.088 28.0707 370.8 26.6142V17.8588C370.056 16.4239 368.998 15.7064 367.628 15.7064C366.312 15.7064 365.362 16.1703 364.78 17.0982C364.197 18.0153 363.901 19.4287 363.89 21.3383V23.0862ZM381.028 31H378.164V13.4892H381.028V31ZM381.255 8.84451C381.255 9.33002 381.12 9.73461 380.85 10.0583C380.58 10.382 380.171 10.5438 379.62 10.5438C379.081 10.5438 378.676 10.382 378.406 10.0583C378.137 9.73461 378.002 9.33002 378.002 8.84451C378.002 8.359 378.137 7.94901 378.406 7.61454C378.676 7.28008 379.081 7.11285 379.62 7.11285C380.16 7.11285 380.564 7.28548 380.834 7.63073C381.115 7.96519 381.255 8.36978 381.255 8.84451ZM391.629 28.8799C392.578 28.8799 393.339 28.5886 393.91 28.006C394.482 27.4126 394.795 26.5711 394.849 25.4814H397.552C397.487 27.1645 396.888 28.5617 395.755 29.6729C394.633 30.7734 393.258 31.3237 391.629 31.3237C389.46 31.3237 387.804 30.644 386.66 29.2845C385.527 27.9143 384.961 25.8806 384.961 23.1833V21.2574C384.961 18.6141 385.527 16.6073 386.66 15.2371C387.793 13.8561 389.444 13.1656 391.612 13.1656C393.403 13.1656 394.822 13.732 395.869 14.8648C396.926 15.9977 397.487 17.5459 397.552 19.5096H394.849C394.784 18.2149 394.472 17.2438 393.91 16.5965C393.36 15.9492 392.594 15.6255 391.612 15.6255C390.339 15.6255 389.395 16.0463 388.78 16.8878C388.165 17.7186 387.847 19.0888 387.825 20.9985V23.2318C387.825 25.2925 388.128 26.7491 388.732 27.6014C389.347 28.4538 390.312 28.8799 391.629 28.8799ZM409.868 31C409.695 30.6224 409.571 29.9858 409.495 29.0903C408.481 30.5792 407.187 31.3237 405.611 31.3237C404.025 31.3237 402.785 30.8813 401.889 29.9966C401.004 29.1011 400.562 27.8442 400.562 26.2258C400.562 24.4456 401.166 23.0322 402.375 21.9857C403.583 20.9391 405.239 20.4051 407.343 20.3835H409.447V18.5224C409.447 17.4758 409.215 16.7314 408.751 16.289C408.287 15.8467 407.58 15.6255 406.631 15.6255C405.768 15.6255 405.066 15.8844 404.527 16.4023C403.988 16.9094 403.718 17.5567 403.718 18.3443H400.853C400.853 17.4488 401.118 16.5965 401.646 15.7873C402.175 14.9673 402.887 14.3254 403.783 13.8615C404.678 13.3975 405.676 13.1656 406.777 13.1656C408.568 13.1656 409.927 13.6133 410.855 14.5088C411.793 15.3935 412.274 16.6882 412.295 18.3929V27.2292C412.306 28.5778 412.489 29.7485 412.845 30.7411V31H409.868ZM406.048 28.7181C406.75 28.7181 407.418 28.5239 408.055 28.1355C408.692 27.7471 409.156 27.2616 409.447 26.679V22.5036H407.828C406.469 22.5251 405.396 22.8326 404.608 23.426C403.82 24.0086 403.426 24.8286 403.426 25.8859C403.426 26.8785 403.626 27.6014 404.025 28.0546C404.424 28.4969 405.099 28.7181 406.048 28.7181Z" fill="#759958"/>
<path d="M9.29297 64.6875C9.29297 63.8359 9.0625 63.1836 8.60156 62.7305C8.14062 62.2773 7.30859 61.8359 6.10547 61.4062C4.90234 60.9766 3.98047 60.5273 3.33984 60.0586C2.70703 59.582 2.23047 59.043 1.91016 58.4414C1.59766 57.832 1.44141 57.1367 1.44141 56.3555C1.44141 55.0039 1.89062 53.8906 2.78906 53.0156C3.69531 52.1406 4.87891 51.7031 6.33984 51.7031C7.33984 51.7031 8.23047 51.9297 9.01172 52.3828C9.79297 52.8281 10.3945 53.4492 10.8164 54.2461C11.2383 55.043 11.4492 55.918 11.4492 56.8711H9.29297C9.29297 55.8164 9.03906 55 8.53125 54.4219C8.02344 53.8438 7.29297 53.5547 6.33984 53.5547C5.47266 53.5547 4.80078 53.7969 4.32422 54.2812C3.84766 54.7656 3.60938 55.4453 3.60938 56.3203C3.60938 57.0391 3.86719 57.6406 4.38281 58.125C4.89844 58.6094 5.69531 59.043 6.77344 59.4258C8.45312 59.9805 9.65234 60.6641 10.3711 61.4766C11.0977 62.2891 11.4609 63.3516 11.4609 64.6641C11.4609 66.0469 11.0117 67.1562 10.1133 67.9922C9.21484 68.8203 7.99219 69.2344 6.44531 69.2344C5.45312 69.2344 4.53516 69.0195 3.69141 68.5898C2.85547 68.1523 2.19531 67.543 1.71094 66.7617C1.23438 65.9727 0.996094 65.0703 0.996094 64.0547H3.15234C3.15234 65.1094 3.44531 65.9297 4.03125 66.5156C4.625 67.1016 5.42969 67.3945 6.44531 67.3945C7.39062 67.3945 8.10156 67.1523 8.57812 66.668C9.05469 66.1836 9.29297 65.5234 9.29297 64.6875ZM16.2305 69H14.1562V56.3203H16.2305V69ZM16.3945 52.957C16.3945 53.3086 16.2969 53.6016 16.1016 53.8359C15.9062 54.0703 15.6094 54.1875 15.2109 54.1875C14.8203 54.1875 14.5273 54.0703 14.332 53.8359C14.1367 53.6016 14.0391 53.3086 14.0391 52.957C14.0391 52.6055 14.1367 52.3086 14.332 52.0664C14.5273 51.8242 14.8203 51.7031 15.2109 51.7031C15.6016 51.7031 15.8945 51.8281 16.0898 52.0781C16.293 52.3203 16.3945 52.6133 16.3945 52.957ZM34.1719 63.2695C34.1719 65.2773 33.8086 66.7734 33.082 67.7578C32.3633 68.7422 31.3438 69.2344 30.0234 69.2344C28.75 69.2344 27.7695 68.7539 27.082 67.793V73.875H25.0195V56.3203H26.8945L27 57.7266C27.6953 56.6328 28.6914 56.0859 29.9883 56.0859C31.3789 56.0859 32.418 56.5703 33.1055 57.5391C33.793 58.5078 34.1484 59.957 34.1719 61.8867V63.2695ZM32.1094 62.0859C32.1094 60.6641 31.8906 59.6172 31.4531 58.9453C31.0156 58.2656 30.3125 57.9258 29.3438 57.9258C28.3516 57.9258 27.5977 58.4219 27.082 59.4141V66.0117C27.5898 66.9805 28.3516 67.4648 29.3672 67.4648C30.3047 67.4648 30.9922 67.1289 31.4297 66.457C31.875 65.7773 32.1016 64.7422 32.1094 63.3516V62.0859ZM36.4102 62.0742C36.4102 60.2305 36.8555 58.7734 37.7461 57.7031C38.6445 56.625 39.8281 56.0859 41.2969 56.0859C42.7656 56.0859 43.9453 56.6094 44.8359 57.6562C45.7344 58.7031 46.1953 60.1289 46.2188 61.9336V63.2695C46.2188 65.1055 45.7734 66.5586 44.8828 67.6289C43.9922 68.6992 42.8047 69.2344 41.3203 69.2344C39.8516 69.2344 38.6719 68.7148 37.7812 67.6758C36.8984 66.6367 36.4414 65.2305 36.4102 63.457V62.0742ZM38.4844 63.2695C38.4844 64.5742 38.7383 65.6016 39.2461 66.3516C39.7617 67.0938 40.4531 67.4648 41.3203 67.4648C43.1484 67.4648 44.0898 66.1445 44.1445 63.5039V62.0742C44.1445 60.7773 43.8867 59.7539 43.3711 59.0039C42.8555 58.2461 42.1641 57.8672 41.2969 57.8672C40.4453 57.8672 39.7617 58.2461 39.2461 59.0039C38.7383 59.7539 38.4844 60.7734 38.4844 62.0625V63.2695ZM50.8477 56.3203L50.9062 57.6914C51.7109 56.6211 52.7383 56.0859 53.9883 56.0859C56.2305 56.0859 57.3672 57.582 57.3984 60.5742V69H55.3359V60.668C55.3359 59.6758 55.168 58.9727 54.832 58.5586C54.5039 58.1367 54.0078 57.9258 53.3438 57.9258C52.8281 57.9258 52.3633 58.0977 51.9492 58.4414C51.543 58.7852 51.2148 59.2344 50.9648 59.7891V69H48.8906V56.3203H50.8477ZM65.0508 69.2344C63.4727 69.2344 62.2617 68.7656 61.418 67.8281C60.5742 66.8828 60.1445 65.5 60.1289 63.6797V62.1445C60.1289 60.2539 60.5391 58.7734 61.3594 57.7031C62.1875 56.625 63.3398 56.0859 64.8164 56.0859C66.3008 56.0859 67.4102 56.5586 68.1445 57.5039C68.8789 58.4492 69.2539 59.9219 69.2695 61.9219V63.2812H62.1914V63.5742C62.1914 64.9336 62.4453 65.9219 62.9531 66.5391C63.4688 67.1562 64.207 67.4648 65.168 67.4648C65.7773 67.4648 66.3125 67.3516 66.7734 67.125C67.2422 66.8906 67.6797 66.5234 68.0859 66.0234L69.1641 67.3359C68.2656 68.6016 66.8945 69.2344 65.0508 69.2344ZM64.8164 57.8672C63.957 57.8672 63.3203 58.1641 62.9062 58.7578C62.4922 59.3438 62.2578 60.2578 62.2031 61.5H67.1953V61.2188C67.1406 60.0156 66.9219 59.1562 66.5391 58.6406C66.1641 58.125 65.5898 57.8672 64.8164 57.8672ZM73.7227 56.3203L73.7695 57.4922C74.543 56.5547 75.5625 56.0859 76.8281 56.0859C78.2422 56.0859 79.2305 56.6992 79.793 57.9258C80.5898 56.6992 81.6992 56.0859 83.1211 56.0859C85.457 56.0859 86.6523 57.543 86.707 60.457V69H84.6445V60.6562C84.6445 59.7344 84.4805 59.0508 84.1523 58.6055C83.8242 58.1523 83.2695 57.9258 82.4883 57.9258C81.8633 57.9258 81.3555 58.168 80.9648 58.6523C80.5742 59.1367 80.3477 59.7539 80.2852 60.5039V69H78.1992V60.5625C78.1758 58.8047 77.4609 57.9258 76.0547 57.9258C75.0078 57.9258 74.2695 58.4492 73.8398 59.4961V69H71.7773V56.3203H73.7227ZM89.4023 62.0742C89.4023 60.2305 89.8477 58.7734 90.7383 57.7031C91.6367 56.625 92.8203 56.0859 94.2891 56.0859C95.7578 56.0859 96.9375 56.6094 97.8281 57.6562C98.7266 58.7031 99.1875 60.1289 99.2109 61.9336V63.2695C99.2109 65.1055 98.7656 66.5586 97.875 67.6289C96.9844 68.6992 95.7969 69.2344 94.3125 69.2344C92.8438 69.2344 91.6641 68.7148 90.7734 67.6758C89.8906 66.6367 89.4336 65.2305 89.4023 63.457V62.0742ZM91.4766 63.2695C91.4766 64.5742 91.7305 65.6016 92.2383 66.3516C92.7539 67.0938 93.4453 67.4648 94.3125 67.4648C96.1406 67.4648 97.082 66.1445 97.1367 63.5039V62.0742C97.1367 60.7773 96.8789 59.7539 96.3633 59.0039C95.8477 58.2461 95.1562 57.8672 94.2891 57.8672C93.4375 57.8672 92.7539 58.2461 92.2383 59.0039C91.7305 59.7539 91.4766 60.7734 91.4766 62.0625V63.2695ZM108.047 65.7539C108.047 65.3086 107.879 64.9258 107.543 64.6055C107.207 64.2852 106.559 63.9102 105.598 63.4805C104.48 63.0195 103.691 62.625 103.23 62.2969C102.777 61.9688 102.438 61.5977 102.211 61.1836C101.984 60.7617 101.871 60.2617 101.871 59.6836C101.871 58.6523 102.246 57.7969 102.996 57.1172C103.754 56.4297 104.719 56.0859 105.891 56.0859C107.125 56.0859 108.117 56.4453 108.867 57.1641C109.617 57.8828 109.992 58.8047 109.992 59.9297H107.93C107.93 59.3594 107.738 58.875 107.355 58.4766C106.973 58.0703 106.484 57.8672 105.891 57.8672C105.281 57.8672 104.801 58.0273 104.449 58.3477C104.105 58.6602 103.934 59.082 103.934 59.6133C103.934 60.0352 104.059 60.375 104.309 60.6328C104.566 60.8906 105.18 61.2305 106.148 61.6523C107.688 62.2539 108.734 62.8438 109.289 63.4219C109.844 63.9922 110.121 64.7188 110.121 65.6016C110.121 66.7031 109.742 67.5859 108.984 68.25C108.227 68.9062 107.211 69.2344 105.938 69.2344C104.617 69.2344 103.547 68.8555 102.727 68.0977C101.906 67.3398 101.496 66.3789 101.496 65.2148H103.582C103.605 65.918 103.82 66.4688 104.227 66.8672C104.633 67.2656 105.203 67.4648 105.938 67.4648C106.625 67.4648 107.148 67.3125 107.508 67.0078C107.867 66.6953 108.047 66.2773 108.047 65.7539ZM117.902 62.0859C117.902 60.1328 118.266 58.6445 118.992 57.6211C119.727 56.5977 120.777 56.0859 122.145 56.0859C123.355 56.0859 124.301 56.5781 124.98 57.5625V51H127.055V69H125.156L125.051 67.6406C124.371 68.7031 123.398 69.2344 122.133 69.2344C120.82 69.2344 119.789 68.7266 119.039 67.7109C118.297 66.6875 117.918 65.2461 117.902 63.3867V62.0859ZM119.977 63.2695C119.977 64.6914 120.188 65.7383 120.609 66.4102C121.031 67.0742 121.719 67.4062 122.672 67.4062C123.703 67.4062 124.473 66.8867 124.98 65.8477V59.4492C124.449 58.4336 123.684 57.9258 122.684 57.9258C121.73 57.9258 121.043 58.2617 120.621 58.9336C120.199 59.5977 119.984 60.6211 119.977 62.0039V63.2695ZM134.777 69.2344C133.199 69.2344 131.988 68.7656 131.145 67.8281C130.301 66.8828 129.871 65.5 129.855 63.6797V62.1445C129.855 60.2539 130.266 58.7734 131.086 57.7031C131.914 56.625 133.066 56.0859 134.543 56.0859C136.027 56.0859 137.137 56.5586 137.871 57.5039C138.605 58.4492 138.98 59.9219 138.996 61.9219V63.2812H131.918V63.5742C131.918 64.9336 132.172 65.9219 132.68 66.5391C133.195 67.1562 133.934 67.4648 134.895 67.4648C135.504 67.4648 136.039 67.3516 136.5 67.125C136.969 66.8906 137.406 66.5234 137.812 66.0234L138.891 67.3359C137.992 68.6016 136.621 69.2344 134.777 69.2344ZM134.543 57.8672C133.684 57.8672 133.047 58.1641 132.633 58.7578C132.219 59.3438 131.984 60.2578 131.93 61.5H136.922V61.2188C136.867 60.0156 136.648 59.1562 136.266 58.6406C135.891 58.125 135.316 57.8672 134.543 57.8672ZM148.957 56.3203L149.016 57.6914C149.82 56.6211 150.848 56.0859 152.098 56.0859C154.34 56.0859 155.477 57.582 155.508 60.5742V69H153.445V60.668C153.445 59.6758 153.277 58.9727 152.941 58.5586C152.613 58.1367 152.117 57.9258 151.453 57.9258C150.938 57.9258 150.473 58.0977 150.059 58.4414C149.652 58.7852 149.324 59.2344 149.074 59.7891V69H147V56.3203H148.957ZM165.094 67.8867C164.406 68.7852 163.402 69.2344 162.082 69.2344C160.934 69.2344 160.066 68.8398 159.48 68.0508C158.895 67.2539 158.598 66.0977 158.59 64.582V56.3203H160.652V64.4297C160.652 66.4062 161.246 67.3945 162.434 67.3945C163.691 67.3945 164.559 66.832 165.035 65.707V56.3203H167.109V69H165.141L165.094 67.8867ZM174.762 69.2344C173.184 69.2344 171.973 68.7656 171.129 67.8281C170.285 66.8828 169.855 65.5 169.84 63.6797V62.1445C169.84 60.2539 170.25 58.7734 171.07 57.7031C171.898 56.625 173.051 56.0859 174.527 56.0859C176.012 56.0859 177.121 56.5586 177.855 57.5039C178.59 58.4492 178.965 59.9219 178.98 61.9219V63.2812H171.902V63.5742C171.902 64.9336 172.156 65.9219 172.664 66.5391C173.18 67.1562 173.918 67.4648 174.879 67.4648C175.488 67.4648 176.023 67.3516 176.484 67.125C176.953 66.8906 177.391 66.5234 177.797 66.0234L178.875 67.3359C177.977 68.6016 176.605 69.2344 174.762 69.2344ZM174.527 57.8672C173.668 57.8672 173.031 58.1641 172.617 58.7578C172.203 59.3438 171.969 60.2578 171.914 61.5H176.906V61.2188C176.852 60.0156 176.633 59.1562 176.25 58.6406C175.875 58.125 175.301 57.8672 174.527 57.8672ZM187.641 65.7539C187.641 65.3086 187.473 64.9258 187.137 64.6055C186.801 64.2852 186.152 63.9102 185.191 63.4805C184.074 63.0195 183.285 62.625 182.824 62.2969C182.371 61.9688 182.031 61.5977 181.805 61.1836C181.578 60.7617 181.465 60.2617 181.465 59.6836C181.465 58.6523 181.84 57.7969 182.59 57.1172C183.348 56.4297 184.312 56.0859 185.484 56.0859C186.719 56.0859 187.711 56.4453 188.461 57.1641C189.211 57.8828 189.586 58.8047 189.586 59.9297H187.523C187.523 59.3594 187.332 58.875 186.949 58.4766C186.566 58.0703 186.078 57.8672 185.484 57.8672C184.875 57.8672 184.395 58.0273 184.043 58.3477C183.699 58.6602 183.527 59.082 183.527 59.6133C183.527 60.0352 183.652 60.375 183.902 60.6328C184.16 60.8906 184.773 61.2305 185.742 61.6523C187.281 62.2539 188.328 62.8438 188.883 63.4219C189.438 63.9922 189.715 64.7188 189.715 65.6016C189.715 66.7031 189.336 67.5859 188.578 68.25C187.82 68.9062 186.805 69.2344 185.531 69.2344C184.211 69.2344 183.141 68.8555 182.32 68.0977C181.5 67.3398 181.09 66.3789 181.09 65.2148H183.176C183.199 65.918 183.414 66.4688 183.82 66.8672C184.227 67.2656 184.797 67.4648 185.531 67.4648C186.219 67.4648 186.742 67.3125 187.102 67.0078C187.461 66.6953 187.641 66.2773 187.641 65.7539ZM195.141 53.25V56.3203H197.051V57.9961H195.141V65.8594C195.141 66.3594 195.223 66.7383 195.387 66.9961C195.551 67.2539 195.832 67.3828 196.23 67.3828C196.504 67.3828 196.781 67.3359 197.062 67.2422L197.039 69C196.57 69.1562 196.09 69.2344 195.598 69.2344C194.777 69.2344 194.152 68.9414 193.723 68.3555C193.293 67.7695 193.078 66.9414 193.078 65.8711V57.9961H191.145V56.3203H193.078V53.25H195.141ZM204.762 58.2656C204.473 58.2109 204.16 58.1836 203.824 58.1836C202.762 58.1836 202.02 58.7656 201.598 59.9297V69H199.523V56.3203H201.539L201.574 57.6094C202.129 56.5938 202.914 56.0859 203.93 56.0859C204.258 56.0859 204.531 56.1406 204.75 56.25L204.762 58.2656ZM212.895 69C212.77 68.7266 212.68 68.2656 212.625 67.6172C211.891 68.6953 210.953 69.2344 209.812 69.2344C208.664 69.2344 207.766 68.9141 207.117 68.2734C206.477 67.625 206.156 66.7148 206.156 65.543C206.156 64.2539 206.594 63.2305 207.469 62.4727C208.344 61.7148 209.543 61.3281 211.066 61.3125H212.59V59.9648C212.59 59.207 212.422 58.668 212.086 58.3477C211.75 58.0273 211.238 57.8672 210.551 57.8672C209.926 57.8672 209.418 58.0547 209.027 58.4297C208.637 58.7969 208.441 59.2656 208.441 59.8359H206.367C206.367 59.1875 206.559 58.5703 206.941 57.9844C207.324 57.3906 207.84 56.9258 208.488 56.5898C209.137 56.2539 209.859 56.0859 210.656 56.0859C211.953 56.0859 212.938 56.4102 213.609 57.0586C214.289 57.6992 214.637 58.6367 214.652 59.8711V66.2695C214.66 67.2461 214.793 68.0938 215.051 68.8125V69H212.895ZM210.129 67.3477C210.637 67.3477 211.121 67.207 211.582 66.9258C212.043 66.6445 212.379 66.293 212.59 65.8711V62.8477H211.418C210.434 62.8633 209.656 63.0859 209.086 63.5156C208.516 63.9375 208.23 64.5312 208.23 65.2969C208.23 66.0156 208.375 66.5391 208.664 66.8672C208.953 67.1875 209.441 67.3477 210.129 67.3477ZM232.547 63.2695C232.547 65.2773 232.184 66.7734 231.457 67.7578C230.738 68.7422 229.719 69.2344 228.398 69.2344C227.125 69.2344 226.145 68.7539 225.457 67.793V73.875H223.395V56.3203H225.27L225.375 57.7266C226.07 56.6328 227.066 56.0859 228.363 56.0859C229.754 56.0859 230.793 56.5703 231.48 57.5391C232.168 58.5078 232.523 59.957 232.547 61.8867V63.2695ZM230.484 62.0859C230.484 60.6641 230.266 59.6172 229.828 58.9453C229.391 58.2656 228.688 57.9258 227.719 57.9258C226.727 57.9258 225.973 58.4219 225.457 59.4141V66.0117C225.965 66.9805 226.727 67.4648 227.742 67.4648C228.68 67.4648 229.367 67.1289 229.805 66.457C230.25 65.7773 230.477 64.7422 230.484 63.3516V62.0859ZM241.746 69C241.621 68.7266 241.531 68.2656 241.477 67.6172C240.742 68.6953 239.805 69.2344 238.664 69.2344C237.516 69.2344 236.617 68.9141 235.969 68.2734C235.328 67.625 235.008 66.7148 235.008 65.543C235.008 64.2539 235.445 63.2305 236.32 62.4727C237.195 61.7148 238.395 61.3281 239.918 61.3125H241.441V59.9648C241.441 59.207 241.273 58.668 240.938 58.3477C240.602 58.0273 240.09 57.8672 239.402 57.8672C238.777 57.8672 238.27 58.0547 237.879 58.4297C237.488 58.7969 237.293 59.2656 237.293 59.8359H235.219C235.219 59.1875 235.41 58.5703 235.793 57.9844C236.176 57.3906 236.691 56.9258 237.34 56.5898C237.988 56.2539 238.711 56.0859 239.508 56.0859C240.805 56.0859 241.789 56.4102 242.461 57.0586C243.141 57.6992 243.488 58.6367 243.504 59.8711V66.2695C243.512 67.2461 243.645 68.0938 243.902 68.8125V69H241.746ZM238.98 67.3477C239.488 67.3477 239.973 67.207 240.434 66.9258C240.895 66.6445 241.23 66.293 241.441 65.8711V62.8477H240.27C239.285 62.8633 238.508 63.0859 237.938 63.5156C237.367 63.9375 237.082 64.5312 237.082 65.2969C237.082 66.0156 237.227 66.5391 237.516 66.8672C237.805 67.1875 238.293 67.3477 238.98 67.3477ZM251.965 58.2656C251.676 58.2109 251.363 58.1836 251.027 58.1836C249.965 58.1836 249.223 58.7656 248.801 59.9297V69H246.727V56.3203H248.742L248.777 57.6094C249.332 56.5938 250.117 56.0859 251.133 56.0859C251.461 56.0859 251.734 56.1406 251.953 56.25L251.965 58.2656ZM257.344 53.25V56.3203H259.254V57.9961H257.344V65.8594C257.344 66.3594 257.426 66.7383 257.59 66.9961C257.754 67.2539 258.035 67.3828 258.434 67.3828C258.707 67.3828 258.984 67.3359 259.266 67.2422L259.242 69C258.773 69.1562 258.293 69.2344 257.801 69.2344C256.98 69.2344 256.355 68.9414 255.926 68.3555C255.496 67.7695 255.281 66.9414 255.281 65.8711V57.9961H253.348V56.3203H255.281V53.25H257.344ZM266.262 69.2344C264.684 69.2344 263.473 68.7656 262.629 67.8281C261.785 66.8828 261.355 65.5 261.34 63.6797V62.1445C261.34 60.2539 261.75 58.7734 262.57 57.7031C263.398 56.625 264.551 56.0859 266.027 56.0859C267.512 56.0859 268.621 56.5586 269.355 57.5039C270.09 58.4492 270.465 59.9219 270.48 61.9219V63.2812H263.402V63.5742C263.402 64.9336 263.656 65.9219 264.164 66.5391C264.68 67.1562 265.418 67.4648 266.379 67.4648C266.988 67.4648 267.523 67.3516 267.984 67.125C268.453 66.8906 268.891 66.5234 269.297 66.0234L270.375 67.3359C269.477 68.6016 268.105 69.2344 266.262 69.2344ZM266.027 57.8672C265.168 57.8672 264.531 58.1641 264.117 58.7578C263.703 59.3438 263.469 60.2578 263.414 61.5H268.406V61.2188C268.352 60.0156 268.133 59.1562 267.75 58.6406C267.375 58.125 266.801 57.8672 266.027 57.8672ZM273 72.3984L271.77 71.5547C272.504 70.5312 272.887 69.4766 272.918 68.3906V66.4336H275.039V68.1328C275.039 68.9219 274.844 69.7109 274.453 70.5C274.07 71.2891 273.586 71.9219 273 72.3984ZM292.359 63.2695C292.359 65.2773 291.996 66.7734 291.27 67.7578C290.551 68.7422 289.531 69.2344 288.211 69.2344C286.938 69.2344 285.957 68.7539 285.27 67.793V73.875H283.207V56.3203H285.082L285.188 57.7266C285.883 56.6328 286.879 56.0859 288.176 56.0859C289.566 56.0859 290.605 56.5703 291.293 57.5391C291.98 58.5078 292.336 59.957 292.359 61.8867V63.2695ZM290.297 62.0859C290.297 60.6641 290.078 59.6172 289.641 58.9453C289.203 58.2656 288.5 57.9258 287.531 57.9258C286.539 57.9258 285.785 58.4219 285.27 59.4141V66.0117C285.777 66.9805 286.539 67.4648 287.555 67.4648C288.492 67.4648 289.18 67.1289 289.617 66.457C290.062 65.7773 290.289 64.7422 290.297 63.3516V62.0859ZM294.598 62.0742C294.598 60.2305 295.043 58.7734 295.934 57.7031C296.832 56.625 298.016 56.0859 299.484 56.0859C300.953 56.0859 302.133 56.6094 303.023 57.6562C303.922 58.7031 304.383 60.1289 304.406 61.9336V63.2695C304.406 65.1055 303.961 66.5586 303.07 67.6289C302.18 68.6992 300.992 69.2344 299.508 69.2344C298.039 69.2344 296.859 68.7148 295.969 67.6758C295.086 66.6367 294.629 65.2305 294.598 63.457V62.0742ZM296.672 63.2695C296.672 64.5742 296.926 65.6016 297.434 66.3516C297.949 67.0938 298.641 67.4648 299.508 67.4648C301.336 67.4648 302.277 66.1445 302.332 63.5039V62.0742C302.332 60.7773 302.074 59.7539 301.559 59.0039C301.043 58.2461 300.352 57.8672 299.484 57.8672C298.633 57.8672 297.949 58.2461 297.434 59.0039C296.926 59.7539 296.672 60.7734 296.672 62.0625V63.2695ZM306.645 62.0859C306.645 60.1328 307.008 58.6445 307.734 57.6211C308.469 56.5977 309.52 56.0859 310.887 56.0859C312.098 56.0859 313.043 56.5781 313.723 57.5625V51H315.797V69H313.898L313.793 67.6406C313.113 68.7031 312.141 69.2344 310.875 69.2344C309.562 69.2344 308.531 68.7266 307.781 67.7109C307.039 66.6875 306.66 65.2461 306.645 63.3867V62.0859ZM308.719 63.2695C308.719 64.6914 308.93 65.7383 309.352 66.4102C309.773 67.0742 310.461 67.4062 311.414 67.4062C312.445 67.4062 313.215 66.8867 313.723 65.8477V59.4492C313.191 58.4336 312.426 57.9258 311.426 57.9258C310.473 57.9258 309.785 58.2617 309.363 58.9336C308.941 59.5977 308.727 60.6211 308.719 62.0039V63.2695ZM324.223 58.2656C323.934 58.2109 323.621 58.1836 323.285 58.1836C322.223 58.1836 321.48 58.7656 321.059 59.9297V69H318.984V56.3203H321L321.035 57.6094C321.59 56.5938 322.375 56.0859 323.391 56.0859C323.719 56.0859 323.992 56.1406 324.211 56.25L324.223 58.2656ZM330.598 69.2344C329.02 69.2344 327.809 68.7656 326.965 67.8281C326.121 66.8828 325.691 65.5 325.676 63.6797V62.1445C325.676 60.2539 326.086 58.7734 326.906 57.7031C327.734 56.625 328.887 56.0859 330.363 56.0859C331.848 56.0859 332.957 56.5586 333.691 57.5039C334.426 58.4492 334.801 59.9219 334.816 61.9219V63.2812H327.738V63.5742C327.738 64.9336 327.992 65.9219 328.5 66.5391C329.016 67.1562 329.754 67.4648 330.715 67.4648C331.324 67.4648 331.859 67.3516 332.32 67.125C332.789 66.8906 333.227 66.5234 333.633 66.0234L334.711 67.3359C333.812 68.6016 332.441 69.2344 330.598 69.2344ZM330.363 57.8672C329.504 57.8672 328.867 58.1641 328.453 58.7578C328.039 59.3438 327.805 60.2578 327.75 61.5H332.742V61.2188C332.688 60.0156 332.469 59.1562 332.086 58.6406C331.711 58.125 331.137 57.8672 330.363 57.8672ZM339.27 56.3203L339.316 57.4922C340.09 56.5547 341.109 56.0859 342.375 56.0859C343.789 56.0859 344.777 56.6992 345.34 57.9258C346.137 56.6992 347.246 56.0859 348.668 56.0859C351.004 56.0859 352.199 57.543 352.254 60.457V69H350.191V60.6562C350.191 59.7344 350.027 59.0508 349.699 58.6055C349.371 58.1523 348.816 57.9258 348.035 57.9258C347.41 57.9258 346.902 58.168 346.512 58.6523C346.121 59.1367 345.895 59.7539 345.832 60.5039V69H343.746V60.5625C343.723 58.8047 343.008 57.9258 341.602 57.9258C340.555 57.9258 339.816 58.4492 339.387 59.4961V69H337.324V56.3203H339.27ZM354.949 62.0742C354.949 60.2305 355.395 58.7734 356.285 57.7031C357.184 56.625 358.367 56.0859 359.836 56.0859C361.305 56.0859 362.484 56.6094 363.375 57.6562C364.273 58.7031 364.734 60.1289 364.758 61.9336V63.2695C364.758 65.1055 364.312 66.5586 363.422 67.6289C362.531 68.6992 361.344 69.2344 359.859 69.2344C358.391 69.2344 357.211 68.7148 356.32 67.6758C355.438 66.6367 354.98 65.2305 354.949 63.457V62.0742ZM357.023 63.2695C357.023 64.5742 357.277 65.6016 357.785 66.3516C358.301 67.0938 358.992 67.4648 359.859 67.4648C361.688 67.4648 362.629 66.1445 362.684 63.5039V62.0742C362.684 60.7773 362.426 59.7539 361.91 59.0039C361.395 58.2461 360.703 57.8672 359.836 57.8672C358.984 57.8672 358.301 58.2461 357.785 59.0039C357.277 59.7539 357.023 60.7734 357.023 62.0625V63.2695ZM373.594 65.7539C373.594 65.3086 373.426 64.9258 373.09 64.6055C372.754 64.2852 372.105 63.9102 371.145 63.4805C370.027 63.0195 369.238 62.625 368.777 62.2969C368.324 61.9688 367.984 61.5977 367.758 61.1836C367.531 60.7617 367.418 60.2617 367.418 59.6836C367.418 58.6523 367.793 57.7969 368.543 57.1172C369.301 56.4297 370.266 56.0859 371.438 56.0859C372.672 56.0859 373.664 56.4453 374.414 57.1641C375.164 57.8828 375.539 58.8047 375.539 59.9297H373.477C373.477 59.3594 373.285 58.875 372.902 58.4766C372.52 58.0703 372.031 57.8672 371.438 57.8672C370.828 57.8672 370.348 58.0273 369.996 58.3477C369.652 58.6602 369.48 59.082 369.48 59.6133C369.48 60.0352 369.605 60.375 369.855 60.6328C370.113 60.8906 370.727 61.2305 371.695 61.6523C373.234 62.2539 374.281 62.8438 374.836 63.4219C375.391 63.9922 375.668 64.7188 375.668 65.6016C375.668 66.7031 375.289 67.5859 374.531 68.25C373.773 68.9062 372.758 69.2344 371.484 69.2344C370.164 69.2344 369.094 68.8555 368.273 68.0977C367.453 67.3398 367.043 66.3789 367.043 65.2148H369.129C369.152 65.918 369.367 66.4688 369.773 66.8672C370.18 67.2656 370.75 67.4648 371.484 67.4648C372.172 67.4648 372.695 67.3125 373.055 67.0078C373.414 66.6953 373.594 66.2773 373.594 65.7539ZM386.121 69H384.047V51H386.121V69ZM388.957 62.0742C388.957 60.2305 389.402 58.7734 390.293 57.7031C391.191 56.625 392.375 56.0859 393.844 56.0859C395.312 56.0859 396.492 56.6094 397.383 57.6562C398.281 58.7031 398.742 60.1289 398.766 61.9336V63.2695C398.766 65.1055 398.32 66.5586 397.43 67.6289C396.539 68.6992 395.352 69.2344 393.867 69.2344C392.398 69.2344 391.219 68.7148 390.328 67.6758C389.445 66.6367 388.988 65.2305 388.957 63.457V62.0742ZM391.031 63.2695C391.031 64.5742 391.285 65.6016 391.793 66.3516C392.309 67.0938 393 67.4648 393.867 67.4648C395.695 67.4648 396.637 66.1445 396.691 63.5039V62.0742C396.691 60.7773 396.434 59.7539 395.918 59.0039C395.402 58.2461 394.711 57.8672 393.844 57.8672C392.992 57.8672 392.309 58.2461 391.793 59.0039C391.285 59.7539 391.031 60.7734 391.031 62.0625V63.2695ZM401.027 62.0859C401.027 60.1094 401.387 58.6172 402.105 57.6094C402.824 56.5938 403.875 56.0859 405.258 56.0859C406.547 56.0859 407.527 56.6367 408.199 57.7383L408.305 56.3203H410.18V69.1172C410.18 70.6875 409.777 71.8906 408.973 72.7266C408.168 73.5703 407.047 73.9922 405.609 73.9922C404.984 73.9922 404.281 73.8359 403.5 73.5234C402.727 73.2188 402.145 72.8398 401.754 72.3867L402.598 70.957C403.457 71.8008 404.406 72.2227 405.445 72.2227C407.172 72.2227 408.059 71.2812 408.105 69.3984V67.7461C407.434 68.7383 406.48 69.2344 405.246 69.2344C403.934 69.2344 402.91 68.7422 402.176 67.7578C401.441 66.7656 401.059 65.3438 401.027 63.4922V62.0859ZM403.102 63.2695C403.102 64.6914 403.309 65.7383 403.723 66.4102C404.145 67.0742 404.832 67.4062 405.785 67.4062C406.816 67.4062 407.59 66.8789 408.105 65.8242V59.4844C407.566 58.4453 406.801 57.9258 405.809 57.9258C404.855 57.9258 404.168 58.2617 403.746 58.9336C403.324 59.5977 403.109 60.6211 403.102 62.0039V63.2695ZM418.512 58.2656C418.223 58.2109 417.91 58.1836 417.574 58.1836C416.512 58.1836 415.77 58.7656 415.348 59.9297V69H413.273V56.3203H415.289L415.324 57.6094C415.879 56.5938 416.664 56.0859 417.68 56.0859C418.008 56.0859 418.281 56.1406 418.5 56.25L418.512 58.2656ZM426.645 69C426.52 68.7266 426.43 68.2656 426.375 67.6172C425.641 68.6953 424.703 69.2344 423.562 69.2344C422.414 69.2344 421.516 68.9141 420.867 68.2734C420.227 67.625 419.906 66.7148 419.906 65.543C419.906 64.2539 420.344 63.2305 421.219 62.4727C422.094 61.7148 423.293 61.3281 424.816 61.3125H426.34V59.9648C426.34 59.207 426.172 58.668 425.836 58.3477C425.5 58.0273 424.988 57.8672 424.301 57.8672C423.676 57.8672 423.168 58.0547 422.777 58.4297C422.387 58.7969 422.191 59.2656 422.191 59.8359H420.117C420.117 59.1875 420.309 58.5703 420.691 57.9844C421.074 57.3906 421.59 56.9258 422.238 56.5898C422.887 56.2539 423.609 56.0859 424.406 56.0859C425.703 56.0859 426.688 56.4102 427.359 57.0586C428.039 57.6992 428.387 58.6367 428.402 59.8711V66.2695C428.41 67.2461 428.543 68.0938 428.801 68.8125V69H426.645ZM423.879 67.3477C424.387 67.3477 424.871 67.207 425.332 66.9258C425.793 66.6445 426.129 66.293 426.34 65.8711V62.8477H425.168C424.184 62.8633 423.406 63.0859 422.836 63.5156C422.266 63.9375 421.98 64.5312 421.98 65.2969C421.98 66.0156 422.125 66.5391 422.414 66.8672C422.703 67.1875 423.191 67.3477 423.879 67.3477ZM436.863 58.2656C436.574 58.2109 436.262 58.1836 435.926 58.1836C434.863 58.1836 434.121 58.7656 433.699 59.9297V69H431.625V56.3203H433.641L433.676 57.6094C434.23 56.5938 435.016 56.0859 436.031 56.0859C436.359 56.0859 436.633 56.1406 436.852 56.25L436.863 58.2656ZM450.914 67.8867C450.227 68.7852 449.223 69.2344 447.902 69.2344C446.754 69.2344 445.887 68.8398 445.301 68.0508C444.715 67.2539 444.418 66.0977 444.41 64.582V56.3203H446.473V64.4297C446.473 66.4062 447.066 67.3945 448.254 67.3945C449.512 67.3945 450.379 66.832 450.855 65.707V56.3203H452.93V69H450.961L450.914 67.8867ZM458.004 56.3203L458.062 57.6914C458.867 56.6211 459.895 56.0859 461.145 56.0859C463.387 56.0859 464.523 57.582 464.555 60.5742V69H462.492V60.668C462.492 59.6758 462.324 58.9727 461.988 58.5586C461.66 58.1367 461.164 57.9258 460.5 57.9258C459.984 57.9258 459.52 58.0977 459.105 58.4414C458.699 58.7852 458.371 59.2344 458.121 59.7891V69H456.047V56.3203H458.004ZM8.07422 97C7.94922 96.7266 7.85938 96.2656 7.80469 95.6172C7.07031 96.6953 6.13281 97.2344 4.99219 97.2344C3.84375 97.2344 2.94531 96.9141 2.29688 96.2734C1.65625 95.625 1.33594 94.7148 1.33594 93.543C1.33594 92.2539 1.77344 91.2305 2.64844 90.4727C3.52344 89.7148 4.72266 89.3281 6.24609 89.3125H7.76953V87.9648C7.76953 87.207 7.60156 86.668 7.26562 86.3477C6.92969 86.0273 6.41797 85.8672 5.73047 85.8672C5.10547 85.8672 4.59766 86.0547 4.20703 86.4297C3.81641 86.7969 3.62109 87.2656 3.62109 87.8359H1.54688C1.54688 87.1875 1.73828 86.5703 2.12109 85.9844C2.50391 85.3906 3.01953 84.9258 3.66797 84.5898C4.31641 84.2539 5.03906 84.0859 5.83594 84.0859C7.13281 84.0859 8.11719 84.4102 8.78906 85.0586C9.46875 85.6992 9.81641 86.6367 9.83203 87.8711V94.2695C9.83984 95.2461 9.97266 96.0938 10.2305 96.8125V97H8.07422ZM5.30859 95.3477C5.81641 95.3477 6.30078 95.207 6.76172 94.9258C7.22266 94.6445 7.55859 94.293 7.76953 93.8711V90.8477H6.59766C5.61328 90.8633 4.83594 91.0859 4.26562 91.5156C3.69531 91.9375 3.41016 92.5312 3.41016 93.2969C3.41016 94.0156 3.55469 94.5391 3.84375 94.8672C4.13281 95.1875 4.62109 95.3477 5.30859 95.3477ZM15.0117 84.3203L15.0586 85.4922C15.832 84.5547 16.8516 84.0859 18.1172 84.0859C19.5312 84.0859 20.5195 84.6992 21.082 85.9258C21.8789 84.6992 22.9883 84.0859 24.4102 84.0859C26.7461 84.0859 27.9414 85.543 27.9961 88.457V97H25.9336V88.6562C25.9336 87.7344 25.7695 87.0508 25.4414 86.6055C25.1133 86.1523 24.5586 85.9258 23.7773 85.9258C23.1523 85.9258 22.6445 86.168 22.2539 86.6523C21.8633 87.1367 21.6367 87.7539 21.5742 88.5039V97H19.4883V88.5625C19.4648 86.8047 18.75 85.9258 17.3438 85.9258C16.2969 85.9258 15.5586 86.4492 15.1289 87.4961V97H13.0664V84.3203H15.0117ZM40.3125 91.2695C40.3125 93.2461 39.957 94.7344 39.2461 95.7344C38.5352 96.7344 37.5039 97.2344 36.1523 97.2344C34.8086 97.2344 33.8008 96.6562 33.1289 95.5L33.0234 97H31.1367V79H33.1992V85.7148C33.8789 84.6289 34.8555 84.0859 36.1289 84.0859C37.5195 84.0859 38.5625 84.5781 39.2578 85.5625C39.9531 86.5469 40.3047 88.0312 40.3125 90.0156V91.2695ZM38.25 90.0859C38.25 88.5859 38.0391 87.5195 37.6172 86.8867C37.2031 86.2461 36.5273 85.9258 35.5898 85.9258C34.5195 85.9258 33.7227 86.5039 33.1992 87.6602V93.6953C33.7148 94.8359 34.5195 95.4062 35.6133 95.4062C36.5508 95.4062 37.2227 95.0781 37.6289 94.4219C38.0352 93.7656 38.2422 92.7461 38.25 91.3633V90.0859ZM45.1992 97H43.125V84.3203H45.1992V97ZM45.3633 80.957C45.3633 81.3086 45.2656 81.6016 45.0703 81.8359C44.875 82.0703 44.5781 82.1875 44.1797 82.1875C43.7891 82.1875 43.4961 82.0703 43.3008 81.8359C43.1055 81.6016 43.0078 81.3086 43.0078 80.957C43.0078 80.6055 43.1055 80.3086 43.3008 80.0664C43.4961 79.8242 43.7891 79.7031 44.1797 79.7031C44.5703 79.7031 44.8633 79.8281 45.0586 80.0781C45.2617 80.3203 45.3633 80.6133 45.3633 80.957ZM53.0039 97.2344C51.4258 97.2344 50.2148 96.7656 49.3711 95.8281C48.5273 94.8828 48.0977 93.5 48.082 91.6797V90.1445C48.082 88.2539 48.4922 86.7734 49.3125 85.7031C50.1406 84.625 51.293 84.0859 52.7695 84.0859C54.2539 84.0859 55.3633 84.5586 56.0977 85.5039C56.832 86.4492 57.207 87.9219 57.2227 89.9219V91.2812H50.1445V91.5742C50.1445 92.9336 50.3984 93.9219 50.9062 94.5391C51.4219 95.1562 52.1602 95.4648 53.1211 95.4648C53.7305 95.4648 54.2656 95.3516 54.7266 95.125C55.1953 94.8906 55.6328 94.5234 56.0391 94.0234L57.1172 95.3359C56.2188 96.6016 54.8477 97.2344 53.0039 97.2344ZM52.7695 85.8672C51.9102 85.8672 51.2734 86.1641 50.8594 86.7578C50.4453 87.3438 50.2109 88.2578 50.1562 89.5H55.1484V89.2188C55.0938 88.0156 54.875 87.1562 54.4922 86.6406C54.1172 86.125 53.543 85.8672 52.7695 85.8672ZM61.6758 84.3203L61.7344 85.6914C62.5391 84.6211 63.5664 84.0859 64.8164 84.0859C67.0586 84.0859 68.1953 85.582 68.2266 88.5742V97H66.1641V88.668C66.1641 87.6758 65.9961 86.9727 65.6602 86.5586C65.332 86.1367 64.8359 85.9258 64.1719 85.9258C63.6562 85.9258 63.1914 86.0977 62.7773 86.4414C62.3711 86.7852 62.043 87.2344 61.793 87.7891V97H59.7188V84.3203H61.6758ZM74.0625 81.25V84.3203H75.9727V85.9961H74.0625V93.8594C74.0625 94.3594 74.1445 94.7383 74.3086 94.9961C74.4727 95.2539 74.7539 95.3828 75.1523 95.3828C75.4258 95.3828 75.7031 95.3359 75.9844 95.2422L75.9609 97C75.4922 97.1562 75.0117 97.2344 74.5195 97.2344C73.6992 97.2344 73.0742 96.9414 72.6445 96.3555C72.2148 95.7695 72 94.9414 72 93.8711V85.9961H70.0664V84.3203H72V81.25H74.0625ZM82.9805 97.2344C81.4023 97.2344 80.1914 96.7656 79.3477 95.8281C78.5039 94.8828 78.0742 93.5 78.0586 91.6797V90.1445C78.0586 88.2539 78.4688 86.7734 79.2891 85.7031C80.1172 84.625 81.2695 84.0859 82.7461 84.0859C84.2305 84.0859 85.3398 84.5586 86.0742 85.5039C86.8086 86.4492 87.1836 87.9219 87.1992 89.9219V91.2812H80.1211V91.5742C80.1211 92.9336 80.375 93.9219 80.8828 94.5391C81.3984 95.1562 82.1367 95.4648 83.0977 95.4648C83.707 95.4648 84.2422 95.3516 84.7031 95.125C85.1719 94.8906 85.6094 94.5234 86.0156 94.0234L87.0938 95.3359C86.1953 96.6016 84.8242 97.2344 82.9805 97.2344ZM82.7461 85.8672C81.8867 85.8672 81.25 86.1641 80.8359 86.7578C80.4219 87.3438 80.1875 88.2578 80.1328 89.5H85.125V89.2188C85.0703 88.0156 84.8516 87.1562 84.4688 86.6406C84.0938 86.125 83.5195 85.8672 82.7461 85.8672ZM101.367 93.7539C101.367 93.3086 101.199 92.9258 100.863 92.6055C100.527 92.2852 99.8789 91.9102 98.918 91.4805C97.8008 91.0195 97.0117 90.625 96.5508 90.2969C96.0977 89.9688 95.7578 89.5977 95.5312 89.1836C95.3047 88.7617 95.1914 88.2617 95.1914 87.6836C95.1914 86.6523 95.5664 85.7969 96.3164 85.1172C97.0742 84.4297 98.0391 84.0859 99.2109 84.0859C100.445 84.0859 101.438 84.4453 102.188 85.1641C102.938 85.8828 103.312 86.8047 103.312 87.9297H101.25C101.25 87.3594 101.059 86.875 100.676 86.4766C100.293 86.0703 99.8047 85.8672 99.2109 85.8672C98.6016 85.8672 98.1211 86.0273 97.7695 86.3477C97.4258 86.6602 97.2539 87.082 97.2539 87.6133C97.2539 88.0352 97.3789 88.375 97.6289 88.6328C97.8867 88.8906 98.5 89.2305 99.4688 89.6523C101.008 90.2539 102.055 90.8438 102.609 91.4219C103.164 91.9922 103.441 92.7188 103.441 93.6016C103.441 94.7031 103.062 95.5859 102.305 96.25C101.547 96.9062 100.531 97.2344 99.2578 97.2344C97.9375 97.2344 96.8672 96.8555 96.0469 96.0977C95.2266 95.3398 94.8164 94.3789 94.8164 93.2148H96.9023C96.9258 93.918 97.1406 94.4688 97.5469 94.8672C97.9531 95.2656 98.5234 95.4648 99.2578 95.4648C99.9453 95.4648 100.469 95.3125 100.828 95.0078C101.188 94.6953 101.367 94.2773 101.367 93.7539ZM112.676 97C112.551 96.7266 112.461 96.2656 112.406 95.6172C111.672 96.6953 110.734 97.2344 109.594 97.2344C108.445 97.2344 107.547 96.9141 106.898 96.2734C106.258 95.625 105.938 94.7148 105.938 93.543C105.938 92.2539 106.375 91.2305 107.25 90.4727C108.125 89.7148 109.324 89.3281 110.848 89.3125H112.371V87.9648C112.371 87.207 112.203 86.668 111.867 86.3477C111.531 86.0273 111.02 85.8672 110.332 85.8672C109.707 85.8672 109.199 86.0547 108.809 86.4297C108.418 86.7969 108.223 87.2656 108.223 87.8359H106.148C106.148 87.1875 106.34 86.5703 106.723 85.9844C107.105 85.3906 107.621 84.9258 108.27 84.5898C108.918 84.2539 109.641 84.0859 110.438 84.0859C111.734 84.0859 112.719 84.4102 113.391 85.0586C114.07 85.6992 114.418 86.6367 114.434 87.8711V94.2695C114.441 95.2461 114.574 96.0938 114.832 96.8125V97H112.676ZM109.91 95.3477C110.418 95.3477 110.902 95.207 111.363 94.9258C111.824 94.6445 112.16 94.293 112.371 93.8711V90.8477H111.199C110.215 90.8633 109.438 91.0859 108.867 91.5156C108.297 91.9375 108.012 92.5312 108.012 93.2969C108.012 94.0156 108.156 94.5391 108.445 94.8672C108.734 95.1875 109.223 95.3477 109.91 95.3477ZM119.613 84.3203L119.672 85.6914C120.477 84.6211 121.504 84.0859 122.754 84.0859C124.996 84.0859 126.133 85.582 126.164 88.5742V97H124.102V88.668C124.102 87.6758 123.934 86.9727 123.598 86.5586C123.27 86.1367 122.773 85.9258 122.109 85.9258C121.594 85.9258 121.129 86.0977 120.715 86.4414C120.309 86.7852 119.98 87.2344 119.73 87.7891V97H117.656V84.3203H119.613ZM128.848 90.0742C128.848 88.2305 129.293 86.7734 130.184 85.7031C131.082 84.625 132.266 84.0859 133.734 84.0859C135.203 84.0859 136.383 84.6094 137.273 85.6562C138.172 86.7031 138.633 88.1289 138.656 89.9336V91.2695C138.656 93.1055 138.211 94.5586 137.32 95.6289C136.43 96.6992 135.242 97.2344 133.758 97.2344C132.289 97.2344 131.109 96.7148 130.219 95.6758C129.336 94.6367 128.879 93.2305 128.848 91.457V90.0742ZM130.922 91.2695C130.922 92.5742 131.176 93.6016 131.684 94.3516C132.199 95.0938 132.891 95.4648 133.758 95.4648C135.586 95.4648 136.527 94.1445 136.582 91.5039V90.0742C136.582 88.7773 136.324 87.7539 135.809 87.0039C135.293 86.2461 134.602 85.8672 133.734 85.8672C132.883 85.8672 132.199 86.2461 131.684 87.0039C131.176 87.7539 130.922 88.7734 130.922 90.0625V91.2695ZM156 91.2695C156 93.2773 155.637 94.7734 154.91 95.7578C154.191 96.7422 153.172 97.2344 151.852 97.2344C150.578 97.2344 149.598 96.7539 148.91 95.793V101.875H146.848V84.3203H148.723L148.828 85.7266C149.523 84.6328 150.52 84.0859 151.816 84.0859C153.207 84.0859 154.246 84.5703 154.934 85.5391C155.621 86.5078 155.977 87.957 156 89.8867V91.2695ZM153.938 90.0859C153.938 88.6641 153.719 87.6172 153.281 86.9453C152.844 86.2656 152.141 85.9258 151.172 85.9258C150.18 85.9258 149.426 86.4219 148.91 87.4141V94.0117C149.418 94.9805 150.18 95.4648 151.195 95.4648C152.133 95.4648 152.82 95.1289 153.258 94.457C153.703 93.7773 153.93 92.7422 153.938 91.3516V90.0859ZM165.199 97C165.074 96.7266 164.984 96.2656 164.93 95.6172C164.195 96.6953 163.258 97.2344 162.117 97.2344C160.969 97.2344 160.07 96.9141 159.422 96.2734C158.781 95.625 158.461 94.7148 158.461 93.543C158.461 92.2539 158.898 91.2305 159.773 90.4727C160.648 89.7148 161.848 89.3281 163.371 89.3125H164.895V87.9648C164.895 87.207 164.727 86.668 164.391 86.3477C164.055 86.0273 163.543 85.8672 162.855 85.8672C162.23 85.8672 161.723 86.0547 161.332 86.4297C160.941 86.7969 160.746 87.2656 160.746 87.8359H158.672C158.672 87.1875 158.863 86.5703 159.246 85.9844C159.629 85.3906 160.145 84.9258 160.793 84.5898C161.441 84.2539 162.164 84.0859 162.961 84.0859C164.258 84.0859 165.242 84.4102 165.914 85.0586C166.594 85.6992 166.941 86.6367 166.957 87.8711V94.2695C166.965 95.2461 167.098 96.0938 167.355 96.8125V97H165.199ZM162.434 95.3477C162.941 95.3477 163.426 95.207 163.887 94.9258C164.348 94.6445 164.684 94.293 164.895 93.8711V90.8477H163.723C162.738 90.8633 161.961 91.0859 161.391 91.5156C160.82 91.9375 160.535 92.5312 160.535 93.2969C160.535 94.0156 160.68 94.5391 160.969 94.8672C161.258 95.1875 161.746 95.3477 162.434 95.3477ZM175.418 86.2656C175.129 86.2109 174.816 86.1836 174.48 86.1836C173.418 86.1836 172.676 86.7656 172.254 87.9297V97H170.18V84.3203H172.195L172.23 85.6094C172.785 84.5938 173.57 84.0859 174.586 84.0859C174.914 84.0859 175.188 84.1406 175.406 84.25L175.418 86.2656ZM183.551 97C183.426 96.7266 183.336 96.2656 183.281 95.6172C182.547 96.6953 181.609 97.2344 180.469 97.2344C179.32 97.2344 178.422 96.9141 177.773 96.2734C177.133 95.625 176.812 94.7148 176.812 93.543C176.812 92.2539 177.25 91.2305 178.125 90.4727C179 89.7148 180.199 89.3281 181.723 89.3125H183.246V87.9648C183.246 87.207 183.078 86.668 182.742 86.3477C182.406 86.0273 181.895 85.8672 181.207 85.8672C180.582 85.8672 180.074 86.0547 179.684 86.4297C179.293 86.7969 179.098 87.2656 179.098 87.8359H177.023C177.023 87.1875 177.215 86.5703 177.598 85.9844C177.98 85.3906 178.496 84.9258 179.145 84.5898C179.793 84.2539 180.516 84.0859 181.312 84.0859C182.609 84.0859 183.594 84.4102 184.266 85.0586C184.945 85.6992 185.293 86.6367 185.309 87.8711V94.2695C185.316 95.2461 185.449 96.0938 185.707 96.8125V97H183.551ZM180.785 95.3477C181.293 95.3477 181.777 95.207 182.238 94.9258C182.699 94.6445 183.035 94.293 183.246 93.8711V90.8477H182.074C181.09 90.8633 180.312 91.0859 179.742 91.5156C179.172 91.9375 178.887 92.5312 178.887 93.2969C178.887 94.0156 179.031 94.5391 179.32 94.8672C179.609 95.1875 180.098 95.3477 180.785 95.3477ZM196.758 81.25V84.3203H198.668V85.9961H196.758V93.8594C196.758 94.3594 196.84 94.7383 197.004 94.9961C197.168 95.2539 197.449 95.3828 197.848 95.3828C198.121 95.3828 198.398 95.3359 198.68 95.2422L198.656 97C198.188 97.1562 197.707 97.2344 197.215 97.2344C196.395 97.2344 195.77 96.9414 195.34 96.3555C194.91 95.7695 194.695 94.9414 194.695 93.8711V85.9961H192.762V84.3203H194.695V81.25H196.758ZM200.473 90.0742C200.473 88.2305 200.918 86.7734 201.809 85.7031C202.707 84.625 203.891 84.0859 205.359 84.0859C206.828 84.0859 208.008 84.6094 208.898 85.6562C209.797 86.7031 210.258 88.1289 210.281 89.9336V91.2695C210.281 93.1055 209.836 94.5586 208.945 95.6289C208.055 96.6992 206.867 97.2344 205.383 97.2344C203.914 97.2344 202.734 96.7148 201.844 95.6758C200.961 94.6367 200.504 93.2305 200.473 91.457V90.0742ZM202.547 91.2695C202.547 92.5742 202.801 93.6016 203.309 94.3516C203.824 95.0938 204.516 95.4648 205.383 95.4648C207.211 95.4648 208.152 94.1445 208.207 91.5039V90.0742C208.207 88.7773 207.949 87.7539 207.434 87.0039C206.918 86.2461 206.227 85.8672 205.359 85.8672C204.508 85.8672 203.824 86.2461 203.309 87.0039C202.801 87.7539 202.547 88.7734 202.547 90.0625V91.2695ZM212.52 90.0859C212.52 88.1328 212.883 86.6445 213.609 85.6211C214.344 84.5977 215.395 84.0859 216.762 84.0859C217.973 84.0859 218.918 84.5781 219.598 85.5625V79H221.672V97H219.773L219.668 95.6406C218.988 96.7031 218.016 97.2344 216.75 97.2344C215.438 97.2344 214.406 96.7266 213.656 95.7109C212.914 94.6875 212.535 93.2461 212.52 91.3867V90.0859ZM214.594 91.2695C214.594 92.6914 214.805 93.7383 215.227 94.4102C215.648 95.0742 216.336 95.4062 217.289 95.4062C218.32 95.4062 219.09 94.8867 219.598 93.8477V87.4492C219.066 86.4336 218.301 85.9258 217.301 85.9258C216.348 85.9258 215.66 86.2617 215.238 86.9336C214.816 87.5977 214.602 88.6211 214.594 90.0039V91.2695ZM224.426 90.0742C224.426 88.2305 224.871 86.7734 225.762 85.7031C226.66 84.625 227.844 84.0859 229.312 84.0859C230.781 84.0859 231.961 84.6094 232.852 85.6562C233.75 86.7031 234.211 88.1289 234.234 89.9336V91.2695C234.234 93.1055 233.789 94.5586 232.898 95.6289C232.008 96.6992 230.82 97.2344 229.336 97.2344C227.867 97.2344 226.688 96.7148 225.797 95.6758C224.914 94.6367 224.457 93.2305 224.426 91.457V90.0742ZM226.5 91.2695C226.5 92.5742 226.754 93.6016 227.262 94.3516C227.777 95.0938 228.469 95.4648 229.336 95.4648C231.164 95.4648 232.105 94.1445 232.16 91.5039V90.0742C232.16 88.7773 231.902 87.7539 231.387 87.0039C230.871 86.2461 230.18 85.8672 229.312 85.8672C228.461 85.8672 227.777 86.2461 227.262 87.0039C226.754 87.7539 226.5 88.7734 226.5 90.0625V91.2695ZM243.07 93.7539C243.07 93.3086 242.902 92.9258 242.566 92.6055C242.23 92.2852 241.582 91.9102 240.621 91.4805C239.504 91.0195 238.715 90.625 238.254 90.2969C237.801 89.9688 237.461 89.5977 237.234 89.1836C237.008 88.7617 236.895 88.2617 236.895 87.6836C236.895 86.6523 237.27 85.7969 238.02 85.1172C238.777 84.4297 239.742 84.0859 240.914 84.0859C242.148 84.0859 243.141 84.4453 243.891 85.1641C244.641 85.8828 245.016 86.8047 245.016 87.9297H242.953C242.953 87.3594 242.762 86.875 242.379 86.4766C241.996 86.0703 241.508 85.8672 240.914 85.8672C240.305 85.8672 239.824 86.0273 239.473 86.3477C239.129 86.6602 238.957 87.082 238.957 87.6133C238.957 88.0352 239.082 88.375 239.332 88.6328C239.59 88.8906 240.203 89.2305 241.172 89.6523C242.711 90.2539 243.758 90.8438 244.312 91.4219C244.867 91.9922 245.145 92.7188 245.145 93.6016C245.145 94.7031 244.766 95.5859 244.008 96.25C243.25 96.9062 242.234 97.2344 240.961 97.2344C239.641 97.2344 238.57 96.8555 237.75 96.0977C236.93 95.3398 236.52 94.3789 236.52 93.2148H238.605C238.629 93.918 238.844 94.4688 239.25 94.8672C239.656 95.2656 240.227 95.4648 240.961 95.4648C241.648 95.4648 242.172 95.3125 242.531 95.0078C242.891 94.6953 243.07 94.2773 243.07 93.7539Z" fill="#B3C1A0"/>
</svg>
