<svg width="190" height="192" viewBox="0 0 190 192" fill="none" xmlns="http://www.w3.org/2000/svg">
<path d="M129.356 72.9797L142.368 64.3688C142.368 64.3688 141.602 84.0782 161.503 83.6955C161.503 83.6955 189.154 81.495 174.802 52.4091C174.802 52.4091 183.892 28.1071 147.534 24.3757C147.534 24.3757 140.359 9.83282 120.649 18.8265C120.649 18.8265 98.5478 38.2489 129.834 52.4091L129.356 72.9797Z" fill="#F8B736"/>
<path d="M98.9303 53.9399C98.9303 53.9399 146.482 53.0788 151.648 95.3681C156.815 137.657 120.553 164.447 97.2081 160.62C73.8629 156.697 53.101 151.531 44.4901 121.297C35.8791 91.0626 49.6566 53.0788 98.9303 53.9399Z" fill="#D4E9B8"/>
<path d="M32.6259 117.278C32.6259 117.278 21.7187 136.892 0 121.201C0 121.201 13.3948 103.31 32.6259 117.278Z" fill="#9DD25F"/>
<path d="M39.5156 125.124C39.5156 125.124 46.9785 137.084 31.6701 144.259C31.7658 144.164 26.0252 131.343 39.5156 125.124Z" fill="#65B479"/>
<path d="M161.982 119.288C161.982 119.288 170.019 133.639 185.901 122.158C185.901 122.158 176.046 109.146 161.982 119.288Z" fill="#9DD25F"/>
<path d="M156.911 125.028C156.911 125.028 151.458 133.83 162.652 138.997C162.652 139.093 166.862 129.621 156.911 125.028Z" fill="#65B479"/>
<path d="M71.7583 65.6127L63.3387 52.4092C63.3387 52.4092 82.9525 53.4617 82.9525 33.6565C82.9525 33.6565 81.2303 6.00585 51.8575 19.879C51.8575 19.879 27.6512 10.407 23.3457 46.6686C23.3457 46.6686 8.61144 53.5574 17.3181 73.4582C17.3181 73.4582 36.3578 95.9423 50.9964 64.8473L71.7583 65.6127Z" fill="#F8B736"/>
<path d="M48.6039 85.1307C45.2552 84.3652 41.9065 84.0782 38.5578 84.2696C36.9313 84.3652 36.9313 86.9485 38.5578 86.8528C41.7151 86.6615 44.8725 86.9485 47.9341 87.6183C49.5606 88.001 50.2304 85.4177 48.6039 85.1307Z" fill="#437850"/>
<path d="M48.2213 106.849C44.1072 109.241 39.7061 111.155 35.1136 112.59C33.4871 113.068 34.1568 115.556 35.7833 115.078C40.5672 113.547 45.1597 111.633 49.4651 109.05C50.996 108.189 49.6565 105.988 48.2213 106.849Z" fill="#437850"/>
<path d="M38.6534 9.45018C37.3139 6.19716 35.4961 3.23117 33.2955 0.456536C32.2431 -0.882943 30.4252 1.0306 31.4776 2.2744C33.3912 4.66633 35.0177 7.24961 36.1658 10.1199C36.8356 11.6508 39.3232 10.981 38.6534 9.45018Z" fill="#437850"/>
<path d="M20.8577 21.6968C16.3609 19.6876 12.1511 17.2 8.32398 14.234C6.9845 13.1815 5.7407 15.4778 6.9845 16.4345C10.9073 19.4005 15.1171 21.8881 19.5182 23.8974C21.049 24.6628 22.3885 22.4622 20.8577 21.6968Z" fill="#437850"/>
<path d="M181.117 37.4835C184.179 36.0484 187.049 34.2305 189.537 31.9342C190.78 30.7861 188.962 28.9682 187.719 30.1164C185.327 32.2213 182.648 33.9435 179.777 35.2829C178.342 35.9527 179.682 38.2489 181.117 37.4835Z" fill="#437850"/>
<path d="M168.009 20.0703C169.827 15.5735 172.123 11.4593 174.802 7.53658C175.759 6.1971 173.558 4.85762 172.602 6.1971C169.731 10.3112 167.339 14.7124 165.522 19.4005C164.852 20.9314 167.339 21.6011 168.009 20.0703Z" fill="#437850"/>
<path d="M141.889 87.6183C144.95 86.9485 148.108 86.6615 151.265 86.8528C152.892 86.9485 152.892 84.3652 151.265 84.2696C147.821 84.0782 144.472 84.3652 141.219 85.1307C139.593 85.4177 140.262 88.001 141.889 87.6183Z" fill="#437850"/>
<path d="M140.262 109.05C144.568 111.537 149.16 113.547 153.944 115.077C155.57 115.556 156.24 113.068 154.614 112.59C150.021 111.155 145.716 109.241 141.506 106.849C140.166 105.988 138.827 108.189 140.262 109.05Z" fill="#437850"/>
<path d="M110.507 155.453C110.507 155.453 106.967 129.525 138.253 129.047C138.157 129.047 138.157 155.071 110.507 155.453Z" fill="#9DD25F"/>
<path d="M110.89 154.879C110.89 154.879 126.102 137.466 141.985 156.697C141.985 156.602 124.954 171.91 110.89 154.879Z" fill="#65B479"/>
<path d="M100.077 162.055C100.077 162.055 122.466 148.565 135.286 177.076C135.286 177.172 111.367 187.314 100.077 162.055Z" fill="#9DD25F"/>
<path d="M100.747 162.246C100.747 162.246 122.848 169.422 111.367 191.524C111.463 191.524 90.605 181.86 100.747 162.246Z" fill="#65B479"/>
<path d="M95.1979 160.333C95.1979 160.333 72.8095 146.842 59.9888 175.354C59.9888 175.354 83.908 185.592 95.1979 160.333Z" fill="#9DD25F"/>
<path d="M94.4324 160.524C94.4324 160.524 72.331 167.7 83.8122 189.801C83.8122 189.801 104.574 180.138 94.4324 160.524Z" fill="#65B479"/>
<path d="M83.1428 155.453C83.1428 155.453 86.6829 129.525 55.3965 129.047C55.4922 129.047 55.4922 155.071 83.1428 155.453Z" fill="#9DD25F"/>
<path d="M82.76 154.879C82.76 154.879 67.5473 137.466 51.6649 156.697C51.5693 156.601 68.6955 171.91 82.76 154.879Z" fill="#65B479"/>
<path opacity="0.79" d="M111.463 155.453C111.463 155.453 108.88 141.389 124.475 120.34C139.975 99.2908 144.185 81.7819 129.546 64.1773C114.908 46.5727 87.2569 42.2672 70.8961 56.0447C54.4397 69.8222 48.412 94.0285 60.563 110.485C72.6183 126.941 82.186 143.302 80.4638 154.592L111.463 155.453Z" fill="#28A8A1"/>
<path d="M86.9696 162.342C86.9696 162.342 87.0653 162.342 87.3524 162.246C90.127 161.576 108.497 157.558 109.549 163.203C110.698 169.231 106.679 171.814 100.843 171.814C95.0065 171.814 86.1086 172.484 84.4821 169.135C82.9512 165.882 84.0993 162.342 86.9696 162.342Z" fill="#BDC0C1"/>
<path d="M85.0562 153.731C85.0562 153.731 85.1519 153.731 85.4389 153.635C88.6919 152.965 110.793 148.947 112.133 154.592C113.568 160.62 108.688 163.203 101.704 163.203C94.7196 163.203 84.0037 163.873 82.0902 160.524C80.1767 157.175 81.6118 153.731 85.0562 153.731Z" fill="#D6D9D9"/>
<g opacity="0.65">
<g opacity="0.65">
<path opacity="0.65" d="M104.574 61.4982C114.716 66.8561 127.92 79.2942 126.771 91.9235C126.58 93.7414 129.45 93.7414 129.642 91.9235C130.886 78.2417 117.012 64.8469 106.01 59.0106C104.383 58.1495 102.948 60.6371 104.574 61.4982Z" fill="white"/>
</g>
</g>
<path d="M96.8246 153.731C96.8246 153.731 101.991 112.303 83.9082 97.5684" stroke="#CBE898" stroke-width="0.863964" stroke-miterlimit="10"/>
<path d="M97.1118 137.944C97.1118 137.944 97.8772 126.367 111.846 110.867" stroke="#CBE898" stroke-width="0.863964" stroke-miterlimit="10"/>
<path d="M97.4941 134.021C97.4941 134.021 109.358 83.3124 105.053 63.5072" stroke="#CBE898" stroke-width="0.863964" stroke-miterlimit="10"/>
<path d="M94.9108 117.756C94.9108 117.756 101.321 110.867 98.2595 99.5774C95.6763 89.8183 86.7783 83.2166 76.7322 82.5469C73.2878 82.3555 69.6521 81.3988 66.9731 79.0068C66.9731 79.0068 62.3806 124.549 94.9108 117.756Z" fill="#CBE898"/>
<path d="M94.6237 117.852C94.6237 117.852 92.9015 104.935 77.3062 91.0622" stroke="#28A8A1" stroke-width="0.863964" stroke-miterlimit="10"/>
<path d="M109.836 115.46C109.836 115.46 106.105 111.442 107.827 104.84C109.358 99.1948 114.525 95.3678 120.361 94.9851C122.37 94.8894 124.475 94.3153 126.101 92.9758C126.006 92.8802 128.685 119.383 109.836 115.46Z" fill="#CBE898"/>
<path d="M109.358 114.407C109.358 114.407 113.281 108.667 122.274 100.63" stroke="#28A8A1" stroke-width="0.863964" stroke-miterlimit="10"/>
<path d="M104.862 90.7753C104.862 90.7753 112.037 89.0531 114.908 80.2508C117.395 72.6923 114.429 64.5597 108.115 59.7759C105.914 58.1494 103.905 55.9488 103.139 53.2698C103.235 53.1742 80.5596 81.1119 104.862 90.7753Z" fill="#CBE898"/>
<path d="M104.574 89.8185C104.574 89.8185 107.158 77.7632 103.713 63.89" stroke="#28A8A1" stroke-width="0.863964" stroke-miterlimit="10"/>
</svg>
