<svg width="157" height="198" viewBox="0 0 157 198" fill="none" xmlns="http://www.w3.org/2000/svg">
<path d="M70.2574 26.4887C70.2574 27.0523 70.1635 27.6158 70.1635 28.0855C69.9756 27.9915 69.8817 27.8976 69.6938 27.8037C69.9756 27.334 70.0696 26.9583 70.2574 26.4887Z" fill="#E9EDED"/>
<path d="M45.1794 162.307C46.964 162.307 46.964 159.489 45.1794 159.489C43.3009 159.489 43.3009 162.307 45.1794 162.307Z" fill="#261B0A"/>
<path d="M79.1798 73.2641C76.362 70.6341 53.8196 30.2457 16.2489 61.2415C-21.3217 92.2372 66.9693 160.804 79.1798 168.318C91.3902 175.832 177.803 95.055 149.625 64.9985C121.447 34.942 79.1798 73.2641 79.1798 73.2641Z" fill="#F9F1D7"/>
<path d="M23.4816 97.497C23.4816 97.497 12.6801 85.4744 0 100.033C0 100.033 12.3044 110.365 23.4816 97.497Z" fill="#9DD25F"/>
<path d="M27.1444 90.9221C27.1444 90.9221 30.4318 81.3416 18.5971 78.8056C18.5032 78.7116 16.6246 88.6679 27.1444 90.9221Z" fill="#65B479"/>
<path d="M137.79 89.9831C137.79 89.9831 153.664 86.8835 147.652 68.5679C147.746 68.4739 132.53 73.7338 137.79 89.9831Z" fill="#9DD25F"/>
<path d="M141.641 96.4642C141.641 96.4642 148.216 104.26 156.482 95.3371C156.388 95.3371 148.967 88.5744 141.641 96.4642Z" fill="#65B479"/>
<path d="M128.397 21.4165C128.397 21.4165 144.271 18.3169 138.26 0.0012321C138.354 -0.0926945 123.138 5.1672 128.397 21.4165Z" fill="#9DD25F"/>
<path d="M132.249 27.8976C132.249 27.8976 138.823 35.6935 147.089 26.7705C146.995 26.7705 139.575 20.0078 132.249 27.8976Z" fill="#65B479"/>
<path d="M34.1904 23.2951C34.1904 23.2951 18.3168 20.1956 24.3281 1.87988C24.2342 1.78595 39.4503 7.04584 34.1904 23.2951Z" fill="#9DD25F"/>
<path d="M30.3394 29.7763C30.3394 29.7763 23.7646 37.5722 15.499 28.6491C15.499 28.6491 23.0132 21.8864 30.3394 29.7763Z" fill="#65B479"/>
<path d="M37.5706 126.05C37.5706 126.05 32.8743 120.039 40.2005 115.719C47.5268 111.304 49.5932 119.851 49.5932 119.851C49.5932 119.851 54.8531 112.901 60.2069 119.57C65.5607 126.332 58.9859 131.029 56.1681 130.559C56.1681 130.559 57.3891 136.101 52.0353 137.697C46.7754 139.294 44.5212 135.537 44.5212 135.537C44.5212 135.537 39.9188 142.206 34.2832 136.195C28.7415 130.183 35.5042 125.111 37.5706 126.05Z" fill="#65B479"/>
<path d="M50.7207 136.007C50.7207 136.007 52.5053 136.476 53.4446 134.034C53.4446 134.128 51.2843 133.94 50.7207 136.007Z" fill="#A2D1AE"/>
<path d="M59.2676 124.735C59.2676 124.735 58.1405 126.144 59.9251 128.023C59.9251 128.117 61.0522 126.144 59.2676 124.735Z" fill="#478055"/>
<path d="M22.5427 138.73C22.5427 138.73 18.2221 133.189 24.9848 129.15C31.7476 125.111 33.72 133.001 33.72 133.001C33.72 133.001 38.5103 126.52 43.5823 132.719C48.5604 138.918 42.4552 143.333 39.8252 142.863C39.8252 142.863 40.9524 147.935 36.0682 149.438C31.184 150.941 29.1176 147.466 29.1176 147.466C29.1176 147.466 24.797 153.665 19.631 148.029C14.3711 142.581 20.5703 137.885 22.5427 138.73Z" fill="#4E8B5E"/>
<path d="M25.6425 147.654C25.6425 147.654 25.6425 145.869 23.1064 145.399C23.1064 145.399 23.3882 147.654 25.6425 147.654Z" fill="#356141"/>
<path d="M31.9355 147.56C31.9355 147.56 33.7202 148.029 34.6594 145.587C34.6594 145.681 32.4991 145.493 31.9355 147.56Z" fill="#65B47A"/>
<path d="M34.6591 126.238C35.8802 128.587 37.1012 130.935 38.2283 133.283C41.234 139.576 52.5052 165.03 55.4169 163.621C59.8314 161.555 42.455 129.526 37.5708 124.923C34.3773 122.106 33.1563 123.421 34.6591 126.238Z" fill="#CD932A"/>
<path d="M18.316 128.962C18.316 128.962 12.4925 121.542 21.6034 116.094C30.7143 110.647 33.3442 121.26 33.3442 121.26C33.3442 121.26 39.8252 112.619 46.5879 120.979C53.2567 129.338 44.9911 135.161 41.6098 134.692C41.6098 134.692 43.1126 141.548 36.5377 143.615C29.9629 145.681 27.1451 140.891 27.1451 140.891C27.1451 140.891 21.4155 149.157 14.371 141.736C7.32654 134.128 15.686 127.741 18.316 128.962Z" fill="#9DD25F"/>
<path d="M28.4595 121.636C28.4595 121.636 22.6361 114.216 31.7469 108.768C40.8578 103.32 43.4878 113.934 43.4878 113.934C43.4878 113.934 49.9687 105.293 56.7314 113.652C63.4002 122.012 55.1347 127.835 51.7533 127.365C51.7533 127.365 53.2561 134.222 46.6813 136.288C40.1064 138.355 37.2886 133.565 37.2886 133.565C37.2886 133.565 31.5591 141.83 24.5146 134.41C17.4701 126.802 25.8296 120.415 28.4595 121.636Z" fill="#9DD25F"/>
<path d="M28.0847 117.973C28.0847 117.973 25.9244 119.194 27.1454 122.387C27.1454 122.387 29.4936 120.509 28.0847 117.973Z" fill="#719845"/>
<path d="M46.2116 127.459C46.2116 127.459 44.0513 128.68 45.2724 131.874C45.2724 131.874 47.6205 129.995 46.2116 127.459Z" fill="#719845"/>
<path d="M34.7529 137.604C34.7529 137.604 34.7529 135.161 31.3716 134.598C31.3716 134.598 31.8412 137.604 34.7529 137.604Z" fill="#719845"/>
<path d="M54.0083 116.846C54.0083 116.846 54.0083 114.404 50.627 113.84C50.627 113.84 51.0966 116.846 54.0083 116.846Z" fill="#719845"/>
<path d="M17.7525 138.167C17.7525 138.167 17.7525 135.725 14.3711 135.162C14.3711 135.162 14.7468 138.073 17.7525 138.167Z" fill="#719845"/>
<path d="M38.322 118.348C38.322 118.348 36.1617 119.57 37.3827 122.763C37.4766 122.763 39.7309 120.978 38.322 118.348Z" fill="#C5E19F"/>
<path d="M50.8146 123.515C50.8146 123.515 49.124 121.73 46.3062 123.702C46.3062 123.702 48.6543 125.487 50.8146 123.515Z" fill="#C5E19F"/>
<path d="M25.1735 133.847C25.1735 133.847 23.4828 132.062 20.665 133.94C20.665 134.034 23.0132 135.819 25.1735 133.847Z" fill="#C5E19F"/>
<path d="M38.8864 111.116C38.8864 111.116 37.1957 109.332 34.3779 111.21C34.3779 111.304 36.7261 113.089 38.8864 111.116Z" fill="#C5E19F"/>
<path d="M116.093 128.399C116.093 128.399 118.911 121.354 110.645 119.194C102.379 117.033 102.755 125.863 102.755 125.863C102.755 125.863 95.8046 120.697 92.5171 128.68C89.2297 136.664 97.0256 139.294 99.4677 138.073C99.4677 138.073 99.9373 143.709 105.385 143.709C110.927 143.803 111.96 139.482 111.96 139.482C111.96 139.482 118.253 144.554 121.916 137.228C125.767 129.807 117.877 126.802 116.093 128.399Z" fill="#65B479"/>
<path d="M106.418 141.642C106.418 141.642 104.821 142.581 103.225 140.609C103.131 140.609 105.291 139.764 106.418 141.642Z" fill="#A2D1AE"/>
<path d="M94.9588 133.283C94.9588 133.283 96.4616 134.316 95.2406 136.664C95.2406 136.664 93.6438 135.067 94.9588 133.283Z" fill="#478055"/>
<path d="M134.22 136.288C134.22 136.288 136.756 129.714 129.148 127.835C121.446 125.863 121.916 134.034 121.916 134.034C121.916 134.034 115.435 129.244 112.429 136.57C109.423 143.99 116.562 146.339 118.91 145.212C118.91 145.212 119.286 150.377 124.452 150.471C129.524 150.565 130.557 146.526 130.557 146.526C130.557 146.526 136.38 151.223 139.856 144.366C143.143 137.603 135.817 134.786 134.22 136.288Z" fill="#4E8B5E"/>
<path d="M133.75 145.681C133.75 145.681 133.187 143.896 135.535 142.769C135.535 142.863 135.817 145.024 133.75 145.681Z" fill="#356141"/>
<path d="M127.645 147.372C127.645 147.372 126.048 148.311 124.452 146.339C124.452 146.339 126.518 145.493 127.645 147.372Z" fill="#65B47A"/>
<path d="M119.004 127.741C118.441 130.371 117.971 132.907 117.595 135.537C116.468 142.394 112.993 170.008 109.8 169.539C104.915 168.787 112.523 133.095 115.905 127.366C118.065 123.702 119.568 124.548 119.004 127.741Z" fill="#CD932A"/>
<path d="M135.348 125.675C135.348 125.675 138.823 116.846 128.491 114.216C118.159 111.586 118.723 122.481 118.723 122.481C118.723 122.481 109.987 116 105.949 125.956C101.91 135.913 111.49 139.106 114.684 137.603C114.684 137.603 115.247 144.554 122.104 144.648C128.961 144.742 130.275 139.388 130.275 139.388C130.275 139.388 138.165 145.681 142.674 136.57C147.37 127.459 137.602 123.702 135.348 125.675Z" fill="#9DD25F"/>
<path d="M123.606 121.542C123.606 121.542 127.082 112.713 116.75 110.083C106.418 107.453 106.981 118.348 106.981 118.348C106.981 118.348 98.2461 111.867 94.2073 121.824C90.1685 131.78 99.749 134.973 102.942 133.471C102.942 133.471 103.506 140.421 110.363 140.515C117.219 140.609 118.534 135.255 118.534 135.255C118.534 135.255 126.424 141.548 130.933 132.437C135.629 123.42 125.767 119.663 123.606 121.542Z" fill="#9DD25F"/>
<path d="M122.949 117.879C122.949 117.879 125.297 118.442 125.109 121.824C125.109 121.824 122.292 120.697 122.949 117.879Z" fill="#719845"/>
<path d="M108.297 132.156C108.297 132.156 110.645 132.719 110.457 136.101C110.363 136.101 107.639 134.973 108.297 132.156Z" fill="#719845"/>
<path d="M122.104 138.637C122.104 138.637 121.352 136.288 124.452 134.786C124.452 134.786 124.921 137.791 122.104 138.637Z" fill="#719845"/>
<path d="M97.7769 124.266C97.7769 124.266 97.0255 121.918 100.125 120.415C100.125 120.415 100.501 123.327 97.7769 124.266Z" fill="#719845"/>
<path d="M138.635 134.316C138.635 134.316 137.884 131.968 140.983 130.465C140.983 130.465 141.359 133.377 138.635 134.316Z" fill="#719845"/>
<path d="M113.181 121.166C113.181 121.166 115.529 121.73 115.341 125.111C115.341 125.205 112.523 124.078 113.181 121.166Z" fill="#C5E19F"/>
<path d="M102.755 129.714C102.755 129.714 103.882 127.553 107.17 128.68C107.076 128.587 105.385 131.029 102.755 129.714Z" fill="#C5E19F"/>
<path d="M130.275 132.343C130.275 132.343 131.308 130.183 134.596 131.216C134.596 131.122 132.905 133.564 130.275 132.343Z" fill="#C5E19F"/>
<path d="M110.645 114.404C110.645 114.404 111.678 112.243 114.966 113.277C114.966 113.277 113.275 115.719 110.645 114.404Z" fill="#C5E19F"/>
<path d="M87.7267 73.5453C87.7267 73.5453 85.4724 59.1745 101.816 58.611C118.253 58.0474 113.744 74.3906 113.744 74.3906C113.744 74.3906 128.96 67.534 131.778 83.8772C134.596 100.22 119.004 101.911 114.778 98.5298C114.778 98.5298 111.678 108.862 101.252 106.701C90.8262 104.541 90.6384 95.9938 90.6384 95.9938C90.6384 95.9938 76.6433 102.85 72.8863 87.5404C69.1292 72.2303 85.0967 69.8822 87.7267 73.5453Z" fill="#65B479"/>
<path d="M100.406 102.474C100.406 102.474 102.942 104.917 106.887 101.817C106.887 101.817 103.318 99.3749 100.406 102.474Z" fill="#A2D1AE"/>
<path d="M125.297 91.5792C125.297 91.5792 122.104 92.9881 123.325 97.7784C123.325 97.6845 126.988 95.4302 125.297 91.5792Z" fill="#478055"/>
<path d="M50.5317 80.7778C50.5317 80.7778 48.3713 67.4402 63.5875 66.9706C78.7096 66.5009 74.5769 81.5292 74.5769 81.5292C74.5769 81.5292 88.6659 75.1422 91.2958 90.2644C93.9257 105.387 79.4611 106.889 75.5161 103.884C75.5161 103.884 72.6044 113.464 63.0239 111.398C53.4434 109.331 53.1616 101.536 53.1616 101.536C53.1616 101.536 40.1997 107.923 36.7245 93.7396C33.2492 79.5567 48.1835 77.3964 50.5317 80.7778Z" fill="#4E8B5E"/>
<path d="M47.4324 98.6239C47.4324 98.6239 49.217 95.6182 45.2721 92.5186C45.2721 92.5186 43.7692 96.4635 47.4324 98.6239Z" fill="#356141"/>
<path d="M58.1396 104.353C58.1396 104.353 60.6757 106.795 64.6206 103.696C64.6206 103.696 61.0514 101.254 58.1396 104.353Z" fill="#65B47A"/>
<path d="M82.655 71.1033C82.561 76.1753 82.3732 81.2474 82.0914 86.2255C81.34 99.5631 76.4558 152.726 82.655 153.195C92.0476 153.853 92.7051 83.8773 88.6663 71.6669C86.0363 63.871 82.7489 64.9042 82.655 71.1033Z" fill="#CD932A"/>
<path d="M52.6925 60.3954C52.6925 60.3954 49.8747 42.4554 70.2567 41.7979C90.6388 41.1404 85.0971 61.4286 85.0971 61.4286C85.0971 61.4286 104.07 52.8812 107.546 73.1694C111.021 93.4575 91.672 95.5239 86.4121 91.4851C86.4121 91.4851 82.4672 104.353 69.5993 101.629C56.6374 98.9053 56.3556 88.2916 56.3556 88.2916C56.3556 88.2916 38.9792 96.8389 34.1889 77.7718C29.4926 58.7986 49.499 55.8869 52.6925 60.3954Z" fill="#9DD25F"/>
<path d="M76.5495 57.6717C76.5495 57.6717 73.7317 39.7317 94.1138 39.0742C114.496 38.4167 108.954 58.7049 108.954 58.7049C108.954 58.7049 127.927 50.1575 131.403 70.4457C134.878 90.7338 115.529 92.8002 110.269 88.7614C110.269 88.7614 106.324 101.629 93.4563 98.9055C80.4944 96.1816 80.2127 85.5679 80.2127 85.5679C80.2127 85.5679 62.8362 94.1152 58.046 75.0481C53.2557 56.0749 73.2621 53.1632 76.5495 57.6717Z" fill="#9DD25F"/>
<path d="M79.2738 50.9091C79.2738 50.9091 74.5774 50.9091 73.6382 57.484C73.6382 57.484 79.2738 56.5447 79.2738 50.9091Z" fill="#719845"/>
<path d="M100.877 83.7834C100.877 83.7834 96.181 83.7834 95.2417 90.3582C95.2417 90.3582 100.877 89.419 100.877 83.7834Z" fill="#719845"/>
<path d="M72.2298 90.2642C72.2298 90.2642 74.578 86.2254 69.3181 82.0926C69.3181 82.0926 67.3456 87.4464 72.2298 90.2642Z" fill="#719845"/>
<path d="M123.889 73.3574C123.889 73.3574 126.237 69.3185 120.977 65.1858C120.977 65.1858 119.005 70.5396 123.889 73.3574Z" fill="#719845"/>
<path d="M43.1117 75.2359C43.1117 75.2359 45.4598 71.1971 40.1999 67.0643C40.1999 67.0643 38.2275 72.4181 43.1117 75.2359Z" fill="#719845"/>
<path d="M96.18 61.241C96.18 61.241 91.4837 61.241 90.5444 67.8158C90.5444 67.8158 96.18 66.8766 96.18 61.241Z" fill="#C5E19F"/>
<path d="M112.242 81.529C112.242 81.529 111.115 77.0205 104.446 77.678C104.446 77.678 106.794 82.9379 112.242 81.529Z" fill="#C5E19F"/>
<path d="M59.6429 75.0481C59.6429 75.0481 58.6097 70.4457 51.9409 71.1032C51.9409 71.0092 54.1012 76.2691 59.6429 75.0481Z" fill="#C5E19F"/>
<path d="M103.788 49.6878C103.788 49.6878 102.755 45.0854 96.0864 45.7428C96.0864 45.6489 98.2467 50.9088 103.788 49.6878Z" fill="#C5E19F"/>
<path d="M124.358 158.267C124.358 158.267 122.48 149.814 109.048 148.687C95.6167 147.56 96.5559 142.206 91.4839 142.206C86.4119 142.206 76.7374 139.294 69.5051 143.709C62.1788 148.217 58.3278 143.145 53.8193 148.781C49.3109 154.416 34.1887 158.267 43.7692 163.903C53.3497 169.539 77.3949 170.666 90.8264 167.284C104.164 163.903 130.557 170.666 124.358 158.267Z" fill="#6B3E10"/>
<path d="M88.8543 153.759C90.4511 153.759 90.4511 151.223 88.8543 151.223C87.2576 151.317 87.2576 153.759 88.8543 153.759Z" fill="#261B0A"/>
<path d="M71.2898 158.455C72.8866 158.455 72.8866 155.919 71.2898 155.919C69.6931 155.919 69.6931 158.455 71.2898 158.455Z" fill="#261B0A"/>
<path d="M109.8 156.952C111.396 156.952 111.396 154.416 109.8 154.416C108.203 154.416 108.203 156.952 109.8 156.952Z" fill="#261B0A"/>
<path d="M98.5281 163.621C100.125 163.621 100.125 161.085 98.5281 161.085C96.9314 161.085 96.9314 163.621 98.5281 163.621Z" fill="#261B0A"/>
<path d="M78.428 149.438C80.0248 149.438 80.0248 146.902 78.428 146.902C76.8313 146.996 76.8313 149.438 78.428 149.438Z" fill="#261B0A"/>
<path d="M57.764 153.195C59.3607 153.195 59.3607 150.659 57.764 150.659C56.1672 150.753 56.1672 153.195 57.764 153.195Z" fill="#261B0A"/>
<path d="M50.2498 161.649C51.8466 161.649 51.8466 159.113 50.2498 159.113C48.6531 159.206 48.6531 161.649 50.2498 161.649Z" fill="#261B0A"/>
<path d="M81.7153 162.776C83.312 162.776 83.312 160.24 81.7153 160.24C80.0246 160.24 80.0246 162.776 81.7153 162.776Z" fill="#261B0A"/>
<path d="M98.998 151.786C100.595 151.786 100.595 149.25 98.998 149.25C97.3073 149.25 97.3073 151.786 98.998 151.786Z" fill="#261B0A"/>
<path d="M120.413 161.555C122.01 161.555 122.01 159.019 120.413 159.019C118.816 159.019 118.816 161.555 120.413 161.555Z" fill="#261B0A"/>
<path d="M60.9573 162.118C62.5541 162.118 62.5541 159.582 60.9573 159.582C59.3606 159.676 59.3606 162.118 60.9573 162.118Z" fill="#261B0A"/>
<path d="M15.31 167.472C40.2005 167.66 113.557 167.66 140.42 162.212C143.332 161.649 145.398 164.842 143.708 167.191L135.16 179.025C133.939 180.716 134.597 183.064 136.475 183.909L143.895 187.009C147.089 188.324 146.244 193.02 142.768 193.208L20.0063 197.998C16.7189 198.092 15.4039 193.772 18.2217 192.081L23.9512 188.512C25.7358 187.385 26.0176 184.849 24.4209 183.44L13.1497 173.202C10.9894 171.135 12.3983 167.472 15.31 167.472Z" fill="#F8B736"/>
<path d="M33.8163 182.092C34.6 181.946 35.324 181.86 35.9884 181.833L35.6565 177.904C35.4063 178.399 35.0556 179.192 34.6044 180.282C34.2142 181.212 33.9515 181.815 33.8163 182.092ZM39.1175 187.93C39.1695 188.097 39.1312 188.262 39.0026 188.426C38.8735 188.578 38.6926 188.703 38.4599 188.803C38.2388 188.914 38.027 188.974 37.8243 188.982C37.4977 188.996 37.3077 188.902 37.2542 188.701C36.7821 187.107 36.4044 185.205 36.1211 182.995C35.1071 183.025 34.1032 183.163 33.1093 183.407C32.1239 185.219 31.2059 186.887 30.3553 188.411C30.2717 188.573 30.0915 188.716 29.8146 188.84C29.526 188.953 29.2578 189.015 29.0101 189.025C28.6947 189.038 28.5336 188.961 28.5266 188.792C28.5238 188.724 28.5433 188.65 28.5851 188.569C29.4207 186.955 30.1944 185.479 30.9061 184.141L30.6231 184.255C30.4457 184.33 30.2838 184.37 30.1374 184.376C29.991 184.382 29.877 184.353 29.7954 184.289C29.7025 184.225 29.654 184.142 29.6498 184.041C29.6451 183.928 29.6967 183.813 29.8047 183.696C29.9009 183.568 30.0485 183.455 30.2475 183.356C30.767 183.098 31.2323 182.893 31.6434 182.74C32.2081 181.668 32.8065 180.453 33.4384 179.095C34.1638 177.542 34.779 176.327 35.2842 175.449C35.3161 175.402 35.3593 175.355 35.4137 175.308L35.3933 175.224C35.3849 175.021 35.5182 174.835 35.7932 174.666C36.079 174.485 36.3684 174.388 36.6612 174.376C37.0215 174.361 37.2129 174.489 37.2354 174.759L37.3329 175.888C37.5466 178.598 37.7708 180.879 38.0054 182.731C38.2508 184.57 38.6215 186.304 39.1175 187.93ZM49.1872 177.259C49.1799 178.444 49.1955 179.503 49.2342 180.438C49.3303 182.758 49.5735 184.818 49.9639 186.618C50.0197 186.875 49.9276 187.105 49.6878 187.306C49.4475 187.497 49.181 187.598 48.8882 187.61C48.7192 187.617 48.5768 187.584 48.461 187.509C48.3451 187.435 48.2726 187.32 48.2436 187.163C47.8603 184.99 47.607 182.959 47.4836 181.069C46.9962 182.375 46.4233 184.204 45.7648 186.555C45.7554 186.601 45.7242 186.664 45.6711 186.745C45.5754 186.884 45.4278 186.998 45.2283 187.085C45.0289 187.172 44.8278 187.22 44.6251 187.228C44.4675 187.235 44.3426 187.217 44.2507 187.176C44.101 187.103 44.0234 186.999 44.0178 186.864C44.0164 186.83 44.0251 186.768 44.0439 186.677C44.05 186.553 44.0482 186.372 44.0384 186.136C44.0221 185.742 43.9648 185.174 43.8664 184.434L43.7611 183.524C43.6703 182.423 43.5967 181.597 43.54 181.046C43.0405 182.06 42.6429 182.809 42.3471 183.295C42.1361 184.737 41.743 186.141 41.1678 187.507C41.0955 187.668 40.9322 187.81 40.6778 187.933C40.4234 188.057 40.1724 188.123 39.9246 188.134C39.767 188.14 39.6363 188.117 39.5326 188.065C39.4402 188.013 39.3919 187.936 39.3877 187.834C39.3849 187.767 39.3988 187.693 39.4293 187.613C39.9007 186.465 40.247 185.294 40.4684 184.101C40.4215 184.058 40.3964 183.997 40.3931 183.918C40.3884 183.805 40.4286 183.685 40.5136 183.557L40.5762 183.436C40.7191 182.528 40.7696 181.567 40.7276 180.553C40.7099 180.125 40.6755 179.704 40.6245 179.289C40.6053 179.098 40.7276 178.918 40.9913 178.749C41.2551 178.58 41.5277 178.49 41.8093 178.478C41.9669 178.472 42.0978 178.5 42.202 178.563C42.3061 178.627 42.3664 178.72 42.3828 178.844C42.4137 179.045 42.4498 179.371 42.4909 179.821C42.7304 179.337 42.9879 178.881 43.2634 178.452C43.278 178.259 43.4064 178.09 43.6485 177.945C43.8902 177.788 44.1462 177.704 44.4165 177.693C44.5854 177.686 44.7278 177.72 44.8437 177.794C44.9704 177.857 45.0426 177.966 45.0604 178.124C45.2331 179.572 45.3656 180.863 45.4577 181.999C46.1358 180.121 46.8215 178.564 47.5149 177.328C47.5886 177.201 47.736 177.082 47.957 176.971C48.178 176.861 48.3955 176.801 48.6095 176.792C48.7784 176.785 48.9152 176.819 49.0198 176.894C49.1357 176.968 49.1915 177.09 49.1872 177.259ZM56.1513 182.707C56.2621 182.386 56.3112 182.074 56.2986 181.77C56.2725 181.139 55.9928 180.649 55.4593 180.299C54.9367 179.937 54.3207 179.771 53.6112 179.8C53.3297 179.812 53.0551 179.857 52.7877 179.936C52.7552 180.242 52.726 180.491 52.7002 180.684C52.4801 182.724 52.2689 184.571 52.0667 186.226C52.475 186.006 52.9426 185.722 53.4697 185.373C54.1501 184.916 54.7246 184.486 55.193 184.083C55.6609 183.669 55.9803 183.21 56.1513 182.707ZM52.9238 178.729C53.3931 178.619 53.836 178.555 54.2527 178.538C55.3338 178.493 56.2344 178.721 56.9546 179.222C57.6855 179.71 58.0389 180.48 58.0147 181.53C57.9871 182.772 57.3848 183.891 56.2077 184.887C55.0419 185.883 53.6077 186.8 51.9051 187.638L51.8015 188.403C51.7662 188.642 51.6111 188.846 51.3361 189.015C51.061 189.184 50.7771 189.275 50.4843 189.287C50.2929 189.295 50.1446 189.256 50.0395 189.17C49.9237 189.096 49.8791 188.974 49.9059 188.803C49.9388 188.509 49.9692 188.287 49.9969 188.14C49.8575 188.044 49.7855 187.94 49.7809 187.827C49.7762 187.714 49.8218 187.588 49.9175 187.449L50.0612 187.24L50.1266 187.187C50.5197 184.147 50.8089 181.868 50.9942 180.348C50.8445 180.276 50.7669 180.172 50.7613 180.036C50.7543 179.868 50.8601 179.7 51.0788 179.533C51.2961 177.696 51.4737 175.991 51.6116 174.417C51.6365 174.202 51.7867 174.015 52.0622 173.857C52.3372 173.688 52.6155 173.597 52.897 173.586C53.0772 173.578 53.214 173.612 53.3073 173.687C53.4115 173.751 53.4553 173.856 53.4389 174.003L52.9238 178.729ZM61.0966 174.008C60.9713 173.979 60.8467 173.967 60.7229 173.972C60.4751 173.983 60.2581 174.054 60.0718 174.185C59.8296 174.331 59.6944 174.472 59.6662 174.608C59.5418 175.144 59.4605 175.497 59.4224 175.668L59.4245 175.718C59.4269 175.775 59.4517 175.83 59.4991 175.884C59.546 175.928 59.5981 175.959 59.6553 175.979C59.7473 176.021 59.8496 176.039 59.9622 176.034C60.1424 176.027 60.3542 175.967 60.5978 175.856C60.8521 175.732 61.0148 175.573 61.0857 175.379C61.1453 175.184 61.2271 174.843 61.3309 174.353L61.3295 174.32C61.3272 174.263 61.3023 174.208 61.2549 174.153C61.2071 174.088 61.1543 174.039 61.0966 174.008ZM60.7182 180.809C60.6693 181.262 60.5736 182.084 60.4311 183.274C60.2994 184.453 60.1915 185.523 60.1072 186.486C60.0823 186.701 59.938 186.893 59.6742 187.062C59.4212 187.219 59.1596 187.303 58.8894 187.315C58.7092 187.322 58.567 187.294 58.4629 187.231C58.3695 187.156 58.331 187.044 58.3475 186.897C58.4923 185.763 58.6419 184.471 58.7962 183.02C58.9613 181.558 59.076 180.516 59.1405 179.893L59.3994 177.564C59.4248 177.36 59.5696 177.179 59.8338 177.021C60.1093 176.863 60.3765 176.779 60.6356 176.768C60.7932 176.761 60.9185 176.79 61.0114 176.854C61.1043 176.918 61.142 177.012 61.1246 177.137L60.7182 180.809ZM66.3963 177.849C65.8401 178.312 65.4021 179.041 65.0823 180.036C66.1687 179.573 67.1509 179.183 68.0289 178.865C67.6358 178.362 67.2441 178.029 66.8538 177.864C66.7735 177.834 66.6938 177.814 66.6145 177.806C66.5464 177.798 66.5068 177.794 66.4955 177.794C66.5073 177.805 66.4965 177.817 66.4631 177.83C66.4411 177.842 66.4188 177.848 66.3963 177.849ZM66.4142 176.647C66.5925 176.595 66.783 176.564 66.9857 176.556C68.0668 176.511 69.0767 177.197 70.0152 178.613C70.0509 178.657 70.0701 178.713 70.0729 178.78C70.078 178.904 70.0045 179.037 69.8525 179.178C69.7342 179.319 69.581 179.432 69.3928 179.519C68.2871 180.061 66.7463 180.717 64.7702 181.487C64.6813 182.066 64.6495 182.66 64.6747 183.268C64.6863 183.549 64.7003 183.752 64.7167 183.875C64.7602 184.381 64.8798 184.816 65.0753 185.18C65.1368 185.302 65.2205 185.417 65.3265 185.525C65.4438 185.633 65.5313 185.703 65.589 185.734C65.6237 185.755 65.6805 185.764 65.7593 185.761C65.8382 185.758 65.9273 185.732 66.0268 185.682C66.1376 185.633 66.2589 185.565 66.3907 185.481C66.7094 185.276 67.0044 185.044 67.2757 184.785C67.5469 184.525 67.8715 184.19 68.2493 183.78C68.4005 183.615 68.6618 183.526 69.0335 183.51C69.2362 183.502 69.4065 183.529 69.5444 183.591C69.6932 183.641 69.7699 183.722 69.7745 183.835C69.7787 183.936 69.7271 184.051 69.6196 184.18C68.9526 184.963 68.2641 185.635 67.554 186.194C66.8439 186.754 66.1229 187.049 65.3909 187.079C65.0418 187.094 64.7121 187.034 64.402 186.9C63.8855 186.685 63.5038 186.323 63.2572 185.814C63.0105 185.305 62.8727 184.702 62.8438 184.003C62.8223 183.485 62.8647 182.875 62.971 182.171L62.8372 182.21L62.7042 182.266C62.5376 182.33 62.4036 182.363 62.3023 182.368C62.1446 182.374 62.0191 182.34 61.9257 182.265C61.8324 182.19 61.7831 182.09 61.778 181.966C61.7719 181.82 61.8224 181.677 61.9294 181.537C62.0473 181.385 62.2226 181.26 62.4553 181.16L63.2697 180.805C63.358 180.485 63.4931 180.068 63.6748 179.553C63.9612 178.841 64.3304 178.223 64.7824 177.696C65.2344 177.17 65.7783 176.82 66.4142 176.647ZM76.992 176.192C77.4528 176.421 77.6997 176.936 77.7328 177.735C77.7449 178.028 77.7303 178.356 77.6889 178.719C77.647 179.07 77.5988 179.405 77.5443 179.723L77.4541 180.404L76.9621 185.686C77.1896 185.733 77.2912 185.87 77.2667 186.097C77.1685 186.721 76.7456 187.134 75.9981 187.334L75.8299 187.358C75.6384 187.366 75.4679 187.333 75.3182 187.26C75.1685 187.188 75.1015 187.066 75.117 186.897C75.4482 183.453 75.691 180.871 75.8454 179.15C75.8548 179.105 75.872 178.974 75.8969 178.759C75.9331 178.543 75.9472 178.339 75.9393 178.148C75.9244 177.788 75.821 177.606 75.629 177.602C75.4817 177.586 75.248 177.799 74.9278 178.241C74.6185 178.671 74.4479 178.909 74.416 178.956C73.772 179.749 73.1768 180.631 72.6303 181.602C72.4281 183.257 72.2692 184.595 72.1535 185.615L72.0914 186.159C72.0665 186.374 71.9165 186.567 71.6415 186.736C71.3665 186.905 71.0938 186.995 70.8236 187.007C70.6546 187.014 70.5181 186.985 70.4139 186.922C70.3206 186.847 70.2821 186.736 70.2986 186.588C70.5201 184.853 70.6926 183.436 70.8163 182.337C70.746 182.272 70.7089 182.194 70.7052 182.104C70.7029 182.048 70.7172 181.985 70.7482 181.916C70.7796 181.859 70.8057 181.807 70.8263 181.761C70.8583 181.714 70.8848 181.674 70.9059 181.639L71.4124 177.523C71.4378 177.319 71.5826 177.138 71.8468 176.981C72.111 176.823 72.3782 176.739 72.6485 176.728C72.8174 176.721 72.9483 176.749 73.0412 176.813C73.1341 176.877 73.1721 176.977 73.1552 177.113C73.1143 177.487 73.0552 177.968 72.9781 178.558L73.6561 177.769C74.1095 177.276 74.5439 176.869 74.9593 176.547C75.3746 176.225 75.8019 176.055 76.2411 176.037C76.5226 176.026 76.7729 176.077 76.992 176.192ZM84.8253 182.433C84.9009 182.351 85.0222 182.284 85.1893 182.232C85.3563 182.18 85.5243 182.151 85.6933 182.144C86.1099 182.126 86.3227 182.225 86.3316 182.439C86.3358 182.54 86.2841 182.655 86.1766 182.784C86.048 182.947 85.9304 183.104 85.8239 183.255C85.7169 183.395 85.6206 183.523 85.5352 183.639C85.0663 184.302 84.6427 184.833 84.2644 185.232C83.8856 185.62 83.435 185.909 82.9128 186.1C82.6683 186.189 82.4052 186.239 82.1237 186.251C81.6507 186.271 81.2397 186.152 80.8907 185.896C80.5529 185.639 80.3451 185.253 80.2674 184.737C80.2388 184.592 80.2182 184.367 80.2056 184.063C80.1814 183.477 80.2242 182.878 80.3342 182.264C80.4442 181.65 80.6098 180.882 80.831 179.959L81.0036 179.224L80.3645 179.319C80.0501 179.354 79.6241 179.417 79.0863 179.507C78.8287 179.551 78.6305 179.531 78.4916 179.447C78.3527 179.362 78.2803 179.247 78.2742 179.1C78.2672 178.932 78.3393 178.765 78.4904 178.601C78.6523 178.425 78.8623 178.32 79.1204 178.287L81.289 177.943C81.709 176.099 82.1923 174.285 82.739 172.502C82.7888 172.342 82.9352 172.201 83.1783 172.078C83.4322 171.944 83.6774 171.871 83.9139 171.862C84.0603 171.856 84.1797 171.879 84.2721 171.931C84.3758 171.983 84.43 172.066 84.4346 172.178C84.436 172.212 84.4273 172.275 84.4085 172.366C83.8314 174.228 83.3577 176.002 82.9875 177.687C83.7725 177.576 84.2945 177.514 84.5536 177.504C84.8801 177.49 85.0474 177.579 85.0553 177.771C85.0619 177.928 84.9734 178.107 84.7898 178.306C84.6059 178.494 84.4134 178.615 84.2126 178.668C83.5416 178.809 83.0381 178.909 82.7021 178.968C82.5423 179.742 82.4044 180.498 82.2883 181.236C82.2695 181.327 82.2045 181.662 82.0931 182.242C81.9813 182.811 81.9356 183.343 81.9561 183.838C81.9827 184.48 82.1661 184.822 82.5063 184.865C82.7216 184.89 82.9589 184.761 83.2179 184.48C83.4878 184.187 83.8309 183.755 84.2473 183.185C84.5031 182.825 84.6958 182.574 84.8253 182.433ZM91.0089 176.83C90.4528 177.293 90.0148 178.022 89.695 179.017C90.7814 178.554 91.7635 178.164 92.6415 177.846C92.2485 177.343 91.8568 177.01 91.4664 176.845C91.3862 176.815 91.3064 176.795 91.2271 176.787C91.1591 176.779 91.1194 176.775 91.1082 176.775C91.1199 176.786 91.1091 176.798 91.0758 176.811C91.0537 176.823 91.0314 176.829 91.0089 176.83ZM91.0268 175.628C91.2051 175.576 91.3957 175.545 91.5984 175.537C92.6795 175.492 93.6893 176.178 94.6278 177.594C94.6635 177.638 94.6827 177.694 94.6855 177.761C94.6906 177.885 94.6172 178.018 94.4651 178.159C94.3468 178.3 94.1936 178.413 94.0054 178.5C92.8998 179.042 91.3589 179.698 89.3828 180.468C89.2939 181.047 89.2621 181.641 89.2873 182.249C89.299 182.53 89.313 182.733 89.3294 182.856C89.3729 183.362 89.4924 183.797 89.688 184.161C89.7494 184.283 89.8331 184.398 89.9392 184.506C90.0564 184.614 90.1439 184.684 90.2016 184.715C90.2364 184.736 90.2931 184.745 90.372 184.742C90.4508 184.739 90.5399 184.713 90.6394 184.663C90.7502 184.614 90.8715 184.547 91.0034 184.462C91.322 184.257 91.617 184.025 91.8883 183.766C92.1596 183.506 92.4841 183.171 92.862 182.761C93.0131 182.596 93.2745 182.507 93.6461 182.491C93.8488 182.483 94.0191 182.51 94.1571 182.572C94.3058 182.622 94.3825 182.703 94.3872 182.816C94.3914 182.917 94.3397 183.032 94.2322 183.161C93.5652 183.944 92.8767 184.616 92.1666 185.175C91.4565 185.735 90.7355 186.03 90.0035 186.06C89.6544 186.075 89.3248 186.015 89.0147 185.881C88.4981 185.666 88.1165 185.304 87.8698 184.795C87.6231 184.286 87.4853 183.683 87.4564 182.984C87.435 182.466 87.4774 181.856 87.5836 181.152L87.4499 181.191L87.3168 181.247C87.1502 181.311 87.0162 181.344 86.9149 181.349C86.7572 181.355 86.6317 181.321 86.5384 181.246C86.445 181.171 86.3958 181.071 86.3906 180.947C86.3846 180.801 86.4351 180.658 86.5421 180.518C86.6599 180.366 86.8352 180.241 87.0679 180.141L87.8824 179.786C87.9707 179.466 88.1057 179.049 88.2874 178.534C88.5738 177.822 88.943 177.204 89.3951 176.677C89.8471 176.151 90.391 175.801 91.0268 175.628ZM102.112 177.471C102.13 177.898 102.252 178.271 102.48 178.589C102.719 178.906 103 179.171 103.325 179.383C103.65 179.595 104.089 179.842 104.642 180.124C105.391 180.51 105.964 180.865 106.361 181.187C106.769 181.508 107.046 181.92 107.19 182.421C107.245 182.645 107.274 182.807 107.278 182.908C107.311 183.697 106.918 184.283 106.099 184.666C105.279 185.039 104.341 185.247 103.282 185.291C102.865 185.308 102.498 185.295 102.18 185.252C101.806 185.199 101.412 185.086 100.999 184.911C100.596 184.725 100.254 184.496 99.9721 184.226C99.7009 183.944 99.5591 183.651 99.5465 183.347C99.5269 182.874 99.8749 182.425 100.591 182.001C100.789 181.891 100.984 181.832 101.176 181.824C101.356 181.817 101.504 181.85 101.62 181.924C101.747 181.998 101.813 182.091 101.817 182.204C101.826 182.406 101.671 182.61 101.352 182.815C101.286 182.852 101.254 182.904 101.257 182.972C101.262 183.107 101.376 183.266 101.598 183.448C101.82 183.631 101.994 183.753 102.121 183.816C102.467 183.993 103.012 184.089 103.757 184.103C103.848 184.111 104.006 184.11 104.231 184.101C104.636 184.084 104.96 184.003 105.202 183.857C105.445 183.712 105.541 183.46 105.493 183.101C105.427 182.618 104.915 182.092 103.955 181.523L103.296 181.144C102.696 180.808 102.199 180.513 101.804 180.258C101.421 179.992 101.087 179.673 100.8 179.302C100.514 178.919 100.36 178.485 100.34 178.001C100.328 177.697 100.372 177.39 100.472 177.082C100.689 176.339 101.127 175.757 101.787 175.335C102.446 174.902 103.164 174.669 103.941 174.637C104.74 174.604 105.419 174.779 105.976 175.162C106.545 175.544 106.844 176.107 106.875 176.85C106.885 177.087 106.862 177.342 106.805 177.615C106.769 177.819 106.607 178.001 106.32 178.159C106.033 178.318 105.761 178.402 105.502 178.413C105.344 178.42 105.219 178.391 105.126 178.327C105.044 178.263 105.023 178.168 105.063 178.042C105.121 177.803 105.145 177.565 105.135 177.328C105.12 176.957 105.011 176.645 104.809 176.394C104.607 176.143 104.318 175.975 103.942 175.889C103.737 175.852 103.584 175.836 103.483 175.84C103.077 175.857 102.74 176.018 102.471 176.322C102.212 176.615 102.093 176.998 102.112 177.471ZM109.423 182.65C109.406 182.786 109.399 182.883 109.401 182.939C109.42 183.389 109.649 183.606 110.088 183.587C110.347 183.577 110.66 183.49 111.025 183.329C111.357 183.179 111.97 182.866 112.864 182.389C112.875 182.107 112.887 181.836 112.898 181.576C112.921 181.304 112.939 181.061 112.953 180.846L113.023 179.675C112.261 180.079 111.693 180.396 111.319 180.626C110.77 180.976 110.332 181.304 110.006 181.611C109.68 181.906 109.486 182.253 109.423 182.65ZM113.486 174.512C113.993 174.491 114.336 174.607 114.516 174.859C114.706 175.099 114.811 175.461 114.831 175.946L114.834 176.419C114.823 177.243 114.771 178.452 114.68 180.047C114.655 180.273 114.631 180.652 114.608 181.184C114.577 181.512 114.548 181.778 114.523 181.982C114.649 182.045 114.715 182.132 114.72 182.245C114.723 182.324 114.689 182.444 114.616 182.605L114.552 182.692L114.455 182.797C114.4 183.375 114.381 183.866 114.398 184.272C114.559 184.355 114.642 184.459 114.647 184.583C114.655 184.775 114.523 184.983 114.25 185.209C114.174 185.268 114.086 185.328 113.987 185.389C113.91 185.437 113.799 185.481 113.654 185.521C113.52 185.56 113.386 185.583 113.251 185.588C112.834 185.606 112.636 185.462 112.657 185.156L112.734 183.732C111.255 184.515 110.11 184.923 109.299 184.957C108.274 184.999 107.739 184.469 107.693 183.365C107.649 182.306 108.158 181.383 109.22 180.594C110.293 179.805 111.582 179.081 113.089 178.421C113.116 177.979 113.132 177.533 113.135 177.082C113.132 176.992 113.133 176.879 113.138 176.743C113.144 176.608 113.143 176.455 113.136 176.287C113.127 176.073 113.105 175.932 113.068 175.866L113.015 175.801L112.998 175.802C112.829 175.809 112.523 176.052 112.081 176.533C111.681 176.956 111.188 177.586 110.602 178.422C110.517 178.55 110.369 178.657 110.158 178.745C109.959 178.832 109.752 178.88 109.538 178.889C109.381 178.896 109.244 178.873 109.129 178.821C109.026 178.769 108.972 178.687 108.967 178.574C108.963 178.484 109.003 178.364 109.087 178.214C110.544 175.807 112.011 174.573 113.486 174.512ZM122.39 174.313C122.851 174.542 123.098 175.056 123.131 175.856C123.143 176.149 123.128 176.476 123.087 176.839C123.045 177.19 122.997 177.525 122.942 177.843L122.852 178.524L122.36 183.807C122.588 183.854 122.689 183.991 122.665 184.217C122.567 184.842 122.144 185.254 121.396 185.454L121.228 185.478C121.037 185.486 120.866 185.454 120.716 185.381C120.567 185.308 120.5 185.187 120.515 185.017C120.846 181.574 121.089 178.992 121.244 177.271C121.253 177.225 121.27 177.095 121.295 176.879C121.331 176.664 121.345 176.46 121.337 176.268C121.322 175.908 121.219 175.726 121.027 175.723C120.88 175.706 120.646 175.919 120.326 176.361C120.017 176.791 119.846 177.03 119.814 177.076C119.17 177.87 118.575 178.752 118.028 179.722C117.826 181.377 117.667 182.715 117.552 183.735L117.489 184.279C117.465 184.495 117.315 184.687 117.04 184.856C116.765 185.026 116.492 185.116 116.222 185.127C116.053 185.134 115.916 185.106 115.812 185.042C115.719 184.967 115.68 184.856 115.697 184.709C115.918 182.974 116.091 181.556 116.214 180.457C116.144 180.392 116.107 180.315 116.103 180.225C116.101 180.168 116.115 180.106 116.146 180.037C116.178 179.979 116.204 179.927 116.224 179.881C116.256 179.835 116.283 179.794 116.304 179.76L116.81 175.644C116.836 175.44 116.981 175.259 117.245 175.101C117.509 174.944 117.776 174.859 118.047 174.848C118.216 174.841 118.346 174.869 118.439 174.933C118.532 174.997 118.57 175.097 118.553 175.233C118.512 175.607 118.453 176.089 118.376 176.679L119.054 175.889C119.508 175.397 119.942 174.989 120.357 174.668C120.773 174.346 121.2 174.176 121.639 174.158C121.921 174.146 122.171 174.198 122.39 174.313ZM130.05 178.412C130.001 177.218 129.264 176.307 127.839 175.678C127.502 175.985 127.169 176.388 126.84 176.887C126.437 177.524 126.111 178.231 125.861 179.009C125.761 179.317 125.672 179.738 125.592 180.272C125.512 180.794 125.482 181.28 125.5 181.731C125.519 182.193 125.597 182.562 125.732 182.838C125.879 183.103 126.098 183.229 126.391 183.217C126.628 183.207 126.899 183.1 127.207 182.896C128.053 182.353 128.748 181.692 129.291 180.914C129.834 180.136 130.087 179.302 130.05 178.412ZM130.397 175.335C130.818 175.701 131.145 176.122 131.379 176.597C131.625 177.072 131.759 177.58 131.781 178.12C131.813 178.898 131.621 179.695 131.203 180.513C130.922 181.067 130.5 181.654 129.939 182.275C129.378 182.896 128.746 183.43 128.043 183.876C127.35 184.311 126.677 184.542 126.024 184.569C125.619 184.586 125.232 184.511 124.864 184.346C124.081 183.961 123.667 183.228 123.622 182.147C123.59 181.37 123.73 180.513 124.04 179.575C124.351 178.626 124.69 177.822 125.057 177.164C125.952 175.604 126.92 174.605 127.962 174.167C128.25 174.042 128.563 173.973 128.901 173.959C129.295 173.942 129.632 174.03 129.911 174.221C130.189 174.402 130.359 174.699 130.421 175.114L130.424 175.182C130.425 175.215 130.416 175.267 130.397 175.335Z" fill="#F5F7F3"/>
</svg>
