<svg width="188" height="189" viewBox="0 0 188 189" fill="none" xmlns="http://www.w3.org/2000/svg">
<path d="M91.998 82.8386C89.0682 80.1041 65.6292 38.1093 26.5643 70.3379C-12.5005 102.566 79.3019 173.86 91.998 181.673C104.694 189.486 194.543 105.496 165.245 74.2444C135.946 42.9925 91.998 82.8386 91.998 82.8386Z" fill="#F9F1D7"/>
<path d="M151.181 156.476C149.521 141.533 146.493 129.033 133.797 117.02C132.235 115.555 130.574 114.09 128.719 112.723C126.375 110.868 123.64 107.84 123.738 105.105C123.836 103.934 122.664 103.152 121.492 103.445C115.339 105.008 102.252 107.938 94.1463 107.938C83.7941 107.938 74.6138 105.789 69.7307 104.324C68.9494 104.129 68.0705 104.617 68.0705 105.496C67.9728 108.231 65.4336 110.672 62.5037 112.918C44.1432 127.177 41.9947 142.51 40.8227 160.578C40.5297 165.656 37.8929 187.044 50.7843 187.923C65.1406 188.9 86.9193 188.411 96.1972 188.118C105.475 188.411 127.254 188.9 141.61 187.923C155.673 186.946 151.767 161.945 151.181 156.476Z" fill="#A3DCD6"/>
<path d="M34.0841 117.997C34.0841 117.997 18.3605 100.613 0 121.708C0 121.708 17.7745 136.651 34.0841 117.997Z" fill="#9DD25F"/>
<path d="M39.2606 108.427C39.2606 108.427 44.046 94.4609 26.8575 90.8474C26.8575 90.8474 24.0253 105.204 39.2606 108.427Z" fill="#65B479"/>
<path d="M153.037 110.868C153.037 110.868 169.151 92.9956 188 114.677C188 114.677 169.737 130.107 153.037 110.868Z" fill="#9DD25F"/>
<path d="M147.665 101.102C147.665 101.102 142.782 86.7453 160.459 83.0341C160.459 83.0341 163.291 97.7811 147.665 101.102Z" fill="#65B479"/>
<path d="M98.8341 119.364C107.526 119.755 115.925 118.974 124.422 117.02C126.277 116.63 125.496 113.798 123.64 114.188C115.437 116.141 107.233 116.825 98.8341 116.434C96.8808 116.337 96.8808 119.267 98.8341 119.364Z" fill="white"/>
<path d="M67.1913 120.536C51.8583 132.061 44.143 153.058 44.5337 171.809C44.5337 173.665 47.4635 173.665 47.4635 171.809C47.1705 154.23 54.2999 133.818 68.7539 123.076C70.2188 122.001 68.7539 119.462 67.1913 120.536Z" fill="white"/>
<path d="M137.996 140.557C138.582 149.053 139.168 157.452 139.657 165.949C139.949 171.418 139.559 176.496 133.504 178.743C129.5 180.208 124.91 179.719 120.71 180.11C118.854 180.305 118.854 183.235 120.71 183.04C128.523 182.258 139.559 183.235 142.293 173.664C143.563 169.269 142.586 164.093 142.293 159.601C141.903 153.253 141.512 146.905 141.024 140.557C140.828 138.701 137.899 138.701 137.996 140.557Z" fill="white"/>
<path d="M109.869 130.498C111.529 131.572 112.311 133.428 112.213 135.381C112.115 137.236 115.045 137.236 115.143 135.381C115.338 132.353 113.873 129.619 111.334 127.959C109.772 126.884 108.307 129.423 109.869 130.498Z" fill="white"/>
<path d="M119.148 128.056C121.59 127.568 121.297 131.767 121.199 132.939C121.101 134.795 124.031 134.795 124.129 132.939C124.226 130.888 124.226 128.74 123.054 127.08C121.98 125.517 120.222 124.833 118.367 125.224C116.511 125.615 117.292 128.447 119.148 128.056Z" fill="white"/>
<path d="M72.1724 108.426C72.1724 108.426 86.8217 114.286 100.494 110.38" stroke="white" stroke-width="1.95324" stroke-miterlimit="10" stroke-linecap="round" stroke-linejoin="round"/>
<path d="M79.6921 182.845C81.6453 176.79 83.9892 167.61 83.7939 158.918C83.7939 158.918 85.9425 59.0092 28.3218 42.8949" stroke="#65B479" stroke-width="0.717329" stroke-miterlimit="10"/>
<path d="M74.4185 97.1951C74.4185 97.1951 67.4844 66.3339 75.7857 64.1853C84.1847 62.0367 84.1847 96.2185 74.4185 97.1951Z" fill="#65B479"/>
<path d="M63.188 71.217C63.188 71.217 56.254 40.3558 64.5553 38.2072C72.9542 36.0586 72.9542 70.1427 63.188 71.217Z" fill="#65B479"/>
<path d="M48.9288 53.247C48.9288 53.247 33.0099 25.9016 40.3345 21.4091C47.6592 16.9167 57.9137 49.3405 48.9288 53.247Z" fill="#65B479"/>
<path d="M37.8926 46.9969C37.8926 46.9969 7.42196 38.7932 9.3752 30.3943C11.2308 22.093 41.5061 37.9143 37.8926 46.9969Z" fill="#65B479"/>
<path d="M68.7537 80.397C68.7537 80.397 42.6779 62.6225 37.5994 69.5565C32.4234 76.4905 64.1636 89.0889 68.7537 80.397Z" fill="#65B479"/>
<path d="M54.0065 58.2278C54.0065 58.2278 27.9307 40.4533 22.8522 47.3873C17.7738 54.3213 49.514 66.9198 54.0065 58.2278Z" fill="#65B479"/>
<path d="M153.622 42.8947C96.8798 61.5481 103.423 161.261 103.423 161.261C103.423 161.261 105.083 172.492 110.455 182.747" stroke="#65B479" stroke-width="0.717329" stroke-miterlimit="10"/>
<path d="M110.065 99.2457C110.065 99.2457 115.631 68.1891 107.232 66.3335C98.7358 64.4779 100.298 98.5621 110.065 99.2457Z" fill="#65B479"/>
<path d="M120.124 72.7795C120.124 72.7795 125.69 41.7229 117.291 39.8673C108.795 38.1094 110.357 72.0958 120.124 72.7795Z" fill="#65B479"/>
<path d="M133.601 54.2235C133.601 54.2235 148.251 26.1944 140.731 21.9949C133.308 17.6978 124.421 50.61 133.601 54.2235Z" fill="#65B479"/>
<path d="M144.344 47.3869C144.344 47.3869 174.424 37.816 172.178 29.6124C169.834 21.3111 140.34 38.4997 144.344 47.3869Z" fill="#65B479"/>
<path d="M115.045 82.1548C115.045 82.1548 140.339 63.2083 145.711 69.8493C151.082 76.588 120.026 90.5537 115.045 82.1548Z" fill="#65B479"/>
<path d="M128.718 59.3996C128.718 59.3996 154.013 40.4531 159.384 47.0941C164.756 53.8328 133.601 67.7985 128.718 59.3996Z" fill="#65B479"/>
<path d="M91.606 7.83417L94.4382 156.378V183.138" stroke="#9DD25F" stroke-width="0.717329" stroke-miterlimit="10"/>
<path d="M91.8999 33.1286C91.8999 33.1286 102.838 3.537 94.8298 0.216484C86.9192 -3.00637 82.4267 30.7848 91.8999 33.1286Z" fill="#9DD25F"/>
<path d="M92.3875 43.6761C92.3875 43.6761 75.7849 16.819 68.3626 21.0185C60.8426 25.3156 84.6722 49.7312 92.3875 43.6761Z" fill="#9DD25F"/>
<path d="M92.3875 63.6968C92.3875 63.6968 75.7849 36.8397 68.3626 41.0392C60.8426 45.3363 84.6722 69.7519 92.3875 63.6968Z" fill="#9DD25F"/>
<path d="M93.0716 88.1126C93.0716 88.1126 76.469 61.2555 69.0467 65.4549C61.6244 69.7521 85.3563 94.1676 93.0716 88.1126Z" fill="#9DD25F"/>
<path d="M91.9966 51.5868C91.9966 51.5868 108.599 24.7297 116.021 28.9291C123.444 33.1286 99.7119 57.5442 91.9966 51.5868Z" fill="#9DD25F"/>
<path d="M92.6802 73.0726C92.6802 73.0726 109.283 46.2155 116.705 50.415C124.225 54.7121 100.395 79.1277 92.6802 73.0726Z" fill="#9DD25F"/>
<path d="M93.4619 97.4879C93.4619 97.4879 110.064 70.6308 117.487 74.8303C124.909 79.0298 101.177 103.543 93.4619 97.4879Z" fill="#9DD25F"/>
<path d="M26.2715 148.565C52.152 148.761 128.426 148.761 156.358 143.096C159.385 142.51 161.534 145.831 159.776 148.272L150.888 160.578C149.619 162.336 150.303 164.777 152.256 165.656L159.971 168.879C163.292 170.246 162.413 175.129 158.799 175.325L31.1546 180.11C27.7365 180.208 26.3692 175.715 29.2991 173.957L35.2565 170.246C37.112 169.074 37.405 166.438 35.7448 164.973L24.0253 154.327C21.7791 152.276 23.244 148.468 26.2715 148.565Z" fill="#F8B736"/>
<path d="M62.0332 152.322C62.101 152.069 62.3339 151.84 62.7321 151.636C63.1296 151.416 63.5079 151.299 63.867 151.284C64.07 151.276 64.2199 151.309 64.3168 151.383C64.4293 151.456 64.4651 151.564 64.4241 151.707L63.2626 156.517C63.1955 156.786 62.9632 157.03 62.5657 157.25C62.1838 157.469 61.8133 157.586 61.4542 157.601C61.2512 157.609 61.0935 157.577 60.981 157.503C60.8834 157.413 60.8467 157.282 60.8708 157.109C60.9575 156.558 60.9917 156.064 60.9736 155.627C60.9368 154.737 60.7138 154.261 60.3046 154.2C60.131 154.16 59.9114 154.333 59.6459 154.72C59.3953 155.09 59.1093 155.547 58.7878 156.092C57.6723 157.859 56.8346 159.911 56.2745 162.249C56.0889 163.054 55.9466 163.772 55.8475 164.401C55.7485 165.031 55.7116 165.65 55.7368 166.259C55.7626 166.884 55.8636 167.435 56.0398 167.912C56.2166 168.405 56.4926 168.84 56.8679 169.215C57.2425 169.575 57.664 169.745 58.1324 169.726C58.5851 169.707 59.0158 169.533 59.4244 169.203C59.833 168.873 60.2609 168.441 60.7079 167.907L60.5577 167.678C60.5076 167.602 60.4813 167.533 60.4787 167.47C60.469 167.236 60.6473 167.01 61.0136 166.791C61.3793 166.557 61.7495 166.432 62.1242 166.417C62.4832 166.402 62.7454 166.501 62.9106 166.713L63.2344 167.169C63.2513 167.199 63.261 167.246 63.2636 167.308C63.2669 167.386 63.247 167.473 63.204 167.569C63.1604 167.649 63.1165 167.721 63.0722 167.785C62.3772 168.752 61.5131 169.601 60.4799 170.332C59.4623 171.063 58.4383 171.449 57.4079 171.492C56.6116 171.525 55.8681 171.321 55.1774 170.88C53.9878 170.101 53.3559 168.813 53.2815 167.018C53.2356 165.909 53.4191 164.486 53.832 162.749C54.2833 160.806 54.9269 158.973 55.7626 157.25C56.5977 155.511 57.6457 154.193 58.9066 153.296C59.6204 152.781 60.3207 152.51 61.0077 152.482C61.3199 152.469 61.6351 152.526 61.9531 152.654L62.0332 152.322ZM74.8941 157.208C74.9956 157.017 75.2529 156.81 75.6661 156.59C76.0942 156.353 76.4722 156.228 76.8 156.215C77.2684 156.195 77.4804 156.405 77.4361 156.845C77.438 156.892 77.4331 156.963 77.4214 157.057C77.4096 157.151 77.3969 157.222 77.3833 157.27L77.3852 157.316C77.2724 158.369 77.1449 159.633 77.0027 161.109C76.8754 162.569 76.7743 163.715 76.6993 164.547L76.2765 169.068C76.2426 169.383 76.0272 169.657 75.6303 169.893C75.2491 170.127 74.8555 170.253 74.4496 170.27C74.1998 170.28 73.9945 170.234 73.8339 170.131C73.6888 170.028 73.6277 169.874 73.6506 169.67C73.7667 168.32 73.9565 166.295 74.2201 163.594L74.0024 164.002C73.6249 164.705 73.3411 165.218 73.1511 165.538C72.4938 166.66 71.7825 167.612 71.0173 168.395C70.2677 169.176 69.3906 169.713 68.3862 170.005C67.9997 170.115 67.6504 170.176 67.3381 170.189C65.8705 170.25 65.0954 169.281 65.0126 167.283C64.9739 166.346 65.0782 165.278 65.3257 164.079C65.5726 162.865 65.8617 161.727 66.1931 160.665C66.5401 159.603 66.8428 158.793 67.1013 158.235C67.2015 158.012 67.4357 157.814 67.804 157.643C68.1872 157.455 68.5583 157.353 68.9174 157.339C69.136 157.33 69.3093 157.361 69.4375 157.434C69.5812 157.507 69.656 157.613 69.6618 157.754C69.6644 157.816 69.6449 157.911 69.6032 158.037C68.6522 160.376 68.0593 162.488 67.8246 164.375L67.7337 165.012C67.636 165.673 67.5942 166.175 67.6084 166.518C67.6155 166.69 67.6285 166.815 67.6473 166.892C67.8677 167.681 68.1876 168.043 68.6072 167.978C68.7783 167.956 68.9751 167.799 69.1977 167.508C69.4359 167.217 69.5849 167.039 69.6447 166.974C70.3729 166.052 71.0276 165.055 71.6088 163.983C72.1893 162.896 72.8604 161.539 73.6219 159.912C74.0079 159.036 74.432 158.135 74.8941 157.208ZM81.357 151.803C81.1833 151.764 81.0106 151.747 80.8389 151.754C80.4954 151.769 80.1945 151.867 79.9362 152.05C79.6005 152.251 79.4131 152.447 79.374 152.636C79.2014 153.378 79.0888 153.868 79.036 154.105L79.0389 154.175C79.0422 154.253 79.0766 154.33 79.1423 154.405C79.2073 154.465 79.2795 154.509 79.3589 154.537C79.4864 154.594 79.6282 154.62 79.7843 154.613C80.0341 154.603 80.3278 154.52 80.6655 154.366C81.0181 154.195 81.2436 153.974 81.3419 153.704C81.4246 153.435 81.5379 152.961 81.6818 152.283L81.6799 152.236C81.6767 152.158 81.6422 152.081 81.5765 152.005C81.5102 151.914 81.437 151.847 81.357 151.803ZM80.8325 161.232C80.7647 161.861 80.632 163 80.4344 164.65C80.2519 166.284 80.1022 167.768 79.9854 169.103C79.9508 169.401 79.7507 169.667 79.3851 169.902C79.0344 170.119 78.6717 170.236 78.297 170.252C78.0472 170.262 77.8501 170.223 77.7057 170.135C77.5763 170.031 77.523 169.877 77.5458 169.673C77.7466 168.1 77.9539 166.309 78.1678 164.298C78.3967 162.271 78.5558 160.826 78.6451 159.962L79.0041 156.733C79.0393 156.45 79.2401 156.2 79.6063 155.981C79.9883 155.762 80.3588 155.645 80.7179 155.63C80.9364 155.621 81.1101 155.661 81.2389 155.749C81.3677 155.838 81.42 155.969 81.3959 156.142L80.8325 161.232ZM85.0144 167.886C85.3208 168.107 85.7081 168.209 86.1765 168.189C86.7229 168.167 87.4103 167.958 88.2385 167.564C88.6185 164.655 88.8912 161.798 89.0565 158.991L89.0096 158.993C88.1666 159.028 87.4057 159.349 86.7271 159.956C86.0484 160.563 85.4927 161.305 85.0598 162.183C84.6426 163.061 84.3656 163.924 84.2288 164.775C84.1669 165.168 84.1437 165.552 84.1592 165.927C84.1973 166.848 84.4824 167.501 85.0144 167.886ZM89.3112 151.544C89.3152 151.263 89.5003 151.013 89.8666 150.794C90.2322 150.56 90.6102 150.435 91.0005 150.419C91.4845 150.399 91.7262 150.569 91.7254 150.928C91.6733 156.092 91.3313 161.431 90.6995 166.946C90.9545 167.061 91.0862 167.22 91.0946 167.423C91.1043 167.657 90.9263 167.891 90.5607 168.125L90.456 168.997C90.4059 169.297 90.1901 169.564 89.8089 169.798C89.4426 170.017 89.0721 170.134 88.6974 170.149C88.4632 170.159 88.2739 170.12 88.1295 170.032C87.9845 169.929 87.9312 169.774 87.9696 169.57C87.9664 169.491 87.9719 169.437 87.9862 169.405C87 169.758 86.1789 169.949 85.5232 169.976C84.805 170.006 84.1507 169.876 83.5601 169.588C82.9701 169.315 82.5308 168.903 82.2421 168.352C81.9534 167.801 81.7945 167.174 81.7655 166.472C81.7551 166.222 81.7721 165.877 81.8165 165.437C81.9827 164.164 82.4007 162.927 83.0704 161.726C83.7401 160.525 84.6058 159.528 85.6677 158.733C86.7295 157.938 87.8918 157.491 89.1545 157.392C89.2533 155.246 89.3055 153.296 89.3112 151.544ZM98.0581 156.742C97.2871 157.384 96.6799 158.394 96.2365 159.773C97.7426 159.132 99.1043 158.591 100.322 158.15C99.7766 157.453 99.2335 156.991 98.6924 156.763C98.5811 156.72 98.4706 156.694 98.3606 156.683C98.2663 156.671 98.2113 156.665 98.1957 156.666C98.212 156.681 98.197 156.697 98.1508 156.715C98.1202 156.732 98.0893 156.741 98.0581 156.742ZM98.083 155.075C98.3302 155.003 98.5943 154.96 98.8753 154.949C100.374 154.887 101.774 155.838 103.075 157.801C103.125 157.862 103.151 157.939 103.155 158.032C103.162 158.204 103.06 158.388 102.85 158.585C102.686 158.779 102.473 158.936 102.212 159.057C100.68 159.808 98.5433 160.718 95.8037 161.785C95.6806 162.588 95.6364 163.411 95.6713 164.254C95.6875 164.644 95.7069 164.925 95.7297 165.096C95.79 165.797 95.9557 166.4 96.2268 166.905C96.312 167.074 96.4281 167.233 96.5751 167.383C96.7376 167.533 96.8589 167.63 96.9389 167.673C96.9871 167.703 97.0658 167.715 97.1751 167.711C97.2844 167.706 97.408 167.67 97.5459 167.601C97.6994 167.532 97.8676 167.439 98.0504 167.322C98.4922 167.038 98.9012 166.716 99.2772 166.357C99.6533 165.997 100.103 165.533 100.627 164.964C100.837 164.736 101.199 164.612 101.714 164.59C101.995 164.579 102.231 164.616 102.423 164.702C102.629 164.771 102.735 164.884 102.742 165.04C102.747 165.181 102.676 165.34 102.527 165.518C101.602 166.605 100.648 167.535 99.6631 168.311C98.6787 169.087 97.6791 169.496 96.6643 169.538C96.1803 169.558 95.7233 169.475 95.2934 169.29C94.5772 168.991 94.0482 168.489 93.7062 167.784C93.3642 167.079 93.1731 166.242 93.1331 165.274C93.1033 164.556 93.1621 163.709 93.3094 162.733L93.124 162.788L92.9395 162.866C92.7086 162.953 92.5228 163 92.3823 163.006C92.1638 163.015 91.9898 162.968 91.8603 162.863C91.7309 162.759 91.6626 162.621 91.6555 162.45C91.6471 162.247 91.7171 162.048 91.8655 161.854C92.0288 161.644 92.2718 161.47 92.5945 161.332L93.7236 160.839C93.846 160.396 94.0332 159.818 94.2851 159.103C94.6822 158.117 95.1941 157.259 95.8207 156.53C96.4474 155.8 97.2014 155.315 98.083 155.075ZM117.333 154.138C117.323 155.78 117.344 157.249 117.398 158.545C117.531 161.762 117.868 164.617 118.41 167.113C118.487 167.469 118.359 167.787 118.027 168.067C117.694 168.331 117.324 168.472 116.918 168.488C116.684 168.498 116.487 168.451 116.326 168.349C116.165 168.246 116.065 168.086 116.025 167.868C115.493 164.856 115.142 162.04 114.971 159.42C114.295 161.231 113.501 163.766 112.588 167.025C112.575 167.089 112.532 167.176 112.458 167.289C112.326 167.482 112.121 167.639 111.844 167.76C111.568 167.881 111.289 167.947 111.008 167.959C110.79 167.968 110.617 167.944 110.489 167.887C110.282 167.786 110.174 167.642 110.166 167.454C110.164 167.407 110.176 167.321 110.202 167.195C110.211 167.022 110.208 166.772 110.195 166.444C110.172 165.898 110.093 165.111 109.956 164.085L109.81 162.824C109.685 161.297 109.582 160.151 109.504 159.388C108.811 160.793 108.26 161.833 107.85 162.506C107.557 164.505 107.012 166.451 106.215 168.345C106.115 168.568 105.888 168.765 105.536 168.936C105.183 169.107 104.835 169.2 104.492 169.214C104.273 169.223 104.092 169.191 103.948 169.119C103.82 169.046 103.753 168.94 103.747 168.799C103.743 168.705 103.763 168.603 103.805 168.492C104.458 166.901 104.939 165.278 105.245 163.623C105.18 163.563 105.146 163.479 105.141 163.369C105.135 163.213 105.19 163.047 105.308 162.87L105.395 162.702C105.593 161.443 105.663 160.11 105.605 158.705C105.58 158.112 105.533 157.527 105.462 156.952C105.435 156.687 105.605 156.437 105.97 156.203C106.336 155.969 106.714 155.844 107.104 155.828C107.323 155.819 107.504 155.858 107.649 155.946C107.793 156.034 107.877 156.164 107.9 156.335C107.942 156.614 107.992 157.066 108.049 157.689C108.381 157.018 108.738 156.386 109.12 155.791C109.141 155.525 109.319 155.291 109.654 155.089C109.989 154.872 110.344 154.755 110.719 154.74C110.953 154.73 111.151 154.777 111.311 154.88C111.487 154.966 111.587 155.118 111.612 155.336C111.851 157.344 112.035 159.135 112.163 160.709C113.103 158.105 114.053 155.947 115.014 154.234C115.117 154.057 115.321 153.893 115.627 153.739C115.934 153.586 116.235 153.503 116.532 153.491C116.766 153.481 116.956 153.528 117.101 153.631C117.261 153.734 117.339 153.903 117.333 154.138ZM127.232 159.968C127.164 158.313 126.142 157.049 124.166 156.177C123.699 156.603 123.238 157.162 122.781 157.853C122.224 158.737 121.772 159.717 121.425 160.795C121.287 161.223 121.162 161.807 121.052 162.546C120.941 163.27 120.899 163.945 120.925 164.569C120.951 165.209 121.058 165.721 121.246 166.104C121.449 166.471 121.753 166.646 122.159 166.629C122.487 166.616 122.864 166.467 123.29 166.184C124.464 165.431 125.427 164.516 126.179 163.437C126.932 162.358 127.283 161.201 127.232 159.968ZM127.713 155.702C128.297 156.21 128.751 156.793 129.075 157.452C129.415 158.11 129.601 158.814 129.632 159.564C129.676 160.641 129.409 161.747 128.831 162.881C128.44 163.648 127.856 164.462 127.079 165.323C126.301 166.184 125.425 166.924 124.449 167.543C123.489 168.146 122.556 168.466 121.651 168.504C121.088 168.527 120.552 168.424 120.043 168.195C118.957 167.661 118.383 166.645 118.321 165.146C118.276 164.069 118.47 162.88 118.901 161.58C119.331 160.264 119.801 159.15 120.311 158.237C121.55 156.074 122.893 154.689 124.338 154.082C124.737 153.909 125.171 153.813 125.639 153.794C126.186 153.771 126.652 153.893 127.039 154.158C127.424 154.408 127.66 154.821 127.747 155.396L127.751 155.489C127.753 155.536 127.74 155.607 127.713 155.702ZM132.822 156.828C132.847 157.421 133.017 157.938 133.332 158.378C133.663 158.818 134.053 159.185 134.504 159.479C134.954 159.773 135.562 160.116 136.329 160.506C137.368 161.042 138.162 161.533 138.712 161.979C139.278 162.425 139.662 162.996 139.862 163.691C139.938 164.001 139.978 164.226 139.984 164.366C140.029 165.459 139.484 166.272 138.349 166.803C137.213 167.32 135.911 167.608 134.444 167.669C133.866 167.693 133.357 167.675 132.917 167.615C132.398 167.543 131.852 167.385 131.279 167.143C130.72 166.885 130.246 166.568 129.855 166.193C129.479 165.802 129.283 165.396 129.265 164.974C129.238 164.319 129.721 163.697 130.713 163.108C130.988 162.956 131.258 162.874 131.524 162.863C131.773 162.853 131.979 162.899 132.139 163.002C132.316 163.104 132.407 163.233 132.413 163.39C132.425 163.671 132.21 163.953 131.768 164.237C131.676 164.288 131.633 164.36 131.636 164.454C131.644 164.641 131.802 164.862 132.109 165.115C132.417 165.368 132.659 165.538 132.834 165.624C133.314 165.87 134.07 166.003 135.103 166.023C135.228 166.033 135.447 166.032 135.76 166.019C136.322 165.996 136.771 165.884 137.106 165.682C137.442 165.48 137.576 165.131 137.509 164.633C137.418 163.964 136.708 163.235 135.377 162.446L134.464 161.921C133.631 161.455 132.942 161.045 132.396 160.693C131.864 160.324 131.4 159.881 131.003 159.366C130.606 158.835 130.394 158.234 130.366 157.563C130.348 157.141 130.409 156.716 130.548 156.288C130.849 155.259 131.457 154.452 132.371 153.867C133.285 153.266 134.28 152.943 135.357 152.899C136.466 152.853 137.406 153.096 138.179 153.627C138.967 154.157 139.383 154.937 139.425 155.968C139.439 156.296 139.407 156.649 139.328 157.027C139.278 157.311 139.053 157.563 138.656 157.783C138.258 158.002 137.88 158.12 137.521 158.134C137.302 158.144 137.129 158.104 137 158.015C136.887 157.926 136.858 157.794 136.913 157.62C136.993 157.288 137.027 156.959 137.013 156.631C136.992 156.115 136.841 155.684 136.561 155.336C136.28 154.988 135.88 154.754 135.359 154.635C135.075 154.584 134.863 154.561 134.722 154.567C134.16 154.591 133.693 154.813 133.319 155.235C132.961 155.641 132.795 156.172 132.822 156.828Z" fill="#EEF2E9"/>
</svg>
